<svg xmlns="http://www.w3.org/2000/svg" version="1" viewBox="0 0 72 87"><path d="M60 63c6-8 12-26 11-40 0-3-2-7-4-9-4-5-9-8-14-12-1-1-5-2-7-1L26 8c-9 4-15 11-16 21l2 4h1l-1 2-4 4-3 9C1 58 1 79 3 84c2 2 4 3 8 3 6 0 12-2 18-4 9-2 25-13 31-20z"/><path fill="#665FBE" d="M65 26c-1 11-4 22-11 31L44 70l-1 1v-2l5-12v-7l1-2 8-5c3-2 2-4-1-7-6-3-12-6-19-4h-1v-5l-5 1-3 4-2 1c-3-3-7-2-10-1l-2 1v-2c4-12 13-18 24-22l4-1c9-3 15-1 20 8 2 3 2 7 3 10z"/><path fill="#FFF" d="M20 64c-4 1-8 1-11-2l-1-2 1-5c2-7 2-8 9-5v2c0 1-2 3-1 4 1 2 3 1 5 0l1-1c4 0 2-7 8-5l11 1v2l-8 17c-2 3-5 5-8 6l-15 4-3-2-1-11v-1l1 1c2 3 6 4 10 3l8-1 3-1-3-3-6-1zm15-19c-1 0-5-1-3-5 3-4 13-3 16-1v2l-13 4zm-12-8 2 3c0 2-2 5-3 5-3-1-7 1-8-4-1-2 4-4 9-4z"/></svg>