<svg xmlns="http://www.w3.org/2000/svg" version="1" viewBox="0 0 520 515"><path d="M257 333c3 5 0 5-3 5-11 1-22 2-33-2-4-2-4-1-6 2l-13 20v3c4 13 7 26 3 40-5 13-11 24-19 35-5 7-9 14-10 23a4503 4503 0 0 1-3 15l-15 4h-2c-11-1-27 8-31 8h-10l-6-1-2-3 2-3 13-8 4-4c4-5 9-9 15-10 10-2 14-7 15-17l2-26 5-22 6-23v-3l-3-13c-2-5 0-9 1-14 3-7 3-7-4-10-7-2-14-6-20-6-21-2-38 5-50 22-5 8-9 17-11 26l-2 2c-2 0-4-2-4-3l2-15 1-25v-10c-1-16 0-33 2-49 2-18 3-37 6-55 2-16 6-32 10-48s12-29 21-42l15-21c7-8 14-16 24-22 5-4 11-8 18-9 12-1 23 2 32 9l16 14 2 5 1 1 1-1c-2-11 0-21 3-30l3-9 5-4 1-2h-2l-2-4c1-10 7-18 17-22l20-6c2-1 5 0 7 1l14 11c2 3 3 6 3 10 1 14-2 28-11 39v3c4 4 9 4 13 2l27-8 23-6h4c10 3 20 8 26 18l2 7c-2 7 2 14 5 21 7 14 14 27 20 42 4 12 7 24 9 37 3 23 7 46 15 68 2 6 7 9 12 11 3 2 4 3 4 6l-3 2c-6 2-12 1-19 0-3-1-6-2-8-5-4-5-11-6-17-2-6 3-10 8-15 12-12 13-27 24-44 30-10 4-20 7-30 3l-1 1-1 5c1 3-1 5 4 6l2 8c0 5-2 9-3 13v1c5 4 6 9 7 14l11 40 7 34c0 5 2 8 6 10l18 7 6 3 17 15 3 3v3l-2 1-28-2-3-1c-6-4-12-6-19-5-7 0-14 0-19-6-2-2-2-5-3-7l-3-18-7-20c-3-10-9-17-16-25-6-6-11-13-13-21s-2-12 5-17l1-2c-4-6-5-11-5-18 1-1 0-3-1-4l-15-12z"/><path fill="#423666" d="M303 224c-2-7 3-7 6-8l34-10c9-2 16-7 23-14 5-7 3-18-1-22-3-3-3-4-2-7 2-9-2-16-6-23-6-10-16-16-28-17l-2-2c-1-7-3-13-10-17v-1c14-1 27-7 41-5 7 1 10 6 13 12l19 40c13 23 16 47 19 72 3 18 7 36 15 52l8 8v2h-1c-4-2-10-1-14-6-5-7-16-7-25-1l-15 13c-9 10-21 18-34 24-8 4-17 7-26 8l-9-1-1-2c-1-10-1-21-3-30-1-8-5-14-8-21l-12-25c-3-6-5-11-5-17v-1l11 5c4 1 8 1 11-2l2-4zM85 337c-1-29 1-57 5-86l6-52c4-20 9-40 19-58a91 91 0 0 1 45-39c10-3 20-5 30-4h2l-2 1c-11 3-21 7-29 16-1 9-8 6-13 8-10 2-20 5-26 15-3 4-4 9-1 14l1 3c0 12 6 20 14 28 8 7 16 9 25 10 10 2 20 6 28 12l4 6 8 10v8l-13 18c-5 9-7 19-9 29a173 173 0 0 0-3 45c-1 3-3 3-5 2l-15-5c-12-4-23-4-35-1-15 3-26 12-34 24l-2 2v-6z"/><path fill="#665FBE" d="m214 102 10 4 1 1c4-3 5 1 8 2 4 2 9 3 14 0l9-5 7-4 4 2c5 4 12 4 18 4l16-1c8-1 18 8 20 16l-1 1-3 3 3 4 11 2c12 1 18 8 23 17 3 6 4 11 4 17v3c5 2 3 7 4 11s-2 8-5 10l-12 8-2-1-7-9v-3c2-3 4-6 2-10l-3-2h-1c-2-4-6-4-9-5-9-4-14-13-14-23v-6c1-3-2-4-4-5l-1 1c-1 2-2 5-4 6-9 6-18 10-29 8h-3c-2 0-3 1-3 2 0 2-1 5 3 5 12 2 23 0 34-7l1 1a267 267 0 0 1 4 16c-2 10-7 18-16 24l-15 12-6 10c-1 1-1 2-3 1l-9-2-4-2c-3-4-6-5-10-5h-14l-2 1-1 2c-1 3 0 8-6 6h-11c6-14 1-26-8-36-4-6-5-12-4-19l2-1h16l2-3c-1-2-2-4-4-4l-20-1-10-3v-2c1-4 4-7 6-11l-1-3-5 1-8 14 2 5v2l-6 2-7 7 3 4 1 1c-3 3-2 6-2 9 0 6 0 6-6 7-2 1-4 1-5 3-3 2-5 1-8 1-8-3-22-15-22-28l-2-4-1-2c1-5 2-10 6-13 8-6 17-11 27-12h6l1-1 1-5c5-7 13-10 20-12 9-3 18-4 28-6zm85 220 1 15 2 7c2 0 3 1 3 4l-1 10 2 4v3l9 28 11 53 1 11 1 3 3-1c1-1 2-2 3 1l5 6 19 7 1 1 12 10v1h-1c-6-1-12-2-18-5-7-3-14-4-22-4h-7c-5-1-7-3-6-7 1-9-2-18-5-27l-2-6c-2-15-11-25-21-36-4-4-7-10-10-15-3-6 0-10 6-13 3-2 5-6 4-9l-4-10c-1-3-2-3-5-3v-1c3-5-1-8-4-11l-6-4c-12-9-19-20-20-34-1-7-3-13 0-19 1-5 4-9 6-13 5-9 12-15 21-21l2 1c5 13 12 27 16 40 3 7 2 15 3 23v10l1 1zM122 480l13-12 17-8c8-4 12-10 12-19l2-25 4-21 6-25c1-2 3-5-1-7-1-8-4-15 1-23l8-13v-11c-1-13-2-27 1-40 3-11 8-20 16-29 2-2 4 0 4 2l13 28 6 15c0 6 0 13-3 18-2 7-7 14-11 21l-10 18-6 10 2 4 1 3c2 10 4 20 0 30-4 12-10 24-18 34-7 11-12 22-11 35 0 3-1 3-3 4-14 4-31 4-43 11zM290 50c-1 11-4 22-11 31l-10 13h-1l1-1 5-12-1-7 1-2 8-5c3-3 3-5-1-7-6-3-12-6-19-5h-1v-4h-5l-3 5-2 1c-3-3-7-2-10-1l-2 1 1-2c3-13 12-18 24-22l3-1c9-3 15-1 20 8 2 3 2 6 3 10z"/><path fill="#423666" d="M235 291c7 0 7 0 8 7l4 14 6 15c2 4 3 4-2 4l-29-1c-1 0-2-1-1-2 8-11 11-22 10-35 0-3 3-2 4-2z"/><path fill="#FFF" d="M245 88c-4 1-8 1-11-2l-1-2 1-6c2-7 2-7 9-4v2l-1 3c1 2 3 2 5 0h1c4-1 2-8 8-5l11 1v1l-8 18c-2 3-5 4-8 5l-15 4c-1 1-3-1-3-2l-1-10v-1l1 1c2 3 6 4 10 3l8-1 3-2-3-2-6-1z"/><path fill="#423666" d="m331 176-1 2c-4 4-8 8-13 10l-25 12-6 4-2 1 1-1 12-9c8-6 15-12 17-23 1-2 1-3 3-1l13 5h1zm-140-24 2 4c-1 8 0 15 4 22l1 2-2-1-16-12c-2-1-3-4-6-3v-2l17-10z"/><path fill="#404040" d="M242 219h-4c-6 0-8-4-4-9l3-2h10l2 2c0 3-1 6-3 8l-4 1z"/><path fill="#FFF" d="M260 68c-1 0-5 0-3-4 3-4 13-3 16-2v2l-13 4zm-12-8 2 4c0 2-2 4-3 4-3 0-7 1-8-3-1-2 4-5 9-5z"/><path fill="#404040" d="M272 230h-3l-13-4-2-1 3-2 13 4 2 3zm-48-6-6 1h-1l1-1c3-2 8-3 11-1v1l-1 1h-4v-1zm34-8 9 1 1 2h-1l-13-2h-1l1-1h4zm-51 6 4-2h1c-2 2 1 5-2 6l-3-4z"/><path fill="#FFF" d="M220 193c-3-1-6 0-6-3l1-7 9-28 5-24 2-3c8-1 16-3 25-3 6-1 13 3 15 9 1 5-2 13-8 16-3 2-4 2-1 5 4 3 7 7 9 12 4 10 1 15-10 22-8 5-17 6-26 6l-15-2z"/><path fill="#665FBE" d="m251 157 10 3c7 4 7 13 1 18-8 7-18 9-28 9h-9c-2 0-3-1-2-4l7-21 3-3 18-2zm-9-8c-8 0-8 0-7-5l2-9 1-2 22-2c5 0 7 4 4 8-6 9-15 9-22 10z"/></svg>