<svg xmlns="http://www.w3.org/2000/svg" height="1em" baseProfile="tiny" viewBox="0 0 71.6 87.4"><path d="M59.5 62.6c6.4-8.1 12.4-25.2 11.3-39.8-.2-3.2-1.3-7-3.4-9.2-4.1-4.3-8.9-7.9-13.9-11.2-1.9-1.3-5-2-7.2-1.4-6.8 1.8-13.6 3.9-20.1 6.6-9.5 4-15.4 11.2-16.4 21.7-.1 1.2 1.3 2.6 2.1 3.8.2.3.9.2 1.4.3-.3.5-.6 1.1-1 1.5-1.4 1.6-3.3 2.9-4.3 4.6-1.4 2.6-2.2 5.5-3.2 8.2C1.3 57.5.6 79.3 3.2 83.6c1.7 2.7 4.3 3 7.4 3.1 6.6.3 12.3-1.4 18.5-3.4 8.8-2.7 24.7-13.4 30.4-20.7z"/><path fill="#665FBE" d="M64.8 25.9c-.9 11.4-3.9 21.9-10.7 31-3.3 4.4-6.6 8.8-10 13.1-.3.4-.8.5-1.2.8.2-.5.3-1 .5-1.5 1.7-4.1 3.8-8.1 5-12.4.6-2-.3-4.4-.4-6.7 0-.7.5-1.6 1.1-2 2.5-1.7 5.2-3.1 7.6-5 3.1-2.4 2.8-4.6-.9-6.8-5.9-3.5-12.1-5.9-19.2-4.6-.3.1-.7-.1-1-.1.1-.4.3-.7.3-1.1l.3-3.3c-1.7 0-3.7-.5-4.9.3-1.5 1-2.1 3.1-3.3 4.5-.4.5-1.7 1-1.9.8-3.4-2.9-6.9-1.4-10.4-.4-.6.2-1.1.3-1.7.4.1-.6.2-1.2.4-1.8 3.4-12.4 12.9-18 24.1-21.7 1.1-.4 2.1-.7 3.2-1.1 9.6-3 15.4-1.1 20.4 7.6 1.7 2.9 1.9 6.7 2.7 10z"/><path fill="#FFF" d="M20 64.2c-3.7 1.1-7.6 1.2-10.9-1.8-.7-.6-1.3-1.7-1.3-2.5.2-1.8.8-3.6 1.2-5.3 1.8-6.9 2.4-7.2 8.7-4.2.3.1.3 1.1.2 1.6-.3 1.3-1.4 2.9-1 3.6 1.3 2.2 3.2 1.3 4.9.2.5-.3.9-.8 1.4-.8 3.4-.3 2.1-7.3 7.8-5 3.1 1.3 7 .7 10.6 1.1.2 0 .7 1 .6 1.4-2.7 6-5.1 12.2-8.6 17.8-1.5 2.5-5 4.3-8 5.4-4.8 1.8-9.9 2.8-14.9 3.9-.8.2-2.7-1.1-2.8-2-.6-3.6-.8-7.1-1.1-10.6 0-.4.3-.8.4-1.2.3.2.6.5.8.8 2.3 3.3 5.8 4.2 9.5 3.9 2.9-.2 5.8-1 8.7-1.6.9-.2 1.7-.9 2.5-1.4-.9-.8-1.6-2-2.6-2.3-1.8-.6-3.8-.7-6.1-1zM35 44.7c-1.4 0-4.9-.9-2.9-4.8 3.2-4 13.2-3 15.9-1.3.3.2.1 2-.3 2.1-4 1.8-9.4 3.9-12.7 4zM22.9 36.5c.5 1 1.9 2.5 1.8 3.8-.1 1.6-1.9 4.4-2.5 4.3-3-.7-7.3 1.2-8.6-3.3-.5-1.9 4.4-4.6 9.3-4.8z"/></svg>