<?xml version="1.0" encoding="utf-8"?>
<!-- Generator: Adobe Illustrator 22.0.1, SVG Export Plug-In . SVG Version: 6.00 Build 0)  -->
<svg version="1.1" baseProfile="tiny" id="Layer_1" xmlns="http://www.w3.org/2000/svg" xmlns:xlink="http://www.w3.org/1999/xlink"
	 height="1em" x="0px" y="0px" viewBox="0 0 375.7 474.5" xml:space="preserve">
<g>
	<path d="M184.1,312.4c3.8,5.1,0.2,4.5-2.3,4.8c-11.3,1.4-22.6,2.2-33.2-2.3c-3.7-1.6-4.5-0.5-6.1,2.1c-4.1,6.7-8.5,13.3-12.7,20
		c-0.5,0.8-0.5,2.1-0.2,3c4.2,13.1,7,26.3,2.5,40c-4.3,12.9-10.8,24.5-18.7,35.4c-5,6.8-8.8,14.1-10,22.5c-0.7,4.7-1.4,9.4-2.1,14
		c-0.1,0.5-0.6,1.2-1,1.3c-5,1.5-10.1,2.9-15.2,4.3c-0.4,0.1-0.8,0.2-1.2,0.2c-11-1.2-27.5,7.7-31,7.9c-3.4,0.2-6.9,0-10.3-0.3
		c-2-0.2-4.1-0.6-5.9-1.5c-1-0.5-2.1-2-2.1-3c0-0.9,1.4-2,2.4-2.6c7.1-4.2,5.3-3.2,12.4-7.5c1.5-0.9,2.6-2.5,3.7-3.9
		c4.2-5.2,9.2-9.3,15.9-10.8c9.2-2.1,13.9-7,14.8-16.4c0.9-8.9,1-17.9,2.2-26.7c1-7.2,2.9-14.4,4.6-21.5c1.9-7.9,4.2-15.7,6.2-23.6
		c0.2-0.8,0.2-1.8,0-2.6c-1.1-4.2-2.1-8.5-3.6-12.5c-2-5.3,0.2-9.8,1.7-14.6c2.2-7.1,2.2-7.2-4.8-9.6c-6.6-2.3-13.1-5.9-19.9-6.4
		c-20.3-1.6-37.2,5.3-49.3,22.5c-5.5,7.9-8.9,16.6-11.1,25.9c-0.2,0.8-2.1,2.1-2.7,1.9c-1.4-0.5-3.7-1.9-3.6-2.8
		c0.3-5,1.6-9.9,1.9-14.9c0.5-8.5,0.5-17,0.7-25.5c0.1-3.2,0.1-6.4,0-9.6c-0.4-16.5,0.3-33,2.4-49.4c2.3-18.1,3.3-36.4,6-54.4
		c2.4-16.4,5.6-32.7,9.9-48.7c4.1-15.3,11.7-29.2,20.8-42.1c5-7,9.8-14.1,15.3-20.6C67.6,76,74.9,67.9,84.3,62
		c5.7-3.6,11-7.8,18-8.5c11.9-1.1,23.1,1.5,32.8,8.6c5.5,4,10.2,9.1,15.1,13.9c1.2,1.2,1.4,3.4,2.2,5.1c0.3,0.6,1,1,1.6,1.5
		c0.1-0.6,0.4-1.2,0.4-1.8c-1.7-10.4-0.1-20.3,3.4-30.1c1-2.8,1.8-5.7,3.2-8.2c1-1.8,2.8-3.1,4.3-4.6c0.4-0.4,0.6-1,1-1.5
		c-0.5-0.1-1.2,0-1.4-0.3c-0.8-1.2-2.2-2.6-2.1-3.8c1-10.5,6.9-17.7,16.4-21.7c6.5-2.7,13.3-4.9,20.1-6.6c2.2-0.6,5.3,0.1,7.2,1.4
		c4.9,3.3,9.8,6.9,13.9,11.2c2.1,2.2,3.1,6,3.4,9.2c1.1,14.6-2.2,28-11.4,39.8c-0.4,0.5-0.1,2.2,0.4,2.7c3.8,3.7,8.4,3.5,13,2.1
		c9.1-2.7,18.1-5.5,27.2-8.2c7.4-2.2,14.8-4.4,22.2-6.4c1.5-0.4,3.4-0.3,4.9,0.2c10.1,3.4,19.7,7.8,25.2,17.7c1.2,2.1,2.3,4.8,2,7
		c-1.1,7.9,2.1,14.5,5.3,21.2c6.7,14,14.2,27.6,19.7,42c4.5,12,7.8,24.7,9.5,37.4c3,23,7.1,45.7,14.8,67.6
		c2.2,6.3,7.1,9.1,12.5,11.6c2.5,1.2,3.6,2.9,3.6,5.2c0,0.9-1.8,2.1-3.1,2.5c-6.2,2.1-12.3,1.3-18.5-0.1c-3.5-0.8-5.9-2.3-8-5
		c-4.1-5.1-11-6.3-17.7-2c-5.2,3.4-9.9,7.8-14.2,12.3c-12.8,13.2-27.4,23.5-44.5,30.1c-9.7,3.8-19.9,6.8-30.4,2.3
		c-0.2-0.1-1,0.7-1,1.1c-0.2,1.9-0.2,3.8-0.2,5.7c0.1,2.4-1.1,4.9,3.1,5.8c1.4,0.3,2.7,5.2,2.5,7.8c-0.4,4.5-1.9,8.8-3,13.2
		c-0.1,0.4-0.2,1,0,1.1c5,3.2,5.9,8.7,7.3,13.6c3.7,13.1,7,26.3,10.2,39.6c2.7,11.3,5.6,22.7,7,34.2c0.6,5.1,2.5,8.2,6.4,10
		c5.7,2.8,11.8,4.8,17.6,7.2c2.2,0.9,4.4,1.9,6.2,3.4c5.9,4.8,11.7,9.9,17.5,14.9c0.9,0.8,2,1.5,2.5,2.5c0.5,1,0.6,2.3,0.4,3.4
		c-0.1,0.4-1.6,0.7-2.5,0.7c-9.2-0.6-18.4-1.2-27.5-1.9c-1-0.1-2-0.8-3-1.3c-6.1-3.2-12.3-5.4-19.4-4.9c-7,0.5-14.2,0.5-19-5.9
		c-1.4-1.9-2.1-4.5-2.6-6.8c-1.3-5.9-2.1-11.9-3.6-17.8c-1.8-6.9-3.8-13.7-6.1-20.4c-3.3-9.5-9.6-17.2-16.2-24.6
		c-5.8-6.5-11.3-13.2-13.6-21.7c-1.9-7.2-1.8-11.6,5.9-17c0.3-0.2,0.4-1.2,0.1-1.6c-3.6-5.5-5-11.4-4.2-18c0.2-1.4-0.6-3.4-1.7-4.3
		C194.2,320.4,189.5,316.8,184.1,312.4z"/>
	<path fill="#423666" d="M230.2,203.1c-1.8-6.6,3.3-6.7,6.2-7.7c11.1-3.6,22.4-6.7,33.7-9.8c9.1-2.5,16.9-7,23-14.3
		c5.4-6.4,3.3-17.6-0.8-21.9c-2.6-2.6-2.2-4-1.5-6.9c2-8.6-1.9-15.9-6.2-22.9c-6.5-10.4-16-16.1-28.2-17.3c-0.6-0.1-1.4-0.9-1.5-1.5
		c-1.3-7-3.8-13.2-10.3-17c-0.2-0.1,0-1,0-1c13.6-1.5,26.8-7.2,40.9-5c7,1.1,10.5,5.7,13.2,11.5c6.4,13.6,11.8,27.6,19.3,40.5
		c13.1,22.4,15.8,47,19.1,71.8c2.4,17.8,6.2,35.4,14.3,51.7c1.7,3.3,5.1,5.7,7.8,8.6c0.3,0.3,0.5,0.7,0.8,1
		c-0.4,0.1-0.8,0.3-1.1,0.2c-4.8-1.2-10-0.4-13.9-5.6c-5.2-7.1-16.6-7.4-25.5-1.2c-5.2,3.7-10.1,8.1-14.5,12.8
		c-9.9,10.7-21.8,18.3-34.8,24.6c-8.1,3.9-16.4,6.8-25.4,7.2c-3,0.1-6-0.3-9-0.7c-0.4-0.1-0.9-1.4-0.9-2.2
		c-1.1-10.1-1.2-20.3-3.3-30.1c-1.5-7.2-5.5-13.9-8.5-20.7c-3.7-8.5-7.3-17-11.4-25.2c-2.7-5.3-5.4-10.4-5.6-16.5
		c0-0.4,0.1-0.8,0.1-1.2c0.2,0.1,0.5,0.3,0.7,0.4c3.6,1.5,7,3.4,10.7,4.4c3.9,1,8.1,1.3,11.3-2.1C229.8,205.9,229.9,204,230.2,203.1
		z"/>
	<path fill="#423666" d="M12.4,316.4c-0.6-28.8,1.2-57.4,5.1-86c2.4-17.3,3.8-34.8,6.6-52.1c3.3-20.4,8.7-40.2,19-58.5
		c4.8-8.6,11.2-15.5,18.3-22.1c7.8-7.2,16.5-12.5,26.3-16.2c9.6-3.6,19.5-4.8,29.7-4.4c0.9,0,1.7,0.4,2.5,0.6
		c-0.8,0.3-1.5,0.6-2.3,0.8c-11,2.5-21.3,6.5-28.7,15.7c-0.1,0.1-0.1,0.1-0.1,0.2c-1,8.5-8.1,6.2-13.2,7.5c-10,2.5-20.1,5.4-26,14.9
		c-2.8,4.5-4.1,9.5-1,14.7c0.5,0.8,0.5,2,0.5,3c0.6,11.7,6.7,20.2,14.9,27.9c7.1,6.7,15.5,8.8,24.6,10.2c10.2,1.6,19.6,5.7,27.8,12
		c1.9,1.5,3,4,4.6,6c2.4,3.1,5.4,5.9,7.1,9.4c1.1,2.2,1.4,5.9,0.2,7.9c-3.8,6.4-8.8,11.9-12.5,18.3c-5.2,8.9-7.4,19-9.2,29.1
		c-2.5,13.4-3.9,27-3.2,40.7c0.1,1.4,0.1,2.9-0.2,4.3c-0.6,2.9-2.5,3.3-5,2.3c-4.9-1.8-9.9-3.8-14.9-5.4
		c-11.4-3.7-22.8-3.5-34.4-0.9c-14.9,3.4-25.9,12-34.6,24c-0.5,0.6-1,1.2-1.5,1.8c-0.1-0.8-0.4-1.6-0.4-2.4
		C12.4,318.7,12.4,317.6,12.4,316.4z"/>
	<path fill="#665FBE" d="M141.4,81.5c3,1.2,6.4,2.5,9.8,3.9c0.5,0.2,1.3,0.7,1.5,0.5c3.4-2.5,5.1,1.1,7.4,2c4.8,2,9.7,2.9,14.6,0.7
		c3.1-1.4,5.9-3.3,8.9-5c2.4-1.4,4.7-3,7.3-4c1-0.4,2.8,0.7,3.8,1.6c5.2,4.3,11.5,3.6,17.4,3.9c5.5,0.3,11-0.3,16.5-0.9
		c7.9-0.7,18.4,8,19.8,16.5c0,0.2-0.6,0.6-0.9,0.9c-1,0.8-2.1,1.6-3.1,2.4c1.2,1.5,2.1,4,3.6,4.5c3.5,1,7.2,1.2,10.9,1.6
		c11.4,1.1,18.1,8.1,23.1,17.6c2.7,5.3,3.9,10.8,3.2,16.7c-0.1,0.9-0.1,2.4,0.4,2.7c4.9,2.4,3.4,7.2,4,10.9c0.6,4.5-2.1,8-5.5,10.6
		c-3.7,2.8-7.8,5.2-11.7,7.6c-0.4,0.3-1.8-0.4-2.3-1c-2.4-3-4.7-6.1-6.8-9.3c-0.4-0.6-0.4-1.9,0-2.5c1.9-3,4.3-5.8,2.3-9.6
		c-0.5-1-2.1-1.5-3.2-2.2c-0.4-0.2-1.2-0.1-1.3-0.2c-1.1-4.4-5.4-4-8.4-5.3c-9.3-4.2-14.6-12.4-14-22.6c0.1-2.1,0.2-4.3,0.3-6.4
		c0.2-2.9-2-3.6-4.1-4.3c-0.2-0.1-0.7,0.6-1,1c-1.5,1.9-2.7,4.3-4.6,5.5c-8.5,5.7-17.5,10-28.2,8.3c-1.3-0.2-2.7-0.3-4-0.1
		c-1.1,0.3-2.9,1.1-2.9,1.8c-0.1,2.3-0.4,4.7,3.3,5.2c12.3,2,23.4-0.6,33.7-7.4c0.2-0.2,1.4,0.4,1.5,0.8c1.4,4.2,2.7,8.4,3.9,12.7
		c0.3,1.1,0.6,2.4,0.4,3.6c-1.9,10.2-7.8,17.7-16.1,23.7c-5.3,3.7-10.4,7.8-14.9,12.3c-2.6,2.6-4.2,6.3-6,9.7
		c-1,1.8-1.5,2.4-3.7,1.3c-2.8-1.3-6-1.5-9.1-2.2c-1.4-0.4-3.3-0.7-3.9-1.7c-2.2-3.6-5.8-4.6-9.4-5c-4.8-0.6-9.7-0.3-14.6-0.4
		c-0.5,0-1.2,0.6-1.5,1.2c-0.5,0.8-0.7,1.7-1,2.6c-1.1,2.8-0.2,7.2-6,5.2c-2.8-0.9-6.4,0.5-9.6,0.8c-0.4,0-1.1-0.7-1.1-0.8
		c5.2-13.8,0.4-25.2-8.4-35.7c-4.5-5.4-5.1-11.9-4.3-18.5c0.1-0.7,1.6-1.7,2.4-1.7c5.3-0.1,10.6,0.3,15.8,0.1c0.9,0,2.7-2.7,2.5-2.9
		c-1.2-1.7-2.8-4.2-4.5-4.3c-6.6-0.6-13.2-0.2-19.8-0.7c-3.3-0.2-6.6-1.5-9.8-2.5c-0.5-0.2-1.1-1.9-0.8-2.4c1.9-3.7,4.1-7.3,6-11.1
		c0.4-0.7,0-1.8-0.1-2.7c-1.8,0.1-4.5-0.5-5.1,0.4c-3.1,4.5-5.8,9.3-8.1,14.3c-0.5,1.1,1.4,3.2,2,4.9c0.2,0.6,0,1.9-0.4,2.1
		c-2,1-4.4,1.3-6.2,2.5c-2.4,1.7-4.6,3.8-6.4,6.1c-0.3,0.5,1.8,2.8,2.8,4.3c0.3,0.5,0.7,0.9,1,1.3c-3.2,2.4-2.1,6-2.2,9.1
		c-0.1,6.2,0,6.1-6.3,7c-1.7,0.3-3.6,1.2-4.7,2.5c-2.4,2.6-5,1.6-7.4,0.9c-8.5-2.3-22.2-15.1-22.9-27.3c-0.1-1.5-1.3-2.8-2-4.3
		c-0.3-0.6-0.9-1.3-0.8-1.8c0.9-5,2-9.9,6.3-13.3c8-6.2,16.7-10.9,27.1-11.7c1.8-0.1,3.6,0.3,5.4,0.3c0.4,0,1-0.6,1.1-1
		c0.5-1.9,0.4-4.2,1.4-5.6c5.1-6.8,12.6-10.1,20.3-12.3C122.7,84.2,131.7,83.2,141.4,81.5z"/>
	<path fill="#665FBE" d="M226.4,301c0.3,5.2,0.4,10.5,0.9,15.7c0.2,2.3,1.3,4.4,2,6.6c0,0.2,0.4,0.3,0.5,0.3
		c2.1-0.3,3.3,0.8,3.1,3.3c-0.3,3.3-1,6.6-1.1,10c0,1.5,1.1,2.9,1.5,4.5c0.3,1.1,0.1,2.3,0.4,3.3c2.8,9.3,6.2,18.4,8.5,27.9
		c4.3,17.5,8.1,35.1,11.8,52.7c0.8,3.5,0.6,7.3,0.9,10.9c0.1,1,0.4,2,0.7,3c1-0.3,2.1-0.5,3-1c1.5-0.8,2.1-1.5,3.1,0.9
		c0.9,2.5,2.9,5.2,5.2,6.3c5.9,2.8,12.3,4.8,18.4,7.1c0.5,0.2,1.1,0.3,1.5,0.6c3.9,3.4,7.8,6.8,11.7,10.2c0.2,0.2,0.3,0.5,0.4,0.8
		c-0.4,0.1-0.7,0.3-1.1,0.2c-6.1-1.5-12.4-2.4-18.2-4.8c-7.1-2.9-14.2-4.6-21.9-4.1c-2.4,0.2-4.8,0.1-7.2-0.3
		c-4.4-0.8-6.6-3.1-6.1-6.8c1.2-9.4-1.4-18-4.7-26.6c-0.8-2-1.5-4.1-1.9-6.2c-2.3-14.7-11.5-25.2-20.9-35.8
		c-4.1-4.7-7.5-10.1-10.5-15.6c-3-5.5,0.7-10,6.2-13c3.3-1.8,5.1-5.7,3.8-9.2c-1.2-3.1-2.2-6.3-3.3-9.5c-1.1-3-2-3.5-5.1-3.1
		c-0.2,0-0.9-0.9-0.8-1.1c3.1-5.1-1-7.9-3.7-10.9c-1.5-1.7-3.5-3-5.5-4.3c-12.1-8.2-19.2-19.2-20.5-34c-0.6-6.4-2.5-12.8-0.1-19.1
		c1.7-4.4,4-8.6,6.2-12.8c4.7-9,12.4-15,20.6-20.5c0.4-0.3,1.8-0.1,2,0.3c5.7,13.6,12,27,16.7,40.9c2.4,7,2.2,14.9,3,22.4
		c0.3,3.5,0.1,7,0.1,10.5C226.3,301,226.3,301,226.4,301z"/>
	<path fill="#665FBE" d="M49.3,459.5c3.5-3.8,9.5-9.2,13.6-12.1c5-3.5,10.7-6.2,16.4-8.4c8.6-3.4,12.4-9.6,12.9-18.4
		c0.5-8.3,0.5-16.6,1.5-24.9c0.8-7.3,2.5-14.5,4.1-21.6c1.8-8.2,4.1-16.2,5.9-24.4c0.6-2.6,2.5-5.7-1.2-7.8
		c-0.6-7.4-4.1-14.8,0.8-22.1c2.9-4.4,6-8.9,8-13.7c1.2-3.1,0.7-7,0.4-10.5c-1.2-13.5-1.7-27,1.3-40.3c2.5-11,8.1-20.4,15.5-28.8
		c2.3-2.6,3.8-0.3,4.6,1.5c4.3,9.5,8.4,19,12.5,28.6c2.1,5,5.1,9.9,5.6,15.1c0.6,5.9,0,12.4-2.1,17.9c-2.8,7.2-7.6,13.6-11.5,20.3
		c-3.4,6-6.8,12.1-10.2,18.1c-1.9,3.5-3.9,6.9-5.4,10.5c-0.4,0.9,0.7,2.4,1.2,3.6c0.5,1.2,1.3,2.3,1.6,3.6
		c1.8,9.9,3.8,19.8,0.3,29.8c-4.3,12.3-10.4,23.6-18.1,34.1c-7.6,10.4-12,21.9-11.6,35c0.1,2.3-0.9,2.6-2.9,3.3
		C79.1,452.3,61.5,451.9,49.3,459.5z"/>
	<path fill="#665FBE" d="M217.5,29c-0.9,11.4-3.9,21.9-10.7,31c-3.3,4.4-6.6,8.8-10,13.1c-0.3,0.4-0.8,0.5-1.2,0.8
		c0.2-0.5,0.3-1,0.5-1.5c1.7-4.1,3.8-8.1,5-12.4c0.6-2-0.3-4.4-0.4-6.7c0-0.7,0.5-1.6,1.1-2c2.5-1.7,5.2-3.1,7.6-5
		c3.1-2.4,2.8-4.6-0.9-6.8c-5.9-3.5-12.1-5.9-19.2-4.6c-0.3,0.1-0.7-0.1-1-0.1c0.1-0.4,0.3-0.7,0.3-1.1c0.1-1.1,0.2-2.2,0.3-3.3
		c-1.7,0-3.7-0.5-4.9,0.3c-1.5,1-2.1,3.1-3.3,4.5c-0.4,0.5-1.7,1-1.9,0.8c-3.4-2.9-6.9-1.4-10.4-0.4c-0.6,0.2-1.1,0.3-1.7,0.4
		c0.1-0.6,0.2-1.2,0.4-1.8c3.4-12.4,12.9-18,24.1-21.7c1.1-0.4,2.1-0.7,3.2-1.1c9.6-3,15.4-1.1,20.4,7.6
		C216.5,21.9,216.7,25.6,217.5,29z"/>
	<path fill="#423666" d="M162.9,270.1c6.5,0,6.7,0.6,7.8,6.9c0.9,5,2.7,9.9,4.4,14.7c1.8,4.9,3.7,9.8,5.9,14.5c2,4,2.2,4.1-2.1,4
		c-9.6-0.1-19.2-0.6-28.8-0.9c-1.8-0.1-2.4-0.6-1.1-2.4c7.3-10.2,10.2-21.8,9.8-34.3C158.6,268.8,161.3,270.5,162.9,270.1z"/>
	<path fill="#FFFFFF" d="M172.7,67.3c-3.7,1.1-7.6,1.2-10.9-1.8c-0.7-0.6-1.3-1.7-1.3-2.5c0.2-1.8,0.8-3.6,1.2-5.3
		c1.8-6.9,2.4-7.2,8.7-4.2c0.3,0.1,0.3,1.1,0.2,1.6c-0.3,1.3-1.4,2.9-1,3.6c1.3,2.2,3.2,1.3,4.9,0.2c0.5-0.3,0.9-0.8,1.4-0.8
		c3.4-0.3,2.1-7.3,7.8-5c3.1,1.3,7,0.7,10.6,1.1c0.2,0,0.7,1,0.6,1.4c-2.7,6-5.1,12.2-8.6,17.8c-1.5,2.5-5,4.3-8,5.4
		c-4.8,1.8-9.9,2.8-14.9,3.9c-0.8,0.2-2.7-1.1-2.8-2c-0.6-3.4-0.8-6.9-1.1-10.4c0-0.4,0.3-0.8,0.4-1.2c0.3,0.3,0.6,0.5,0.8,0.8
		c2.3,3.3,5.8,4.2,9.5,3.9c2.9-0.2,5.8-1,8.7-1.6c0.9-0.2,1.7-0.9,2.5-1.4c-0.9-0.8-1.6-2-2.6-2.3C177,67.7,175,67.6,172.7,67.3z"/>
	<path fill="#423666" d="M258.7,155.3c-0.5,0.7-0.8,1.2-1.1,1.6c-3.7,4.5-8,8.1-13.4,10.5c-8.4,3.6-16.7,7.6-24.9,11.6
		c-2.3,1.1-4.2,3.2-6.2,4.8c-0.3,0.3-0.7,0.4-1.1,0.6c0.2-0.4,0.3-0.9,0.6-1.1c4.1-3.1,8.1-6.2,12.2-9.1c8.1-5.8,15-12.4,16.9-22.8
		c0.4-2.2,0.9-2.6,3.2-1.3c3.8,2.1,8.2,3.3,12.3,4.8C257.7,155.1,258.1,155.2,258.7,155.3z"/>
	<path fill="#423666" d="M118.8,131c1,1.9,2.2,3.1,2.1,4.2c-0.7,7.8-0.5,15.4,3.9,22.4c0.3,0.4,0.4,1,0.6,1.4
		c-0.4-0.3-0.9-0.5-1.3-0.8c-5.5-4-11.1-7.9-16.6-11.9c-1.7-1.2-2.4-4-5.3-3.1c-0.1-0.6-0.6-1.7-0.4-1.9
		C107.1,138,112.5,134.8,118.8,131z"/>
	<path fill="#404040" d="M169.2,198.5c-1.2,0-2.4,0.1-3.6,0c-6.2-0.5-8-4.2-4.3-9.5c0.7-1,2.4-2,3.7-2c3.3-0.1,6.7,0.2,10,0.6
		c0.8,0.1,2.1,1.4,2,1.9c-0.7,2.9-1.5,5.9-2.9,8.3c-0.5,0.9-3.1,0.6-4.8,0.9C169.3,198.7,169.2,198.6,169.2,198.5z"/>
	<path fill="#FFFFFF" d="M187.7,47.8c-1.4,0-4.9-0.9-2.9-4.8c3.2-4,13.2-3,15.9-1.3c0.3,0.2,0.1,2-0.3,2.1
		C196.4,45.6,191,47.7,187.7,47.8z"/>
	<path fill="#FFFFFF" d="M175.6,39.5c0.5,1,1.9,2.5,1.8,3.8c-0.1,1.6-1.9,4.4-2.5,4.3c-3-0.7-7.3,1.2-8.6-3.3
		C165.8,42.5,170.7,39.8,175.6,39.5z"/>
	<path fill="#404040" d="M199.4,209.5c-1.2,0.1-1.9,0.3-2.5,0.1c-4.4-1.2-8.7-2.5-13.1-3.8c-0.9-0.3-1.7-0.6-2.6-0.9
		c1.1-0.7,2.3-2.3,3.2-2.1c4.6,0.8,9.1,2,13.6,3.3C198.5,206.3,198.7,207.6,199.4,209.5z"/>
	<path fill="#404040" d="M151.9,203.7c-1.9,0.2-3.8,0.4-5.7,0.6c-0.4,0-0.7-0.1-1.1-0.2c0.2-0.2,0.3-0.5,0.5-0.7
		c2.7-2.5,7.7-2.8,10.6-0.7c0.3,0.2,0.6,0.6,0.9,0.9c-0.4,0.1-0.9,0.2-1.3,0.2c-1.3,0-2.5,0-3.8,0
		C151.9,203.8,151.9,203.8,151.9,203.7z"/>
	<path fill="#404040" d="M185.7,195.1c2.1,0.3,5.4,0.8,8.5,1.4c0.7,0.1,1.2,1.2,1.8,1.8c-0.6-0.1-1.3-0.1-1.9-0.2
		c-4.1-0.6-8.3-1.2-12.4-1.9c-0.5-0.1-1-0.2-1.5-0.3c0.5-0.2,1-0.7,1.5-0.7C182.6,195,183.6,195.1,185.7,195.1z"/>
	<path fill="#404040" d="M134.9,201.5c1.8-1,3-1.7,4.1-2.3c0,0,0.5,0.6,0.4,0.6c-1.5,1.5,1.5,4.8-2,5.2
		C137,205.1,136.2,203.4,134.9,201.5z"/>
	<path fill="#FFFFFF" d="M147.2,171.9c-2.1-0.5-5.5,0.9-5.8-2.6c-0.2-2.1,0.8-4.4,1.4-6.5c2.9-9.4,6.3-18.7,8.7-28.3
		c2.1-8,3.1-16.3,4.7-24.4c0.2-1,1.6-2.4,2.6-2.6c8.1-1.3,16.2-2.6,24.4-3.5c6.6-0.8,13.1,3.4,15.2,9.4c1.7,4.8-2.2,12.8-8.1,16.3
		c-2.4,1.4-4.1,1.5-0.6,4.3c3.8,3,7.2,7.5,9,12c4,10.1,1,15.3-10.1,22.1c-7.8,4.8-16.6,6.5-25.8,5.8
		C162.8,174.2,152.3,173,147.2,171.9z"/>
	<path fill="#665FBE" d="M178.9,136.6c2,0.5,6.2,0.8,9.6,2.6c7.3,3.8,7.6,12.7,1.4,18c-8.2,7.2-18,8.7-28.4,8.8
		c-2.8,0-5.6,0.1-8.4-0.1c-2.2-0.1-3.2-0.9-2.2-3.6c2.6-6.9,4.7-14.1,7.2-21c0.4-1.1,1.7-2.4,2.8-2.6
		C166.2,137.9,171.5,137.5,178.9,136.6z"/>
	<path fill="#665FBE" d="M170,128.3c-8.3,0.3-8.2,0.3-7.2-5.5c0.5-3,0.9-6,1.6-8.9c0.1-0.7,0.9-1.7,1.5-1.7
		c7.3-0.7,14.7-1.8,22.1-1.8c5.1,0,6.3,3.8,3.4,8.2C185.5,127.1,176.4,127.4,170,128.3z"/>
</g>
</svg>
