<?xml version="1.0" encoding="utf-8"?>
<!-- Generator: Adobe Illustrator 22.0.1, SVG Export Plug-In . SVG Version: 6.00 Build 0)  -->
<svg version="1.1" id="Layer_1" xmlns="http://www.w3.org/2000/svg" xmlns:xlink="http://www.w3.org/1999/xlink" x="0px" y="0px"
	 viewBox="0 0 100 100" enable-background="new 0 0 100 100" xml:space="preserve">
<g id="layer1_1_" transform="translate(-90.4308,-407.19031)">
	<path id="path48_1_" fill="#FFFFFF" d="M169.9,443.7c-5.1,0-13,2.7-13,12.5s7.9,12.5,13,12.5c5.1,0,13-2.8,13-12.5
		C182.9,446.5,175,443.7,169.9,443.7z M108.2,444l0.9,2v20.8l5-3.5v-6.1h3c4.9,0,7.3,1.1,7.3,3.9c0,2.5-2,3.6-5.1,3.6h-4.7l-5.4,3.8
		h10.1c6.1,0,10.1-2.2,10.1-7.2c0-4.4-3.6-6.1-6.8-6.1c2.2,0,4.9-2,4.9-5.4c0-3.4-3.1-5.8-6.6-5.8h-10.3H108.2z M131.6,444l0.9,2
		v20.8l5-3.5v-15.5h3.4c1.4,0,8.5,0.3,8.5,8.5c0,9.3-8.5,8.5-8.5,8.5H138l-5.4,3.8h9.7c6.1,0,12.3-3.7,12.3-12.3
		c0-7.6-5.4-12.3-12.3-12.3H131.6z M169.9,447.4c3.1,0,7.9,1.9,7.9,8.9s-4.8,8.9-7.9,8.9s-7.9-2-7.9-8.9S166.8,447.4,169.9,447.4z
		 M114.1,447.8h5.2c1.4,0,3.2,0.3,3.2,2.8c0,2.4-2.6,3.4-4.5,3.4h-3.9V447.8z"/>
	<path id="path60" fill="#FFFFFF" d="M97.9,444v30.6l4.8-3.4V444H97.9z M103.7,472.3l-5.7,4h84.7v-4H103.7L103.7,472.3z"/>
</g>
</svg>
