<?xml version="1.0" encoding="utf-8"?>
<!-- Generator: Adobe Illustrator 22.0.1, SVG Export Plug-In . SVG Version: 6.00 Build 0)  -->
<svg version="1.1" id="Layer_1" xmlns="http://www.w3.org/2000/svg" xmlns:xlink="http://www.w3.org/1999/xlink" x="0px" y="0px"
	 viewBox="0 0 100 100" enable-background="new 0 0 100 100" xml:space="preserve">
<g>
	<g>
		<g transform="matrix(3.041 0 0 -3.041 -860.46 2130.838)">
			<path fill="#FFFFFF" d="M314.7,682.5c-0.3-0.3-0.5-0.4-0.9-0.5c-0.2,0-0.5-0.1-0.7,0c-0.3,0-0.6,0.1-0.9,0.3
				c-0.2,0.1-0.4,0.3-0.5,0.6c-0.1,0.2-0.2,0.4-0.2,0.6c0,0.3,0,0.5,0,0.8c0.2,0.6,0.6,1.1,1.3,1.2c0.4,0.1,0.7,0.1,1,0
				c0.2-0.1,0.5-0.2,0.7-0.4c0.1-0.1,0.2-0.2,0.3-0.4c0.1-0.2,0.1-0.3,0.1-0.5h-1.1c0,0.1-0.1,0.3-0.2,0.4c-0.2,0.1-0.4,0.1-0.5,0
				c-0.1-0.1-0.2-0.2-0.2-0.3c-0.1-0.3-0.1-0.6,0-0.9c0-0.1,0.1-0.2,0.2-0.3c0.1-0.1,0.3-0.2,0.4-0.1c0.1,0,0.2,0.1,0.2,0.1
				c0.1,0.1,0.1,0.2,0.1,0.3c0,0.1,0,0.1,0,0.2h1.2C315,683.1,314.9,682.7,314.7,682.5"/>
		</g>
	</g>
	<path fill="#FFFFFF" d="M82.5,45.3h3.8v-2.7h-3.8V45.3z M82.5,56.8h3.8V46.6h-3.8V56.8z M74.7,47.7c0.5-0.4,1-0.7,1.6-1
		c1-0.5,2-0.5,3-0.2c1.1,0.3,1.9,1.1,2.3,2.2c0.2,0.5,0.2,1,0.2,1.6v6.5h-4v-5.9c0-0.2,0-0.4-0.1-0.6c-0.1-0.3-0.3-0.6-0.7-0.7
		c-0.7-0.3-1.5,0-1.9,0.6c-0.2,0.3-0.2,0.6-0.2,0.9v5.6h-3.9V46.6h3.7L74.7,47.7 M29.9,47.7c0.5-0.4,1-0.7,1.6-1c1-0.5,2-0.5,3-0.2
		c1.1,0.3,1.9,1.1,2.3,2.2c0.2,0.5,0.2,1,0.2,1.6v6.5h-4v-5.9c0-0.2,0-0.4-0.1-0.6c-0.1-0.3-0.3-0.6-0.7-0.7c-0.7-0.3-1.5,0-1.9,0.6
		c-0.2,0.3-0.2,0.6-0.2,0.9v5.6h-3.9V46.6h3.7L29.9,47.7"/>
	<g>
		<g transform="matrix(3.041 0 0 -3.041 -860.46 2130.838)">
			<path fill="#FFFFFF" d="M300.6,683.3c0.1,0,0.2,0,0.3-0.1c0.1,0,0.1-0.1,0.1-0.2c0-0.1,0-0.2-0.1-0.2c-0.1-0.1-0.1-0.1-0.2-0.1
				c-0.1,0-0.2,0-0.3,0c-0.1,0-0.1,0-0.1,0.1c-0.1,0-0.1,0.1-0.1,0.2c0,0.1,0,0.1,0,0.2h-1.2v-0.1c0-0.1,0-0.2,0.1-0.3
				c0.1-0.2,0.1-0.3,0.3-0.4c0.2-0.2,0.3-0.3,0.6-0.3c0.5-0.1,0.9-0.2,1.3-0.1c0.2,0,0.4,0.1,0.6,0.2c0.1,0,0.2,0.1,0.2,0.2
				c0.3,0.3,0.5,0.7,0.3,1.1c0,0.1-0.1,0.3-0.3,0.4c-0.2,0.1-0.3,0.2-0.6,0.3c0,0-0.1,0-0.1,0c-0.2,0.1-0.5,0.1-0.8,0.2
				c-0.1,0-0.1,0-0.2,0c0,0-0.1,0-0.1,0c-0.1,0-0.1,0.1-0.1,0.2l0,0c0,0.1,0.1,0.1,0.2,0.1c0.1,0,0.3,0,0.4,0c0.1,0,0.2-0.2,0.2-0.3
				h1.2c0,0.1,0,0.3-0.1,0.4c0,0.1-0.1,0.2-0.2,0.3c-0.1,0.1-0.2,0.1-0.3,0.2c-0.1,0-0.2,0.1-0.3,0.1c-0.3,0-0.6,0.1-0.8,0
				c-0.2,0-0.3,0-0.5-0.1c-0.2,0-0.4-0.1-0.6-0.3c-0.1-0.1-0.3-0.3-0.3-0.4c0-0.1,0-0.2,0-0.2c0-0.1,0-0.3,0.1-0.4
				c0.1-0.2,0.3-0.4,0.5-0.5c0.1,0,0.2-0.1,0.4-0.1C300.1,683.3,300.4,683.3,300.6,683.3"/>
		</g>
	</g>
	<path fill="#FFFFFF" d="M9.4,52.4H6.8v-3.3h1.7c0.3,0,0.6,0,0.9,0c0.4,0,0.8-0.2,1.1-0.6c0.1-0.2,0.2-0.4,0.3-0.6
		c0-0.2,0-0.4,0-0.6c-0.1-0.7-0.7-1.3-1.4-1.3H6.8v10.8H2.5V42.6h7c0.3,0,0.5,0,0.8,0c1.9,0.1,3.4,1.1,4.2,2.8
		c0.4,0.9,0.6,1.7,0.4,2.7c-0.2,2-1.6,3.6-3.6,4.1C10.7,52.3,10.1,52.4,9.4,52.4 M65.9,46.4c-0.4-0.1-0.8-0.1-1.1-0.1
		c-0.4,0-0.7,0-1.1,0.1c-1.2,0.2-2.1,0.6-3,1.5c-0.9,0.9-1.4,1.9-1.5,3.2c-0.1,0.8,0,1.4,0.2,2.2c0.3,1.1,0.9,2,1.9,2.7
		c0.6,0.5,1.2,0.8,2,0.9c0.5,0.1,1,0.2,1.6,0.2c0.6,0,1,0,1.6-0.2c0.8-0.2,1.4-0.5,2-0.9l-2.2-2.4c-0.3,0.8-1.2,1.1-2,0.8
		c0,0,0,0,0,0c-0.4-0.2-0.6-0.4-0.8-0.8c-0.1-0.3-0.2-0.6-0.3-1c-0.1-0.7-0.1-1.3,0-2c0.1-0.4,0.2-0.7,0.4-1c0.4-0.7,1.4-0.9,2-0.4
		c0.2,0.1,0.3,0.3,0.4,0.4c0.2,0.3,0.3,0.6,0.4,1c0.1,0.7,0.2,1.3,0,2c0,0.3-0.1,0.7-0.3,1l2.2,2.4c0.9-0.7,1.5-1.6,1.9-2.7
		c0.2-0.7,0.3-1.4,0.2-2.2c-0.1-1.3-0.6-2.3-1.5-3.2C68,47.1,67,46.6,65.9,46.4"/>
	<path fill="#FFFFFF" d="M48.1,56c-0.1-0.8-0.1-1.6-0.1-2.4c0-1.1,0-2,0-3.1c0-0.6-0.1-1.1-0.2-1.7c-0.2-0.8-0.6-1.3-1.3-1.7
		c-0.4-0.2-0.8-0.4-1.2-0.5c-1.5-0.3-2.7-0.3-4.2-0.1c-0.4,0.1-0.8,0.2-1.1,0.3c-0.9,0.4-1.5,1-1.8,2c-0.1,0.3-0.1,0.7-0.1,1
		c0,0.1,0,0.1,0.1,0.2l3.4,0.1c0-0.2,0-0.4,0.1-0.6c0.1-0.3,0.3-0.5,0.6-0.6c0.4-0.2,0.9-0.2,1.4,0c0.3,0.1,0.5,0.3,0.6,0.6
		c0.1,0.2,0,0.4-0.1,0.5c-0.1,0.1-0.2,0.2-0.4,0.3c-0.1,0-0.2,0.1-0.3,0.1c-0.5,0.1-0.9,0.2-1.4,0.3c-0.4,0.1-0.7,0.1-1.1,0.2
		c-0.5,0.1-1,0.2-1.4,0.4c-0.4,0.1-0.8,0.4-1.2,0.7c-0.4,0.4-0.7,0.9-0.8,1.5c-0.1,0.4,0,0.8,0,1.2c0.2,1.1,1,1.8,2,2.1
		c1.2,0.3,2.2,0.3,3.3-0.2c0.5-0.2,1-0.5,1.3-1L43.9,54c-0.2,0.3-0.4,0.5-0.7,0.6c-0.3,0.1-0.5,0.2-0.8,0.2c-0.2,0-0.5,0-0.7-0.1
		c-0.2,0-0.4-0.1-0.5-0.3c-0.1-0.1-0.2-0.3-0.2-0.4c-0.1-0.2,0-0.5,0.2-0.7c0.1-0.1,0.3-0.2,0.4-0.3c0.4-0.1,0.7-0.3,1.1-0.4
		c0.5-0.1,0.9-0.3,1.4-0.5c0,0.4,0,0.7,0,1.1c0,0.3-0.1,0.5-0.3,0.7l0.2,1.7c0.1,0.2,0.1,0.5,0.2,0.7c0,0.1,0.1,0.2,0.2,0.3h3.8
		C48.2,56.5,48.1,56.3,48.1,56 M25.4,56c-0.1-0.8-0.1-1.6-0.1-2.4c0-1.1,0-2,0-3.1c0-0.6-0.1-1.1-0.2-1.7c-0.2-0.8-0.6-1.3-1.3-1.7
		c-0.4-0.2-0.8-0.4-1.2-0.5c-1.5-0.3-2.7-0.3-4.2-0.1c-0.4,0.1-0.8,0.2-1.1,0.3c-0.9,0.4-1.5,1-1.8,2c-0.1,0.3-0.1,0.7-0.1,1
		c0,0.1,0,0.1,0.1,0.2l3.4,0.1c0-0.2,0-0.4,0.1-0.6c0.1-0.3,0.3-0.5,0.6-0.6c0.4-0.2,0.9-0.2,1.4,0c0.3,0.1,0.5,0.3,0.6,0.6
		c0.1,0.2,0,0.4-0.1,0.5c-0.1,0.1-0.2,0.2-0.4,0.3c-0.1,0-0.2,0.1-0.3,0.1c-0.4,0.1-0.9,0.2-1.4,0.3c-0.4,0.1-0.7,0.1-1.1,0.2
		c-0.5,0.1-1,0.2-1.4,0.4c-0.4,0.1-0.8,0.4-1.2,0.7c-0.5,0.4-0.7,0.9-0.8,1.5c-0.1,0.4,0,0.8,0,1.2c0.2,1.1,1,1.8,2,2.1
		c1.2,0.3,2.2,0.3,3.3-0.2c0.5-0.2,1-0.5,1.3-1L21.2,54c-0.2,0.3-0.4,0.5-0.7,0.6c-0.3,0.1-0.5,0.2-0.8,0.2c-0.2,0-0.5,0-0.7-0.1
		c-0.2,0-0.4-0.1-0.5-0.3c-0.1-0.1-0.2-0.3-0.2-0.4c-0.1-0.3,0-0.5,0.2-0.7c0.1-0.1,0.3-0.2,0.4-0.3c0.4-0.1,0.7-0.3,1.1-0.4
		c0.5-0.1,0.9-0.3,1.4-0.5c0,0.4,0,0.7,0,1.1c0,0.3-0.1,0.5-0.3,0.7l0.2,1.7c0.1,0.2,0.1,0.5,0.2,0.7c0,0.1,0.1,0.2,0.2,0.3h3.8
		C25.5,56.5,25.4,56.3,25.4,56"/>
</g>
</svg>
