<?xml version="1.0" encoding="utf-8"?>
<!-- Generator: Adobe Illustrator 22.0.1, SVG Export Plug-In . SVG Version: 6.00 Build 0)  -->
<svg version="1.1" id="Layer_1" xmlns="http://www.w3.org/2000/svg" xmlns:xlink="http://www.w3.org/1999/xlink" x="0px" y="0px"
	 viewBox="0 0 100 100" enable-background="new 0 0 100 100" xml:space="preserve">
<g>
	<path fill="none" d="M66.9,48.3c0,0,1.8-2.1,3.5-3.7c0,0,1-1,1.5-1.2h-1.7c0,0-0.7,0-1,0.4c0,0-1.6,1.8-4.4,5.1c0,0,0.2,0,4.4,6.4
		c0,0,0.4,0.6,0.9,0.5h2.5C72.3,55.7,71.3,55.3,66.9,48.3z"/>
	<path fill="none" d="M65.1,66.7L65.1,66.7c-1.6,0.2-2.4,0-2.4,0c-0.9,0-0.9-0.7-0.9-0.7v-3.8c2.7-0.1,3.2,0,3.2,0
		c0.6,0,0.8,0.2,0.8,0.2l0.3-1.7c0,0-0.1,0.1-1.9,0.1c0,0,0.5,0-2.5,0l0-3.4c0-0.5,0.6-0.5,0.6-0.5c2.6-0.1,3.2,0.1,3.2,0.1
		c0.6,0,0.8,0.3,0.8,0.3l0.3-1.4c0.1-0.3-0.6-0.2-0.6-0.2h-1c-0.7,0.1-0.7-0.7-0.7-0.7v-5.4l0-5.4c0-0.8,0.5-0.9,0.5-0.9h-1
		c3.9-12,4.4-12.2,4.4-12.2c-1.8,0.2-2.6,0-2.6,0c0.7,0.3,0.2,1.5,0.2,1.5c-1.2,4.3-2.3,7-2.3,7c-0.7-1.7-1.4-3.3-2-5
		c-1.2-3.2-1.1-3.6-1.1-3.6c-1.6,0.2-2.6,0-2.6,0c0.4,0.2,0.2,1,0.2,1c-1.3,4.3-2.3,6.9-2.3,6.9c-2.4-4.7-3.1-7.1-3.1-7.1
		c-0.3-1-0.8-0.9-0.8-0.9c-7.4,0.1-8.8,0-8.8,0c0.8,0.1,0.7,1.9,0.7,1.9l0,8.1L39,33.5c-1-1.7-1-2.4-1-2.4h-3.7
		c0.6,0.4,0.6,1.8,0.6,1.8c0.3,4-0.1,9.5-0.1,9.5c-0.1,1-1.1,1-1.1,1h2.9c1.2,0.1,0.4,1.7,0.4,1.7L34.9,49l-2-2.8
		c-1.9-2.9-2.9-2.9-2.9-2.9h-3c1.5,0.2,4.1,3.7,4.1,3.7l1.6,2.2c0.1,0.1,0.1,0.2,0.2,0.3c0.6,1.2,0.5,2,0.5,2v2.7
		c0,1.2-1.1,1.5-1.1,1.5l1.7,0c1.2-0.1,1.3,1.8,1.3,1.8c0.1,4.7,0,8.5,0,8.5c0,1.8-0.9,2.1-0.9,2.1c2.3-0.1,4.4,0,4.4,0
		c2.1,0.2,2.4,0,2.4,0c0.5-0.1,0.5-0.5,0.5-0.5l0.3-1.5c-0.4,0.6-1.2,0.7-1.2,0.7c-0.7,0.1-2.7,0-2.7,0s-0.9-0.1-0.9-0.7
		c0,0-0.2-5.3,0.1-9.7c0,0,0-1,1.2-1.1h-2.1c-1.1-0.2-1.1-0.9-1.1-0.9v-2.9c0-0.6,0.4-1.5,0.7-2.1c0.2-0.4,0.4-0.6,0.4-0.6
		c3.2-5.5,3.6-5.6,3.6-5.6h-2.5c-1-0.1-1.1-1-1.1-1v-8.6c5.5,8.3,6.3,9.8,6.3,9.8c-2.3,0.4-3.1,2.3-3.1,2.3
		c-0.6,1.3-0.7,2.9-0.7,3.7c0,0.3,0,0.5,0,0.5c0,3.4,1.2,4.3,1.2,4.3c0.8,0.9,2.5,1.2,2.5,1.2c0.9,0.2,0.9,1.8,0.9,1.8v4.4
		c0,4.6-0.4,5.5-0.4,5.5C43.2,68,42.6,68,42.6,68c2.5-0.2,3.9,0.1,3.9,0.1c-0.8-0.3-0.8-1-0.8-1c-0.1-5.4,0-9.8,0-9.8
		c0-1.4,0.9-1.8,0.9-1.8c2-0.5,2.4-1.3,2.4-1.3c1.2-1.3,1.3-3.8,1.3-4.8c0-0.3,0-0.4,0-0.4c0-2.6-1.3-4.1-1.3-4.1
		c-0.9-1.1-2.6-1.6-2.6-1.6l4.5,0c1.3,0.1,1.3,2.1,1.3,2.1c0.1,1.3,0.2,2.7,0.2,3.9c0,2.3-0.2,4.1-0.2,4.1c-0.2,2-1,1.8-1,1.8
		l-1.1,0c0.7,0.2,0.6,2.1,0.6,2.1c0.1,4.4-0.2,9.3-0.2,9.3c-0.1,1.1-0.8,1.3-0.8,1.3c2.1-0.2,3.6,0,3.6,0c-0.7-0.2-0.6-1.5-0.6-1.5
		l0-4.1c2.7-0.1,3.6,0,3.6,0c0.5,0,0.8,0.2,0.8,0.2l0.3-1.8c-0.2,0.1-1.9,0.1-1.9,0.1h-2.7v-3.7c0-0.4,0.7-0.4,0.7-0.4
		c2.7-0.2,3.3,0.1,3.3,0.1c0.6,0,0.7,0.2,0.7,0.2l0.2-1.2c0.2-0.5-0.4-0.4-0.4-0.4l-1.6,0c-1.2,0.1-1-0.9-1-0.9v-9.6
		c0-0.6,0.5-0.7,0.5-0.7c1.4-0.3,2.3,0,2.3,0c1.1,0.3,1.1,1.3,1.1,1.3c0.3,1.2-0.7,2.1-0.7,2.1c-0.6,0.6-1.7,0.6-1.7,0.6
		c-0.5-0.1-0.2,0.2-0.2,0.2c0.1,0.3,0.2,0.6,0.3,0.8c1,2.6,2.6,5.7,2.6,5.7c0.3,0.5,0.8,0.4,0.8,0.4c0.5,0.1,0.5,0.8,0.5,0.8
		c0.1,5.1-0.1,9.8-0.1,9.8C59.6,67.9,59,68,59,68c2.9-0.2,3.6,0,3.6,0c3.6,0.2,3.7,0,3.7,0c0.4,0,0.5-0.8,0.5-0.8l0.3-1.5
		C66.8,66.8,65.1,66.7,65.1,66.7z M47.3,45.7c0,0,0.7,1,0.8,3.4c0,0,0.1,2.8-0.6,4.3c0,0-0.7,1.8-3,1.7c0,0-1.5,0-2.5-1.6
		c0,0-0.8-1.2-0.6-4.4c0,0,0-2.4,0.6-3.4c0,0,0.9-1.5,2.8-1.4C44.8,44.3,46.4,44.2,47.3,45.7z M54.8,43c0,0.3-0.3,0.3-0.3,0.3h-2.7
		c0.2-2.2,0.2-2.5,0.2-2.5c-0.5,0.8-0.8,0.9-0.8,0.9C50.4,42.1,47,42,47,42c-1,0-1.1-0.8-1.1-0.8c0-1.2,0-2.3,0-3.5
		c0-0.1,0.2-0.1,0.2-0.1c3.7-0.1,3.8,0.2,3.8,0.2l0.2-1.8c-0.2,0.1-0.5,0.1-0.7,0.2c-2.1,0.1-3.5,0-3.5,0v-2.7
		c0-1.1,0.8-1.1,0.8-1.1c2.4-0.1,2.8,0,2.8,0c1,0,1.4,1,1.4,1c2.4,4.7,3.5,7.7,3.5,7.7C54.9,42.6,54.8,43,54.8,43z M60.7,54.5
		c0,0-1.5-2.2-3.1-5.6h0c0,0,1.1-0.1,1.9-0.8c0,0,0.9-0.6,0.9-2.2c0,0-0.1-1.6-1.4-2.2c0,0-0.5-0.4-2.7-0.3c0,0,0.1-0.5,0.2-0.9
		c0.8-2.8,1.7-5.6,2.7-8.4c0,0,1.2,2.6,3.2,8.5c0,0,0.2,0.3,0.2,0.8h-0.9c0,0,0.6,0.1,0.7,1.9c0,0,0.3,4.6,0,9.9c0,0,0,0.6-0.2,0.6
		C62.1,55.6,61.6,55.9,60.7,54.5z"/>
	<path fill="#FFFFFF" d="M75,27.2c0-1.4-1.1-2.5-2.5-2.5h-45c-1.4,0-2.5,1.1-2.5,2.5v45.3c0,1.4,1.1,2.5,2.5,2.5h45.1
		c1.4,0,2.5-1.1,2.5-2.5L75,27.2z M66.8,67.3c0,0-0.1,0.8-0.5,0.8c0,0-0.1,0.2-3.7,0c0,0-0.8-0.2-3.6,0c0,0,0.6-0.2,0.7-1.8
		c0,0,0.2-4.6,0.1-9.8c0,0,0-0.8-0.5-0.8c0,0-0.5,0.1-0.8-0.4c0,0-1.6-3.2-2.6-5.7c-0.1-0.3-0.2-0.6-0.3-0.8c0,0-0.2-0.3,0.2-0.2
		c0,0,1.1,0,1.7-0.6c0,0,0.9-0.9,0.7-2.1c0,0,0-1-1.1-1.3c0,0-0.9-0.3-2.3,0c0,0-0.5,0.1-0.5,0.7v9.6c0,0-0.2,1,1,0.9l1.6,0
		c0,0,0.5-0.1,0.4,0.4l-0.2,1.2c0,0,0-0.2-0.7-0.2c0,0-0.6-0.2-3.3-0.1c0,0-0.6,0-0.7,0.4V61h2.7c0,0,1.7,0,1.9-0.1l-0.3,1.8
		c0,0-0.2-0.2-0.8-0.2c0,0-0.8-0.2-3.6,0l0,4.1c0,0,0,1.4,0.6,1.5c0,0-1.4-0.2-3.6,0c0,0,0.7-0.2,0.8-1.3c0,0,0.3-4.8,0.2-9.3
		c0,0,0.1-1.8-0.6-2.1l1.1,0c0,0,0.9,0.2,1-1.8c0,0,0.2-1.8,0.2-4.1c0-1.3,0-2.6-0.2-3.9c0,0,0-2-1.3-2.1l-4.5,0
		c0,0,1.8,0.5,2.6,1.6c0,0,1.3,1.4,1.3,4.1c0,0,0,0.2,0,0.4c0,1,0,3.5-1.3,4.8c0,0-0.3,0.7-2.4,1.3c0,0-0.9,0.3-0.9,1.8
		c0,0-0.1,4.4,0,9.8c0,0,0,0.7,0.8,1c0,0-1.4-0.3-3.9-0.1c0,0,0.6,0,0.7-0.9c0,0,0.3-0.8,0.4-5.5v-4.4c0,0,0-1.5-0.9-1.8
		c0,0-1.7-0.3-2.5-1.2c0,0-1.1-0.8-1.2-4.3c0,0,0-0.2,0-0.5c0-0.8,0-2.4,0.7-3.7c0,0,0.7-1.9,3.1-2.3c0,0-0.8-1.5-6.3-9.8v8.6
		c0,0,0.1,0.9,1.1,1h2.5c0,0-0.5,0.1-3.6,5.6c0,0-0.2,0.2-0.4,0.6c-0.3,0.6-0.8,1.5-0.7,2.1v2.9c0,0,0,0.7,1.1,0.9h2.1
		c-1.2,0.1-1.2,1.1-1.2,1.1c-0.2,4.4-0.1,9.7-0.1,9.7c0,0.6,0.9,0.7,0.9,0.7s2,0.1,2.7,0c0,0,0.8-0.1,1.2-0.7l-0.3,1.5
		c0,0,0,0.3-0.5,0.5c0,0-0.3,0.2-2.4,0c0,0-2-0.2-4.4,0c0,0,0.9-0.3,0.9-2.1c0,0,0.1-3.8,0-8.5c0,0,0-1.9-1.3-1.8l-1.7,0
		c0,0,1-0.3,1.1-1.5v-2.7c0,0,0.1-0.8-0.5-2c-0.1-0.1-0.1-0.2-0.2-0.3L31.2,47c0,0-2.6-3.5-4.1-3.7h3c0,0,1,0,2.9,2.9l2,2.8l2.2-3.8
		c0,0,0.8-1.6-0.4-1.7h-2.9c0,0,1,0,1.1-1c0,0,0.3-5.5,0.1-9.5c0,0,0-1.4-0.6-1.8H38c0,0-0.1,0.7,1,2.4l4.8,7.6l0-8.1
		c0,0,0.1-1.8-0.7-1.9c0,0,1.4,0.1,8.8,0c0,0,0.5-0.1,0.8,0.9c0,0,0.7,2.4,3.1,7.1c0,0,1-2.6,2.3-6.9c0,0,0.3-0.9-0.2-1
		c0,0,1,0.2,2.6,0c0,0-0.1,0.4,1.1,3.6c0.7,1.7,1.3,3.3,2,5c0,0,1.1-2.7,2.3-7c0,0,0.5-1.2-0.2-1.5c0,0,0.8,0.1,2.6,0
		c0,0-0.5,0.2-4.4,12.2h1c0,0-0.5,0.1-0.5,0.9l0,5.4V55c0,0,0,0.8,0.7,0.7h1c0,0,0.7,0,0.6,0.2l-0.3,1.4c0,0-0.2-0.3-0.8-0.3
		c0,0-0.6-0.2-3.2-0.1c0,0-0.6,0-0.6,0.5l0,3.4c2.9,0,2.5,0,2.5,0c1.7,0,1.9-0.1,1.9-0.1L66,62.4c0,0-0.2-0.2-0.8-0.2
		c0,0-0.6-0.1-3.2,0V66c0,0,0,0.6,0.9,0.7c0,0,0.8,0.2,2.4,0v0c0,0,1.6,0.1,1.9-0.9L66.8,67.3z M69.9,55.7c-0.5,0.1-0.9-0.5-0.9-0.5
		c-4.1-6.4-4.4-6.4-4.4-6.4c2.8-3.3,4.4-5.1,4.4-5.1c0.4-0.4,1-0.4,1-0.4h1.7c-0.5,0.2-1.5,1.2-1.5,1.2c-1.7,1.6-3.5,3.7-3.5,3.7
		c4.5,7,5.5,7.4,5.5,7.4H69.9z"/>
	<path fill="#FFFFFF" d="M44.8,44.3c-2-0.1-2.8,1.4-2.8,1.4c-0.7,1-0.6,3.4-0.6,3.4c-0.1,3.1,0.6,4.4,0.6,4.4
		c0.9,1.7,2.5,1.6,2.5,1.6c2.3,0.1,3-1.7,3-1.7c0.7-1.6,0.6-4.3,0.6-4.3c-0.1-2.4-0.8-3.4-0.8-3.4C46.4,44.2,44.8,44.3,44.8,44.3z"
		/>
	<path fill="#FFFFFF" d="M50.8,33.3c0,0-0.3-1-1.4-1c0,0-0.4-0.1-2.8,0c0,0-0.8,0-0.8,1.1v2.7c0,0,1.4,0.1,3.5,0
		c0.3,0,0.5-0.1,0.7-0.2l-0.2,1.8c0,0-0.1-0.3-3.8-0.2c0,0-0.1,0-0.2,0.1c0,1.2,0,2.3,0,3.5c0,0,0.1,0.8,1.1,0.8
		c0,0,3.4,0.1,4.2-0.3c0,0,0.3-0.1,0.8-0.9c0,0,0,0.3-0.2,2.5h2.7c0,0,0.3,0,0.3-0.3c0,0,0.2-0.3-0.5-1.9C54.3,41,53.2,38,50.8,33.3
		z"/>
	<path fill="#FFFFFF" d="M62.1,55.6c0.2,0,0.2-0.6,0.2-0.6c0.3-5.3,0-9.9,0-9.9c-0.2-1.7-0.7-1.9-0.7-1.9h0.9c0-0.5-0.2-0.8-0.2-0.8
		c-2-5.9-3.2-8.5-3.2-8.5c-1,2.8-1.9,5.6-2.7,8.4c-0.1,0.4-0.2,0.9-0.2,0.9c2.2,0,2.7,0.3,2.7,0.3c1.3,0.6,1.4,2.2,1.4,2.2
		c0,1.5-0.9,2.2-0.9,2.2c-0.7,0.7-1.9,0.8-1.9,0.8h0c1.6,3.5,3.1,5.6,3.1,5.6C61.6,55.9,62.1,55.6,62.1,55.6z"/>
</g>
</svg>
