<?xml version="1.0" encoding="utf-8"?>
<!-- Generator: Adobe Illustrator 22.0.1, SVG Export Plug-In . SVG Version: 6.00 Build 0)  -->
<svg version="1.1" id="Layer_1" xmlns="http://www.w3.org/2000/svg" xmlns:xlink="http://www.w3.org/1999/xlink" x="0px" y="0px"
	 viewBox="0 0 100 100" enable-background="new 0 0 100 100" xml:space="preserve">
<g>
	<circle fill="#FFFFFF" cx="50.1" cy="45.3" r="2.5"/>
	<path fill="#FFFFFF" d="M50,24.8c-13.8,0-25,11.2-25,25c0,13.8,11.2,25,25,25c13.8,0,25-11.2,25-25C75,36,63.8,24.8,50,24.8z
		 M55.9,54c0,1.5-1.4,3.6-3.1,3.6h-0.8v6.2H41.7v-7.3c-4.6-0.7-8.3-4.4-8.3-9.8c0-6.4,4.9-10.6,11.1-10.6h7.6l6.3,13.8h-2.5V54z
		 M63.6,49.9V54c0,1.8-1.2,3.6-2.4,3.6h-1.1v6.2h-3.8v-7c2.3,0,3.8-0.9,3.8-3.2v-3.7h2.6l-6.2-13.8h4.1l6.2,13.8H63.6z"/>
</g>
</svg>
