<?xml version="1.0" encoding="utf-8"?>
<!-- Generator: Adobe Illustrator 22.0.1, SVG Export Plug-In . SVG Version: 6.00 Build 0)  -->
<svg version="1.1" id="Layer_1" xmlns="http://www.w3.org/2000/svg" xmlns:xlink="http://www.w3.org/1999/xlink" x="0px" y="0px"
	 viewBox="0 0 100 100" enable-background="new 0 0 100 100" xml:space="preserve">
<g>
	<path fill="#FFFFFF" d="M34,28.2c0-0.9-0.5-1.4-1.6-1.4c-0.1,0-0.1,0-0.3,0v3h0.3C33.6,29.8,34,29.1,34,28.2z"/>
	<path fill="#FFFFFF" d="M62.2,28.2c0-0.9-0.5-1.4-1.6-1.4c-0.1,0-0.1,0-0.3,0v3h0.3C61.7,29.8,62.2,29.1,62.2,28.2z"/>
	<path fill="#FFFFFF" d="M50.1,19.8c-14,0-23.7,1.3-23.7,1.3l0,35.2C26.4,69.5,37,79.8,50,79.8c12.9,0,23.6-10.2,23.6-23.9V21.1
		C73.6,21.1,64.2,19.8,50.1,19.8z M58.1,25.6c0.7-0.1,1.8-0.1,2.7-0.1c2.2,0,3.6,0.7,3.6,2.7c0,1.8-1.3,2.9-3.3,2.9h-0.8v1.7h-2.2
		V25.6z M54.2,25.6h2.2v7.2h-2.2V25.6z M49.1,25.6h2.2v5.7l2.1,0l-0.3,1.4h-4V25.6z M45.3,25.6h2.2v7.2h-2.2V25.6z M50,35.9
		c11.3,0,18,8.5,19.6,14.8c-1.7-1.1-5.2-2.7-9.4-2.7c-8.5,0-12.8,5.4-20.3,6.8v0h0l0,0l0.5-4.6c0.3-2.3,0.6-2.9,2.6-3.2l5.5-0.7
		v-0.4L45,45.4l0.3-2.7c0.1-0.8,0.5-1.1,1.4-1.3l2.8-0.4v-0.2l-3-0.4c-0.9-0.1-1.2-0.5-1.3-1.3L45,36.5C45,36.5,47.1,35.9,50,35.9z
		 M40.4,41.2l2.7,0.4c0.9,0.1,1.2,0.5,1.3,1.5l0.3,2.4l-2.3-0.3c-1.1-0.2-1.7-1-1.8-2.3L40.4,41.2z M44.4,39.3
		c-0.2,0.9-0.5,1.1-1.4,1.3l-2.6,0.3l-0.3-2.4c1.3-0.7,2.8-1.4,4.7-1.9L44.4,39.3z M37.1,25.6h2.2v2.9h2.3v-2.9h2.2v7.2h-2.2v-2.8
		h-2.3v2.8h-2.2V25.6z M39.3,38.9l-0.5,3.8c-0.1,0.8-0.2,1.2-0.6,1.7c-0.4,0.4-1,0.6-1.7,0.7l-3.9,0.5
		C34.1,43.2,36.3,40.7,39.3,38.9z M29.9,25.6c0.7-0.1,1.8-0.1,2.7-0.1c2.2,0,3.6,0.7,3.6,2.7c0,1.8-1.3,2.9-3.3,2.9h-0.8v1.7h-2.2
		V25.6z M32.1,46.4l4.2,0.5c0.8,0.1,1.4,0.3,1.8,0.7c0.4,0.4,0.5,0.7,0.8,2.3l0.6,4.9c0,0-1.3,0.2-2.9,0.2c-2.8,0-5.3-0.7-6.9-1.4h0
		C30.1,50.9,30.9,48.8,32.1,46.4z M56.6,67.3c1.7,0.2,2.5,0.8,2.7,2.5l0.6,4.4c-1.7,1-5.3,2.6-9.9,2.6v0c-8.6,0-16.8-5.4-19.7-14.9
		c2.5,1.6,6.1,2.7,9.5,2.7c9,0,13.4-5.7,20.1-6.9l-0.7,5.6c-0.2,1.4-0.6,2.1-2.4,2.4l-5.5,0.7v0.4L56.6,67.3z M60.6,73.8L60.6,73.8
		L60.6,73.8C60.6,73.8,60.6,73.8,60.6,73.8l0.4-3.5c0.3-2,0.6-2.7,2.5-2.9l4-0.5C65.5,70.1,63.2,72.1,60.6,73.8z M67.9,66.2
		L67.9,66.2l-4-0.5c-2.1-0.2-2.6-0.7-2.8-2.8l-0.7-5.3c0,0,1.4-0.2,2.9-0.2c2.3,0,5.5,0.7,7,1.4C69.9,61.2,69.5,63.2,67.9,66.2z
		 M62.1,54.2c-9.6,0-13.5,7.1-23.1,7.1c-3.7,0-6.8-1-9.3-2.5c-0.1-0.6-0.1-1.7-0.1-2.5c1.8,0.9,4.4,2,8.3,2c9.5,0,13.8-7.1,23.1-7.1
		c3.8,0,7.1,1.1,9.3,2.5c0.1,0.8,0.1,1.7,0.2,2.5C67.9,55,65.3,54.2,62.1,54.2z M67.3,32.9c-0.7,0-1.6-0.1-2.3-0.4l-0.2-1.7
		c0.7,0.3,1.8,0.6,2.5,0.6c0.8,0,1.1-0.2,1.1-0.7c0-1.2-3.4-0.7-3.4-3.2c0-1.5,1.2-2.2,3-2.2c0.9,0,1.4,0.1,2,0.2l0.2,1.6
		c-0.5-0.2-1.3-0.4-1.9-0.4c-0.6,0-1,0.2-1,0.6c0,1.1,3.4,0.7,3.4,3.1C70.7,32.3,69.2,32.9,67.3,32.9z"/>
	<path fill="#FFFFFF" d="M51.4,71.7l2.3,0.3c0.7,0.1,1,0.4,1.1,1.2l0.3,2.2h0.2l0.3-2.3c0.1-0.9,0.5-1,1.1-1.1l2.2-0.3v-0.2
		l-2.4-0.3c-0.6-0.1-0.9-0.4-1-1l-0.3-2.4H55l-0.3,2.4c-0.1,0.6-0.4,0.8-1,0.9l-2.4,0.3V71.7z"/>
</g>
</svg>
