<?xml version="1.0" encoding="utf-8"?>
<!-- Generator: Adobe Illustrator 22.0.1, SVG Export Plug-In . SVG Version: 6.00 Build 0)  -->
<svg version="1.1" id="Layer_1" xmlns="http://www.w3.org/2000/svg" xmlns:xlink="http://www.w3.org/1999/xlink" x="0px" y="0px"
	 viewBox="0 0 100 100" enable-background="new 0 0 100 100" xml:space="preserve">
<g>
	<g id="g1902" transform="matrix(1.1948204,0,0,1.3027572,75.058513,774.72451)">
		<g id="g1904" transform="translate(832.3336,194.6522)">
			<path id="path1906" fill="#FFFFFF" d="M-865.4-733.4h0.8v1.9h-0.7c0-0.3-0.5-1.3-2.7-1.4
				c-2.2-0.1-2.4,0.9-1.7,1.2c1,0.3,2.9,0.2,4,0.6c1.5,0.5,2,2.1,0.6,2.9c-1.2,0.8-3.4,0.7-4.9,0.2c-0.3-0.1-0.7-0.3-0.7,0v0.2h-0.9
				v-2.1h0.8c0,0.1-0.1,0.6,0.8,1.1c1.1,0.6,3,0.6,3.8,0.2c0.5-0.2,0.5-1-0.3-1.1c-0.9-0.1-2.3-0.2-3.4-0.4
				c-0.7-0.2-1.3-0.4-1.7-0.8c-0.3-0.3-0.7-1.6,0.8-2.2c1.9-0.8,4.5-0.2,4.9,0.1C-865.6-733-865.3-733-865.4-733.4"/>
		</g>
	</g>
	<g id="g1908" transform="matrix(1.1948204,0,0,1.3027572,75.058513,774.72451)">
		<g id="g1910" transform="translate(835.231,195.5653)">
			<path id="path1912" fill="#FFFFFF" d="M-859.1-731.5c0-1.4-1.1-2.2-2.5-2.2
				c-1.4,0-2.5,0.8-2.5,2.2c0,1.4,1.1,2.3,2.5,2.2C-860.2-729.3-859.1-730.1-859.1-731.5 M-861.5-734.6c2.1,0,4.3,0.9,4.2,3.1
				c-0.1,2.2-2.2,3-4.2,3c-2,0-4.4-0.8-4.4-3C-866-733.7-863.5-734.6-861.5-734.6"/>
		</g>
	</g>
	<g id="g1914" transform="matrix(1.1948204,0,0,1.3027572,75.058513,774.72451)">
		<g id="g1916" transform="translate(841.5201,194.9676)">
			<path id="path1918" fill="#FFFFFF" d="M-845.3-732.7c-0.2,0.2-2.2,2.5-2.2,2.5v1.2
				c0,0.1,0,0.1,0.2,0.1h0.8v0.7h-3.9v-0.7c0,0,0.8,0,0.9,0c0.2,0,0.2,0,0.2-0.1v-1.3c0,0-2.3-2.4-2.3-2.4c-0.1-0.1-0.3-0.3-0.7-0.3
				h-0.6v-0.7h4v0.7h-0.4c-0.1,0-0.2,0.2,0,0.3c0.2,0.2,1.3,1.5,1.3,1.5l1.3-1.5c0.1-0.1,0-0.3-0.1-0.3h-0.5v-0.7h3.2v0.7h-0.8
				C-845.1-733-845.2-732.8-845.3-732.7"/>
		</g>
	</g>
	<g id="g1920" transform="matrix(1.1948204,0,0,1.3027572,75.058513,774.72451)">
		<g id="g1922" transform="translate(836.7906,196.1268)">
			<path id="path1924" fill="#FFFFFF" d="M-855.7-730.4c0,0.4,0.2,0.3,0.4,0.3h0.8v0.7h-3.4v-0.7
				h0.8c0.3,0,0.4-0.2,0.4-0.3v-3.4c0-0.2,0-0.4-0.4-0.4h-0.7l0-0.7h2.9l3.9,3.4v-2.3c0-0.4-0.2-0.4-0.4-0.4h-0.7v-0.7h3.3v0.7h-0.8
				c-0.2,0-0.3,0.2-0.3,0.3v4.5h-1.1l-4.6-3.8V-730.4z"/>
		</g>
	</g>
	<g id="g1926" transform="matrix(1.1948204,0,0,1.3027572,75.058513,774.72451)">
		<g id="g1928" transform="translate(830.8629,197.6258)">
			<path id="path1930" fill="#FFFFFF" d="M-868.6-727.3h1.2c0.5,0,0.7-0.1,0.7-0.5
				c0-0.4-0.3-0.5-0.7-0.5h-1.2V-727.3z M-870.2-725.4v-0.4h0.4c0.2,0,0.2-0.1,0.2-0.2v-2.1c0-0.1,0-0.2-0.2-0.2h-0.4v-0.4h3
				c1,0,1.4,0.2,1.4,0.9s-0.5,1-1.6,1h-1.3v0.8c0,0.1,0,0.2,0.2,0.2h0.4l0,0.4H-870.2z"/>
		</g>
	</g>
	<g id="g1932" transform="matrix(1.1948204,0,0,1.3027572,75.058513,774.72451)">
		<g id="g1934" transform="translate(832.3979,198.0516)">
			<path id="path1936" fill="#FFFFFF" d="M-865.3-726.5c0,0.1,0,0.2,0.2,0.2h0.4v0.4h-2.1v-0.4
				h0.4c0.2,0,0.2-0.1,0.2-0.2v-2.1c0-0.1,0-0.2-0.2-0.2h-0.4v-0.4h2.1v0.4h-0.4c-0.2,0-0.2,0.1-0.2,0.2V-726.5z"/>
		</g>
	</g>
	<g id="g1938" transform="matrix(1.1948204,0,0,1.3027572,75.058513,774.72451)">
		<g id="g1940" transform="translate(834.0494,197.9119)">
			<path id="path1942" fill="#FFFFFF" d="M-861.7-726.8c-0.1,0.5-0.7,1.2-1.9,1.2
				c-1.1,0-2.4-0.4-2.5-1.8c0-1.4,1.3-1.9,2.3-1.9c0.6,0,1.2,0.2,1.3,0.3c0.1,0.1,0.2,0.1,0.2-0.2h0.4v1.2h-0.4c0-0.6-0.8-1-1.6-0.9
				c-0.8,0.1-1.3,0.7-1.3,1.5c0,0.8,0.7,1.4,1.5,1.4c0.5,0,1.2-0.1,1.4-0.8H-861.7z"/>
		</g>
	</g>
	<g id="g1944" transform="matrix(1.1948204,0,0,1.3027572,75.058513,774.72451)">
		<g id="g1946" transform="translate(834.232,197.5633)">
			<path id="path1948" fill="#FFFFFF" d="M-861.3-727.5v-1.3h4.3v1.3h-0.4c0-0.9-0.1-0.8-0.4-0.9
				h-0.8v2.3c0,0.1,0,0.2,0.2,0.2h0.4v0.4h-2.1v-0.4h0.4c0.2,0,0.2-0.1,0.2-0.2v-2.3h-0.8c-0.4,0-0.4,0-0.4,0.9L-861.3-727.5z"/>
		</g>
	</g>
	<g id="g1950" transform="matrix(1.1948204,0,0,1.3027572,75.058513,774.72451)">
		<g id="g1952" transform="translate(836.4644,198.3094)">
			<path id="path1954" fill="#FFFFFF" d="M-856.4-726c-0.9,0-1.8-0.2-1.8-1.2v-1.7
				c0-0.1,0-0.2-0.2-0.2h-0.4v-0.4h2.1v0.4h-0.4c-0.2,0-0.2,0.1-0.2,0.2v1.7c0,0.1,0,0.8,0.8,0.8c1,0,1.1-0.4,1.1-0.8l0-1.7
				c0-0.1,0-0.2-0.2-0.2h-0.4v-0.4h1.8v0.4h-0.4c-0.1,0-0.2,0.1-0.2,0.4l0,1.6C-854.7-726.2-855.5-726-856.4-726"/>
		</g>
	</g>
	<g id="g1956" transform="matrix(1.1948204,0,0,1.3027572,75.058513,774.72451)">
		<g id="g1958" transform="translate(837.8091,197.6258)">
			<path id="path1960" fill="#FFFFFF" d="M-853.4-727.3h1.2c0.4,0,0.7-0.2,0.7-0.5
				c0-0.3-0.3-0.5-0.6-0.5h-1.2V-727.3z M-851.5-727.1c0.4,0.1,0.6,0.2,0.6,0.6v0.5c0,0.1,0,0.2,0.2,0.2c0.2,0,0.2-0.2,0.2-0.4v-0.2
				h0.4v0.3c0,0.6-0.2,0.8-0.7,0.8c-0.5,0-0.9-0.1-0.9-0.8v-0.4c0-0.2-0.2-0.4-0.6-0.4h-1v0.8c0,0.1,0,0.2,0.2,0.2h0.4l0,0.5h-2.1
				v-0.5h0.4c0.2,0,0.2-0.1,0.2-0.2v-2.1c0-0.1,0-0.2-0.2-0.2h-0.4v-0.4h3c1,0,1.4,0.3,1.4,1C-850.6-727.3-851.1-727.1-851.5-727.1"
				/>
		</g>
	</g>
	<g id="g1962" transform="matrix(1.1948204,0,0,1.3027572,75.058513,774.72451)">
		<g id="g1964" transform="translate(839.4703,198.116)">
			<path id="path1966" fill="#FFFFFF" d="M-849.8-726.4l1.9,0c0.4,0,0.4-0.2,0.4-0.9h0.4v1.3
				l-4.3,0v-0.4h0.4c0.2,0,0.2-0.1,0.2-0.2v-2.1c0-0.1,0-0.2-0.2-0.2h-0.4v-0.4h4.3v1.3h-0.4c0-0.7-0.1-0.8-0.4-0.9h-1.9v1l0.9,0
				c0.1,0,0.2,0,0.2-0.2v-0.3h0.4v1.6h-0.4v-0.4c0-0.2-0.1-0.2-0.2-0.2h-0.9V-726.4z"/>
		</g>
	</g>
	<g id="g1968" transform="matrix(1.1948204,0,0,1.3027572,75.058513,774.72451)">
		<g id="g1970" transform="translate(841.6422,197.1492)">
			<path id="path1972" fill="#FFFFFF" d="M-845-728.3h0.4v1.2h-0.4c0-0.2-0.3-0.9-1.4-0.9
				c-1.2,0-1.3,0.6-0.9,0.8c0.5,0.2,1.5,0.1,2.1,0.4c0.8,0.3,1,1.2,0.3,1.8c-0.6,0.5-1.8,0.4-2.5,0.1c-0.2-0.1-0.4-0.2-0.4,0v0.1
				h-0.5v-1.3h0.4c0,0.1-0.1,0.4,0.4,0.6c0.7,0.4,1.4,0.5,2,0.1c0.3-0.2,0.4-0.6-0.2-0.7c-0.5-0.1-1.2-0.1-1.8-0.3
				c-0.4-0.1-0.7-0.2-0.9-0.5c-0.1-0.2-0.4-0.9,0.4-1.3c1-0.5,2.1-0.2,2.6,0.1C-845.1-728.1-845-728.1-845-728.3"/>
		</g>
	</g>
	<g id="g1978" transform="matrix(1.1948204,0,0,1.3027572,75.058513,774.72451)">
		<g id="g1980" transform="translate(830.6422,193.6131)">
			<path id="path1982" fill="#FFFFFF" d="M-869.1-735.5l-0.8,0.3l0-27.5l0.8-0.3L-869.1-735.5z"/>
		</g>
	</g>
	<g id="g1984" transform="matrix(1.1948204,0,0,1.3027572,75.058513,774.72451)">
		<g id="g1986" transform="translate(831.7555,193.0975)">
			<path id="path1988" fill="#FFFFFF" d="M-866.7-736.5l-0.8,0.3l0-27.5l0.8-0.3L-866.7-736.5z"/>
		</g>
	</g>
	<g id="g1990" transform="matrix(1.1948204,0,0,1.3027572,75.058513,774.72451)">
		<g id="g1992" transform="translate(833.9361,185.4901)">
			<path id="path1994" fill="#FFFFFF" d="M-861.9-752c-0.8,4-1,4.2-1.1,6.2
				c-0.1,1.6,0.2,2.7,0.5,4c0.2,1.2,0.5,2.4,0.5,2.4l0,7.4l0.9-0.4l0-7.3c0,0,0.8-3.9,0.9-6.2c0.1-2.7-0.9-5.6-0.9-6.3
				c0-1.7,0-7.7,0-7.7l-0.8,0.3C-861.9-754.2-861.9-752.6-861.9-752"/>
		</g>
	</g>
	<g id="g1996" transform="matrix(1.1948204,0,0,1.3027572,75.058513,774.72451)">
		<g id="g1998" transform="translate(832.7018,183.5555)">
			<path id="path2000" fill="#FFFFFF" d="M-864.6-755.9c0,0,0,11.7,0,12c0,0.3-0.6,1-0.7,1.5
				c-0.1,0.5-0.4,1.1,0.5,1.7c0.3,0.2,0.2,0.8,0.2,1.2c0,0.4,0,11.2,0,11.2l0.8-0.3c0,0,0-11.4,0-12c0-0.4,1.2-1.4,0.8-2.5
				c-0.1-0.4-0.7-0.8-0.7-0.9c-0.1-0.6-0.2-12.2-0.2-12.2L-864.6-755.9z"/>
		</g>
	</g>
	<g id="g2002" transform="matrix(1.1948204,0,0,1.3027572,75.058513,774.72451)">
		<g id="g2004" transform="translate(835.1147,184.5838)">
			<path id="path2006" fill="#FFFFFF" d="M-859.3-753.8c-0.9,4.7-1.2,6.3-1.1,8.6
				c0.1,2.3,0.3,3.5,0.8,5.9c0.2,1.3,0.3,2,0.3,2l0,4.5l0.9-0.4c0,0,0-3.8,0-4c0-0.2,0-0.4,0.1-1c0.2-1.7,0.7-5,0.9-7.8
				c0.3-3.5-0.6-6.9-0.7-8.6c-0.1-0.9-0.1-2.1-0.1-6.3l-0.9,0.4C-859.2-760.4-859-755.8-859.3-753.8"/>
		</g>
	</g>
	<g id="g2008" transform="matrix(1.1948204,0,0,1.3027572,75.058513,774.72451)">
		<g id="g2010" transform="translate(836.4264,182.0809)">
			<path id="path2012" fill="#FFFFFF" d="M-856.5-758.9c-0.5,3.5-1.3,7.8-1.4,13.1
				c-0.1,5.7,1.2,12.7,1.2,12.7l0.1,1.1l1-0.5l0.2-1.7c0.8-6.4,0.9-7.1,1-12.4c0.1-4.4-0.7-9.1-1.1-12.5c0-0.5,0-1,0-1l-0.9,0.3
				C-856.5-759.7-856.4-759.5-856.5-758.9"/>
		</g>
	</g>
	<g id="g2014" transform="matrix(1.1948204,0,0,1.3027572,75.058513,774.72451)">
		<g id="g2016" transform="translate(837.5435,181.8279)">
			<path id="path2018" fill="#FFFFFF" d="M-854-759.4c-0.7,6.8-0.8,10.7-0.8,12.3
				c-0.1,5.2,0.9,12.6,0.9,12.6l0.1,1.1l1.7-0.8l0.1-1.6c0,0,0.4-3.8,0.5-12.1c0.1-4.4-0.8-11.7-0.9-12.6c0-0.5-0.1-1.1-0.1-1.1
				l-1.3,0.5C-853.8-761.1-853.9-760.3-854-759.4"/>
		</g>
	</g>
	<g id="g2020" transform="matrix(1.1948204,0,0,1.3027572,75.058513,774.72451)">
		<g id="g2022" transform="translate(838.7486,181.284)">
			<path id="path2024" fill="#FFFFFF" d="M-851.4-760.5c-0.7,6.5-0.6,10.8-0.7,12.4
				c-0.1,5.2,0.8,12.5,0.8,12.5l0.1,1l1.9-0.8l0.1-1.6c0,0,0.5-3.8,0.6-12c0-4.2-0.7-11.7-0.7-12.5c0-0.5-0.1-1.4-0.1-1.4l-1.8,0.7
				C-851.2-762.2-851.2-761.4-851.4-760.5"/>
		</g>
	</g>
	<g id="g2026" transform="matrix(1.1948204,0,0,1.3027572,75.058513,774.72451)">
		<g id="g2028" transform="translate(840.0211,180.7362)">
			<path id="path2030" fill="#FFFFFF" d="M-848.6-761.6c-0.6,7.1-0.7,10.7-0.7,12.2
				c0,5.3,0.7,12.5,0.7,12.5l0.1,1l2-0.9l0.1-1.6c0,0,0.3-3.5,0.4-11.6c0.1-4.9-0.7-12.4-0.8-12.7c0-0.5-0.1-1.5-0.1-1.5l-1.7,0.8
				C-848.4-763.4-848.5-762.6-848.6-761.6"/>
		</g>
	</g>
	<g id="g2032" transform="matrix(1.1948204,0,0,1.3027572,75.058513,774.72451)">
		<g id="g2034" transform="translate(841.2397,180.2557)">
			<path id="path2036" fill="#FFFFFF" d="M-845.9-762.6c-0.5,7.1-0.6,10.1-0.6,12.2
				c0,5.6,0.7,12.1,0.7,12.1l0.1,1.1l1.7-0.7c0,0,0-26.5,0-27.6l-1.8,0.8C-845.8-764.6-845.8-763.6-845.9-762.6"/>
		</g>
	</g>
</g>
</svg>
