<?xml version="1.0" encoding="utf-8"?>
<!-- Generator: Adobe Illustrator 22.0.1, SVG Export Plug-In . SVG Version: 6.00 Build 0)  -->
<svg version="1.1" id="Layer_1" xmlns="http://www.w3.org/2000/svg" xmlns:xlink="http://www.w3.org/1999/xlink" x="0px" y="0px"
	 viewBox="0 0 100 100" enable-background="new 0 0 100 100" xml:space="preserve">
<g id="g10" transform="matrix(1.3333333,0,0,-1.3333333,0,739.01333)">
	<g id="g12" transform="scale(0.1)">
		<path id="path14" fill="#FFFFFF" d="M586.3,5268.7c-15.4,14.7-36.2,22.7-57.3,23.5c-21.1,0.8-42.4-5.4-59.7-17.6
			c-15.1-10.7-26.8-25.7-34.9-42.3c-9.9,8.7-20.1,17.2-32.5,22.2c-11.5,4.7-25.4,6.8-37.1,1.6c-5.3-2.4-9.8-6.3-12.8-11.3
			c-3-5.1-4.2-11.2-3.5-17.1c0.6-5.7,3.1-10.8,7.2-14.8c4.3-4.2,9.8-6.9,15.3-9.2c6.3-2.6,12.9-4.4,19.5-6.4
			c6.2-1.9,12.5-3.9,18.6-6.2c11.8-4.5,23.4-10.4,32.5-19.2c18.3-17.8,24.3-44.8,21.2-69.5c-0.9-7-2.5-13.9-5-20.4
			c-0.6-1.5-1.2-3.1-1.9-4.6c-0.2-0.4-0.5-1.2-0.5-1.2s1.5-1.6,2.1-2.3c2.1-2.1,4.3-4,6.5-5.9c8.3-6.9,17.9-12.3,28-16.2
			c20.2-7.6,42.9-8.7,63.4-1.7c11.5,3.9,22.3,10.4,30.8,19.2v-20.4h69.9v240.1h-69.9V5268.7z M539.7,5108.9
			c-10.9,0-21.3,4.4-29.4,11.5c-8.7,7.7-14.7,18.1-17.9,29.2c-6.5,22.7-1.2,49.3,15.9,66.1c8,7.9,18.6,12.8,29.9,13.1
			c11.3,0.4,22.5-3.9,31.1-11.2c15-12.7,21.8-33.4,20.8-52.6c-1-19.3-10.1-39-27-49.5C556.1,5111.3,548,5108.9,539.7,5108.9
			 M326.3,5147.8c-3.3,1.3-6.5,2.7-9.6,4.2c-5.9,3-11.7,6.5-16.8,10.7c-9.4,7.8-16.3,18.1-20.4,29.6c-4.2,11.8-5.7,24.6-4.9,37.1
			c0.8,13.3,4.4,26.5,11,38.1c5.2,9.1,12.1,17.3,20.1,24c-14.8,0-70.4,0-70.4,0s-0.1-74.3-0.1-103.9v-22.2c0-6.9-0.1-13.8-1-20.6
			c-1.5-12.1-5.4-26.2-16.9-32.6c-5.5-3.1-12-4-18.3-3.8c-6.3,0.2-12.6,1.8-17.7,5.7c-10,7.7-13.2,21.5-14.3,33.4
			c-0.6,6.6-0.6,13.3-0.6,19.9v22.2v101.8l-72.5,0c0,0,0-98.9,0-128.5c0-14.4,0.2-28.9,3.2-43c2.6-12.5,7.3-24.7,14.5-35.2
			c7-10.2,16.3-18.6,27.1-24.7c11.6-6.6,24.5-10.3,37.6-12.2c13.2-1.9,26.7-2.2,40-1c12.7,1.1,25.3,3.7,37,8.5
			c11.2,4.7,21.3,11.4,29.5,20.3c7.8,8.5,13.7,18.6,17.6,29.5c0.3,0.9,0.6,1.8,0.9,2.6c8.6-8.5,18.1-16.4,28.9-21.9
			c10.6-5.5,23.1-8.7,35.1-6.6c5.9,1,11.6,3.6,16,7.8c4.2,4,6.9,9.2,7.9,14.9c0.9,5.3,0.4,11-1.9,15.9c-2.2,4.5-5.8,8.2-9.9,11
			c-6,4.1-13,6.6-19.9,8.8c-7.6,2.5-19.1,5.8-21.8,6.8C332.6,5145.4,327.8,5147.1,326.3,5147.8"/>
	</g>
</g>
</svg>
