<?xml version="1.0" encoding="utf-8"?>
<!-- Generator: Adobe Illustrator 22.0.1, SVG Export Plug-In . SVG Version: 6.00 Build 0)  -->
<svg version="1.1" id="Layer_1" xmlns="http://www.w3.org/2000/svg" xmlns:xlink="http://www.w3.org/1999/xlink" x="0px" y="0px"
	 viewBox="0 0 100 100" enable-background="new 0 0 100 100" xml:space="preserve">
<g>
	<path fill="#FFFFFF" d="M50,24.8c-13.9,0-25,11.2-25,25c0,13.8,11.1,25,25,25c13.9,0,25-11.2,25-25C75,36,63.9,24.8,50,24.8z
		 M41.4,57.5h-4.1v-1.7c0,0-1,1.9-3.7,1.9c-4.3,0-7.8-3.5-7.8-7.8c0-4.3,3.5-7.8,7.8-7.8c4.3,0,7.8,3.5,7.8,7.8V57.5z M50.3,57.7
		c-4.3,0-7.8-3.5-7.8-7.8V36.6l4.1,0v7.3c0,0,1-1.9,3.7-1.9c4.3,0,7.8,3.5,7.8,7.8C58.1,54.2,54.6,57.7,50.3,57.7z M66.6,57.7
		c-4.3,0-7.8-3.5-7.8-7.8c0-4.3,3.5-7.8,7.8-7.8c0,0,0,0,0,0h0c0,0,0,0,0,0c3.8,0,6.9,2.6,7.7,6.1H70c-0.6-1.2-1.9-2-3.3-2
		c-2.1,0-3.7,1.7-3.7,3.7c0,2.1,1.7,3.7,3.7,3.7c1.4,0,2.7-0.8,3.3-2h4.3C73.5,55.1,70.4,57.7,66.6,57.7z"/>
	<path fill="#FFFFFF" d="M50.3,46.1L50.3,46.1c-2.1,0-3.7,1.7-3.7,3.7c0,2.1,1.7,3.7,3.7,3.7c2.1,0,3.7-1.7,3.7-3.7
		C54,47.8,52.4,46.1,50.3,46.1z"/>
	<path fill="#FFFFFF" d="M33.6,46.1c-2.1,0-3.7,1.7-3.7,3.7c0,2.1,1.7,3.7,3.7,3.7s3.7-1.7,3.7-3.7C37.3,47.8,35.7,46.1,33.6,46.1z"
		/>
</g>
</svg>
