<?xml version="1.0" encoding="utf-8"?>
<!-- Generator: Adobe Illustrator 22.0.1, SVG Export Plug-In . SVG Version: 6.00 Build 0)  -->
<svg version="1.1" id="Layer_1" xmlns="http://www.w3.org/2000/svg" xmlns:xlink="http://www.w3.org/1999/xlink" x="0px" y="0px"
	 viewBox="0 0 100 100" enable-background="new 0 0 100 100" xml:space="preserve">
<g>
	<g>
		<path fill="#FFFFFF" d="M59.5,34.1l-5.9-4.3h-7.3l-5.9,4.3L38.3,41l2.2,6.9l5.9,4.3h7.3l5.9-4.3l2.2-6.9L59.5,34.1z M50.1,49.8
			c-4.8,0-8.7-3.9-8.7-8.7s3.9-8.7,8.7-8.7s8.7,3.9,8.7,8.7S54.9,49.8,50.1,49.8z"/>
		<path fill="#FFFFFF" d="M73.2,30.8c-1.6-1.2-4.4-1.6-6.5,0.7c-2.4-0.3-7.2-0.8-7.2-0.8L59,28.3l-2.2,0.3c0,0-2-4.4-2.9-6.5
			c1.4-2.1,0.7-4.7-0.7-6c-1.7-1.5-4-1.6-5.8-0.4c-1.5,1.1-2.8,3.4-1.3,6.3c-1,2.2-3,6.6-3,6.6l-2.4-0.3l-0.3,2.3
			c0,0-4.8,0.5-7.1,0.7c-1.7-2.2-4.7-2.1-6.2-1c-1.8,1.2-2.5,3.5-1.8,5.5c0.8,2.3,2.6,3.2,5.6,2.9c1.7,1.6,5.3,4.8,5.3,4.8l-1,2.1
			c0,0,1.3,0.8,2,1.2c-0.5,2.3-1.1,4.7-1.6,7c-2.5,1.3-3.5,3.1-2.9,5.4c0.5,2.1,2.3,3.6,4.4,3.6c2.5,0,4-1.3,4.8-4.4
			c2.1-1.2,6.3-3.5,6.3-3.5l1.8,1.5l1.7-1.5c0,0,4.1,2.4,6.1,3.6c0.1,2.5,2,4.3,4.2,4.5c2.2,0.2,4.1-1,4.8-3c0.4-1,0.4-2,0.1-3
			c-0.5-1.4-1.4-2.3-2.8-2.9c-0.5-2.4-1.5-7.2-1.5-7.2l2-1.2l-0.9-1.9c0,0,3.6-3.2,5.4-4.8c2.4,0.5,4.6-0.5,5.5-2.4
			C75.5,34.4,74.9,32.1,73.2,30.8z M73.7,35.8c-0.4,1-1.1,1.6-2,2c-0.9,0.4-1.9,0.3-2.8-0.1c-2.1,1.9-6.3,5.6-6.3,5.6l0.7,1.9
			l-1.7,1.2c0,0,1.2,5.6,1.7,8.4c2.4,0.7,3.2,2.9,2.7,4.6c-0.5,1.6-2,2.7-3.7,2.6c-1-0.1-1.9-0.5-2.5-1.3c-0.6-0.8-0.9-1.7-0.8-2.8
			c-2.4-1.4-7.2-4.3-7.2-4.3L50,55l-1.9-1.4c0,0-4.8,2.7-7,4c-0.1,0.1-0.2,0.1-0.3,0.2c0.2,2.4-1.8,3.9-3.4,4
			c-1.7,0.1-3.3-1-3.7-2.7c-0.3-1-0.2-2,0.4-2.9c0.6-0.9,1.3-1.4,2.4-1.6c0.6-2.8,1.9-8.2,1.9-8.2s-1.2-0.7-1.8-1.1
			c0.2-0.7,0.7-2,0.7-2s-4.2-3.8-6.2-5.7c-2.3,0.9-4.2-0.3-4.9-1.9c-0.7-1.7,0-3.6,1.6-4.6c1.6-1,3.5-0.5,4.9,1.4
			c2.7-0.3,8.4-0.9,8.4-0.9s0.4-1.4,0.5-2.1c0.7,0,2.1,0.2,2.1,0.2s2.4-5.2,3.5-7.8c-1.5-2.1-0.8-4.2,0.4-5.2c1.4-1.1,3.3-1.2,4.7,0
			c0.8,0.7,1.2,1.5,1.3,2.5c0.1,1-0.2,1.9-0.9,2.7c1.1,2.6,2.3,5.1,3.5,7.7c0.7,0,1.4-0.1,2.1-0.1c0.2,0.7,0.4,1.4,0.6,2.1
			c2.8,0.3,5.6,0.6,8.4,1c1.8-1.8,3.4-2.2,5.1-1.2C73.8,32.4,74.4,34.1,73.7,35.8z"/>
		<path fill="#FFFFFF" d="M60.2,48c0,0,1.2,5.6,1.8,8.4c0.8-0.1,1.4,0.1,1.9,0.6c0.5,0.5,0.7,1.2,0.5,1.9c-0.2,1.2-1.4,1.9-2.5,1.5
			c-1.1-0.3-2-1.5-1.2-3.2c-2.4-1.4-7.2-4.3-7.2-4.3l-1.1,0.5c0,0,4.9,2.9,7.2,4.2c-0.4,1.9,0.7,3.3,2.2,3.7
			c1.4,0.3,2.9-0.5,3.4-1.8c0.3-0.7,0.2-1.4-0.1-2.1c-0.5-1.1-1.4-1.7-2.5-1.9c-0.6-2.8-1.8-8.3-1.8-8.3L60.2,48z"/>
		<path fill="#FFFFFF" d="M59.9,33.5c0,0,5.7,0.6,8.5,0.8c0.1-0.8,0.5-1.3,1.1-1.7c0.7-0.4,1.3-0.3,2,0.1c1,0.6,1.3,1.9,0.7,2.9
			c-0.7,0.9-2,1.5-3.4,0.1c-2.1,1.8-6.3,5.5-6.3,5.5l0.1,1.2c0,0,4.2-3.7,6.3-5.6c1.7,1,3.4,0.4,4.2-0.9c0.7-1.2,0.4-2.9-0.7-3.8
			c-0.6-0.5-1.3-0.7-2-0.6c-1.2,0.1-2,0.8-2.6,1.8c-2.8-0.3-8.4-0.9-8.4-0.9L59.9,33.5z"/>
		<path fill="#FFFFFF" d="M45.9,29.3c0,0,2.3-5.2,3.4-7.8c-0.7-0.4-1.1-0.9-1.2-1.6c-0.1-0.7,0.1-1.4,0.7-1.8
			c0.9-0.8,2.3-0.7,2.9,0.2c0.7,0.9,0.8,2.4-1,3.3c1.1,2.6,3.3,7.7,3.3,7.7l1.2,0.3c0,0-2.3-5.2-3.3-7.7c1.5-1.3,1.4-3.1,0.4-4.3
			c-0.9-1.1-2.6-1.3-3.8-0.5c-0.6,0.4-1,1-1.2,1.7c-0.3,1.2,0.1,2.1,0.9,3c-1.1,2.6-3.5,7.8-3.5,7.8L45.9,29.3z"/>
		<path fill="#FFFFFF" d="M37.6,41.2c0,0-4.3-3.8-6.4-5.7c-0.5,0.5-1.2,0.8-1.9,0.7c-0.8-0.1-1.2-0.5-1.5-1.2
			c-0.5-1.1,0.1-2.4,1.1-2.7c1.1-0.4,2.5,0,2.9,1.9c2.8-0.3,8.4-0.8,8.4-0.8l0.6-1.1c0,0-5.6,0.5-8.3,0.8c-0.8-1.8-2.5-2.3-3.9-1.7
			c-1.3,0.6-2.1,2.1-1.7,3.5c0.2,0.7,0.7,1.3,1.3,1.7c1,0.6,2.1,0.5,3.1,0.1c2.1,1.9,6.3,5.7,6.3,5.7L37.6,41.2z"/>
		<path fill="#FFFFFF" d="M46.4,52.8c0,0-4.9,2.9-7.4,4.3c0.3,0.7,0.4,1.3,0,2c-0.3,0.7-0.9,1-1.6,1.1c-1.2,0.1-2.2-0.8-2.2-1.9
			c0-1.1,0.8-2.4,2.7-2.1c0.6-2.7,1.9-8.2,1.9-8.2L39,47.1c0,0-1.2,5.5-1.8,8.2c-1.9,0.2-3,1.7-2.8,3.2c0.1,1.4,1.4,2.6,2.8,2.7
			c0.7,0,1.4-0.2,2-0.7c0.9-0.8,1.2-1.8,1-3c2.4-1.4,7.4-4.2,7.4-4.2L46.4,52.8z"/>
		<polygon fill="#FFFFFF" points="61.9,39.2 62.7,36.8 60.6,35.3 		"/>
		<polygon fill="#FFFFFF" points="51.9,29 49.9,27.5 47.9,29 		"/>
		<polygon fill="#FFFFFF" points="50,54.3 52,52.8 48,52.8 		"/>
		<polygon fill="#FFFFFF" points="42.1,30.1 41.4,32.5 44.6,30.1 		"/>
		<polygon fill="#FFFFFF" points="38.1,42.7 37.3,45 39.4,46.5 		"/>
		<polygon fill="#FFFFFF" points="58.6,49.3 55.3,51.7 57.8,51.7 		"/>
		<polygon fill="#FFFFFF" points="57.8,30.1 55.3,30.1 58.6,32.5 		"/>
		<polygon fill="#FFFFFF" points="38.1,39.1 39.3,35.3 37.3,36.8 		"/>
		<polygon fill="#FFFFFF" points="44.6,51.7 41.4,49.4 42.2,51.7 		"/>
		<polygon fill="#FFFFFF" points="60.7,46.5 62.6,45 61.9,42.7 		"/>
		<ellipse fill="none" stroke="#FFFFFF" stroke-width="0.4" stroke-miterlimit="10" cx="50.1" cy="41.1" rx="8.1" ry="8.1"/>
		<g>
			<path fill="#FFFFFF" d="M45.4,37.8c0.1,0.3,0,2.4,0,2.4h9.5c0,0-0.1-2,0-2.4c0.2-0.7,1-1.4,1-1.4H44.4
				C44.4,36.4,45.2,37.2,45.4,37.8z"/>
			<polygon fill="#FFFFFF" points="49.4,46.7 50.1,47.2 50.8,46.7 50.8,40.8 49.4,40.8 			"/>
			<rect x="47.3" y="40.8" fill="#FFFFFF" width="1.4" height="5.8"/>
			<polygon fill="#FFFFFF" points="51.4,46.7 52.8,46.7 52.8,40.8 51.4,40.8 			"/>
			<path fill="#FFFFFF" d="M54.8,40.8h-1.3c0,0,0,3.9,0,5.8c0.7,0.1,1.3-0.5,1.3-1.2C54.8,44,54.8,40.8,54.8,40.8z"/>
			<path fill="#FFFFFF" d="M45.3,41c0,0,0,3.1,0,4.7c0,0.6,0.7,1.1,1.3,1c0-1.9,0-5.8,0-5.8s-0.8,0-1.3,0C45.4,40.9,45.3,41,45.3,41
				z"/>
		</g>
	</g>
	<g>
		<path fill="#FFFFFF" d="M23.1,70.1h3v8c0,1.3,0,2.1,0.1,2.5c0.1,0.6,0.4,1.1,0.9,1.5c0.5,0.4,1.1,0.5,2,0.5c0.8,0,1.5-0.2,1.9-0.5
			s0.7-0.8,0.8-1.3s0.1-1.3,0.1-2.5v-8.2h3v7.8c0,1.8-0.1,3-0.2,3.8c-0.2,0.7-0.5,1.4-0.9,1.9s-1,0.9-1.7,1.2
			c-0.7,0.3-1.7,0.4-2.8,0.4c-1.4,0-2.5-0.2-3.2-0.5c-0.7-0.3-1.3-0.8-1.7-1.3s-0.7-1.1-0.8-1.6c-0.2-0.8-0.3-2.1-0.3-3.8V70.1z"/>
		<path fill="#FFFFFF" d="M37.3,80.1l2.9-0.3c0.2,1,0.5,1.7,1.1,2.1c0.5,0.5,1.3,0.7,2.2,0.7c1,0,1.7-0.2,2.2-0.6
			c0.5-0.4,0.7-0.9,0.7-1.4c0-0.3-0.1-0.6-0.3-0.9c-0.2-0.2-0.6-0.5-1.1-0.6c-0.3-0.1-1.1-0.3-2.4-0.6c-1.6-0.4-2.7-0.9-3.4-1.5
			c-0.9-0.8-1.4-1.8-1.4-3c0-0.8,0.2-1.5,0.6-2.1c0.4-0.7,1-1.2,1.8-1.5c0.8-0.3,1.8-0.5,2.9-0.5c1.9,0,3.3,0.4,4.2,1.2
			c0.9,0.8,1.4,1.9,1.5,3.3l-3,0.1c-0.1-0.8-0.4-1.3-0.8-1.6c-0.4-0.3-1.1-0.5-1.9-0.5c-0.9,0-1.5,0.2-2,0.5
			c-0.3,0.2-0.5,0.5-0.5,0.9c0,0.3,0.1,0.6,0.4,0.9c0.4,0.3,1.3,0.6,2.7,1c1.5,0.3,2.5,0.7,3.2,1.1c0.7,0.4,1.2,0.9,1.6,1.5
			c0.4,0.6,0.6,1.4,0.6,2.4c0,0.8-0.2,1.6-0.7,2.4c-0.5,0.7-1.1,1.3-2,1.7c-0.9,0.4-1.9,0.5-3.2,0.5c-1.9,0-3.3-0.4-4.3-1.3
			C38.1,83,37.5,81.7,37.3,80.1z"/>
		<path fill="#FFFFFF" d="M51.1,80.1l2.9-0.3c0.2,1,0.5,1.7,1.1,2.1c0.5,0.5,1.3,0.7,2.2,0.7c1,0,1.7-0.2,2.2-0.6
			c0.5-0.4,0.7-0.9,0.7-1.4c0-0.3-0.1-0.6-0.3-0.9c-0.2-0.2-0.6-0.5-1.1-0.6c-0.3-0.1-1.1-0.3-2.4-0.6c-1.6-0.4-2.7-0.9-3.4-1.5
			c-0.9-0.8-1.4-1.8-1.4-3c0-0.8,0.2-1.5,0.6-2.1c0.4-0.7,1-1.2,1.8-1.5c0.8-0.3,1.8-0.5,2.9-0.5c1.9,0,3.3,0.4,4.2,1.2
			c0.9,0.8,1.4,1.9,1.5,3.3l-3,0.1c-0.1-0.8-0.4-1.3-0.8-1.6c-0.4-0.3-1.1-0.5-1.9-0.5c-0.9,0-1.5,0.2-2,0.5
			c-0.3,0.2-0.5,0.5-0.5,0.9c0,0.3,0.1,0.6,0.4,0.9c0.4,0.3,1.3,0.6,2.7,1c1.5,0.3,2.5,0.7,3.2,1.1c0.7,0.4,1.2,0.9,1.6,1.5
			c0.4,0.6,0.6,1.4,0.6,2.4c0,0.8-0.2,1.6-0.7,2.4c-0.5,0.7-1.1,1.3-2,1.7c-0.9,0.4-1.9,0.5-3.2,0.5c-1.9,0-3.3-0.4-4.3-1.3
			C51.9,83,51.3,81.7,51.1,80.1z"/>
		<path fill="#FFFFFF" d="M64.9,80.1l2.9-0.3c0.2,1,0.5,1.7,1.1,2.1c0.5,0.5,1.3,0.7,2.2,0.7c1,0,1.7-0.2,2.2-0.6
			c0.5-0.4,0.7-0.9,0.7-1.4c0-0.3-0.1-0.6-0.3-0.9c-0.2-0.2-0.6-0.5-1.1-0.6c-0.3-0.1-1.1-0.3-2.4-0.6c-1.6-0.4-2.7-0.9-3.4-1.5
			c-0.9-0.8-1.4-1.8-1.4-3c0-0.8,0.2-1.5,0.6-2.1c0.4-0.7,1-1.2,1.8-1.5c0.8-0.3,1.8-0.5,2.9-0.5c1.9,0,3.3,0.4,4.2,1.2
			c0.9,0.8,1.4,1.9,1.5,3.3l-3,0.1c-0.1-0.8-0.4-1.3-0.8-1.6c-0.4-0.3-1.1-0.5-1.9-0.5c-0.9,0-1.5,0.2-2,0.5
			c-0.3,0.2-0.5,0.5-0.5,0.9c0,0.3,0.1,0.6,0.4,0.9c0.4,0.3,1.3,0.6,2.7,1c1.5,0.3,2.5,0.7,3.2,1.1c0.7,0.4,1.2,0.9,1.6,1.5
			c0.4,0.6,0.6,1.4,0.6,2.4c0,0.8-0.2,1.6-0.7,2.4c-0.5,0.7-1.1,1.3-2,1.7c-0.9,0.4-1.9,0.5-3.2,0.5c-1.9,0-3.3-0.4-4.3-1.3
			C65.7,83,65.1,81.7,64.9,80.1z"/>
	</g>
</g>
</svg>
