<?xml version="1.0" encoding="utf-8"?>
<!-- Generator: Adobe Illustrator 22.0.1, SVG Export Plug-In . SVG Version: 6.00 Build 0)  -->
<svg version="1.1" id="Layer_1" xmlns="http://www.w3.org/2000/svg" xmlns:xlink="http://www.w3.org/1999/xlink" x="0px" y="0px"
	 viewBox="0 0 100 100" enable-background="new 0 0 100 100" xml:space="preserve">
<g id="_x37_59c0d4f-3e27-4d8d-bf70-4f81118ca9eb">
	<path fill="none" stroke="#FFFFFF" stroke-width="2" stroke-linecap="round" stroke-linejoin="round" d="M30.7,61.4
		c-1.9,0.1-3.4-1.1-4.5-3.6c-0.7-1.8-1.3-3-1.5-3.5c-0.4-0.6-0.8-1.2-1.2-1.8h-1.5v5.7c0,1,0.3,1.9,1,2.6H15
		c0.6-0.7,0.9-1.6,0.9-2.6V38.6c0-0.9-0.3-1.9-0.9-2.6h9.4c5.9,0,8.9,2.8,9,8.5c0,3.2-1.4,5.5-4.1,6.8c0.9,1.1,1.6,2.3,2.2,3.6
		c0.6,1.4,1,2.3,1.4,2.8c0.6,0.8,1.4,1.3,2.4,1.5c-0.4,0.4-0.9,0.7-1.4,1.1C32.7,61,31.7,61.4,30.7,61.4z M23.1,41h-1.2v6.6h1.3
		c1.5,0,2.6-0.2,3.4-0.7c0.8-0.6,1.2-1.5,1.2-2.9l0-0.1c0-1.3-0.5-2.1-1.5-2.5C25.8,41.2,24.7,41,23.1,41z M37,60.7
		c0.6-0.7,0.9-1.6,0.9-2.6V38.6c0-1-0.3-1.9-1-2.6h7.8c-0.6,0.8-0.9,1.7-0.9,2.6v19.5c0,0.9,0.3,1.8,0.9,2.6H37z M56.8,61.3
		c-0.5,0-2.2-0.2-5-0.7c-0.3-0.1-0.7-0.1-1.1-0.1c-0.5,0-1.3,0.5-2.4,1.4V52c2.3,2.6,5,3.9,7.9,3.9c2.4,0,3.6-0.8,3.6-2.4
		c0-1.2-1.2-2.2-3.5-3.2c-2.7-1.2-4.5-2.1-5.4-2.7c-1.6-1.3-2.4-3-2.4-5.1c0-2.3,0.8-4,2.4-5.2c1.5-1.1,3.4-1.6,5.9-1.6
		c0.8,0,1.7,0.1,2.5,0.4c0.7,0.2,1.3,0.3,2,0.4c0.4,0,1-0.4,1.8-1.2v9.1c-2.2-2.5-4.4-3.7-6.8-3.7c-1.2,0-1.8,0.4-1.8,1.3
		c0,0.6,0.3,1,1,1.3c0.8,0.3,2,0.8,3.6,1.5c4.4,1.9,6.7,4.5,6.7,7.9c0,2.3-0.9,4.4-2.7,6.1C61.5,60.4,59.2,61.3,56.8,61.3L56.8,61.3
		z M84,60.7H68.3c0.6-0.7,0.9-1.6,0.9-2.6V38.6c0-0.9-0.3-1.9-0.9-2.6h15.4v5.7c-0.8-0.6-1.7-0.9-2.7-0.9h-5.8v3.8h4.4
		c0.8,0,1.5-0.3,2.1-0.7v6.2c-0.8-0.4-1.6-0.6-2.2-0.6h-4.3v6.5h6.8c0.9,0,1.9-0.3,3.1-1L84,60.7z"/>
	<g>
		<polygon fill="#FFFFFF" points="29.1,68.6 29.1,69.3 30.3,69.3 30.6,69.2 30.6,68.8 30.3,68.6 		"/>
		<polygon fill="#FFFFFF" points="29.1,67.2 29.1,67.9 30.3,67.9 30.6,67.7 30.6,67.3 30.3,67.2 		"/>
		<path fill="#FFFFFF" d="M31.7,69.2v-0.5v0c0.1-0.2,0.1-0.4-0.1-0.5l0,0l0,0c0.1-0.1,0.2-0.3,0.1-0.5l0-0.5l0,0
			c0.1-0.2,0.1-0.4-0.1-0.5l-0.8-0.6c-0.1,0-0.1-0.1-0.2-0.1h-2.4c-0.2,0-0.4,0.2-0.4,0.4c0,0.1,0,0.2,0.1,0.2l0.1,0.1v2.9l-0.1,0.1
			c-0.1,0.2-0.1,0.4,0,0.5c0.1,0.1,0.1,0.1,0.2,0.1h2.4c0.1,0,0.2,0,0.2-0.1l0.8-0.6C31.7,69.6,31.8,69.4,31.7,69.2z M31.4,68
			L31,68.3l0.4,0.3l-0.1,0.1v0.7l0.1,0.1L30.6,70h-2.4l0.2-0.2v-3.2l-0.2-0.2h2.4l0.8,0.6l-0.1,0.1v0.7L31.4,68z"/>
	</g>
	<g>
		<polygon fill="#FFFFFF" points="33.8,67.2 33.8,67.9 34.9,67.9 35.2,67.7 35.2,67.3 34.9,67.2 		"/>
		<path fill="#FFFFFF" d="M36.5,69.7l-0.2-0.2l-0.6-0.9l0.5-0.4c0.1-0.1,0.2-0.3,0.1-0.5l0,0v-0.5l0,0c0.1-0.2,0-0.4-0.1-0.5
			l-0.8-0.6c-0.1,0-0.1-0.1-0.2-0.1h-2.3c-0.2,0-0.4,0.2-0.4,0.4c0,0.1,0,0.2,0.1,0.2l0.1,0.1v2.9l-0.1,0.1c-0.1,0.2-0.1,0.4,0,0.5
			c0.1,0.1,0.1,0.1,0.2,0.1H34c0.2,0,0.4-0.2,0.4-0.4c0-0.1,0-0.2-0.1-0.3l-0.1-0.1V69l0.5,0.8c-0.1,0.1-0.1,0.4,0,0.5
			c0.1,0.1,0.2,0.1,0.3,0.1h1.4c0.2,0,0.4-0.2,0.4-0.4C36.6,69.9,36.6,69.8,36.5,69.7z M34.9,70l0.2-0.2l-0.7-1.3h-0.5v1.2L34,70
			h-1.2l0.2-0.2v-3.2l-0.2-0.2l2.3,0L36,67l-0.1,0.1v0.7L36,68l-0.7,0.6l0.7,1.3l0.3,0.2H34.9z"/>
	</g>
	<path fill="#FFFFFF" d="M40.7,68.8c-0.1-0.1-0.3,0-0.4,0l-0.1,0.1c0,0,0-0.1,0-0.1v-1.1c0,0,0-0.1,0-0.1c0.2,0.1,0.4,0.1,0.5-0.1
		c0-0.1,0.1-0.1,0.1-0.2v-0.9c0-0.2-0.2-0.4-0.4-0.4h-2.6c-0.2,0-0.4,0.2-0.4,0.4c0,0.1,0,0.2,0.1,0.2l0.1,0.1v2.9l-0.1,0.1
		c-0.1,0.2-0.1,0.4,0,0.5c0.1,0.1,0.1,0.1,0.2,0.1h2.8c0.2,0,0.4-0.2,0.4-0.4v-0.9C40.9,69,40.8,68.9,40.7,68.8z M40.5,70h-2.8
		l0.2-0.2v-3.2l-0.2-0.2h2.6v0.9l-0.2-0.2h-1.5l0,0.8h1l0.2-0.2v1.1l-0.2-0.2h-1v0.7h1.6l0.2-0.2V70z"/>
	<g>
		<path fill="#FFFFFF" d="M46.8,66.1L46.8,66.1l-1.3,0c-0.1,0-0.3,0.1-0.3,0.2c-0.1-0.1-0.2-0.2-0.3-0.2h-1.1
			c-0.1,0-0.2,0.1-0.3,0.1c-0.1-0.1-0.2-0.1-0.3-0.1H42c-0.2,0-0.4,0.2-0.4,0.4c0,0.1,0,0.2,0.1,0.3l0.2,0.1l0.9,2.9l-0.1,0.1
			c-0.1,0.1-0.1,0.4,0,0.5c0.1,0.1,0.2,0.1,0.3,0.1h1.2c0.1,0,0.1,0,0.2-0.1c0.1,0,0.1,0.1,0.2,0.1h1.3c0.2,0,0.4-0.2,0.4-0.4
			c0-0.1,0-0.2-0.1-0.3L46,69.7l0.9-2.9l0.2-0.1c0.1-0.1,0.2-0.4,0-0.5C47,66.1,46.9,66.1,46.8,66.1z M46.5,66.7l-1,3.2l0.2,0.2
			h-1.3l0.2-0.2l-0.4-1.5l-0.4,1.5l0.2,0.2h-1.2l0.2-0.2l-0.9-3.2L42,66.5h1.2L43,66.6l0.5,1.7l0.4-1.7l-0.2-0.2h1.1l-0.2,0.2
			l0.4,1.6l0.5-1.7l-0.2-0.2h1.3L46.5,66.7z"/>
		<path fill="#FFFFFF" d="M49.6,69.7v-2.9l0.1-0.1c0.1-0.1,0.1-0.4,0-0.5c-0.1-0.1-0.2-0.1-0.2-0.1h-1.1c-0.2,0-0.4,0.2-0.4,0.4
			c0,0.1,0,0.2,0.1,0.2l0.1,0.1v2.9L48,69.8c-0.1,0.2-0.1,0.4,0,0.5c0.1,0.1,0.1,0.1,0.2,0.1h1.1c0.2,0,0.4-0.2,0.4-0.4
			c0-0.1,0-0.2-0.1-0.2L49.6,69.7z M49.4,70h-1.1l0.2-0.2v-3.2l-0.2-0.2h1.1l-0.2,0.2v3.2L49.4,70z"/>
		<path fill="#FFFFFF" d="M54.4,69.7v-2.9l0.1-0.1c0.1-0.2,0.1-0.4,0-0.5c-0.1-0.1-0.1-0.1-0.2-0.1h-1.1c-0.2,0-0.4,0.2-0.4,0.4
			c0,0.1,0,0.2,0.1,0.2l0.1,0.1v0.6l-0.5-0.8c0.1-0.2,0-0.4-0.1-0.5c-0.1,0-0.1-0.1-0.2-0.1H51c-0.2,0-0.4,0.2-0.4,0.4
			c0,0.1,0,0.2,0.1,0.2l0.1,0.1v2.9l-0.1,0.1c-0.1,0.2-0.1,0.4,0,0.5c0.1,0.1,0.1,0.1,0.2,0.1h1.1c0.2,0,0.4-0.2,0.4-0.4
			c0-0.1,0-0.2-0.1-0.2l-0.1-0.1V69l0.5,0.8c-0.1,0.2-0.1,0.4,0.1,0.5c0.1,0.1,0.1,0.1,0.2,0.1h1.1c0.2,0,0.4-0.2,0.4-0.4
			c0-0.1,0-0.2-0.1-0.2L54.4,69.7z M54.1,70H53l0.2-0.2l-1.3-1.9v1.9L52,70h-1.1l0.2-0.2v-3.2l-0.2-0.2H52l-0.1,0.2l1.3,1.9v-1.9
			L53,66.4h1.1l-0.2,0.2v3.2L54.1,70z"/>
		<path fill="#FFFFFF" d="M58.9,67.5L58.9,67.5c0-0.1,0.1-0.1,0.1-0.2v-0.9c0-0.2-0.2-0.4-0.4-0.4h-2.1c-0.1,0-0.2,0-0.2,0.1
			l-0.8,0.6c-0.1,0.1-0.2,0.3-0.1,0.5l0,2v0c-0.1,0.2-0.1,0.4,0.1,0.5l0.8,0.6c0.1,0,0.1,0.1,0.2,0.1H58c0.1,0,0.2,0,0.2-0.1
			l0.7-0.5c0.1-0.1,0.1-0.2,0.1-0.3v-1.3l0.1-0.1c0.1-0.1,0.1-0.4,0-0.5C59.1,67.6,59,67.5,58.9,67.5z M58.6,69.5L57.9,70h-1.5
			l-0.8-0.6l0.1-0.1v-2.2L55.6,67l0.8-0.6h2.1v0.9l-0.2-0.2h-1.6l-0.2,0.2v1.8l0.2,0.2h1l0.2-0.2v-1.1l-0.2-0.2h1.1l-0.2,0.2
			L58.6,69.5z M57.5,68.1L57.5,68.1l0.1,0.1V69h-0.7v-1.5h1.4l0,0h-0.5c-0.2,0-0.4,0.2-0.4,0.4C57.4,68,57.4,68.1,57.5,68.1z"/>
		<path fill="#FFFFFF" d="M66.4,68.8c-0.1-0.1-0.3,0-0.4,0L65.9,69h-1.4v-1.5h1.3l0.1,0.1c0.2,0.1,0.4,0.1,0.5,0
			c0.1-0.1,0.1-0.1,0.1-0.2v-0.9c0-0.2-0.2-0.4-0.4-0.4h-2c-0.1,0-0.2,0-0.2,0.1L63,66.8c-0.1,0.1-0.2,0.3-0.1,0.5l0,2v0
			c-0.1,0.2-0.1,0.4,0.1,0.5l0.8,0.6c0.1,0,0.1,0.1,0.2,0.1h2.2c0.2,0,0.4-0.2,0.4-0.4v-0.9C66.6,69,66.5,68.9,66.4,68.8z M66.1,70
			h-2.2l-0.8-0.6l0.1-0.1v-2.2L63.2,67l0.8-0.6h2v0.9l-0.2-0.2h-1.6L64,67.3v1.8l0.2,0.2h1.7l0.2-0.2V70z"/>
		<path fill="#FFFFFF" d="M68.7,67.2l-0.2,0.2v1.8l0.2,0.2h1.1l0.2-0.2v-1.8l-0.2-0.2H68.7z M69.8,69H69v-1.5h0.8V69z"/>
		<path fill="#FFFFFF" d="M71.3,67.2c0.1-0.2,0-0.3-0.1-0.4l-0.8-0.6c-0.1,0-0.1-0.1-0.2-0.1h-1.6c-0.1,0-0.2,0-0.2,0.1l-0.8,0.6
			c-0.1,0.1-0.2,0.3-0.1,0.5l0,2v0c-0.1,0.2-0.1,0.4,0.1,0.5l0.8,0.6c0.1,0,0.1,0.1,0.2,0.1h1.6c0.1,0,0.2,0,0.2-0.1l0.8-0.6
			c0.1-0.1,0.2-0.3,0.1-0.5L71.3,67.2L71.3,67.2z M70,70h-1.6l-0.8-0.6l0.1-0.1v-2.2L67.7,67l0.8-0.6H70l0.8,0.6l-0.1,0.1v2.2
			l0.1,0.1L70,70z"/>
		<path fill="#FFFFFF" d="M73.4,69h-0.8c-0.2,0-0.4,0.2-0.4,0.4V70c0,0.2,0.2,0.4,0.4,0.4h0.8c0.2,0,0.4-0.2,0.4-0.4v-0.7
			C73.7,69.1,73.5,69,73.4,69z M73.2,70h-0.7v-0.7h0.7V70z"/>
		<path fill="#FFFFFF" d="M76.1,66.9c0-0.2-0.2-0.4-0.4-0.4h-0.4l0,1h0.2v-0.3h0.1l0.2,0.3H76l-0.2-0.3C76,67.2,76.1,67.1,76.1,66.9
			z M75.6,67.1h-0.2v-0.4h0.2c0,0,0,0,0,0c0.1,0,0.2,0.1,0.2,0.2C75.8,67.1,75.7,67.1,75.6,67.1z"/>
		<path fill="#FFFFFF" d="M75.6,66.1c-0.6,0-1,0.4-1,1s0.4,1,1,1c0.6,0,1-0.4,1-1C76.6,66.5,76.2,66.1,75.6,66.1z M75.6,67.8
			c-0.4,0-0.8-0.3-0.8-0.8c0-0.4,0.3-0.8,0.8-0.8c0.4,0,0.8,0.3,0.8,0.8C76.4,67.5,76,67.8,75.6,67.8z"/>
	</g>
</g>
</svg>
