<?xml version="1.0" encoding="utf-8"?>
<!-- Generator: Adobe Illustrator 22.0.1, SVG Export Plug-In . SVG Version: 6.00 Build 0)  -->
<svg version="1.1" id="Layer_1" xmlns="http://www.w3.org/2000/svg" xmlns:xlink="http://www.w3.org/1999/xlink" x="0px" y="0px"
	 viewBox="0 0 100 100" enable-background="new 0 0 100 100" xml:space="preserve">
<g>
	<path fill="#FFFFFF" d="M78.4,63.2l0,0.2L78.4,63.2l-3-8.3h-1.7l3.8,10.7v0.1c-0.2,1-0.9,2.3-1.5,2.7c-0.5,0.4-1.1,0.4-1.5,0.4
		c-0.2,0-0.6-0.1-0.8-0.1V70c0.2,0.1,0.8,0.2,1.1,0.2c0.8,0,1.5-0.2,2-0.6c0.7-0.5,1.4-1.8,1.8-2.9l3.8-11.7h-1.7L78.4,63.2z"/>
	<path fill="#FFFFFF" d="M72.6,60.6v-1c0-1.8-0.5-3.1-1.3-3.9c-0.7-0.7-1.8-1-3.2-1c-0.7,0-1.4,0.1-1.9,0.4
		c-0.6,0.3-1.1,0.6-1.5,1.1c-0.8,1-1.2,2.4-1.2,4.1c0,1.9,0.5,3.4,1.5,4.4c1.1,1,2.4,1.2,3.3,1.2c2.4,0,3.6-1.3,4.1-2.5l-1.4-0.7
		c-0.3,0.7-1.1,1.8-2.7,1.8c-1,0-1.8-0.4-2.3-1.1c-0.5-0.7-0.8-1.7-0.8-2.8C65.3,60.6,72.6,60.6,72.6,60.6z M71,59.3h-5.7
		c0.1-2.2,1.1-3.2,2.9-3.2C70.1,56,71,57.1,71,59.3z"/>
	<path fill="#FFFFFF" d="M40.6,34.8c-0.8-1.1-2-1.6-3.5-1.6c-1.4,0-2.6,0.6-3.5,1.6c-0.8,1-1.2,2.4-1.2,4s0.4,3,1.2,4
		c0.8,1.1,2,1.6,3.5,1.6c1.4,0,2.6-0.6,3.5-1.6c0.8-1,1.2-2.4,1.2-4C41.8,37.2,41.4,35.8,40.6,34.8z M37.1,43
		c-1.8,0-2.9-1.6-2.9-4.3c0-2.7,1.1-4.3,2.9-4.3c1.8,0,2.9,1.6,2.9,4.3C40,41.4,39,43,37.1,43z"/>
	<path fill="#FFFFFF" d="M45.6,38.1c0.4-2.2,1.6-3.3,3.6-3.3v-1.6c-1.7,0-2.7,0.7-3.6,2.2l0,0l0-0.1v-2h-1.7v10.8h1.7V38.1z"/>
	<path fill="#FFFFFF" d="M20.6,54.6c0-0.7,0.2-1.3,0.7-1.7c0.5-0.4,1.1-0.6,2-0.6c0.9,0,1.7,0.3,2.3,0.7c0.6,0.4,1,1.1,1.1,1.8
		l1.6-0.2c-0.7-2.4-2.4-3.8-5-3.8c-1.3,0-2.4,0.4-3.2,1.1c-0.8,0.7-1.2,1.7-1.2,2.7c0,1.2,0.5,2.1,1.4,2.8c0.9,0.6,2,1,3.1,1.4
		c1.9,0.7,3.7,1.3,3.7,3c0,0.8-0.3,1.4-0.8,1.9c-0.5,0.5-1.3,0.7-2.4,0.7c-1.8,0-3.1-1-3.9-3L18.4,62c0.3,0.8,0.9,1.9,1.8,2.7
		c0.9,0.8,2.1,1.3,3.6,1.3c1.7,0,3.1-0.5,3.9-1.4c0.9-0.9,1.1-2.1,1.1-3c0-1.2-0.5-2.1-1.5-2.9c-0.9-0.6-2.1-1-3.2-1.4
		C22.3,56.7,20.5,56.1,20.6,54.6z"/>
	<path fill="#FFFFFF" d="M31.5,56.2h-1.6v-1.3h1.6v-3.5h1.7v3.5H35v1.3h-1.8v7.4c0,0.5,0.1,0.9,1.2,0.9c0.2,0,0.4,0,0.6,0v1.2
		c0,0-0.6,0.2-1.1,0.2c-0.8,0-1.3-0.1-1.7-0.4c-0.4-0.2-0.7-0.6-0.7-1.3C31.5,63.8,31.5,56.2,31.5,56.2z"/>
	<path fill="#FFFFFF" d="M60.6,63.6c0,0.5,0.2,0.9,1.3,0.9c0.2,0,0.4,0,0.6,0v1.2c0,0-0.6,0.2-1.1,0.2c-0.8,0-1.3-0.1-1.7-0.4
		c-0.4-0.2-0.7-0.6-0.7-1.3V50.7h1.7L60.6,63.6z"/>
	<path fill="#FFFFFF" d="M73.8,36.2c0.6-0.6,1.9-1.7,3-1.7c1.2,0,1.7,0.6,1.7,1.9v7.8h1.7v-7.8c0-2.3-1.7-3.2-3.2-3.2
		c-1.1,0-2.2,0.6-3.2,1.7l0,0l0,0v-1.4h-1.7v10.8h1.7V36.2z"/>
	<path fill="#FFFFFF" d="M67.6,42.9c0,0.6,0.3,0.9,0.7,1.2c0.4,0.2,1.2,0.2,1.5,0.1V43c-0.4,0-0.6-0.2-0.6-0.7v-5.2l0-0.7
		c0-1.1-0.4-1.9-1.2-2.5c-0.7-0.5-1.6-0.7-2.6-0.7c-2.4,0-3.5,1.4-4,2.3l1.4,0.7c0.2-0.5,0.9-1.7,2.7-1.7c1.4,0,2.2,0.6,2.2,1.9
		l0,0.4c0,0,0,0.1,0,0.2c-0.1,0.1-0.2,0.1-0.6,0.2c-2,0.2-3.4,0.6-4.3,1.2c-1.1,0.7-1.7,1.6-1.7,3c0,0.9,0.5,1.7,1.1,2.3
		c0.6,0.5,1.3,0.8,2.2,0.8C65.8,44.5,67,43.7,67.6,42.9z M67.6,41c-0.1,0.9-1.8,2.1-3.3,2c-0.8,0-1.6-0.7-1.7-1.7
		c-0.1-1.8,1.2-2.5,4.1-2.8c0.2,0,0.6-0.1,0.8-0.2V41z"/>
	<path fill="#FFFFFF" d="M43.3,64.4c0,0.6,0.3,0.9,0.7,1.2c0.4,0.2,1.2,0.2,1.5,0.1v-1.1c-0.4,0-0.6-0.2-0.6-0.7v-5.2l0-0.7
		c0-1.1-0.4-1.9-1.2-2.5c-0.7-0.5-1.6-0.7-2.6-0.7c-2.4,0-3.5,1.4-4,2.3l1.4,0.7c0.2-0.5,0.9-1.7,2.7-1.7c1.4,0,2.2,0.6,2.2,1.9
		l0,0.4c0,0,0,0.1,0,0.2c-0.1,0.1-0.2,0.1-0.6,0.2c-2,0.2-3.3,0.6-4.3,1.2c-1.1,0.7-1.7,1.6-1.7,3c0,0.9,0.5,1.7,1.1,2.3
		c0.6,0.5,1.3,0.8,2.2,0.8C41.6,66,42.8,65.3,43.3,64.4z M43.3,62.6c-0.1,0.9-1.8,2.1-3.3,2c-0.8,0-1.6-0.7-1.7-1.7
		c-0.1-1.8,1.2-2.5,4.1-2.8c0.2,0,0.6-0.1,0.8-0.2V62.6z"/>
	<path fill="#FFFFFF" d="M23.9,41.3l-3.6-11.8h-2.8v14.7h1.7V30.8l0,0l4,13.4h1.3l4-13.4l0,0v13.4h1.7V29.5h-2.8L23.9,41.3
		L23.9,41.3L23.9,41.3z"/>
	<path fill="#FFFFFF" d="M49.5,57.7c0.6-0.6,1.9-1.7,3-1.7c1.2,0,1.7,0.6,1.7,1.9v7.8h1.7v-7.8c0-2.3-1.7-3.2-3.2-3.2
		c-1.1,0-2.2,0.6-3.2,1.7h0h0l0-1.4h-1.7v10.8h1.7L49.5,57.7z"/>
	<path fill="#FFFFFF" d="M57.5,33.4l-0.4,1.1c-0.6-0.8-1.4-1.3-2.7-1.3c-1.9,0-4.6,1.3-4.6,5.6c0,4.2,2.7,5.6,4.5,5.6
		c1.1,0,2-0.6,2.7-1.4l0.1,0v2.1c0,1.4-1.2,2.3-2.6,2.3c-1.3,0-2.4-0.2-3.4-0.7V48c0.8,0.3,2.1,0.6,3.2,0.6c3,0,4.4-1.7,4.4-4V33.4
		H57.5z M57.1,41c-0.4,1.2-1.7,2-2.6,2c-1.7,0-3-1.1-3-4.3c0-2.7,1.1-4.2,3-4.2c1,0,1.8,0.4,2.6,1.4V41z"/>
</g>
</svg>
