<?xml version="1.0" encoding="utf-8"?>
<!-- Generator: Adobe Illustrator 22.0.1, SVG Export Plug-In . SVG Version: 6.00 Build 0)  -->
<svg version="1.1" id="Layer_1" xmlns="http://www.w3.org/2000/svg" xmlns:xlink="http://www.w3.org/1999/xlink" x="0px" y="0px"
	 viewBox="0 0 100 100" enable-background="new 0 0 100 100" xml:space="preserve">
<g>
	<path fill="#FFFFFF" d="M87.5,49.8c0,13-16.8,23.6-37.5,23.6c-6.1,0-11.9-0.9-17-2.5l6.6-24.7h3.3l-2.9,11h4.8l3.4-12.6h-8l2.5-9.6
		c0.3-1.2,1.6-3,3.4-3c1,0,2.3,0.5,2.4,1.2c-1.3,0-2.4,1.3-2.4,2.7s1.1,2.5,2.4,2.5c0.9,0,2.8-1,2.7-3.1c-0.1-1.3-0.8-4-5.1-4.1
		c-4.9-0.1-8.4,4.3-9.6,8.8c-0.7,2.7-2.5,9-4,14.8l-3.9,14.5c-9.7-4.3-16-11.3-16-19.3c0-13,16.8-23.6,37.5-23.6
		S87.5,36.8,87.5,49.8z M21.9,57.2l1.6-5.8c8,0.1,9.5-1.8,10.6-6.8c0.8-3.5-1.1-6.2-4.6-6.2h-9.5L19.5,40h2.1L17,57.2L21.9,57.2
		L21.9,57.2z M26.5,40c2.5-0.1,3.5,0.5,2.5,4.6c-1.3,5.3-2.8,5.2-5.1,5.2C23.9,49.8,26.5,40,26.5,40z M85.4,46.8
		c0-1.4-1.1-2.6-2.4-2.6c-1.1,0-2.6,0.7-3.6,2.4l0.5-2h-6.5L73,46.1h1.7l-2.9,11h4.8c0,0,1.8-6.7,1.8-6.7c0.7-2.1,2-4.5,2.4-4.1
		c-0.4,1.9,1,3,2.3,3C84.3,49.4,85.4,48.2,85.4,46.8z M63.4,51.3h8c0.1-0.2,0.1-0.4,0.1-0.5c0.9-4.2-1.2-6.8-4.5-6.8
		c-3.6,0-6.9,1.2-8.3,6.8c-0.9,3.7,1.1,6.7,4.6,6.9c3.2,0.1,6.2-0.8,7.7-5.1h-4.9l-0.3,1.1c-0.6,2.2-1.4,2.4-2.2,2.4
		c-0.9,0-1.3-1.1-0.9-2.4L63.4,51.3L63.4,51.3z M64.3,48c0.4-1.3,1.2-2.5,2.2-2.4c1,0,1.3,1.1,0.9,2.4l-0.5,1.7h-3.1L64.3,48z
		 M57,55.6h-4.1l7-11H49.7l-0.4,1.6h4.1l-6.9,11h10.1L57,55.6L57,55.6z"/>
</g>
</svg>
