<?xml version="1.0" encoding="utf-8"?>
<!-- Generator: Adobe Illustrator 22.0.1, SVG Export Plug-In . SVG Version: 6.00 Build 0)  -->
<svg version="1.1" id="Layer_1" xmlns="http://www.w3.org/2000/svg" xmlns:xlink="http://www.w3.org/1999/xlink" x="0px" y="0px"
	 viewBox="0 0 100 100" enable-background="new 0 0 100 100" xml:space="preserve">
<g>
	<path fill="#FFFFFF" d="M69.5,71.8c-0.6-0.2-0.8-0.6-0.8-1.5c0-1,0.1-1.1,1.2-1.1c0.7,0,1.5,0.2,1.7,0.5c0.6,0.7,1.1,0.4,1.1-0.5
		c0-0.6-0.2-0.7-1.5-0.5c-2.4,0.3-2.9-0.5-2.9-3.9c0-4.1,0.3-4.4,4.4-4.4l3.3,0l-0.2,4.7c-0.2,5.9-0.3,6.1-1.4,6.7
		C73.3,72.2,70.7,72.2,69.5,71.8L69.5,71.8z M72.7,64.8c0.1-1.7-0.5-2.8-1-1.9c-0.4,0.6-0.5,2.2-0.1,3.1
		C71.9,67.1,72.6,66.4,72.7,64.8z M12.7,67.6c0.1-0.7,0.6-3.2,1-5.7l0.8-4.5h2.5c2.3,0,2.5,0.1,2.7,0.8c0.5,2.2,1.8,8.3,1.9,9.4
		l0.2,1.2h-4.6l0.2-1.5c0.2-1.4,0.1-1.5-0.7-1.5c-0.8,0-0.8,0.1-0.5,0.7c0.2,0.4,0.4,1.1,0.4,1.5c0,0.7-0.2,0.8-2.1,0.8h-2.1
		L12.7,67.6L12.7,67.6z M17.4,63c0-0.9-0.7-2.3-0.7-1.6c0,0.3-0.1,0.9-0.3,1.4c-0.2,0.6-0.1,0.8,0.4,0.8
		C17.1,63.6,17.4,63.4,17.4,63z M22.5,68.1c-0.2-0.4-0.4-2-0.4-3.6c0-3.6,0.6-4.4,2.9-4l1.4,0.2L26.3,59l-0.2-1.6h3.4v4
		c0,2.2,0.1,4.8,0.2,5.7l0.2,1.7l-3.6,0C23.4,68.8,22.9,68.7,22.5,68.1z M26.4,64.5c0-1.4-0.1-1.8-0.6-1.8c-0.6,0-1,2.3-0.6,3.4
		C25.7,67.3,26.4,66.3,26.4,64.5z M31.8,67.3c-0.2-0.9-0.7-2.6-1.1-3.8c-0.4-1.2-0.6-2.4-0.5-2.7c0.1-0.3,0.8-0.5,2.1-0.5h1.9
		L34,61.7c-0.2,2.6,0,3.6,0.4,3.2c0.2-0.2,0.4-1.3,0.4-2.5l0-2.1h3.4L38,61.5c-0.1,0.7-0.6,2.5-1.1,4.2l-0.9,3l-1.9,0.1l-1.9,0.1
		L31.8,67.3L31.8,67.3z M38.9,68.3c-1.4-1.7-0.6-3.7,1.8-4.4c1.5-0.4,2.2-1.2,1.6-1.7c-0.1-0.1-0.5,0-0.7,0.4
		c-0.3,0.4-1,0.6-1.8,0.6c-1.3,0-1.4-0.1-1.3-1c0.1-1.3,1.4-1.9,3.7-1.9c1.3,0,2,0.2,2.6,0.8c0.8,0.7,0.9,1.2,1.1,4.2l0.2,3.4
		l-3.5,0C40.5,68.8,39.1,68.6,38.9,68.3z M42.5,66c0-0.3-0.2-0.5-0.4-0.4c-0.7,0.2-0.8,1-0.1,1C42.2,66.6,42.5,66.3,42.5,66L42.5,66
		z M46.7,64.6v-4.2l3.2,0c3.9,0,4.3,0.3,4.3,3.1c0,1.1,0.1,2.7,0.2,3.7l0.2,1.7h-3.4l-0.1-3c-0.1-2.2-0.2-3.1-0.6-3.2
		c-0.4-0.1-0.5,0.4-0.3,3l0.2,3.2h-3.9L46.7,64.6L46.7,64.6z M56,68.2c-0.6-0.6-0.8-3.8-0.7-7.7c0.1-1.7,0.3-1.9,2-2.3
		c1.4-0.2,1.4-0.2,1.4,0.9c0,0.6,0.2,1.1,0.4,1.1c0.2,0,0.4,0.4,0.4,0.9s-0.2,0.9-0.4,0.9c-0.2,0-0.4,1-0.4,2.2
		c0,1.2,0.2,2.3,0.4,2.4c0.2,0.1,0.4,0.6,0.4,1.1c0,0.8-0.2,0.9-1.4,0.9C57.2,68.8,56.3,68.6,56,68.2L56,68.2z M60.4,68
		c-1.1-1.6-0.3-3.3,2.1-4c1.5-0.4,2.2-1.2,1.6-1.7c-0.1-0.1-0.5,0-0.7,0.4c-0.3,0.4-1,0.6-1.8,0.6c-1.2,0-1.3-0.1-1.3-1.1
		c0-0.9,0.2-1.1,1.2-1.5c2.1-0.7,4.3-0.5,5.3,0.5c0.7,0.7,0.9,1.3,0.9,2.9c0,1.1,0.1,2.6,0.2,3.3l0.2,1.4l-3.6,0
		C61.3,68.8,60.9,68.7,60.4,68L60.4,68z M64.3,66c0-0.7-0.8-0.5-1,0.1c-0.1,0.2,0.1,0.4,0.4,0.4C64,66.6,64.3,66.3,64.3,66L64.3,66z
		 M77.5,68.1c-0.6-0.6-0.7-1.2-0.7-3.5c0-3.6,0.5-4.2,3.7-4.2c2.8,0,3.7,0.7,3.7,3.1v1.7h-2c-2.1,0-3,0.7-2,1.6
		c0.3,0.3,0.5,0.3,0.8-0.2c0.3-0.4,0.8-0.6,1.8-0.6c1.4,0,1.5,0.1,1.5,1c0,1.3-1.2,1.9-3.9,1.9C78.8,68.8,78.1,68.6,77.5,68.1z
		 M81.1,62.8c-0.1-0.3-0.4-0.5-0.6-0.5c-0.3,0-0.6,0.2-0.6,0.5c-0.1,0.3,0.2,0.5,0.6,0.5C81,63.3,81.2,63.1,81.1,62.8z M84.8,61.1
		c-0.1-0.7,0-1.1,0.3-1.1s0.4,0.4,0.3,1.1c-0.1,0.6-0.2,1.1-0.3,1.1S84.9,61.7,84.8,61.1z M87,61.6c-0.1-0.3-0.1-0.9,0.1-1.2
		c0.3-0.5,0.4-0.4,0.4,0.6C87.5,62.3,87.3,62.5,87,61.6z M41,57.6c0-0.5,0.3-1.1,0.6-1.3c0.6-0.3,0.6-0.6-0.4-3.4
		c-0.6-1.7-1.2-3.2-1.4-3.4c-0.2-0.2-0.3-0.8-0.3-1.4c0-1,0-1,2.1-1h2.1l-0.1,1.4c-0.1,2.5,0,3.2,0.4,2.8c0.2-0.2,0.4-1.3,0.4-2.3
		l0-1.9H46c1.5,0,1.7,0.1,1.7,0.9c0,0.5-0.2,1.3-0.4,1.8c-0.2,0.5-0.8,2.3-1.3,4.1c-1.1,3.8-1.8,4.7-3.7,4.7
		C41.2,58.5,41,58.4,41,57.6z M13.1,49.8v-5.7h8.3v4.1h-1.7c-1.4,0-1.7-0.1-1.7-0.7c0-0.4-0.2-0.7-0.6-0.7c-0.3,0-0.6,0.3-0.6,0.9
		c0,0.8,0.2,0.9,1.1,0.9c1,0,1.1,0.1,1.1,1.1c0,1-0.1,1.1-1.1,1.1c-1,0-1.1,0.1-1.1,1.1c0,0.7,0.2,1.1,0.6,1.1
		c0.3,0,0.6-0.3,0.6-0.7c0-0.6,0.2-0.7,1.7-0.7h1.7v4.1h-8.3V49.8z M22.4,54.9c-0.6-0.6-0.7-2.2-0.2-3c0.2-0.3,1.1-0.8,2.1-1.2
		c1.7-0.7,2.3-1.5,1.4-1.8c-0.3-0.1-0.5,0.1-0.5,0.4c0,0.4-0.4,0.6-1.5,0.6c-1.4,0-1.5-0.1-1.5-1.1c0-0.9,0.2-1.1,1.2-1.5
		c1.8-0.6,4.2-0.5,5,0.2c0.6,0.5,0.8,1.3,1,4.2l0.2,3.6l-3.3,0C23.8,55.5,22.8,55.3,22.4,54.9z M26.2,52.7c0-0.3-0.3-0.5-0.6-0.5
		c-0.9,0.2-1.1,1-0.2,1C25.9,53.3,26.2,53.1,26.2,52.7L26.2,52.7z M30.1,51.3l0-4.2l2.5,0.1l2.5,0.1v1.4c0,1.1-0.2,1.4-0.8,1.6
		c-0.7,0.2-0.8,0.4-0.6,2.8l0.2,2.6h-3.9L30.1,51.3z M35.7,49.8v-5.7h3.5l0,4.3c0,2.4,0.1,5,0.2,5.7l0.2,1.4h-4V49.8z M53.5,49.2
		l0-6.4l-2.4-2c-1.3-1.1-2.9-2.5-3.5-3c-1.4-1.2-1.1-2.2,0.3-1l1,0.8l0.5-1.8c0.7-2.6,0.7-2.7,1.2-2.7c0.3,0,0.3,0.3,0.2,0.8
		c-0.1,0.5-0.3,1.7-0.5,2.7l-0.2,1.9l2.1,1.6c2.1,1.6,2.1,1.6,2.9,0.9c0.4-0.4,1.3-1.3,1.9-2.1l1.1-1.4l-1.5-3
		c-1.9-3.8-1.1-4.1,1-0.4l1.4,2.6l1.2-1.3c1.8-1.9,1.9-0.9,0.1,1.4c-0.8,1.1-1.5,2.1-1.5,2.2c0,0.1,0.6,0.2,1.3,0.2
		c2,0,1.4,0.9-0.8,1.1c-1.5,0.2-2,0.4-2.9,1.4l-1,1.2l0.1,6.3l0.1,6.3h-2L53.5,49.2L53.5,49.2z M57.5,46.4c-1.3-1.4-0.4-4.1,1.3-4.1
		c0.3,0,0.7-0.3,0.8-0.7c0.1-0.4,0.4-0.7,0.5-0.7c0.2,0,0.2,0.3,0.1,0.7c-0.2,0.6,0,0.7,0.7,0.7c1.2,0,2.3,1,2.3,2.2
		c0,0.5-0.2,1-0.5,1.4c-0.6,0.8-1.1,1-2.7,1.1C58.5,47,58,46.9,57.5,46.4z M62.8,44.5c0-0.7-0.6-1.8-0.9-1.6c-0.1,0.1-0.1,0.6,0,1.2
		C62.1,45.3,62.8,45.6,62.8,44.5z M44.1,42.4c-0.3-0.8,0.8-2.3,1.9-2.6c1.3-0.3,3.3,0,3.5,0.5c0.1,0.3-0.3,1-1,1.6
		C47.6,42.7,47,43,45.8,43C44.8,43,44.2,42.8,44.1,42.4z M62.7,40.9c-0.6-0.3-1-0.7-1-0.9c0-0.2,0.5-0.7,1-1.1
		c1.2-0.9,3.4-0.8,4.6,0.2c0.7,0.7,0.7,0.7-0.2,1.5C65.9,41.6,64.2,41.7,62.7,40.9z M51.7,37.8l-0.9-0.7l1-0.9
		c1.2-1.1,2.4-1.2,4-0.4c1.3,0.7,1.4,1,0.1,2C54.7,38.8,52.8,38.8,51.7,37.8z M61.5,33c-0.4-2,1.7-4.5,3.3-3.9
		c1.6,0.6,0.2,3.9-1.9,4.6C61.8,34,61.7,34,61.5,33L61.5,33z M48.8,32.1c-1.5-0.9-2.5-3.8-1.5-4.5c0.7-0.4,2.8,0.8,3.3,1.9
		C51.5,31.9,50.6,33.2,48.8,32.1L48.8,32.1z"/>
</g>
</svg>
