<?xml version="1.0" encoding="utf-8"?>
<!-- Generator: Adobe Illustrator 22.0.1, SVG Export Plug-In . SVG Version: 6.00 Build 0)  -->
<svg version="1.1" id="Layer_1" xmlns="http://www.w3.org/2000/svg" xmlns:xlink="http://www.w3.org/1999/xlink" x="0px" y="0px"
	 viewBox="0 0 100 100" enable-background="new 0 0 100 100" xml:space="preserve">
<path fill="#FFFFFF" d="M55.9,43c0-3,2-5.9,3.1-5.3C60.3,38.3,58.1,41.1,55.9,43 M42.2,44.1c0-2.4,2.4-7,3.8-6.5
	C47.7,38.2,44.5,42.8,42.2,44.1 M39.8,61.3c-1.1,0-1.8-0.6-1.8-1.8c0-3.1,4.3-6.1,7.6-7.7C45,56.1,43.5,61.1,39.8,61.3 M59.7,51.1
	c-2.5,0-4.4,1.8-4.4,4c0,1.8,1.1,3.3,2.5,3.3c0.5,0,1-0.3,1-0.9c0-0.9-1.3-1.2-1.2-2.6c0.1-0.9,0.9-1.6,1.8-1.6
	c1.7,0,2.6,1.7,2.6,3.4c-0.1,2.7-2.1,4.6-4.4,4.6c-3.1,0-5-2.9-5-6c0-4.7,3.1-6.5,4.7-6.9c0,0,4.2,0.7,4-1.1
	c-0.1-0.8-1.3-1.1-2.1-1.2c-1,0-1.9,0.3-1.9,0.3c-0.5-0.3-0.9-0.8-1.1-1.3c3-2.3,5.1-4.4,5.1-6.9c0-1.3-0.9-2.5-2.5-2.5
	c-3,0-5.2,3.8-5.2,7.2c0,0.6,0,1.2,0.1,1.7c-1.9,1.4-3.3,2.2-5.8,3.8c0-0.3,0.1-1.1,0.3-2.2c0.9-0.9,2.1-2.4,2.1-3.5
	c0-0.5-0.3-0.9-0.9-0.9c-1.5,0-2.5,2.2-2.8,3.7c-0.7,0.8-2,1.8-3.1,1.8c-0.9,0-1.2-0.8-1.2-1.1c2.8-0.9,6.2-4.7,6.2-8.1
	c0-0.7-0.3-2.3-2.5-2.3c-3.3,0-6,4.9-6,8.6c-1.2,0-1.6-1.2-1.6-2.2c0-0.9,0.4-1.9,0.4-2.2c0-0.3-0.1-0.7-0.6-0.7
	c-1.1,0-1.7,1.5-1.7,3.1c0.1,2.3,1.6,3.8,3.6,3.9c0.3,1.4,1.5,2.7,3,2.7c0.9,0,2.1-0.3,2.9-1c-0.1,0.5-0.1,0.9-0.2,1.4
	c-3.2,1.7-5.5,2.8-7.6,4.7c-1.7,1.5-2.6,3.6-2.6,5.2c0,2.2,1.4,4.2,4.2,4.2c3.3,0,5.9-2.7,7.1-6.4c0.6-1.7,0.8-4.3,1-6.6
	c3.3-1.9,4.9-3,6.7-4.2c0.2,0.4,0.4,0.7,0.7,0.9c-1.5,0.8-5.2,3.1-5.2,8.4c0,3.8,2.5,8,7.6,8c4.1,0,7-3.4,7-6.7
	C64.6,53.8,62.9,51.1,59.7,51.1 M72.2,57.3c0,0-0.1,0.1-0.1,0c-0.1,0-0.1-0.1-0.1-0.1c0,0,0.9-2.6,0.9-5.6c0-3.2-1.3-5.2-3-5.2
	c-1,0-1.7,0.7-1.7,1.8c0,2,2.4,2.1,2.4,6.4c0,1.7-0.4,3.4-0.9,5.2C66.9,69,58.4,73.2,50,73.2c-3.9,0-6.6-0.8-7.4-1.2
	c0,0-0.1-0.1,0-0.1c0,0,0.1-0.1,0.1-0.1c0.3,0.1,2.7,0.9,5.6,0.9c3.2,0,5.1-1.3,5.1-2.9c0-1-0.8-1.8-1.8-1.8c-2,0-2.1,2.5-6.3,2.5
	c-1.8,0-3.4-0.4-5.3-0.9c-9-2.8-13.3-11.3-13.3-19.7c0-4.1,1.2-7.4,1.2-7.4c0,0,0.1,0,0.1,0c0.1,0,0.1,0.1,0.1,0.1
	c-0.1,0.3-0.9,2.7-0.9,5.6c0,3.2,1.3,5.1,3,5.1c0.9,0,1.7-0.7,1.7-1.7c0-2-2.4-2.2-2.4-6.4c0-1.8,0.4-3.4,0.9-5.3
	c2.8-9,11.3-13.2,19.6-13.3c3.9,0,7.3,1.1,7.4,1.2c0,0,0,0.1,0,0.1c0,0.1-0.1,0.1-0.1,0.1c0,0-2.3-0.9-5.6-0.9c-3.1,0-5.1,1.3-5.1,3
	c0,0.9,0.7,1.7,1.8,1.7c2,0,2.1-2.4,6.3-2.4c1.8,0,3.4,0.4,5.3,0.9c9.1,2.8,13.2,11.3,13.3,19.6C73.4,54.1,72.2,57.3,72.2,57.3
	 M50,24.8c-13.8,0-25,11.2-25,25c0,13.8,11.2,25,25,25c13.8,0,25-11.2,25-25C75,36.1,63.8,24.8,50,24.8"/>
</svg>
