<?xml version="1.0" encoding="utf-8"?>
<!-- Generator: Adobe Illustrator 22.0.1, SVG Export Plug-In . SVG Version: 6.00 Build 0)  -->
<svg version="1.1" id="Layer_1" xmlns="http://www.w3.org/2000/svg" xmlns:xlink="http://www.w3.org/1999/xlink" x="0px" y="0px"
	 viewBox="0 0 100 100" enable-background="new 0 0 100 100" xml:space="preserve">
<g id="layer1" transform="translate(-30.626417,159.90797)" ">
	<path id="path54" sodipodi:nodetypes="ccccccccccccccccccccc" fill="#FFFFFF" d="M84.6-100.5
		c-4.5,0-9.1-3.6-9.1-9.1c0-5.8,4.7-9.2,9.1-9.2c4.9,0,9.2,3.8,9.2,9.1c0,3.8-2.2,6-2.2,6c0.9,1.1,1.8,1.6,3.1,1.6
		c0.1,0,0.2,0.1,0.2,0.2v1.5c0,0.1-0.1,0.2-0.2,0.2c-4.1,0-4.4-3.2-6.7-3.9c-0.3-0.1-0.4-0.3,0-0.5c0,0,0.6-0.4,1.3-0.4
		c0.3,0,0.7,0.1,0.7,0.1s2-1.8,2-4.9c0-3.9-3.4-7.2-7.2-7.2c-4.3,0-7.3,3.6-7.3,7.2c0,4.4,3.7,7.3,7.3,7.3c0.7,0,1.2-0.2,1.7-0.2
		c0.7,0,1.3,0.5,1.7,1.1c0.1,0.2,0,0.3-0.4,0.4C87.7-101,86.5-100.5,84.6-100.5L84.6-100.5z"/>
	<g id="g50" transform="matrix(0.48520979,0,0,0.48520979,30.966064,-179.48713)">
		<path id="path46" fill="#FFFFFF" d="M5,106.7c-0.3,0-0.6,0.3-0.6,0.6v71.6
			c0,0.3,0.3,0.6,0.6,0.6h71.6c0.3,0,0.6-0.3,0.6-0.6v-71.6c0-0.3-0.3-0.6-0.6-0.6H5z M7.7,109.9H74v66.3H7.7V109.9z"/>
		<path id="path48" sodipodi:nodetypes="cccccccccccccccccccccc" fill="#FFFFFF" d="M40.9,160.9
			c-9.9,0-18.3-8.2-18.3-18.3c0-9.3,7.4-18.3,18.4-18.3c9.7,0,18.2,7.8,18.2,18.3c0,7.3-4.4,11.8-4.4,11.8c1.4,1.6,2.9,3,5.6,3
			c0.3,0,0.5,0.1,0.5,0.5v3.4c0,0.3-0.2,0.5-0.5,0.5c-4.4,0-7-2.4-9.4-5.3c-1.2-1.2-2.9-2.6-4.2-2.9c-0.7-0.2-0.8-0.6-0.4-1
			c0.8-0.8,1.8-1.2,3.2-1.2l1.7,0.3c1.5-1.7,3.4-4.8,3.4-9c0-7.4-5.9-13.9-13.8-13.9c-7.5,0-13.9,6.1-13.9,13.9
			c0,6.8,5.5,13.8,14.2,13.8c0.6,0,1.6-0.1,2.1-0.1c1.8,0,3,0.9,4.2,2.5c0.3,0.3,0.3,0.7-0.4,0.9C45.8,160.3,43.4,160.9,40.9,160.9
			L40.9,160.9z"/>
	</g>
	<path id="path56" sodipodi:nodetypes="cccccccccccc" fill="#FFFFFF" d="M103.1-100.8
		c0.1,0.3,0.3,0.2,0.4,0l8.3-17.6c0.1-0.1,0-0.2-0.1-0.2h-1.8c-0.1,0-0.2,0.1-0.3,0.3l-6.3,13.3L97-118.4c-0.1-0.2-0.1-0.3-0.3-0.3
		H95c-0.2,0-0.2,0.1-0.1,0.2L103.1-100.8z"/>
	<path id="path63" sodipodi:nodetypes="ccccccccccccccc" fill="#FFFFFF" d="M122-100.5
		c-5,0-9.2-3.9-9.2-9.3c0-5.1,4.1-9.1,9.1-9.1c3.7,0,6,2.2,6,2.2c0.2,0.2,0.3,0.3,0.1,0.6l-0.9,0.9c-0.2,0.2-0.3,0.2-0.5,0
		c0,0-1.8-1.7-4.7-1.7c-3.8,0-7.2,3.3-7.2,7.2c0,4.2,3.5,7.3,7.3,7.3c2.1,0,3.3-0.8,4.5-1.6c0.2-0.2,0.3-0.2,0.5,0l0.9,0.9
		c0.2,0.2,0.2,0.4,0,0.5C126.6-101.7,124.6-100.5,122-100.5L122-100.5z"/>
</g>
</svg>
