<?xml version="1.0" encoding="utf-8"?>
<!-- Generator: Adobe Illustrator 22.0.1, SVG Export Plug-In . SVG Version: 6.00 Build 0)  -->
<svg version="1.1" id="Layer_1" xmlns="http://www.w3.org/2000/svg" xmlns:xlink="http://www.w3.org/1999/xlink" x="0px" y="0px"
	 viewBox="0 0 100 100" enable-background="new 0 0 100 100" xml:space="preserve">
<g id="layer1_2_" transform="matrix(0.3770106,0,0,0.3770106,13.453165,-3.9278612)">
	<path id="path4486" fill="#FFFFFF" d="M-15.8,108.7v7.3H6.7c2.6,0,3.9,0.5,5.2,1.8c1,1.3,1,1.8,1,6.5v37.7c0,7.1-1.3,8.4-7.6,8.4
		h-6.3v-47.1h-14.9v55.2h27.7c6.5,0,8.4-0.5,11.5-3.7c2.9-2.9,3.4-5,3.4-13.1v-39.5c0-5-0.5-6.8-2.6-9.4c-2.6-2.9-6-4.2-10.7-4.2
		H-15.8L-15.8,108.7z M31.3,178.6h13.9V143c0-2.6,0-3.4,0.5-4.2c0.8-1.8,2.9-2.9,5.5-2.9c2.4,0,3.9,0.5,5.8,1.8v-10.5
		c-15.4,0.3-20.4,1.3-25.6,5.5V178.6z M67.6,106.9c-4.4,0-7.8,3.4-7.8,7.6c0,4.4,3.4,7.8,7.8,7.8c4.2,0,7.6-3.4,7.6-7.8
		C75.2,110.3,71.8,106.9,67.6,106.9L67.6,106.9z M86.2,106.9c-4.4,0-7.8,3.4-7.8,7.6c0,4.4,3.4,7.8,7.8,7.8c4.2,0,7.6-3.4,7.6-7.8
		C93.8,110.3,90.4,106.9,86.2,106.9L86.2,106.9z M80.5,145.9h-12c-4.7,0-6.8,0.5-9.2,2.9c-2.6,2.1-3.9,5.2-3.9,9.4v8.1
		c0,3.7,0.8,6.3,2.9,8.6c2.6,2.9,5,3.7,10.5,3.7h25.9v-39c0-3.4-1-6.3-3.4-8.6c-2.9-2.9-5.2-3.7-10.5-3.7H59.8v10.5
		c5.2-2.1,8.6-2.9,13.3-2.9c5,0,7.3,1.6,7.3,5V145.9z M80.5,170.5h-6c-2.4,0-4.2-0.8-5.2-2.6c-0.5-0.8-0.5-1-0.5-3.4v-4.7
		c0-3.9,1.8-5.8,5.8-5.8h6V170.5z M136.2,127.6h-24.6c-4.7,0-6.5,0.5-9.2,2.6c-2.6,2.4-3.9,5.8-3.9,9.7v7.6c0,3.1,1,6.3,3.1,8.6
		c2.6,2.9,4.7,3.7,9.9,3.7h11.2c5,0,7.1-0.8,9.4-2.6c2.6-2.4,3.9-5.5,3.9-9.7V127.6z M111.6,140.6c0-3.4,2.1-5.5,6-5.5
		c3.9,0,6,2.1,6,5.5v6c0,3.4-2.4,5.5-6,5.5c-3.9,0-6-2.1-6-5.5V140.6z M137.2,174.1c0-3.9-0.8-6.5-2.9-8.9c-2.6-2.9-5.5-3.7-11-3.7
		h-11.5c-5.2,0-7.3,0.5-9.9,2.6c-2.6,2.4-4.2,6-4.2,9.9v7.6c0,3.7,1.3,6.8,3.4,8.9c2.6,2.9,5,3.7,10.7,3.7h11.5c5,0,7.3-0.5,9.9-2.6
		c2.6-2.4,3.9-5.2,3.9-9.9V174.1L137.2,174.1z M111.6,175.4c0-3.9,1.8-6,5.8-6c3.9,0,6,2.1,6,6v5.8c0,3.4-2.1,5.5-5.8,5.5
		c-3.9,0-6-2.1-6-5.5V175.4z M179.6,159.7v-19.9c0-8.4-4.4-12.3-13.9-12.3h-11.5c-5,0-7.1,0.5-9.7,2.6c-2.6,2.4-4.2,5.8-4.2,9.7
		v26.4c0,3.7,1,6.3,3.4,8.9c2.6,2.6,5,3.4,10.5,3.4h25.1v-10.5c-7.1,2.1-11.2,2.6-16.5,2.6c-6,0-8.6-1.3-8.6-4.7v-6.3H179.6
		L179.6,159.7z M154.2,151.6v-10.5c0-3.9,1.8-6,5.8-6c3.7,0,5.8,2.1,5.8,5.8v10.7H154.2z M184,178.6h13.9V143c0-2.6,0-3.4,0.5-4.2
		c0.8-1.8,2.9-2.9,5.5-2.9c2.4,0,3.9,0.5,5.8,1.8v-10.5c-15.4,0.3-20.4,1.3-25.6,5.5V178.6z"/>
</g>
</svg>
