<?xml version="1.0" encoding="utf-8"?>
<!-- Generator: Adobe Illustrator 22.0.1, SVG Export Plug-In . SVG Version: 6.00 Build 0)  -->
<svg version="1.1" id="Layer_1" xmlns="http://www.w3.org/2000/svg" xmlns:xlink="http://www.w3.org/1999/xlink" x="0px" y="0px"
	 viewBox="0 0 100 100" enable-background="new 0 0 100 100" xml:space="preserve">
<g>
	<path fill="#FFFFFF" d="M24.4,59.7c-0.4,0-0.8-0.1-1.1-0.3l-0.6,0.6c0.2,0.3,0.3,0.6,0.4,1c0,1-0.8,1.8-1.8,1.8
		c-1,0-1.8-0.8-1.8-1.8c0-0.3,0.1-0.7,0.3-1l-0.6-0.6c-0.3,0.2-0.7,0.3-1,0.3c-0.5,0-0.9-0.2-1.3-0.5c-0.3-0.3-0.5-0.8-0.5-1.3
		c0-1,0.8-1.8,1.8-1.8c0.4,0,0.8,0.1,1.1,0.4l0.6-0.6c-0.2-0.3-0.3-0.7-0.3-1.1c0-1,0.8-1.8,1.8-1.8c0.5,0,0.9,0.2,1.3,0.5
		c0.3,0.3,0.5,0.8,0.5,1.3c0,0.4-0.1,0.8-0.4,1.1l0.6,0.6c0.3-0.3,0.7-0.4,1.1-0.4c1-0.1,1.8,0.6,1.9,1.6c0.1,1-0.6,1.8-1.6,1.9
		C24.7,59.7,24.6,59.7,24.4,59.7 M48.1,55.7H29.6c-0.3-0.6-0.7-1-1.2-1.4c-0.7-0.6-1.7-0.9-2.6-0.7l-0.2,0l0-0.2
		c0.1-1-0.2-1.9-0.9-2.6c-1.7-1.9-4.7-2.1-6.6-0.4c-0.1,0.1-0.3,0.3-0.4,0.4c-0.6,0.7-1,1.7-0.9,2.6l0,0.2l-0.2,0
		c-1-0.2-1.9,0.1-2.7,0.7c-2,1.6-2.2,4.5-0.6,6.5c0.2,0.2,0.4,0.4,0.6,0.6c0.7,0.6,1.7,0.9,2.7,0.7l0.2,0l0,0.2
		c-0.1,1,0.2,1.9,0.9,2.6c1.7,1.9,4.7,2.1,6.6,0.4c0.1-0.1,0.3-0.3,0.4-0.4c0.7-0.7,1-1.7,0.9-2.6l0-0.2l0.2,0
		c0.9,0.2,1.9-0.1,2.6-0.7c0.6-0.5,1-1.2,1.3-1.9h9.4c0.5,0,1,0.4,1,0.9c0,0,0,0,0,0c0,0.6-0.5,1-1,1c0,0,0,0,0,0h-0.9v5h3.8v-4
		c0-0.6,0.4-1,1-1c0,0,0,0,0,0c0.6,0,1.1,0.4,1.1,1v4h3.7v-5h-0.8c-0.6,0-1-0.4-1-1c0,0,0,0,0,0c0-0.5,0.4-1,1-1c0,0,0,0,0,0h1
		c1,0,1.9-0.8,1.9-1.8c0,0,0,0,0,0C49.9,56.6,49.1,55.7,48.1,55.7"/>
	<path fill="#FFFFFF" d="M20.9,33.2l-4.2,4.9v-4.9h-3.3v12.9h3.3v-4l1.4-1.4l3.5,5.4h4.2l-5.3-7.8l4.8-5.1H20.9 M31.2,40.5
		c-0.1-1-0.8-1.9-1.8-1.9c-1.1,0-1.8,0.8-2,1.9L31.2,40.5L31.2,40.5z M27.4,42.2c0.1,1.3,0.8,2.1,2.1,2.1c0.7,0,1.4-0.4,1.7-1h2.9
		c-0.6,2.2-2.6,3.1-4.6,3.1c-3,0-5.1-1.8-5.1-5c0-2.9,2.3-4.9,5-4.9c3.4,0,5,2.5,4.9,5.7L27.4,42.2L27.4,42.2z M36.1,49.2h-1.4v-2.5
		h1c0.7,0,1.2-0.4,1.2-1c0-0.5-0.6-1.9-0.8-2.5l-2.4-6.5H37l1.8,6.1h0l1.8-6.1h3.1L40,46.9C39.3,49,38.2,49.2,36.1,49.2z M53.2,39
		c1-0.5,1.7-1.5,1.7-2.6c0-2.7-2.4-3.3-4.6-3.2h-6v12.9h6.2c2.8,0,5-0.9,5-4C55.5,40.7,54.6,39.4,53.2,39z M47.6,35.8h2.6
		c0.7,0,1.4,0.3,1.4,1.2s-0.8,1.2-1.4,1.2h-2.6V35.8z M50.3,43.4h-2.7v-3h2.7c1,0,1.8,0.4,1.8,1.5C52.1,43,51.4,43.4,50.3,43.4z
		 M62.4,45.2c0,0.3,0.1,0.6,0.2,0.9h3.1c-0.4-0.7-0.4-1.6-0.4-2.4v-4.1c0-2.6-2.1-3.1-4.4-3.1c-1,0-2,0.2-3,0.6
		c-0.9,0.5-1.5,1.5-1.5,2.5l0,0h2.9c0.1-0.8,0.7-1.2,1.5-1.2c0.6,0,1.5,0.3,1.5,1c0,0.6-0.3,0.8-0.8,0.9c-2.1,0.4-5.4,0.2-5.4,3.3
		c0,1.9,1.4,2.8,3.2,2.8C60.5,46.4,61.7,46,62.4,45.2z M60.5,42.2c0.7-0.2,1.5-0.2,1.9-0.5c0.1,1.9-0.4,2.8-1.9,2.8l0,0
		c-0.7,0-1.3-0.3-1.3-1.1C59.2,42.7,59.8,42.4,60.5,42.2z M76.1,40.1v6h-3v-4.5c0-1.3,0.1-2.6-1.5-2.6c-1.2,0-1.7,1-1.7,2v5.1h-3.1
		v-9.4h3V38h0c0.6-1,1.8-1.5,2.9-1.5C75.9,36.5,76.1,38.7,76.1,40.1z M80.7,46.1h-3.1V33.2h3.1v6.6l2.8-3.1h3.5l-3.4,3.5l3.9,5.8
		h-3.7l-2.3-3.8l-0.8,0.8L80.7,46.1L80.7,46.1z"/>
</g>
</svg>
