<?xml version="1.0" encoding="utf-8"?>
<!-- Generator: Adobe Illustrator 22.0.1, SVG Export Plug-In . SVG Version: 6.00 Build 0)  -->
<svg version="1.1" id="Layer_1" xmlns="http://www.w3.org/2000/svg" xmlns:xlink="http://www.w3.org/1999/xlink" x="0px" y="0px"
	 viewBox="0 0 100 100" enable-background="new 0 0 100 100" xml:space="preserve">
<g>
	<path fill="#FFFFFF" d="M70.1,67.2c-0.5-0.2-0.5-1-0.4-1.4c0.8-2.5,0.7-2.3,3.3-1.6c1.5,0.4,3.6,0.8,4.7,0.4c0.7-0.2,1.7-0.5,2-1.8
		c0.2-1-0.5-2.2-1.1-2.7c-0.7-0.7-2.4-1.2-3.6-1.7c-3.9-1.8-5.7-4.5-4.9-7.7c0.7-3.4,3.8-5.6,7.8-5.6c1.4,0,2.8,0.2,4.1,0.6
		c2.3,0.7,2.3,0.9,1.6,3.3c-0.4,1.3-0.9,1.7-2.3,1.1c-1.4-0.5-3.4-0.8-4.5-0.5c-0.6,0.2-1.3,0.9-1.6,1.7c-0.2,0.7,0.2,1.7,0.9,2.2
		c1.3,0.8,2.9,1.4,4.3,2.1c2.3,1.1,4,2.6,4.4,5.3c0.5,3.7-1.4,6.3-5,7.5C76.2,68.7,73.8,68.7,70.1,67.2z"/>
	<circle fill="#FFFFFF" cx="49.6" cy="37.6" r="3.1"/>
	<circle fill="#FFFFFF" cx="56.5" cy="30.7" r="3.4"/>
	<circle fill="#FFFFFF" cx="47.4" cy="28.9" r="4.3"/>
	<path fill="#FFFFFF" d="M19.8,66.5c-0.1,0.7-0.2,1.3-0.2,1.9c-0.2,0.1-0.3,0.2-0.4,0.2c-4.8,0.1-4.1,0.3-4-3.9
		c0.1-9.1,0.1-18.2,0-27.3c0-2.4,1.1-2.3,2.8-2.4c1.9-0.1,2.6,0.5,2.5,2.5c-0.1,3.3,0,6.5,0,9.7c1.8-0.7,3.4-1.7,5.2-2
		c5.1-0.9,9.4,1.9,11,6.9c1,3.2,0.9,6.5,0,9.7C34.6,67.8,26.9,72.2,19.8,66.5z M32.1,57.5c0.1-1.6-0.4-2.7-0.7-3.8
		c-0.9-3.1-3.2-4.7-6.1-4.4c-2.8,0.3-4.9,2.8-5,5.9c0,1.4-0.1,2.8,0,4.2c0.1,2.5,1.8,4.4,4.2,5c2.3,0.6,4.9-0.3,6-2.5
		C31.4,60.5,32,58.9,32.1,57.5z"/>
	<path fill="#FFFFFF" d="M54.4,67.2c-0.5-0.2-0.5-1-0.4-1.4c0.8-2.5,0.7-2.3,3.3-1.6c1.5,0.4,3.6,0.8,4.7,0.4c0.7-0.2,1.7-0.5,2-1.8
		c0.2-1-0.5-2.2-1.1-2.7c-0.7-0.7-2.4-1.2-3.6-1.7c-3.9-1.8-5.7-4.5-4.9-7.7c0.7-3.4,3.8-5.6,7.8-5.6c1.4,0,2.8,0.2,4.1,0.6
		c2.3,0.7,2.3,0.9,1.6,3.3c-0.4,1.3-0.9,1.7-2.3,1.1c-1.4-0.5-3.4-0.8-4.5-0.5c-0.6,0.2-1.3,0.9-1.6,1.7c-0.2,0.7,0.2,1.7,0.9,2.2
		c1.3,0.8,2.9,1.4,4.3,2.1c2.3,1.1,4,2.6,4.4,5.3c0.5,3.7-1.4,6.3-5,7.5C60.5,68.7,58.1,68.7,54.4,67.2z"/>
	<path fill="#FFFFFF" d="M43.9,66.5c0,1.5-0.3,2.2-2,2.2c-3.3-0.1-3.3,0-3.3-3.3c0-9.4,0.1-18.8-0.1-28.1c0-2.4,1.1-2.3,2.8-2.4
		c1.9-0.1,2.6,0.4,2.5,2.5C43.8,42.2,43.8,61.6,43.9,66.5z"/>
	<path fill="#FFFFFF" d="M46.9,47.4c0-1.6,0.4-2.1,2-2.1c3.3,0.1,3.3,0,3.3,3.3c0,6-0.1,11.9,0,17.9c0.1,2.3-1.2,2.2-2.8,2.2
		c-1.6,0-2.7-0.1-2.6-2.2C47.1,63.3,47,50.5,46.9,47.4z"/>
</g>
</svg>
