<?xml version="1.0" encoding="utf-8"?>
<!-- Generator: Adobe Illustrator 22.0.1, SVG Export Plug-In . SVG Version: 6.00 Build 0)  -->
<svg version="1.1" id="Layer_1" xmlns="http://www.w3.org/2000/svg" xmlns:xlink="http://www.w3.org/1999/xlink" x="0px" y="0px"
	 viewBox="0 0 100 100" enable-background="new 0 0 100 100" xml:space="preserve">
<g>
	<path fill="#FFFFFF" d="M92.8,48.8c0-1,0-1,0-1c0-1.3-0.8-2.1-2.6-2.1c-11.1,0-11.1,0-11.1,0c0,9.9,0,9.9,0,9.9h11.1v0
		c1.8,0,2.6-0.8,2.6-2.1c0-1.1,0-1.1,0-1.1c0-0.4-0.1-0.5-0.4-0.8c-1.2-1-1.2-1-1.2-1c1.2-1,1.2-1,1.2-1
		C92.7,49.3,92.8,49.2,92.8,48.8z M91,53.9c-10.1,0-10.1,0-10.1,0c0-2.4,0-2.4,0-2.4c10.1,0,10.1,0,10.1,0V53.9z M91,49.8
		c-10.1,0-10.1,0-10.1,0v-2.4c10.1,0,10.1,0,10.1,0C91,49.8,91,49.8,91,49.8z"/>
	<path fill="#FFFFFF" d="M73.4,48.8c0-1,0-1,0-1c0-1.3-0.8-2.1-2.6-2.1c-11.1,0-11.1,0-11.1,0c0,9.9,0,9.9,0,9.9h11.1l0,0
		c1.8,0,2.6-0.8,2.6-2.1c0-1.1,0-1.1,0-1.1c0-0.4-0.1-0.5-0.4-0.8c-1.2-1-1.2-1-1.2-1c1.2-1,1.2-1,1.2-1
		C73.3,49.3,73.4,49.2,73.4,48.8z M71.5,53.9c-10.1,0-10.1,0-10.1,0c0-2.4,0-2.4,0-2.4c10.1,0,10.1,0,10.1,0V53.9z M71.5,49.8
		c-10.1,0-10.1,0-10.1,0v-2.4c10.1,0,10.1,0,10.1,0C71.5,49.8,71.5,49.8,71.5,49.8z"/>
	<path id="path4083" fill="#FFFFFF" d="M51.6,45.7c0,8.1,0,8.1,0,8.1c-9.5,0-9.5,0-9.5,0
		c0-8.1,0-8.1,0-8.1c-1.8,0-1.8,0-1.8,0c0,7.6,0,7.6,0,7.6c0,1.4,0.8,2.2,2.5,2.2c8.2,0,8.2,0,8.2,0c1.6,0,2.5-0.8,2.5-2.2
		c0-7.6,0-7.6,0-7.6H51.6z"/>
	<path id="path4081" fill="#FFFFFF" d="M22.6,49.7c0-4,0-4,0-4c-1.8,0-1.8,0-1.8,0
		c0,9.9,0,9.9,0,9.9c1.8,0,1.8,0,1.8,0c0-4.1,0-4.1,0-4.1c9.7,0,9.7,0,9.7,0c0,4.1,0,4.1,0,4.1c1.8,0,1.8,0,1.8,0c0-9.9,0-9.9,0-9.9
		c-1.8,0-1.8,0-1.8,0c0,4,0,4,0,4H22.6L22.6,49.7z"/>
	<path id="path3031" fill="#FFFFFF" d="M15.6,47.5c0-1.7,0-1.7,0-1.7c-10.6,0-10.6,0-10.6,0
		c-1.6,0-2.4,0.8-2.4,2.2c0,5.4,0,5.4,0,5.4c0,1.4,0.8,2.2,2.4,2.2c10.6,0,10.6,0,10.6,0c0-1.7,0-1.7,0-1.7c-11.2,0-11.2,0-11.2,0
		c0-6.4,0-6.4,0-6.4L15.6,47.5L15.6,47.5z"/>
	<path id="path3033" fill="#FFFFFF" d="M97,46.8c-0.3,0.3-0.7,0.5-1.1,0.5c-0.4,0-0.8-0.1-1-0.5
		c-0.3-0.3-0.5-0.7-0.5-1.1c0-0.5,0.1-0.8,0.5-1.1c0.3-0.3,0.7-0.5,1-0.5c0.5,0,0.8,0.2,1.1,0.5c0.3,0.3,0.5,0.7,0.5,1.1
		C97.5,46.1,97.3,46.5,97,46.8z M95,44.8c-0.3,0.2-0.4,0.5-0.4,0.9c0,0.3,0.1,0.7,0.4,0.9c0.3,0.3,0.6,0.4,0.9,0.4
		c0.4,0,0.7-0.1,1-0.4c0.3-0.3,0.3-0.6,0.3-0.9c0-0.4-0.1-0.7-0.3-0.9c-0.3-0.3-0.6-0.4-1-0.4C95.6,44.4,95.3,44.5,95,44.8z
		 M95.9,44.8c0.2,0,0.3,0,0.5,0.1c0.2,0.1,0.3,0.2,0.3,0.4c0,0.2-0.1,0.3-0.2,0.3c-0.1,0.1-0.1,0.1-0.2,0.1c0.1,0,0.2,0.1,0.3,0.1
		c0.1,0.1,0.1,0.2,0.1,0.3c0,0.1,0,0.1,0,0.1c0,0.1,0.1,0.1,0.1,0.1c0,0.1,0,0.1,0,0.1c0,0.1,0,0.1,0,0.1c-0.3,0-0.3,0-0.3,0
		c0-0.1,0-0.1,0-0.1l0,0c-0.1-0.1-0.1-0.1-0.1-0.1c0-0.1,0-0.1,0-0.1c0-0.2,0-0.3-0.1-0.4c-0.1,0-0.2-0.1-0.3-0.1
		c-0.3,0-0.3,0-0.3,0c0,0.7,0,0.7,0,0.7c-0.3,0-0.3,0-0.3,0c0-1.7,0-1.7,0-1.7L95.9,44.8L95.9,44.8z M96.3,45.1
		C96.2,45,96.1,45,95.9,45c-0.3,0-0.3,0-0.3,0c0,0.6,0,0.6,0,0.6c0.3,0,0.3,0,0.3,0c0.1,0,0.2,0,0.3,0c0.1-0.1,0.1-0.1,0.1-0.3
		C96.3,45.2,96.3,45.2,96.3,45.1L96.3,45.1z"/>
</g>
</svg>
