<svg xmlns="http://www.w3.org/2000/svg" version="1.0" viewBox="0 0 1027.559 848.976"><path d="M123.433 805.794h770.302V35.471H123.433v770.323z" fill="#41535d"/><path d="M649.848 580.83l191.638-83.699-20.675-47.602-139.367 60.545-34.035-75.571 133.345-59.899-21.05-47.414-133.865 59.502-34.368-75.842 146.161-63.15L717 200.16l-199.64 86.701 48.29-101.915-39.329-39.765-354.118 133.823 38.682 39.14 93.433-35.576 103.04 104.395-17.757 36.535c-19.674 40.558-40.766 89.244-40.766 137.158 0 93.037 75.467 164.544 168.524 164.544 32.117 0 62.192-8.587 87.764-23.572l-21.717-46.789c-18.736 12.567-41.579 18.549-66.047 18.549-62.274 0-112.752-50.499-112.752-112.732 0-62.337 50.478-112.836 112.752-112.836 43.1 0 81.282 19.237 105.604 73.216l26.886 59.795m-157.29-369.25L431.2 337.862l-73.8-74.697 135.157-51.582" fill="#fff"/><path d="M517.358 395.696c18.591 0 36.452 2.876 53.167 8.149L517.358 286.86l-54.438 117.4c17.132-5.543 35.431-8.565 54.438-8.565" fill="#7dc242"/><path d="M932.23 774.97c0-21.196 17.215-38.474 38.556-38.474 21.238 0 38.474 17.278 38.474 38.473 0 21.259-17.236 38.536-38.474 38.536-21.341 0-38.556-17.277-38.556-38.536zm71.153 0c0-18.32-14.277-32.555-32.597-32.555-18.361 0-32.658 14.235-32.658 32.554 0 18.341 14.297 32.66 32.658 32.66 18.32 0 32.597-14.319 32.597-32.66m-31.846-23.154c13.172 0 16.027 7.377 16.027 13.505 0 5.648-3.94 10.796-10.859 12.109l9.9 22.446h-6.44l-9.379-21.57h-9.42v21.57h-5.898v-48.06h16.069m-10.171 21.237h7.795c9.754 0 11.38-3.376 11.38-7.836 0-6.19-4.023-8.212-10.359-8.212h-8.816v16.048" fill="#41535d"/></svg>