<svg xmlns="http://www.w3.org/2000/svg" viewBox="0 0 202 202.25"><g><path d="M101.092 1.285c-55.465 0-100.02 44.686-100.02 100.125s44.557 100.125 100.02 100.125c55.46 0 99.98-44.685 99.98-100.125S156.552 1.285 101.092 1.285z"/><g fill="#fff"><path d="M35.51 70.02c-17.397 0-31.356 14.016-31.356 31.392 0 17.377 13.959 31.392 31.357 31.392 10.682 0 14.858-7.542 14.858-7.542v6.861h16.498v-30.711c0-17.377-13.959-31.392-31.357-31.392zm0 16.413c8.295 0 14.944 6.688 14.944 14.98s-6.649 14.98-14.944 14.98-14.943-6.689-14.943-14.98 6.649-14.98 14.944-14.98zM70.857 48.402v53.01c0 17.376 13.97 31.403 31.367 31.403s31.331-14.027 31.331-31.403c0-17.377-13.934-31.403-31.331-31.403-10.683 0-14.873 7.562-14.873 7.562v-29.17zm31.367 38.03c8.294 0 14.945 6.69 14.945 14.98s-6.65 14.982-14.945 14.982c-8.294 0-14.945-6.69-14.945-14.981s6.65-14.982 14.945-14.982zM167.602 70.02c-17.398 0-31.357 14.016-31.357 31.392 0 17.377 13.96 31.392 31.357 31.392 15.017 0 27.477-10.443 30.604-24.476h-17.344c-2.488 4.786-7.471 8.063-13.26 8.063-8.294 0-14.944-6.688-14.944-14.98s6.65-14.979 14.944-14.979a14.93 14.93 0 0 1 13.295 8.1h17.308c-3.114-14.05-15.574-24.512-30.604-24.512z"/></g></g></svg>