<svg xmlns="http://www.w3.org/2000/svg" viewBox="0 0 203 121"><path d="M154.743 120.462c-1.64-.659-2.25-1.727-2.25-3.937 0-2.777.284-3.032 3.378-3.032 1.857 0 3.933.67 4.613 1.49 1.496 1.802 3.01 1.071 3.01-1.454 0-1.578-.585-1.767-4.023-1.306-6.388.857-7.978-1.268-7.978-10.662 0-11.122.748-11.872 11.884-11.925l8.9-.042-.45 12.7c-.563 15.881-.716 16.597-3.857 18.028-2.998 1.366-9.992 1.44-13.227.14zm8.564-18.932c.346-4.741-1.243-7.554-2.84-5.028-1.083 1.713-1.264 6.071-.35 8.452 1.108 2.888 2.868 1 3.19-3.424zM.777 109.243c.276-1.787 1.532-8.762 2.79-15.5l2.29-12.25h6.799c6.228 0 6.843.19 7.326 2.25 1.399 5.97 4.827 22.616 5.251 25.5l.48 3.25H13.23l.536-4c.5-3.72.366-4-1.903-4-2.103 0-2.297.268-1.405 1.935.57 1.063 1.035 2.863 1.035 4 0 1.842-.607 2.065-5.61 2.065H.275l.503-3.25zm12.646-12.5c-.098-2.43-1.763-6.21-1.873-4.25-.046.825-.355 2.513-.687 3.75-.443 1.654-.175 2.25 1.014 2.25.9 0 1.585-.776 1.546-1.75zm14.064 13.738c-.547-1.02-.994-5.416-.994-9.767 0-9.645 1.55-11.813 7.842-10.969l3.887.522-.494-4.387-.495-4.387h9.26v10.86c0 5.974.283 12.923.628 15.443l.628 4.581-9.634-.02c-8.35-.017-9.767-.267-10.628-1.876zm10.506-9.571c0-3.704-.37-4.917-1.5-4.917-1.58 0-2.66 6.336-1.566 9.189 1.211 3.155 3.066.57 3.066-4.272zm14.462 7.384c-.628-2.366-2.026-6.948-3.107-10.184-1.082-3.237-1.73-6.499-1.442-7.25.349-.91 2.238-1.367 5.642-1.367h5.117l-.226 3.75c-.419 6.96-.041 9.746 1.159 8.546.607-.608 1.074-3.623 1.038-6.7l-.067-5.596h9.143l-.482 3.25c-.265 1.788-1.6 6.85-2.967 11.25l-2.485 8-5.09.3-5.09.301-1.143-4.3zm19.219 2.872c-3.701-4.638-1.514-9.893 4.92-11.82 3.977-1.193 5.891-3.194 4.441-4.644-.388-.388-1.28.081-1.984 1.043-.819 1.12-2.61 1.748-4.984 1.748-3.447 0-3.684-.191-3.39-2.727.4-3.45 3.806-5.239 10.01-5.258 3.488-.011 5.326.564 7.151 2.235 2.16 1.979 2.527 3.36 3.04 11.442l.585 9.191-9.427-.019c-5.988-.012-9.768-.447-10.362-1.191zm9.82-6.256c0-.87-.535-1.405-1.188-1.188-1.854.619-2.162 2.771-.396 2.771.87 0 1.583-.712 1.583-1.583zm11.46-3.866V89.595l8.791.042c10.667.05 11.748.813 11.748 8.288 0 2.91.286 7.377.636 9.929l.636 4.64h-9.191l-.29-8.17c-.212-5.942-.675-8.297-1.699-8.636-1.168-.387-1.304 1.002-.799 8.17l.61 8.635H92.955v-11.449zm25.11 9.878c-1.522-1.523-2.291-10.273-1.831-20.833.204-4.704.689-5.243 5.51-6.13 3.678-.675 3.75-.628 3.75 2.423 0 1.711.45 3.111 1 3.111s1 1.125 1 2.5-.45 2.5-1 2.5c-.554 0-1 2.647-1 5.941 0 3.268.45 6.22 1 6.56.55.34 1 1.716 1 3.058 0 2.174-.43 2.441-3.928 2.441-2.238 0-4.605-.676-5.5-1.571zm11.931-.73c-3.072-4.386-.698-8.96 5.639-10.859 3.942-1.181 5.847-3.185 4.401-4.631-.388-.388-1.28.081-1.984 1.043-.811 1.11-2.607 1.748-4.918 1.748-3.35 0-3.64-.23-3.64-2.902 0-2.356.593-3.109 3.15-4 5.62-1.96 11.648-1.391 14.396 1.357 1.984 1.984 2.456 3.47 2.465 7.75.006 2.912.286 6.957.622 8.987l.61 3.692-9.62-.02c-8.689-.018-9.764-.227-11.12-2.164zm10.498-5.282c0-1.766-2.152-1.458-2.77.396-.218.653.316 1.187 1.187 1.187.87 0 1.583-.712 1.583-1.583zm36 5.583c-1.644-1.644-2-3.333-2-9.5 0-9.834 1.449-11.5 10-11.5 7.679 0 10 1.974 10 8.5v4.5h-5.531c-5.773 0-8.083 1.8-5.54 4.318.922.911 1.422.781 2.183-.568.68-1.204 2.219-1.75 4.938-1.75 3.673 0 3.95.2 3.95 2.84 0 3.625-3.137 5.16-10.547 5.16-4.12 0-5.942-.489-7.453-2zm9.75-14.25c-.229-.687-1.016-1.25-1.75-1.25-.733 0-1.52.563-1.75 1.25-.248.744.461 1.25 1.75 1.25 1.29 0 1.998-.506 1.75-1.25zm10.037-4.75c-.272-1.854 0-3 .713-3s.986 1.146.714 3c-.243 1.65-.564 3-.714 3-.15 0-.47-1.35-.713-3zm5.819 1.414c-.335-.872-.172-2.334.362-3.25.773-1.323.978-.999 1.002 1.586.033 3.559-.424 4.116-1.364 1.664zM77.493 82.043c0-1.348.788-2.892 1.75-3.433 1.633-.916 1.557-1.538-1.145-9.3-1.592-4.574-3.28-8.744-3.75-9.267-.47-.522-.855-2.21-.855-3.75 0-2.732.135-2.8 5.586-2.8h5.586l-.226 3.75c-.4 6.663-.068 8.772 1.186 7.518.623-.623 1.081-3.413 1.018-6.2l-.114-5.068h4.482c4.091 0 4.482.214 4.482 2.453 0 1.35-.434 3.487-.965 4.75-.53 1.264-2.145 6.274-3.587 11.134-3.019 10.175-4.974 12.663-9.948 12.663-3.047 0-3.5-.316-3.5-2.45zm-75.5-21.05v-15.5h22.5v11h-4.5c-3.833 0-4.5-.296-4.5-2 0-1.11-.666-2-1.5-2-.933 0-1.5.945-1.5 2.5 0 2.111.467 2.5 3 2.5 2.667 0 3 .334 3 3 0 2.667-.333 3-3 3-2.666 0-3 .334-3 3 0 2 .5 3 1.5 3 .834 0 1.5-.889 1.5-2 0-1.703.667-2 4.5-2h4.5v11h-22.5v-15.5zM26.972 74.83c-1.599-1.599-1.947-6.05-.635-8.117.447-.705 3.028-2.123 5.735-3.15 4.705-1.786 6.338-3.93 3.671-4.819-.687-.229-1.25.296-1.25 1.167 0 1.18-1.017 1.583-4 1.583-3.748 0-4-.183-4-2.902 0-2.356.593-3.109 3.15-4 4.798-1.673 11.328-1.36 13.634.652 1.657 1.446 2.106 3.436 2.58 11.45l.576 9.7-8.991-.042c-6.556-.032-9.392-.444-10.47-1.522zm10.521-5.91c0-.93-.68-1.44-1.667-1.25-2.509.488-2.853 2.824-.416 2.824 1.228 0 2.083-.645 2.083-1.573zm10.472-3.93l-.029-11.505 6.779.182 6.778.182v3.706c0 2.95-.438 3.82-2.148 4.268-2.025.53-2.111.97-1.493 7.617l.655 7.054H47.993l-.028-11.504zm15.028-3.996v-15.5h9.5l.011 11.75c.006 6.463.29 13.438.631 15.5l.62 3.75H62.993v-15.5zm48.443-1.75l-.058-17.25-6.442-5.5c-3.542-3.025-7.842-6.7-9.553-8.165-3.856-3.303-2.995-5.852.93-2.757l2.68 2.112 1.311-4.845c1.93-7.13 2.025-7.345 3.266-7.345.68 0 .917.91.588 2.25-.304 1.238-.854 4.56-1.222 7.382l-.67 5.133 5.635 4.253c5.57 4.206 5.658 4.233 7.723 2.368 1.15-1.037 3.408-3.548 5.019-5.58l2.93-3.693-4.051-8.056c-5.213-10.367-2.887-11.237 2.647-.991l3.816 7.065 3.224-3.518c4.802-5.24 5.077-2.345.37 3.889-2.247 2.977-4.086 5.657-4.086 5.955 0 .299 1.613.543 3.584.543 5.506 0 3.678 2.41-2.276 3-4.147.412-5.522 1.078-7.773 3.764l-2.736 3.264.35 16.986.351 16.987h-5.5l-.057-17.25zm10.752-7.534c-3.423-3.783-1.06-11.216 3.567-11.216.882 0 1.89-.9 2.238-2 .35-1.1 1.013-2 1.474-2 .461 0 .604.9.316 2-.422 1.613-.03 2 2.022 2a6.125 6.125 0 0 1 4.942 9.87c-1.63 2.19-2.869 2.68-7.41 2.924-4.31.233-5.81-.098-7.149-1.578zm14.29-4.966c-.018-1.999-1.643-4.928-2.342-4.22-.256.258-.228 1.708.062 3.22.582 3.028 2.304 3.783 2.28 1zm-50.626-5.757c-.81-2.11 2.202-6.344 5.016-7.05 3.485-.875 8.913-.121 9.38 1.302.225.685-.943 2.598-2.596 4.25-2.365 2.365-3.88 3.005-7.113 3.005-2.739 0-4.301-.502-4.687-1.507zm50.391-4.065c-1.512-.82-2.75-1.895-2.75-2.387 0-.493 1.238-1.871 2.75-3.063 3.261-2.571 9.184-2.252 12.411.668 1.999 1.808 1.996 1.822-.633 4.084-3.056 2.629-7.71 2.905-11.778.698zm-29.889-8.425l-2.36-1.997 2.805-2.503c3.212-2.865 6.512-3.166 10.744-.977 3.63 1.877 3.68 2.755.315 5.402-3.338 2.625-8.45 2.659-11.504.075zm26.63-13.041c-1.179-5.37 4.576-12.301 8.852-10.66 4.227 1.622.481 10.518-5.274 12.524-2.757.962-2.982.844-3.577-1.864zm-34.38-2.344c-4.119-2.305-6.898-10.395-4.155-12.09 1.917-1.185 7.69 2.203 8.954 5.254 2.57 6.207.174 9.62-4.8 6.836z"/></svg>