<svg xmlns="http://www.w3.org/2000/svg" viewBox="0 0 333 334"><path d="M144 331.045c-8.656-.949-25.57-5.172-35-8.74-39.087-14.785-72.053-44.717-89.722-81.465C13.554 228.936 9.18 216.56 5.906 203c-3.091-12.803-3.966-49.023-1.486-61.529 3.036-15.306 4.49-21.156 6.726-27.042 1.238-3.261 2.35-6.511 2.47-7.222.121-.712 1.382-3.516 2.802-6.232C17.838 98.259 19 95.385 19 94.59c0-.796.595-2.042 1.322-2.77.727-.727 2.505-3.675 3.95-6.552 4.071-8.106 18.67-26.955 27.37-35.34C60.483 41.41 76.215 29.378 83 25.945c2.475-1.252 5.175-2.828 6-3.503 3.584-2.931 28.455-12.922 34.512-13.863 2.193-.34 5.338-1.04 6.988-1.552C139.209 4.318 151.217 3 167.18 3c14.824 0 18.808.373 31.64 2.962 8.074 1.629 17.155 3.913 20.18 5.075 3.025 1.162 6.85 2.528 8.5 3.036 4.163 1.281 10.417 4.269 21.54 10.29 17.289 9.359 42.214 32.206 53.72 49.24 5.66 8.38 17.24 30.063 17.24 32.281 0 .523.896 3.042 1.992 5.598s2.184 5.63 2.417 6.833c.234 1.202 1.685 6.91 3.225 12.685 2.721 10.206 2.799 11.213 2.783 36-.016 24.682-.106 25.837-2.8 36-1.53 5.775-2.974 11.483-3.208 12.685-.233 1.202-1.321 4.277-2.417 6.833-1.096 2.556-1.992 5.02-1.992 5.476 0 3.314-14.131 29.14-21.217 38.775-7.069 9.613-27.862 29.34-38.414 36.444-13.556 9.126-36.766 20.391-45.869 22.263-1.1.226-6.5 1.589-12 3.027-8.859 2.318-12.34 2.66-30.5 2.99-11.275.206-23.875.004-28-.448zm57-7.614c5.225-1.428 10.4-2.726 11.5-2.884 4.633-.667 24.767-9.602 36.469-16.184 7.267-4.087 22.53-16.138 30.621-24.178 10.581-10.512 22.121-26.422 28.985-39.96 3.217-6.347 5.98-12.392 6.14-13.435.158-1.043.947-3.17 1.752-4.727 1.528-2.953 5.727-17.595 7.762-27.063 1.917-8.918 1.531-50.956-.541-59-5.59-21.694-11.646-37.558-18.517-48.5-1.381-2.2-2.323-4.029-2.091-4.064.23-.035-3.153-4.76-7.52-10.5-16.441-21.614-36.176-38.03-58.645-48.787-9.423-4.51-23.491-9.87-27.99-10.662-1.629-.287-5.429-1.165-8.444-1.95-16.756-4.364-48.418-4.692-64.245-.664-4.545 1.157-9.7 2.356-11.456 2.666-1.755.309-5.947 1.664-9.314 3.011-3.368 1.348-6.567 2.45-7.11 2.45-1.987 0-22.248 10.84-30.208 16.163-14.411 9.636-33.635 28.882-43.934 43.984-9.302 13.641-18.834 36.237-23.351 55.353C8.73 143.528 8.5 146.785 8.5 168c0 21.312.222 24.431 2.387 33.5 2.684 11.24 7.126 24.513 10.714 32.014 1.32 2.758 2.399 5.539 2.399 6.179 0 .64.627 1.79 1.392 2.557.766.765 2.623 3.82 4.127 6.787 1.503 2.966 3.947 6.984 5.43 8.928A1289.67 1289.67 0 0 1 41.753 267c8.632 11.564 30.211 30.86 41.215 36.853 2.493 1.358 5.207 3.006 6.032 3.663 2.975 2.37 26.94 12.243 31.898 13.142 1.421.258 5.738 1.38 9.593 2.495 9.984 2.886 21.32 3.762 42.509 3.288 15.993-.358 19.788-.766 28-3.01zm-49.082.536c-10.843-1.267-28.236-4.9-34.008-7.101-2.976-1.135-6.224-2.223-7.22-2.419-1.743-.342-9.972-4.05-16.19-7.294a710.91 710.91 0 0 0-6.046-3.11c-3.221-1.632-3.442-1.783-15.954-10.9-13.164-9.591-37.303-35.862-37.463-40.77-.02-.62-.698-1.677-1.506-2.347C31.731 248.532 19 222.444 19 220.249c0-.425-1.147-4.368-2.55-8.761-1.401-4.393-2.696-9.338-2.876-10.988-.18-1.65-1.109-8.625-2.062-15.5-3.792-27.332 1.583-58.803 14.654-85.803C40.337 69.924 62.25 46.776 91.408 30.274c5.859-3.316 21.128-10.184 23.735-10.676.746-.14 5.182-1.409 9.857-2.819 4.675-1.41 11.875-3.114 16-3.787 11.464-1.87 33.461-2.403 43.069-1.044 4.637.656 11.131 1.56 14.431 2.01 3.3.45 8.925 1.813 12.5 3.03 3.575 1.217 7.175 2.353 8 2.524 1.995.414 16.342 6.634 22 9.537 19.298 9.905 43.088 31.226 55.177 49.451 13.09 19.732 19.69 35.48 24.52 58.5 2.217 10.571 2.629 15.123 2.67 29.5.04 14.627-.325 18.814-2.621 30-2.515 12.252-5.887 23.558-9.394 31.5-2.992 6.774-9.068 18.75-10.712 21.111-.914 1.314-3.795 5.641-6.401 9.616-6.896 10.516-26.223 29.57-38.328 37.784-17.924 12.163-37.695 20.64-57.206 24.527-18.981 3.78-32.35 4.618-46.787 2.93zM190 321.006c4.811.03 31.43-8.074 35.956-10.947 1.35-.857 2.61-1.403 2.797-1.213.526.532 13.953-6.44 21.46-11.141 17.054-10.682 36.966-30.985 47.708-48.643 11.882-19.531 20.144-42.32 22.139-61.062 2.086-19.597.725-45.29-3.073-58.045-1.187-3.983-2.307-8.021-2.49-8.975-1.116-5.79-14.922-35.647-17.563-37.98-.311-.275-2.085-2.75-3.941-5.5-1.856-2.75-9.477-11.123-16.934-18.607-24.817-24.906-48.914-37.477-84.936-44.31-9.175-1.74-36.405-2.02-46.123-.474-7.97 1.269-19.037 4.21-29 7.705-4.125 1.448-7.725 2.681-8 2.74-1.331.29-14.046 6.683-18.2 9.152C64.045 49.016 41.774 72.507 29.321 97.5c-4.08 8.19-10.011 22.913-10.675 26.5-.254 1.375-1.515 6.325-2.801 11-2.157 7.837-2.34 10.41-2.342 33-.003 22.61.178 25.155 2.339 33 1.288 4.675 2.553 9.618 2.812 10.985.668 3.53 4.905 14.39 8.59 22.015 10.32 21.361 23.383 37.9 43.81 55.464 7.743 6.659 25.182 16.771 37.677 21.849 9.77 3.97 31.244 9.508 37.171 9.586 2.971.04 5.671.352 6 .694.329.342 8.473.347 18.098.01 9.625-.337 18.625-.605 20-.597zm-37.5-4.506c-.55-.189-3.063-.62-5.583-.958-3.1-.416-4.584-1.093-4.584-2.093 0-.926.624-1.28 1.67-.948 1.428.453 1.81-.727 2.62-8.1.746-6.797.675-8.733-.338-9.122-.707-.271-1.285-.895-1.285-1.386 0-1.035 7.178-1.155 14.75-.245l5.25.63v3.861c0 2.765-.426 3.861-1.5 3.861-.825 0-1.5-.62-1.5-1.378 0-1.982-1.99-3.266-6.017-3.883l-3.517-.538.372 3.9c.238 2.49.876 3.899 1.767 3.899.767 0 1.395-.45 1.395-1s.731-1 1.625-1c1.287 0 1.495.65 1 3.125-.344 1.719-.625 3.519-.625 4 0 .481-.66.875-1.469.875-.894 0-1.243-.586-.893-1.5.4-1.04-.069-1.5-1.531-1.5-1.41 0-2.107.634-2.107 1.918 0 1.055-.284 2.659-.632 3.564-1.01 2.632 7.731 1.693 9.135-.982 1.776-3.383 3.259-2.695 3.317 1.54l.055 3.96-5.188-.079c-2.853-.043-5.637-.233-6.187-.421zm15.5-.14c0-.352.595-1.14 1.323-1.75 1.12-.94 3.507-7.753 6.52-18.61.481-1.735 1.506-2.595 3.347-2.809 2.33-.271 3.145.521 6.687 6.5 5.954 10.051 7.488 12.052 8.873 11.574.73-.252 1.25.409 1.25 1.59 0 1.301-.623 1.98-1.75 1.907-.963-.063-3.498.221-5.635.632-3.69.71-3.856.634-3.292-1.521.326-1.248.107-2.855-.487-3.571-1.536-1.85-7.382-1.613-9.375.38-1.543 1.543-1.549 1.78-.072 2.86 2.909 2.127 1.797 3.458-2.889 3.458-2.475 0-4.5-.288-4.5-.64zm13.293-9.987c.345-.345-.063-1.961-.907-3.593-1.748-3.382-1.714-3.392-3.186.97-1.024 3.037-.947 3.25 1.185 3.25 1.255 0 2.564-.282 2.908-.627zm16.138 6.515c-.378-.611-.126-1.459.56-1.883.984-.607.92-1.8-.301-5.638-.852-2.677-1.832-6.284-2.177-8.015-.416-2.09-1.359-3.34-2.803-3.718-2.942-.769-1.299-2.093 4.284-3.452 5.06-1.231 6.757-.358 4.944 2.546-1.004 1.608-.833 3.26.947 9.118 1.219 4.014 2.734 7.154 3.453 7.154 2.468 0 5.088-2.81 5.21-5.587.067-1.542.573-2.953 1.124-3.137 1.203-.401 4.49 7.506 3.4 8.179-.952.589-16.324 5.515-17.263 5.532-.38.007-1-.487-1.378-1.099zM124 311c-1.925-1.054-4.513-1.935-5.75-1.958-2.347-.044-2.762-1.529-1.62-5.792.805-3.001 3-2.863 3.778.238.397 1.584 2.118 3.25 4.736 4.586 3.644 1.858 4.283 1.928 5.603.608 1.924-1.924 1.039-3.24-3.856-5.738-8.093-4.128-9.92-8.463-5.553-13.174 2.171-2.343 2.716-2.463 7.666-1.68 2.93.463 5.793 1.307 6.362 1.876s1.88 1.034 2.913 1.034c1.597 0 1.775.489 1.183 3.25-.384 1.788-.896 3.587-1.139 4-.868 1.476-2.19.711-2.503-1.45-.404-2.774-6.045-6.18-8.793-5.309-3.16 1.003-2.47 2.161 3.723 6.252 5.297 3.499 5.774 4.123 6.053 7.934.247 3.368-.12 4.431-1.973 5.73-2.981 2.088-6.516 1.955-10.83-.407zm22.5-24.143c-9.648-1.213-9.78-1.217-11.742-.387-1.22.517-1.946.183-2.427-1.116-.868-2.348-2.286-3.32-4.874-3.339-2.966-.022-24.859-11.312-32.457-16.739-8.097-5.782-20.402-18.268-25.58-25.956-2.156-3.201-4.18-6.045-4.498-6.32-1.133-.98-8.054-14.607-10.521-20.716C44.052 186.666 43.427 153.87 52.793 128c.896-2.475 2.207-5.625 2.912-7 .706-1.375 1.285-2.888 1.289-3.363.018-2.544 11.283-20.294 17.626-27.774C85.154 77.44 99.765 65.78 112.5 59.634c8.512-4.108 16.606-7.036 26.756-9.68C150.08 47.137 151.19 47.04 169 47.38c16.12.307 19.658.679 27.5 2.895 9.818 2.773 10.843 3.119 17.5 5.9 19.22 8.029 40.376 24.722 50.497 39.846 1.649 2.464 3.284 4.704 3.634 4.979.543.426 4.555 7.55 7.719 13.705 2.95 5.741 5.535 13.125 8.154 23.295 2.746 10.664 2.961 12.808 2.961 29.5 0 15.06-.335 19.225-2.054 25.5-1.13 4.125-2.454 9.39-2.943 11.7-.49 2.31-1.328 5.01-1.864 6-.536.99-2.96 5.85-5.388 10.8-2.427 4.95-6.593 12.15-9.258 16-6.208 8.969-19.984 22.746-28.958 28.96-7.264 5.03-27.874 15.529-30.5 15.536-.825.002-3.815.885-6.644 1.96-9.865 3.75-35.091 5.134-52.856 2.901zm27.5-.916c0-.582-.453-.779-1.007-.437-.554.343-1.252-.015-1.55-.794-.512-1.332-9.254-2.373-25.443-3.028-5.749-.233-6.733 1.464-1.5 2.586 11.727 2.513 29.5 3.521 29.5 1.673zm20-2.977c5.225-1.173 11.75-3.053 14.5-4.177 5.86-2.397 17.454-7.943 18.956-9.069.574-.43 4.068-2.776 7.763-5.213 5.898-3.89 20.889-18.286 26.592-25.537 5.33-6.777 13.265-21.913 17.02-32.468 6.56-18.433 8.582-43.307 4.878-60-2.693-12.136-3.972-16.755-5.398-19.5-.714-1.375-1.301-2.976-1.305-3.557-.006-1.06-6.086-13.623-7.957-16.443a3601.29 3601.29 0 0 1-5.263-8c-6.502-9.905-17.728-21.026-28.554-28.289C226.324 64.736 211 56.338 211 57.432c0 .252-2.46-.63-5.467-1.96-3.007-1.33-8.295-2.9-11.75-3.49A3155.6 3155.6 0 0 0 181 49.834c-7.462-1.236-27.606-.576-36.5 1.195-8.69 1.73-22.857 6.707-31.5 11.067-21.25 10.718-39.313 28.536-50.81 50.118C47.47 139.85 44.304 175.282 53.989 204c2.907 8.621 8.352 21.258 10.062 23.353.515.63 3.167 4.553 5.894 8.715 5.93 9.054 19.194 22.407 28.685 28.878 10.91 7.44 30.362 16.795 32.357 15.563 1.696-1.049-.113-3.378-3.14-4.043-6.472-1.421-23.158-10.262-30.615-16.22-11.236-8.978-24.844-24.266-29.565-33.216-7.44-14.105-9.193-18.38-12.073-29.462-5.117-19.689-5.435-37.88-.963-55.033.866-3.32 1.75-6.983 1.966-8.142 1.008-5.427 9.805-23.231 16.014-32.413 8.117-12.003 18.712-22.489 30.7-30.384 7.629-5.023 11.338-6.952 23.19-12.058 4.776-2.058 17.325-5.27 25.79-6.6 13.374-2.103 32.124-.521 46.478 3.921 1.798.557 3.373.969 3.5.916.477-.196 8.326 2.53 10.732 3.727 1.375.684 4.075 2.007 6 2.94 12.736 6.17 18.958 10.828 30.57 22.888 9.295 9.655 12.745 14.213 19.428 25.67 2.034 3.487 6.953 16.012 8.836 22.5 3.412 11.758 4.162 17.431 4.23 32 .066 14.013-1.055 21.968-4.438 31.5-.878 2.475-1.603 5.087-1.611 5.805-.008.718-.868 3.193-1.911 5.5L270.627 218c-3.14 6.954-7.456 13.893-12.847 20.65-6.258 7.842-19.46 20.499-25.03 23.996a1294.53 1294.53 0 0 0-8 5.075c-8.453 5.412-29.476 12.932-39 13.95-4.739.506-5.75.944-5.75 2.49 0 1.42.549 1.762 2.25 1.407 1.238-.26 6.525-1.43 11.75-2.604zm-20-2.782c0-.951-6.253-9.263-6.66-8.854-.56.559 2.117 8.198 3.12 8.907 1.402.99 3.54.958 3.54-.053zm-8.736-3.78c1.614-1.613-.766-3.402-4.526-3.402-3.985 0-4.02.031-2.238 2 1.722 1.903 5.484 2.683 6.764 1.402zm38.277-1.469c.363-.586.454-1.272.202-1.523-.697-.698-3.743.683-3.743 1.697 0 1.252 2.743 1.117 3.541-.174zM179 274.56c0-.243-.45-.72-1-1.059-.55-.34-1-.141-1 .441s.45 1.059 1 1.059 1-.198 1-.441zm-44.878-3.234c-1.179-2.027-1.463-1.378-.498 1.136.342.894.834 1.415 1.091 1.157.258-.257-.009-1.29-.593-2.293zm86.762-5.397c-.756-.467-1.736-.145-2.425.797-.635.87-1.58 1.318-2.1.997-.519-.32-1.007.252-1.084 1.274-.133 1.763.036 1.753 3.369-.213 2.462-1.453 3.13-2.304 2.24-2.855zM131 269.56c0-.243-.45-.72-1-1.059-.55-.34-1-.141-1 .441s.45 1.059 1 1.059 1-.198 1-.441zm21-1.56c0-1.268-.64-1.971-1.75-1.921-1.045.047-1.247.282-.5.583.688.278 1.25 1.142 1.25 1.921 0 .78.225 1.417.5 1.417s.5-.9.5-2zm42.5 1c-.355-.574-4.742-.93-10.309-.837-8.548.144-9.042.242-4.191.837 8.999 1.103 15.182 1.103 14.5 0zm-68.9-2.6c-.356-.927-.872-1.461-1.147-1.186-.275.275-.209 1.259.147 2.186s.872 1.461 1.147 1.186c.275-.275.209-1.259-.147-2.186zm7.062-.65c-.277-.688-.504-.125-.504 1.25s.227 1.938.504 1.25c.278-.688.278-1.813 0-2.5zM168 267.024c0-.353-.638-1.514-1.417-2.58-1-1.368-1.112-2.307-.378-3.191.69-.832.699-1.253.024-1.253-1.442 0-2.103 2.207-1.541 5.147.408 2.134 3.312 3.78 3.312 1.877zm-5.732-4.274c.272-1.788.394-3.367.27-3.51-.124-.144-3.008-.493-6.407-.776-6.023-.502-6.136-.467-4.406 1.368.976 1.035 2 1.893 2.275 1.907 3.095.151 3.84.544 4.29 2.261.839 3.21 3.422 2.398 3.978-1.25zm-15.461-.276c-.308-.308-.867.247-1.243 1.233-.542 1.425-.428 1.54.56.56.684-.679.99-1.486.683-1.793zm35.601.904c.466-1.214 1.394-1.468 3.688-1.009 2.198.44 2.949.262 2.654-.628-.266-.804-3.045-1.343-7.902-1.53-7.176-.277-7.54-.182-8.648 2.25L171.043 265h5.371c4.032 0 5.527-.405 5.994-1.622zm18.425-.448c2.961-.057 3.282-.236 1.667-.93-1.746-.75-1.619-.886 1-1.066 2.507-.172 2.621-.279.695-.647-1.268-.242-2.927.075-3.686.706-1.038.861-1.915.86-3.53-.004-2.768-1.481-3.464-.738-1.802 1.924.724 1.159 1.468 1.653 1.653 1.097.185-.555 1.987-1.041 4.003-1.08zm-67.138-2.768c.755-.755 1.114-2.187.798-3.183-.316-.996-.075-2.12.535-2.496.61-.377.867-1.315.572-2.084-.296-.77-.101-1.399.431-1.399.533 0 .969-.675.969-1.5s-.473-1.5-1.051-1.5c-1.563 0-4.057 6.667-4.453 11.905-.19 2.527-.083 3.928.24 3.113.322-.815 1.203-2.1 1.959-2.856zM216.5 263c-.34-.55-1.154-.993-1.809-.985-.716.01-.592.403.309.985 1.921 1.242 2.267 1.242 1.5 0zm-86.01-8.862c.884-3.1 1.983-6.841 2.443-8.312.654-2.093.535-2.56-.548-2.143-.762.292-1.385 1.14-1.385 1.885 0 .745-.946 2.235-2.102 3.312-1.74 1.62-1.985 2.648-1.424 5.964.4 2.372.215 4.955-.454 6.331-1.053 2.165-1.028 2.197.367.463.824-1.024 2.22-4.4 3.104-7.5zm-14.145 5.319c-.326-.849-.807-1.329-1.069-1.067-.262.262-.18.957.183 1.543.986 1.596 1.562 1.286.886-.476zm110.318-2.279c-.137-1.787-.853-2.761-2.184-2.972-1.565-.248-1.68-.11-.543.664 1.17.797 1.2 1.26.164 2.51-1.51 1.82-.625 3.759 1.366 2.995.799-.307 1.314-1.682 1.197-3.197zM101 257.56c0-1.055-1.92-1.499-2.49-.575-.345.559.074 1.016.931 1.016.857 0 1.559-.198 1.559-.441zm46.5-.559c.34-.55-.11-1-1-1s-1.34.45-1 1c.34.55.79 1 1 1 .21 0 .66-.45 1-1zm-25.833-1.5c0-.825-.375-1.5-.834-1.5-.458 0-.833.675-.833 1.5s.375 1.5.833 1.5c.459 0 .834-.675.834-1.5zm20.516-.717c-.717-.717-1.183-.776-1.183-.15 0 .569.3 1.334.667 1.7.366.367.899.434 1.183.15.284-.284-.016-1.049-.667-1.7zm54.05 1.068c-.924-.901-4.704-1.252-9.233-.856-3.435.3-3.416.318 1 .989 5.645.857 9.189.8 8.233-.133zm-24.813-5.457c1.412-3.084 2.328-5.992 2.037-6.464-.927-1.499-4.457 2.966-4.457 5.636 0 1.41-.466 3.436-1.035 4.5-.636 1.187-.664 1.934-.073 1.934.529 0 2.116-2.523 3.528-5.606zM230 255.56c0-.243-.45-.72-1-1.059-.55-.34-1-.141-1 .441s.45 1.059 1 1.059 1-.198 1-.441zm-22.49-1.926c1.157-1.157 1.03-1.519-.821-2.349-2.352-1.054-4.689-.671-4.689.768 0 .487.675.626 1.5.31.95-.365 1.5.013 1.5 1.031 0 1.966.715 2.035 2.51.24zm-112.593.106c-.23-.143-1.542-1.156-2.917-2.25l-2.5-1.989 1.905 2.25c1.048 1.238 2.36 2.25 2.917 2.25.556 0 .824-.117.595-.26zM232 253.56c0-.243-.45-.72-1-1.059-.55-.34-1-.141-1 .441s.45 1.059 1 1.059 1-.198 1-.441zm-35.464-3.5c-.729-1.18-8.808-3.059-13.15-3.059-3.27 0-7.382 2.173-7.388 3.905-.001.327 4.732.453 10.519.28s10.295-.68 10.019-1.127zM165 249.064c.275-.113-.269-.511-1.209-.885-2.1-.836-11.791-.253-11.791.71 0 .596 11.592.753 13 .175zm39-1.948c0-1.155-3.857-2.157-4.472-1.163-.26.422-.186 1.055.166 1.407.96.959 4.306.77 4.306-.244zm7-.51c0-.216-.675-.652-1.5-.969-.825-.316-1.5-.14-1.5.393s.675.969 1.5.969 1.5-.177 1.5-.393zm-68-2.25c0-.773 1.066-1.812 2.37-2.307 1.468-.559 2.574-1.974 2.91-3.726.715-3.718.308-3.95-2.444-1.386-1.263 1.177-3.304 2.392-4.536 2.702-1.516.38-2.17 1.221-2.02 2.6.12 1.122-.405 2.26-1.17 2.53-.847.299-1.116.05-.69-.64.384-.622.27-1.13-.254-1.13s-1.2.646-1.503 1.437c-.424 1.104.362 1.424 3.393 1.382 2.697-.038 3.944-.5 3.944-1.462zm97.461.02c1.491-.573 1.487-.777-.054-2.48-1.556-1.72-1.558-1.902-.028-2.489.908-.348 2.544-.4 3.636-.114 2.183.57 2.687-1.192.863-3.016-.83-.83.125-1.078 3.664-.95 5.196.187 5.466-.162 6.824-8.828.258-1.65.507-3.101.552-3.225.045-.124 1.207.202 2.582.725 2.363.898 2.5.764 2.5-2.447 0-3.013-.407-3.532-3.592-4.583-2.628-.868-3.89-.888-4.7-.078s-.36 1.108 1.675 1.108c3.237 0 3.148 2.324-.107 2.806-1.137.168-2.902 1.246-3.922 2.395-1.835 2.068-1.825 2.085.896 1.583 3.042-.56 3.541.314 1.26 2.208-.943.783-1.27 2.113-.892 3.622.51 2.035.233 2.386-1.887 2.386-1.367 0-3.006-.626-3.641-1.392-1.258-1.515-5.09-2.834-5.09-1.752 0 1.775-4.603 2.623-7.25 1.335-3.429-1.668-3.548-3.191-.25-3.191 3.11 0 3.331-1.45.25-1.634-1.238-.074-4.007-.482-6.155-.906-2.86-.565-3.714-.462-3.191.384.49.794-.43 1.156-2.944 1.156-4.833 0-10 2.546-12.613 6.214-1.597 2.244-2.7 2.856-4.52 2.508-1.34-.256-2.26-.02-2.075.534.414 1.241 11.744 1.323 12.612.091.35-.496 2.548-1.746 4.886-2.776 2.337-1.031 4.25-2.433 4.25-3.116 0-1.961 2.996-2.628 3.69-.821.337.88 2.458 2.437 4.712 3.46 2.254 1.025 3.45 1.872 2.657 1.884-1.058.016-.948.383.415 1.38 1.805 1.32 1.804 1.388-.058 2.47-1.054.61-1.342 1.125-.641 1.142.7.016 1.702 1.155 2.225 2.53 1.043 2.742 1.11 2.779 3.461 1.876zM99.75 242.92c-2.393-1.394-2.213-3.274.251-2.63 1.101.288 1.75.115 1.441-.383-.308-.499-1.16-.907-1.894-.907-1.604 0-2.693-2.459-1.948-4.399.295-.77.008-1.725-.639-2.125-.899-.555-.897-.897.006-1.456.869-.537.768-1.143-.384-2.294-1.04-1.04-1.185-1.692-.43-1.943.838-.28.826-.953-.045-2.58-.801-1.498-.836-2.203-.108-2.203.75 0 .74-.619-.034-2.064-.823-1.537-.796-2.436.107-3.524 1.861-2.242.828-2.297-3.875-.205-4.011 1.785-4.267 2.132-3.79 5.136.282 1.772 1.522 5.457 2.757 8.19 1.235 2.732 2.159 5.288 2.052 5.681-.106.393.436.473 1.205.178 1.552-.596 3.115 2.93 2.056 4.643-.866 1.402 1.351 3.973 3.394 3.935 1.428-.027 1.413-.156-.122-1.05zm31.75-.348c3.998-1.397 3.999-1.398 1.237-2.096-2.697-.683-5.737.72-5.737 2.646 0 1.087-.284 1.122 4.5-.55zm90.5 1.05c0-.207-.685-.946-1.523-1.641-1.273-1.057-1.42-.995-.893.378.538 1.401 2.416 2.384 2.416 1.263zm-41-3.687c0-.585 1.35-2.2 3-3.588 2.068-1.74 3-3.429 3-5.436 0-3.332.607-3.577 3.15-1.275 1.674 1.515 1.855 1.515 2.436 0 .345-.9.303-2.423-.094-3.386-.397-.963-.938-3.438-1.2-5.5-.37-2.898-.133-3.75 1.041-3.75.836 0 1.706.787 1.933 1.75.228.963.284-.645.125-3.573-.348-6.427-2.32-11.336-4.391-10.929-1.594.314-1.76 4.7-.452 12.007.643 3.593.517 3.82-2.906 5.25-1.968.822-3.797 1.495-4.065 1.495-.269 0 .185-1.908 1.008-4.24 1.841-5.22 2.037-13.845.403-17.79-1.584-3.823-2.71-3.009-3.546 2.566-.37 2.469-1.07 4.735-1.557 5.035-.487.301-.898 1.308-.914 2.238-.033 1.908-5.388 8.191-6.982 8.191-1.748 0-2.757 4.282-2.003 8.5 1.368 7.655 2.873 10.155 4.514 7.5.34-.55.142-1-.441-1-1.555 0-1.291-4.563.343-5.919.77-.64 1.667-2.22 1.991-3.512.547-2.177 3.313-4.196 4.341-3.168.817.817-.837 4.568-3.31 7.506-1.439 1.71-2.185 3.551-1.823 4.495 1.088 2.837 2.842 1.684 5.399-3.55 1.886-3.861 2.576-4.61 2.81-3.052.172 1.135-.337 3.333-1.129 4.882-2.083 4.075-3.073 9.318-1.76 9.318.593 0 1.079-.48 1.079-1.065zm46.98-1.46c-.696-.837-1.47-1.317-1.723-1.066-.693.694.716 2.591 1.924 2.591.664 0 .588-.574-.201-1.524zM103 237.608c0-.216-.698-.661-1.552-.989-.89-.341-1.291-.173-.94.393.586.95 2.492 1.406 2.492.596zm55.375-3.282c-.836-3.195-3.937-3.581-5.27-.657-1.515 3.327-1.45 3.457 1.395 2.743 1.713-.43 2.5-.216 2.5.68 0 .843.344.965.967.342.532-.532.716-1.93.408-3.108zm-27.94-1.223c-.627-.628-2.412 1.912-2.388 3.398.01.55.673.133 1.474-.927.802-1.06 1.214-2.172.914-2.471zm32.62-9.448c-.58-.58-1.055-2.133-1.055-3.453 0-1.394-1.3-3.614-3.106-5.3-4.31-4.027-4.543-3.632-.871 1.481 2.04 2.84 3.004 5.216 2.74 6.75l-.406 2.368-1.064-2.5c-1.158-2.723-5.26-6.87-5.346-5.405-.03.498-.286 3.38-.57 6.405-.507 5.386-.463 5.503 2.132 5.65l2.65.148-2.108-2.243c-1.274-1.357-1.856-2.899-1.472-3.9.885-2.305 3.421-2.076 3.421.31 0 1.08.84 2.414 1.866 2.963 1.096.587 2.218 2.769 2.717 5.286l.851 4.286.337-5.896c.188-3.275-.131-6.364-.717-6.95zm-76.326 10.742c-.332-.332-1.195-.368-1.917-.08-.797.32-.56.557.605.605 1.054.043 1.644-.193 1.312-.525zM127 234c0-.55-.198-1-.441-1s-.72.45-1.059 1c-.34.55-.141 1 .441 1s1.059-.45 1.059-1zm13 0c0-.55 1.462-1.029 3.25-1.063 3.232-.063 3.236-.07.75-1.188l-2.5-1.125 2.97-.4c1.635-.22 3.136.093 3.336.695.415 1.245 2.194.452 2.194-.978 0-.518-2.025-.941-4.5-.941-2.772 0-4.5.45-4.5 1.171 0 .644-.745 1.994-1.655 3-.99 1.094-1.191 1.829-.5 1.829.635 0 1.155-.45 1.155-1zm-23.07-1.75c-.039-.412-.457-1.65-.93-2.75-.762-1.772-.867-1.687-.93.75-.038 1.512.38 2.75.93 2.75s.968-.338.93-.75zm-5.247-2.438c-.32-.797-.556-.56-.604.605-.043 1.054.193 1.644.525 1.312.332-.332.368-1.195.08-1.917zM139 230c.589-1.1.674-2 .19-2-.484 0-1.695.9-2.69 2-1.598 1.765-1.62 2-.19 2 .89 0 2.101-.9 2.69-2zm-59-1.5c-1.03-1.241-.922-1.51.628-1.563 1.676-.057 1.654-.152-.218-.91-1.684-.68-2.104-1.751-2.161-5.508-.055-3.623.245-4.544 1.34-4.123.99.38 1.411-.23 1.411-2.05 0-2.19.232-2.398 1.5-1.346 1.232 1.023 1.5.945 1.5-.437 0-.924.45-1.403 1-1.063.55.34 1 1.491 1 2.559 0 2.969 2.423 2.308 3.672-1.001 1.317-3.489.919-4.058-2.839-4.058-1.558 0-2.833-.477-2.833-1.059 0-1.852-1.7-.093-3.425 3.543-1.472 3.1-2.112 3.516-5.422 3.516-2.064 0-4.293-.54-4.953-1.2-.933-.933-1.467-.933-2.4 0-.933.933-.889 1.2.2 1.2s1.133.267.2 1.2c-2.13 2.13-1.417 6.192 1.308 7.456 2.208 1.024 2.492.93 2.492-.833 0-3.248 2.443-1.48 3.118 2.256.34 1.882.678 2.858.75 2.171.219-2.075 2.132-1.402 2.132.75 0 1.178.667 2 1.622 2 1.33 0 1.398-.271.378-1.5zm65.015-3.328c-.666-.222-1.955.355-2.863 1.283-1.546 1.58-1.47 1.605 1.211.404 1.575-.706 2.319-1.465 1.652-1.687zM130.03 220c.534 0 1.024 1.012 1.09 2.25.094 1.796.245 1.662.75-.667.926-4.281 3.254-4.651 2.595-.413-.397 2.555-.304 2.856.397 1.295.504-1.119 1.64-2.636 2.527-3.372 1.372-1.139 1.612-1.091 1.612.32 0 1.324.386 1.45 1.92.63 1.38-.739 2.03-.693 2.316.164.245.737.646.543 1.05-.508.43-1.123.154-1.699-.817-1.699-2.07 0-1.835-2.758.281-3.31.963-.252.355-.51-1.35-.574-4.027-.15-9.091 1.636-9.788 3.454-.302.786-1.408 1.43-2.458 1.43-2.698 0-4.18 2.184-3.428 5.052.62 2.365.671 2.338 1.487-.802.464-1.788 1.281-3.25 1.816-3.25zm18.7 3.396c-.332-.332-1.195-.368-1.917-.08-.797.32-.56.557.605.605 1.054.043 1.644-.193 1.312-.525zm98.271-1.66c0-.918-5.777-.292-6.807.737-.34.34 1.053.506 3.095.368 2.041-.137 3.712-.635 3.712-1.105zm-98-1.371c0-.747-.64-1.057-1.5-.727-.825.317-1.5.903-1.5 1.302 0 .4.675.727 1.5.727s1.5-.586 1.5-1.302zm18 .694c0-1.18-1.95-2.442-2.667-1.726-.716.717.546 2.667 1.726 2.667a.944.944 0 0 0 .941-.941zm61.806-4.596c-.073-1.945-.475-3.182-.892-2.75-.707.732-.112 6.287.672 6.287.194 0 .293-1.591.22-3.537zm-118.61-.213c-.29-1.512-.72-2.173-.956-1.467-.425 1.272.336 4.217 1.09 4.217.216 0 .156-1.238-.134-2.75zm11.388.82c1.16.963 1.416.7 1.416-1.456 0-2.38-.19-2.512-2-1.382-1.1.687-1.948 2.153-1.884 3.259.101 1.758.174 1.783.584.206.37-1.431.76-1.56 1.884-.628zm-17.6-3.82c.01-1.327.632-2.25 1.516-2.25.825 0 1.5-.675 1.5-1.5 0-2.552 1.495-1.659 2.93 1.75 1.228 2.92 1.41 3.027 1.781 1.055.267-1.415.924-1.998 1.851-1.643 1.029.395 1.438-.206 1.438-2.114 0-1.566.423-2.405 1.025-2.033.563.349.96.263.881-.19-.4-2.306.234-3.485 1.594-2.963.825.316 1.5.14 1.5-.393 0-1.334-1.476-1.215-5.438.44-1.855.776-5.926 1.94-9.047 2.588-3.12.648-5.429 1.423-5.13 1.722.3.3.072 1.427-.506 2.507-.914 1.709-.787 1.88.98 1.319 1.854-.589 1.985-.312 1.503 3.155-.397 2.863-.264 3.43.54 2.3.587-.825 1.074-2.513 1.083-3.75zm106.139-9.196c-.704-2.29-.742-3.673-.108-3.887 1.232-.417 1.277-3.633.083-5.93-.497-.956-1.468-3.762-2.158-6.237-2.004-7.182-3.518-9.11-6.316-8.047-1.302.495-4.882.84-7.957.769-3.075-.072-5.946.229-6.379.669-.433.44 1.353 2.67 3.97 4.954 2.617 2.285 4.755 4.588 4.75 5.117-.004.53 1.123 1.88 2.504 3 1.712 1.388 3.14 4.32 4.477 9.191 1.08 3.935 2.984 8.881 4.23 10.993l2.265 3.839.865-5.439c.565-3.545.486-6.676-.226-8.992zM204 201.5c0-.825.395-1.5.878-1.5.482 0 1.437.675 2.122 1.5 1.04 1.253.896 1.5-.878 1.5-1.22 0-2.122-.638-2.122-1.5zm43.493 15.511c.35-.566-.051-.734-.941-.393-1.732.665-2.05 1.382-.611 1.382.518 0 1.216-.445 1.552-.989zM169 213.5c0-.69-.675-1.815-1.5-2.5-1.288-1.069-1.5-.715-1.5 2.5s.212 3.569 1.5 2.5c.825-.685 1.5-1.81 1.5-2.5zm49.82-1.078c2.299-1.968 4.18-4.048 4.18-4.622 0-.596-.72-.455-1.673.328-1.494 1.225-1.61 1.124-1.078-.94.39-1.51.103-2.5-.827-2.856-.782-.3-1.422-1.382-1.422-2.404 0-1.756-3.646-4.615-4.63-3.63-1.068 1.067-.917 17.702.16 17.702.61 0 2.991-1.61 5.29-3.578zm43.055 2.953c3.566-.713 4.354-3.85 1.217-4.846-2.348-.745-3.581-3.608-1.98-4.598.649-.401.93-1.378.626-2.17-.945-2.465.724-3.934 3.637-3.203 2.007.504 2.542 1.13 2.115 2.474-.314.99-.103 2.09.47 2.443.572.354 1.04-.021 1.04-.833 0-.811.563-1.738 1.25-2.059.988-.46.979-.708-.042-1.18-.94-.435-.998-.951-.212-1.898.594-.716 1.256-2.215 1.47-3.332.216-1.117 1.373-3.012 2.573-4.212 1.77-1.77 2.066-2.902 1.57-6.01-.349-2.177-.18-4.098.389-4.45 1.276-.788 1.277-6.528.002-8.501-.533-.825-.976-1.162-.985-.75-.034 1.669-.387 2.302-1.905 3.411-.873.64-1.93.95-2.35.691-.418-.258-.76.038-.76.659 0 .62-1.008.984-2.24.809-2.774-.396-3.84-4.07-1.098-3.783 3.54.372 3.61-.06.486-3.046-2.124-2.03-3.148-3.957-3.148-5.927 0-1.992-.873-3.607-2.75-5.087-3.807-3.001-4.213-.486-.747 4.622 1.93 2.845 2.267 3.975 1.3 4.37-2.097.855-1.934 2.855.29 3.56 1.966.625 1.979.734.297 2.593-1.613 1.782-1.625 2.072-.15 3.546 1.185 1.186 1.37 2.226.708 3.97-.64 1.683-.547 2.371.327 2.394.82.021.728.433-.283 1.25-.829.67-1.355 2.273-1.168 3.563.42 2.895-1.394 7.456-3.848 9.677-1.013.916-1.598 2.299-1.302 3.072.315.819-.08 1.406-.945 1.406-.816 0-2.022.648-2.68 1.44-.994 1.198-.579 1.558 2.457 2.127 3.608.677 5.698 3.023 3.817 4.284-1.34.898-2.45 4.149-1.417 4.149.464 0 2.25-.281 3.969-.625zm-99.245-3.625c-.331-1.238-.609-3.263-.616-4.5-.008-1.303-.63-2.25-1.479-2.25-.805 0-1.92-.85-2.475-1.888-.609-1.138-2.41-2.05-4.535-2.299-1.939-.226-3.525-.298-3.525-.16 0 1.581 2.718 5.44 4.152 5.895 1.017.323 3.027 2.132 4.467 4.02 2.994 3.925 4.897 4.486 4.011 1.182zm-88.05-2.973c-.06-1.684.647-2.382 2.92-2.881l3-.66-2.872-.118c-2.313-.095-2.651-.385-1.736-1.488.922-1.11.358-1.494-2.974-2.027-2.859-.457-3.954-1.066-3.597-1.997.772-2.013-6.054-3.903-9.821-2.72l-3 .942 3.215.086c2.132.057 3.575.76 4.285 2.086.854 1.596.76 2-.465 2-.844 0-1.535.45-1.535 1s.9 1 2 1c1.926 0 1.917.083-.25 2.25l-2.25 2.25 5.789.622c3.183.342 6.07.905 6.416 1.25.919.919.961.84.874-1.595zm70.434-.94c1.642-1.57 2.969-3.188 2.947-3.596-.021-.407-2.271-1.828-5-3.156-4.618-2.249-6.373-4.085-3.902-4.085.582 0 .78-.45.441-1-.34-.55-1.747-1-3.126-1-2.082 0-2.397.352-1.852 2.07.492 1.548.154 2.202-1.34 2.593-2.444.639-3.292 3.467-2.191 7.305.454 1.585.553 3.155.219 3.489-.334.334 1.963.523 5.105.42 4.777-.156 6.201-.654 8.699-3.04zM134.2 203.8c-2.017-2.017-1.362-2.8 2.342-2.8 2.16 0 4.38.78 5.688 2l2.147 2h-4.488c-2.47 0-5.029-.54-5.689-1.2zm38.116 5.302c-.272-1.044.068-2.956.758-4.25 1.142-2.142 1.105-2.23-.41-.98-1.664 1.373-2.255 5.204-.997 6.461 1.051 1.052 1.182.804.65-1.23zm-76.859-.033c.317-.512.118-1.213-.44-1.559-.56-.345-1.017.074-1.017.931 0 1.757.6 2.015 1.457.628zM239 204.647c0-.51.787-1.502 1.748-2.205.962-.703 1.407-1.62.99-2.037-.417-.418-1.415.108-2.217 1.168-.801 1.06-1.472 1.557-1.49 1.106-.033-.86-3.031 1.799-3.031 2.687 0 .28.9.442 2 .359 1.1-.083 2-.568 2-1.078zm-130.25-4.636c1.788-1.09 3.25-1.538 3.25-.996s.9.985 2 .985c3.335 0 2.238-1.865-1.511-2.568-1.931-.362-3.758-1.058-4.06-1.545-.3-.488-1.264-.887-2.141-.887-1.264 0-1.152.383.54 1.852 1.175 1.018 1.844 2.143 1.487 2.5-1.04 1.04-6.315.746-6.315-.352 0-.55-.702-1-1.559-1s-1.305.412-.994.915c.311.503 0 1.183-.69 1.51-.692.329-.245.41.992.18 1.237-.23 2.501-.009 2.809.489.862 1.395 2.638 1.084 6.192-1.083zm18.18-2.261c.038-.412-.332-.75-.823-.75-1.254 0-2.25 2.96-1.438 4.274.605.979 2.05-1.273 2.26-3.524zm36.8 3.646c-.333-.332-1.196-.368-1.917-.08-.798.32-.561.557.604.605 1.054.043 1.644-.193 1.312-.525zm-73.98-1.685c4.537.205 4.05-1.297-1.195-3.686-4.649-2.118-9-2.508-14.68-1.317l-3.375.707 3 .592c1.65.325 3.776.13 4.725-.433 1.224-.726 2.08-.668 2.95.201.967.967.76 1.225-.983 1.225-1.965 0-2.07.223-.95 2.022 1.013 1.63 1.841 1.879 4.258 1.283 1.65-.407 4.463-.674 6.25-.594zm105.662-1.723c1.105-1.105-3.974-6.988-6.032-6.988-.685 0-1.506-.82-1.824-1.824-1.036-3.265-4.344-6.044-6.517-5.476-2.684.702-2.63.904 1.461 5.432 1.925 2.13 3.5 4.293 3.5 4.806 0 .512.46 2.14 1.021 3.618.9 2.367 1.4 2.61 4.219 2.046 1.759-.352 3.636-1.078 4.172-1.614zm40.14-3.776c-.367-1.492-.852-4.287-1.077-6.212-.241-2.062-1.244-4.064-2.442-4.872-1.118-.755-2.033-1.828-2.033-2.385 0-1.354-4.795-5.743-6.274-5.743-.644 0-.163.706 1.068 1.568 2.508 1.757 2.091 3.432-.853 3.432-2.52 0-2.468.225.866 3.794 1.544 1.652 4.064 5.962 5.6 9.577 2.49 5.859 2.957 6.408 4.303 5.062 1.013-1.013 1.29-2.4.842-4.22zM168.29 197c-.697-2.665 1.212-2.549 3.13.19 1.864 2.66 2.662 2.144 1.487-.962-1.14-3.014-3.686-3.878-5.649-1.915-1.307 1.308-1.36 1.86-.3 3.137 1.697 2.045 1.96 1.956 1.332-.45zm-18.373-1.083c-1.146-1.146-2.293-1.875-2.548-1.62-.604.605 2.494 3.703 3.702 3.703.511 0-.009-.937-1.154-2.083zm104.16-1.114c.886-3.31-.337-5.3-2.698-4.395-1.45.556-1.545.872-.464 1.54.834.515 1.164 1.861.853 3.485-.653 3.417 1.375 2.864 2.31-.63zm-7.78-5.47c-.278-.727-.869-1.098-1.312-.824-1.14.705-3.985-.527-3.985-1.725 0-.963.928-.898 10.62.746 2.646.448 4.365.304 4.802-.404.416-.673.127-.89-.741-.557-.783.3-2.044-.042-2.802-.761-.758-.72-2.729-1.245-4.379-1.169-5.712.265-8.657-.848-10.57-3.994-2.012-3.309-1.717-6.929.802-9.832.805-.928 1.168-2.165.807-2.75-1.048-1.696-4.549-1.23-5.161.687-.308.963-1.048 2.768-1.644 4.012-.912 1.9-.677 2.7 1.468 5 3.609 3.87 4.498 5.955 5.306 12.443l.711 5.705 3.293-2.627c1.811-1.445 3.065-3.222 2.786-3.95zM98.73 194.396c-.332-.332-1.195-.368-1.917-.08-.797.32-.56.557.605.605 1.054.043 1.644-.193 1.312-.525zm23.996-1.583c1.315-1.09.903-1.437-2.844-2.392-4.08-1.04-7.986-.985-13.749.192-2.855.584-2.051 1.663 1.603 2.152 1.462.196 3.358.767 4.212 1.27 2.017 1.185 8.805.416 10.778-1.222zm95.275.177c0-.427-.675-1.035-1.5-1.352-.825-.316-1.5-1.264-1.5-2.107 0-.842-.498-1.531-1.107-1.531-.616 0-.827-.729-.476-1.645.353-.92-.096-2.448-1.018-3.467-.934-1.032-1.419-2.704-1.118-3.855.563-2.15-.79-2.63-3.17-1.123-1.156.733-1.01 1.862.873 6.735 1.244 3.22 2.622 6.812 3.061 7.981.611 1.626 1.406 2.01 3.377 1.634 1.418-.271 2.578-.843 2.578-1.27zm-81.568-1.49c-.105-1.532-4.964-2.905-7.065-1.997-1.738.75-1.745.836-.105 1.227.97.232 1.486.87 1.147 1.417-.374.606.697.87 2.738.674 1.844-.177 3.322-.771 3.285-1.321zm28 .611c.301-.489-1.004-2.073-2.902-3.52-2.163-1.65-3.24-3.185-2.884-4.112.364-.948-.042-1.479-1.131-1.479-.935 0-2.852-.906-4.26-2.014-1.408-1.108-2.83-1.734-3.158-1.39-.328.342.518 1.36 1.881 2.263 2.637 1.746 3.609 2.748 7.647 7.891 2.613 3.327 3.838 3.928 4.806 2.361zM94 190.781c0-.43-1.125-.781-2.5-.781s-2.5-.39-2.5-.866c0-.806 10.439-2.228 17.69-2.41 1.756-.043 3.106-.549 3-1.123-.104-.574 1.929-1.3 4.518-1.613 5.676-.688 6.91-1.637 3.687-2.835-2.484-.923-4.895-.511-4.895.837 0 .426-3.487 1.081-7.75 1.455-4.263.374-8.537.907-9.5 1.185-1.137.328-1.75-.044-1.75-1.063 0-.862-.413-1.567-.918-1.567-2.328 0-4.082 1.39-4.082 3.235 0 1.815-.43 1.952-4.22 1.346-2.321-.371-4.459-1.039-4.75-1.483-.292-.444-2.33-.245-4.53.442-3.606 1.127-3.723 1.26-1.191 1.355 1.84.069 2.565.5 2.1 1.25-.493.8.05.957 1.793.519 3.04-.763 4.194.153 2.605 2.068-.998 1.203-.095 1.372 6.009 1.123 3.951-.161 7.184-.645 7.184-1.074zm-28.968-2.138c.06-2.19 2.785-4.753 5.118-4.816 2.45-.066 12.226-1.468 17.268-2.476 3.744-.749 1.863-1.845-4.827-2.812-2.96-.427-5.54-1.475-6.5-2.639-1.466-1.777-2.042-1.833-7.33-.71-5.123 1.087-5.853 1.56-6.784 4.38-1.374 4.163-.259 11.475 1.639 10.747.761-.292 1.398-1.045 1.416-1.674zM66 180.5c-.685-.825-.852-1.542-.372-1.593.48-.052 2.805-.235 5.168-.408l4.297-.314-2.2 1.907c-2.643 2.293-5.203 2.445-6.893.408zm3.91-3.577c-.865-.548-.959-.898-.242-.908.643-.008 1.88-.288 2.75-.622.87-.334 1.582-.157 1.582.393 0 1.476-2.47 2.163-4.09 1.137zm97.93 10.727c-.618-1.182-1.946-3.326-2.952-4.763-1.006-1.437-1.542-2.9-1.192-3.25.35-.35.104-.637-.548-.637-.773 0-.977-.959-.586-2.75.448-2.055.34-2.378-.426-1.28-.857 1.228-1.585 1.27-4.402.25-4.44-1.605-4.734-1.56-4.734.717 0 1.453.81 2.014 3.248 2.25 3.251.313 3.901 1.082 8.857 10.484.631 1.198 1.752 1.937 2.501 1.65 1.06-.407 1.11-.993.234-2.671zm-43.383-.58c.682-1.105-.021-1.57-3.707-2.45-3.317-.794-3.63.47-.5 2.02 2.98 1.476 3.526 1.532 4.207.43zm24.95-2.172c-2.143-2.37-3.407-2.424-3.406-.148 0 1.173.846 1.799 2.562 1.898 2.455.142 2.49.069.845-1.75zM132 183.448c0-.554-5.474-2.699-6.47-2.535-1.784.293-.094 1.684 2.68 2.205 1.81.34 3.403.678 3.54.75.138.073.25-.116.25-.42zm86-.448c0-.55-.787-.993-1.75-.985-1.496.013-1.532.157-.25.985 1.887 1.22 2 1.22 2 0zm-33.583-6.942c-1.334-2.92-3.41-1.212-2.26 1.862.675 1.807 1.192 2.131 2.04 1.282.75-.749.825-1.821.22-3.144zm-66.225.81c.983-.51 4.544-.464 8.5.108 8.714 1.26 8.308 1.286 8.308-.535 0-.857.45-1.28 1-.941.55.34 1 .157 1-.406 0-1.597-3.844-3.261-6.813-2.95-1.479.155-3.3-.096-4.05-.559-.834-.516-1.66-.355-2.137.415-.427.69-1.277.947-1.888.57-.641-.397-1.112-.003-1.112.93 0 .89-.419 1.36-.93 1.043-.513-.317-1.219-.11-1.57.457-1.152 1.864-2.564-.011-1.503-1.995 1.555-2.905 1.182-3.706-.564-1.213-.862 1.231-3.655 3.3-6.207 4.596l-4.64 2.358 5.457-.501c3.001-.276 6.218-.895 7.149-1.377zM143 175.382c0-.825-.45-1.222-1-.882-.55.34-1 1.293-1 2.118s.45 1.222 1 .882c.55-.34 1-1.293 1-2.118zm47.264 2.02c.33-.329.364-1.207.078-1.953-.406-1.058-.924-1.103-2.366-.202-1.016.634-1.624 1.513-1.352 1.953.58.939 2.782 1.06 3.64.202zm-87.48-3.822c6.009-3.084 9.207-5.505 7.326-5.548-.764-.018-1.898.663-2.519 1.513-1.225 1.675-7.09 2.786-15.258 2.89-2.842.036-5.045.187-4.895.336.32.32 8.706 2.986 9.845 3.13.431.055 2.906-.99 5.5-2.321zm74.429-3.981c-.75-1.305-3.214 2.415-3.208 4.842.004 1.744.29 1.6 1.866-.941 1.023-1.65 1.627-3.406 1.342-3.901zM64.28 172.494c4.971-2.505 11.846-2.98 17.12-1.182 2.53.861 4.599 1.144 4.599.627 0-.516-.381-.939-.847-.939-1.545 0-5.13-3.689-4.385-4.512.403-.445.099-.441-.676.008-.774.45-5.3.881-10.057.96-7.1.117-9.31.552-12.342 2.425-4.918 3.04-5.004 5.594-.162 4.808 1.942-.315 4.98-1.303 6.75-2.195zm107.542-1.161c-.486-2.509-2.823-2.853-2.823-.416 0 1.228.646 2.083 1.573 2.083.932 0 1.442-.68 1.25-1.667zm55.666-1.299c.343-1.08.2-3.5-.318-5.375-.517-1.876-.715-4.591-.44-6.035.474-2.478.28-2.624-3.492-2.624-2.33 0-4.513.625-5.239 1.5-1.003 1.209-.978 1.515.128 1.579 1.021.059 1.05.208.116.585-.691.279-1.002.918-.691 1.421.31.503-.662.915-2.16.915-1.5 0-2.433.293-2.075.651.358.358-.104 1.203-1.027 1.878-1.48 1.082-1.297 1.31 1.55 1.936 1.774.39 3.938 1.795 4.808 3.122 2.06 3.145 7.89 3.44 8.84.447zm46.511.952c0-.557-.52-2.02-1.156-3.25a971.637 971.637 0 0 1-4.63-9.042c-.779-1.544-3.621-4.452-6.315-6.464-2.695-2.011-4.9-4.123-4.9-4.693 0-.57-1.575-2.806-3.5-4.969-1.924-2.162-3.499-3.669-3.499-3.348 0 .32-1.398-.723-3.106-2.319-1.708-1.595-3.527-2.901-4.042-2.901-1.652 0-12.24-8.22-15.68-12.175-1.83-2.104-3.986-3.825-4.79-3.825-.804 0-3.244-.91-5.422-2.02-2.178-1.112-3.96-1.63-3.96-1.152 0 .477 1.713 1.64 3.808 2.585 2.306 1.04 4.537 3.072 5.657 5.152 1.018 1.89 2.277 3.435 2.8 3.435.522 0 .69.675.373 1.5-.35.914-.002 1.5.893 1.5.808 0 1.469.408 1.469.906 0 .499.922.666 2.048.371 1.288-.337 2.9.265 4.344 1.621 1.262 1.186 3.267 2.344 4.455 2.573 2.922.562 4.292 1.496 3.67 2.5-.283.46.757 1.278 2.312 1.82 3.21 1.118 8.785 5.928 7.9 6.814-.323.322-2.08.241-3.907-.18-3.247-.747-3.265-.78-.822-1.495l2.5-.73-2.816-.1c-2.828-.1-6.733-1.716-7.706-3.19-.945-1.43-7.978-5.868-7.978-5.033 0 1.305 3.625 5.123 4.864 5.123.622 0 2.819 1.51 4.883 3.356 2.064 1.845 4.707 3.855 5.873 4.465 1.165.61 2.865 2.681 3.776 4.602 2.038 4.294 3.031 4.972 4.568 3.12.911-1.097 1.819-1.198 3.863-.427 3.116 1.174 9.306 6.86 8.64 7.938-.25.405.245 1.005 1.102 1.334.857.329 1.273 1.058.925 1.621-.348.563-1.051.765-1.563.448-1.587-.98-1.031.259 1.319 2.94 2.366 2.7 3.75 3.286 3.75 1.59zM131 170c0-.55-.477-1-1.059-1s-.78.45-.441 1c.34.55.816 1 1.059 1s.441-.45.441-1zm149-6.284c0-7.07-.09-7.338-3.07-9.098-1.865-1.102-2.858-2.363-2.53-3.216.314-.82-.087-1.402-.967-1.402-.827 0-2.627-.736-4-1.635-4.054-2.657-3.963-.779.194 4.008 2.13 2.453 5.146 7.648 6.702 11.544 1.555 3.895 3.018 7.083 3.25 7.083.231 0 .421-3.278.421-7.284zM99.5 166.57l6.732-1.478c2.052-.45 4.409-1.38 5.237-2.067.828-.687 2.186-.989 3.018-.67.832.32 1.513.154 1.513-.368 0-.523-1.085-1.222-2.41-1.555-2.011-.505-2.367-1.148-2.15-3.886.219-2.76-.033-3.205-1.59-2.798-1.017.267-1.85.882-1.85 1.368 0 .485-1.548.883-3.441.883-3.66 0-5.66 1.701-3.541 3.01 1.426.882.633 3.99-1.018 3.99-.585 0-1.322-.675-1.638-1.5-1.062-2.766-2.538-1.577-1.862 1.5.713 3.246-.47 3.947-2.51 1.488-.955-1.15-1.583-1.241-2.623-.378-1.071.89-1.389.73-1.467-.738-.075-1.405-.299-1.249-.9.628-.44 1.375-.845 1.79-.9.92-.06-.945-.962-1.547-2.25-1.5-1.653.062-2.244-.612-2.561-2.92-.402-2.927-2.289-6.067-2.289-3.808 0 1.903-5.237 2.636-6.225.871-.48-.86-1.329-1.563-1.884-1.563-.555 0-.73.45-.391 1 .78 1.262-.78 1.313-2.05.067-.59-.578-1.62-.437-2.714.371-1.59 1.175-1.275 1.514 3.185 3.433 2.722 1.17 5.766 2.137 6.764 2.147.998.01 5.163 1.555 9.255 3.432 6 2.753 7.645 3.159 8.5 2.098.583-.724 2.41-1.614 4.06-1.977zm84.5.37c0-.518-.375-.941-.833-.941-.459 0-.834.655-.834 1.456 0 .8.375 1.224.834.941.458-.283.833-.938.833-1.456zm-39.755-2.441c.263-1.375.297-2.5.076-2.5-.84 0-8.321 4.064-8.321 4.52 0 .264 1.747.48 3.883.48 3.349 0 3.95-.345 4.362-2.5zm17.547-2.626c.877-3.25.792-3.578-.822-3.156-2.015.527-3.301 4.255-2.336 6.77.827 2.156 1.948.874 3.158-3.614zm29.443 2.376c1.434-1.512 2.938-4.55 3.34-6.75l.732-4-2.897 3.5c-1.594 1.925-3.463 4.095-4.154 4.821-1.396 1.47-1.714 5.179-.443 5.179.447 0 1.987-1.238 3.422-2.75zm-127.422-.188c2.069-1.122-1.02-3.146-5.774-3.784-3.995-.535-4.039-.506-4.039 2.678v3.22l4.25-.7c2.337-.386 4.84-1.022 5.563-1.414zm114.063-1.138c.859-2.461 1.477-2.947 3.098-2.432 1.763.56 2.019.212 1.97-2.675-.03-1.824-.841-5.251-1.8-7.616l-1.746-4.298-1.946 2.15c-1.497 1.655-2.03 3.973-2.305 10.049-.377 8.3.795 10.372 2.73 4.822zm-44.775.94c4.05-1.354 6.366-3.192 3.399-2.698-1.444.241-2-.222-2.002-1.666 0-1.643-.625-1.977-3.5-1.87-4.333.16-6.679 1.095-7.39 2.947-1.577 4.111 2.65 5.575 9.493 3.287zm40.657-6.614c-.27-3.163-.111-6.763.352-8 .61-1.63.473-2.25-.497-2.25-1.485 0-3.108 11.546-2.021 14.378 1.426 3.717 2.637 1.408 2.166-4.128zm36.885.25c-1.524-1.524-1.643-1.405-1.643 1.643 0 3.047.12 3.167 1.643 1.643 1.524-1.524 1.524-1.762 0-3.286zm-10.685-7.75c.052-2.182-2.529-2.311-3.351-.168-.334.87-.588 3.232-.565 5.25l.042 3.668L198 155c1.054-1.925 1.935-4.287 1.958-5.25zM122 154.5c0-.825-.375-1.5-.833-1.5-.459 0-.834.675-.834 1.5s.375 1.5.834 1.5c.458 0 .833-.675.833-1.5zm-45-.5c0-.55-.198-1-.441-1s-.72.45-1.059 1c-.34.55-.141 1 .441 1S77 154.55 77 154zm87 0c0-.55-.198-1-.441-1s-.72.45-1.059 1c-.34.55-.141 1 .441 1s1.059-.45 1.059-1zm26.613-4.179c2.46-3.896 2.642-5.715.437-4.352-.595.368-.843 1.057-.55 1.531.293.474.072 1.146-.49 1.494-.564.348-1.733 2.004-2.6 3.68-2.183 4.222.12 2.53 3.203-2.353zm-60.678 2.758c.968-1.167.808-1.325-.893-.88-2.502.655-3.735 2.301-1.723 2.301.79 0 1.967-.64 2.616-1.421zm83.264.435c-5.86-1.388-4.463-1.722 7.39-1.764 8.695-.032 11.992-.402 13.058-1.469 2.221-2.22.685-4.796-2.487-4.17-1.463.289-3.785.093-5.16-.435l-2.5-.96 2.75-.717c3.288-.856 3.72-2.406.5-1.794-2.601.494-11.639-3.227-9.598-3.952.741-.264 1.02-.83.62-1.26-.4-.43-2.783.004-5.295.963s-6.091 1.744-7.954 1.744c-4.76 0-5.151 2.219-.956 5.419 1.918 1.463 3.287 2.86 3.042 3.105-.245.246.012 1.758.57 3.361.912 2.616 1.442 2.905 5.169 2.813l4.152-.103-3.3-.781zm-47.9-5.514c.918-1.925 2.069-3.5 2.558-3.5.489 0 3.024-.945 5.634-2.099 4.631-2.049 4.688-2.127 2.377-3.273-2.715-1.346-3.584-5.421-1.849-8.664 1.352-2.526.597-3.72-1.337-2.115-.751.623-1.662.838-2.024.476-.362-.362-.658.092-.658 1.008 0 1.21-.89 1.671-3.25 1.682-2.573.012-2.937.237-1.75 1.08 1.123.797.432.943-2.75.58-4.587-.523-4.8-.254-3.18 4.01.589 1.548 1 2.99.915 3.203-.086.214.398.73 1.075 1.15.677.418.941 1.516.587 2.44-.503 1.31-1.364 1.533-3.896 1.008-1.788-.37-3.701-1.205-4.251-1.855-1.21-1.431-3.046-1.486-4.399-.131-1.259 1.26 9.282 8.5 12.378 8.5 1.473 0 2.676-1.102 3.82-3.5zm113.322.75c-.283-.963-.801-3.55-1.152-5.75-1.482-9.297-2.068-10.132-8.257-11.767-3.141-.83-7.65-1.285-10.017-1.01-4.15.48-4.243.566-2.595 2.387 1.638 1.81 1.592 1.89-1.08 1.89-2.266 0-7.52-3.79-7.52-5.425 0-.178 5.65-.171 12.556.014 14.287.383 13.712.923 9.11-8.544l-2.166-4.454-8.195-.349c-4.508-.192-10.133.178-12.5.821-2.368.644-5.655 1.355-7.305 1.582-8.877 1.218-9.336 2.156-3.733 7.627 3.33 3.252 4.227 3.627 7.75 3.237 3.11-.344 3.332-.283 1.013.28l-2.97.72 2.691 2.117c1.48 1.164 5.742 2.863 9.47 3.776 10.33 2.528 12.404 3.548 12.069 5.938-.232 1.648.467 2.245 3.46 2.961 2.629.63 3.75 1.441 3.75 2.715 0 1.908 1.286 2.773 4.317 2.905 1.276.055 1.664-.443 1.304-1.671zm-155.057-3.172c2.745-2.41 3.085-3.124 1.941-4.074-2.505-2.079-9.122 4.046-6.838 6.33 1.02 1.02 1.325.88 4.897-2.256zm65.42-.387c.01-.445-.434-.53-.984-.191-.55.34-.993 1.379-.985 2.309.014 1.457.15 1.484.985.191.533-.825.976-1.864.985-2.309zM64 144.5c2.233-1.276 2.285-1.433.49-1.465-1.105-.02-2.597-.977-3.317-2.13-1.25-2.001-1.393-2.016-3.24-.344-2.57 2.325-2.444 4.201.317 4.733 1.238.239 2.475.479 2.75.534.275.056 1.625-.542 3-1.328zm113.5.5c.34-.55-.084-1-.941-1s-1.559.45-1.559 1 .423 1 .941 1 1.22-.45 1.559-1zm17.5-1c0-.55-.477-1-1.059-1s-.78.45-.441 1c.34.55.816 1 1.059 1s.441-.45.441-1zm68-2.09c0-2.033-.407-2.285-5.5-3.4l-3-.656 3.408 3.534c3.562 3.693 5.092 3.85 5.092.522zm-117.015-2.315c-.008-.602-.459-.42-1 .405-.618.94-1.265 1.127-1.735.5-.412-.55-1.2-1.07-1.75-1.156-4.097-.638-6.397-.478-9 .624l-3 1.27 2.866 1.003c1.617.566 3.142.621 3.5.127.349-.481 1.871-1.018 3.384-1.193 2.06-.238 2.75.114 2.75 1.408 0 1.608.138 1.602 2-.083 1.1-.995 1.993-2.303 1.985-2.905zm-69.454-.62c2.051-1.703 1.846-2.482-.995-3.777-1.674-.762-2.669-.792-3.101-.092-.35.567-1.267.789-2.036.494-.77-.296-1.405-.214-1.413.181-.007.396-.277 1.702-.599 2.903-.534 1.991-.265 2.154 3.045 1.847 1.996-.186 4.291-.886 5.1-1.557zm122.219-2.861c2.467-5.269 2.772-7.036 1.25-7.264-3.25-.487-3.453-.237-3.155 3.887.272 3.76.005 4.374-2.364 5.454-2.383 1.085-2.472 1.295-.826 1.942 2.754 1.084 2.676 1.145 5.095-4.02zM187.8 138.8c.66-.66 1.148-3.022 1.084-5.25-.064-2.228-.322-3.263-.573-2.3-.252.963-.883 1.75-1.403 1.75s-.664 1.125-.319 2.5c.57 2.273.34 2.5-2.54 2.5-1.857 0-2.911.414-2.549 1 .854 1.382 4.844 1.256 6.3-.2zm21.03-4.374c1.036.358.773-.183-.69-1.424-3.079-2.61-3.792-2.526-4.56.539-.387 1.537-1.083 2.266-1.764 1.845-.705-.435-.846-.243-.378.514.565.914 1.353.812 3.235-.422 1.369-.896 3.24-1.37 4.158-1.052zm-107.693-.214c-.722-.24-1.787.038-2.369.62-.742.742-.351.872 1.312.437 1.352-.354 1.806-.807 1.057-1.057zM181 135c-1.165-.753-.872-.973 1.309-.985 1.545-.008 2.568-.405 2.274-.88-.828-1.34-5.583-.077-5.583 1.482 0 .76.788 1.376 1.75 1.368 1.496-.013 1.532-.157.25-.985zm13.253-1.858c.371-1.422.06-1.775-1.264-1.429-1.155.302-1.586 1.111-1.26 2.362.582 2.222 1.818 1.765 2.524-.933zm25.197-1.224c1.508-.06 1.125-.484-1.45-1.605-4.97-2.163-6.98-2.405-8.505-1.022-1.081.98-.64 1.517 2.336 2.839 2.143.952 4.064 1.264 4.619.75.522-.484 1.873-.917 3-.962zM230.5 133c-.34-.55-1.154-.993-1.809-.985-.716.01-.592.403.309.985 1.921 1.242 2.267 1.242 1.5 0zM77 130.531c0-.929-.582-1.245-1.584-.86-1.275.489-1.324.772-.25 1.453C76.942 132.25 77 132.23 77 130.53zM161 129c2.459-.787 2.45-.803-.5-.93-2.664-.116-2.79-.253-1.126-1.22 1.03-.598 3.73-.867 6-.597s5.125.211 6.346-.13c3.847-1.079 1.076-2.965-4.83-3.288-4.597-.253-6.21.126-9.17 2.155-2.698 1.849-3.328 2.777-2.533 3.735 1.171 1.411 2.124 1.456 5.813.275zm-10.947-3.172c1.896-.18 3.301-.756 3.123-1.278-.178-.523.609-1.296 1.75-1.718 2.658-.984 2.722-2.814.074-2.122-1.118.293-2 .03-2-.593 0-.615-.675-1.117-1.5-1.117s-1.5-.505-1.5-1.122c0-.791-.43-.765-1.456.086-.801.664-1.996.875-2.655.468-.744-.46-.936-.317-.507.377 1.055 1.706-2.564 4.718-5.382 4.48-1.908-.162-1.73.023.75.778 2.376.724 3.259 1.588 3.282 3.212.029 2.008.154 2.06 1.303.55.7-.92 2.822-1.82 4.718-2.001zM218.29 127c-.502-1.918-2.29-2.856-2.29-1.2 0 .697 2.039 3.2 2.606 3.2.114 0-.029-.9-.316-2zm-20.856-1.107c-.473-.765.244-.903 2.324-.446 2.694.592 3.119.346 4.06-2.355.992-2.846.82-3.185-3.065-6.042-2.264-1.665-5.722-3.285-7.685-3.6-1.962-.313-5.681-1.032-8.264-1.597-4.477-.979-16.299-.629-25.662.76-4.356.646-4.358.645-3.905-2.233.25-1.584.26-2.292.024-1.573-.236.719-1.571 1.74-2.966 2.271l-2.537.964 4.021 2.913c2.212 1.602 4.319 3.394 4.682 3.982.45.73 1.255.75 2.534.066 2.68-1.434 8.324-1.238 11.48.4 2.368 1.228 3.064 1.197 5.617-.25 1.602-.91 3.152-2.39 3.443-3.293.291-.901 1.637-1.85 2.991-2.11 2.525-.482 4.015.671 5.95 4.607.579 1.179 2.509 2.574 4.288 3.1 3.306.977 4.015 1.943 2.236 3.043-1.322.817-1.282 2.5.059 2.5.582 0 .751-.498.375-1.107zM208 122c0-.55-.45-1-1-1s-1 .45-1 1 .45 1 1 1 1-.45 1-1zm-106.553-3.085a1.117 1.117 0 0 0-1.532-.362 1.117 1.117 0 0 0-.362 1.532 1.117 1.117 0 0 0 1.532.362 1.117 1.117 0 0 0 .362-1.532zm85.521-2.165c.045-1.064-2.737-.933-3.412.16-.31.5-.283 1.638.059 2.53.56 1.46.754 1.444 1.971-.16.743-.98 1.365-2.117 1.382-2.53zM212 120.035c0-1.257-3.55-3.153-4.369-2.333-1.116 1.116-.677 2.14 1.119 2.609 2.903.758 3.25.729 3.25-.276zm-102.996-5.398c-1.199-1.247-3.015.171-2.37 1.85.429 1.12.83 1.166 1.872.218.73-.663.954-1.593.498-2.068zm17.98.554c-.013-1.457-.149-1.484-.984-.191-1.266 1.958-1.266 3.282 0 2.5.55-.34.993-1.379.985-2.309zM206 117.587c0-1.222-8.74-6.587-10.73-6.587-1.285 0-4.557-1.125-7.27-2.5-2.713-1.375-5.736-2.51-6.717-2.522-.98-.012-3.808-.917-6.283-2.01l-4.5-1.99 2.5 2.014c1.375 1.108 3.625 2.297 5 2.644 1.375.346 4.793 1.695 7.596 2.997 2.802 1.301 6.627 2.541 8.5 2.755 1.872.214 3.718.439 4.102.5.385.062 1.913 1.237 3.396 2.612 2.431 2.253 4.406 3.188 4.406 2.087zm-68.317-2.774c-.32-.798-.556-.561-.604.604-.043 1.054.193 1.644.525 1.312.332-.332.368-1.195.08-1.917zm98.268 1.104c2.777-.595 5.049-1.44 5.049-1.875 0-.436 1.462-1.133 3.25-1.55 4.507-1.053 13.75-1.167 13.75-.17 0 .451.707.114 1.571-.75 1.476-1.476 2.889-1.98 4.708-1.68.43.07.04-1.002-.865-2.382-1.908-2.913-1.224-2.824-10.766-1.404-5.748.855-8.11 1.723-10.418 3.83-2.164 1.977-4.154 2.772-7.243 2.893-6.36.25-12.672 2.125-10.909 3.24 1.906 1.206 5.77 1.157 11.873-.152zm-23.951-2.8c0-.916-3.378-2.09-6-2.088-1.299.001-1.305.125-.048.92.799.506 1.78.716 2.181.469.4-.248 1.011.007 1.357.566.772 1.249 2.51 1.341 2.51.133zm18.993-1.121c3.31-.003 5.683-.785 8.933-2.94 2.905-1.928 6.857-3.354 11.5-4.149 3.89-.666 7.391-1.482 7.778-1.814.388-.33-1.075-2.937-3.252-5.79l-3.956-5.189-4.248 1.848c-4.834 2.102-21.495 4.599-24.846 3.723-2.7-.707-5.902.842-5.902 2.855 0 1.13 1.333 1.457 5.75 1.414 6.524-.063 13.117 1.946 12.496 3.808-.665 1.996-7.65 1.49-10.223-.742-2.048-1.776-3.21-1.914-11.311-1.339-6.735.478-8.847.346-8.311-.52.922-1.493-1.828-1.397-6.299.22l-3.398 1.229 5.898 1.292c3.244.712 8.823 2.757 12.398 4.545 5.288 2.645 7.058 3.094 9.493 2.402 1.647-.467 5.022-.85 7.5-.853zM76.51 110.984c.346-.56 1.047-.758 1.56-.441.511.316.93-.127.93-.984S78.325 108 77.5 108c-1 0-1.5-1-1.5-3 0-4.303-1.292-3.716-4.403 2l-2.722 5h3.504c1.926 0 3.786-.457 4.131-1.016zm58.42-3.234c.038-.412-.328-.75-.813-.75-1.085 0-2.133 3.651-1.29 4.494.553.553 1.93-1.899 2.103-3.744zm38.82 1.62c2.506-.672 3.068-2.37.785-2.37-.806 0-3.003-1.35-4.882-3-1.88-1.65-4.033-2.984-4.785-2.965-.752.02-.303.627 1 1.348 1.952 1.083 2.088 1.42.774 1.924-2.32.89-8.304-1.907-8.893-4.157-.516-1.974-.666-2.011-14.749-3.65l-5.5-.64 2.5 2.047c1.852 1.515 3.341 1.894 5.743 1.46 1.784-.323 4.363-.306 5.73.037 2.997.752 8.527 5.945 8.527 8.008 0 1.045 1.393 1.588 4.75 1.853 2.612.206 5.2.45 5.75.541.55.092 2.012-.105 3.25-.436zM193 106c0-.55-.477-1-1.059-1s-.78.45-.441 1c.34.55.816 1 1.059 1s.441-.45.441-1zm-21-6c0-.55-.45-1-1-1s-1 .45-1 1 .45 1 1 1 1-.45 1-1zm36.564-.449c1.536-.797 3.162-1.22 3.614-.94.452.279.822.03.822-.552 0-1.436-1.604-1.235-7.5.941-3.945 1.456-4.444 1.861-2.364 1.923 1.45.042 3.892-.575 5.428-1.372zm-6.328-2.563c2.345-.556 8.539-2.136 13.764-3.51 5.225-1.375 10.412-2.71 11.526-2.967 2.758-.638 14.81-5.527 15.651-6.349.913-.892-14.2-12.131-21.677-16.12-15.28-8.15-38.165-14.046-54.5-14.039-9.877.004-28.447 3.48-38.418 7.191-7.487 2.787-8.944 3.686-9.086 5.607-.128 1.739.212 2.123 1.418 1.602 6.379-2.757 9.81-.53 10.728 6.967l.567 4.63h-3.271c-1.8 0-2.993-.279-2.652-.619.34-.34-.058-1.295-.884-2.122-1.337-1.337-1.653-1.298-2.864.358-1.537 2.102-1.132 3.383 1.07 3.383 2.434 0 8.33 6.443 9.011 9.845L133.25 94h12.434c9.163 0 12.246-.305 11.719-1.158-.484-.782-.059-.985 1.314-.626 1.578.412 1.925.132 1.562-1.257-.292-1.117.318-2.208 1.627-2.909 1.78-.952 2.094-.839 2.094.754 0 1.949 4.461 4.647 6.054 3.662.515-.318.41-1.351-.244-2.4-.94-1.503-.707-2.398 1.27-4.897 2.825-3.57 3.944-3.978 3.21-1.169-.57 2.182.666 2.644 2.41.9.802-.802 1.283-.53 1.768 1 .367 1.155 1.34 2.1 2.163 2.1 1.084 0 1.41.888 1.183 3.22-.242 2.481.11 3.306 1.536 3.593 1.553.312 1.755-.083 1.258-2.47-.414-1.991-.001-3.592 1.378-5.343 2.103-2.67 2.687-1.297.985 2.316l-1.029 2.184 1.585-2.15 1.585-2.15 2.444 2.264c2.877 2.666 3.132 5.293.694 7.144-1.555 1.18-1.335 1.332 1.986 1.36 2.054.018 5.654-.423 8-.98zM170 96c0-.55-.45-1-1-1s-1 .45-1 1 .45 1 1 1 1-.45 1-1zm48.5 0c.731-1.183-.248-1.183-3 0-1.928.829-1.921.862.191.93 1.205.038 2.47-.38 2.809-.93zm-106.715-2.868c-.065-2.26-.466-2.767-1.899-2.392-1.726.451-1.73.594-.102 2.836 2.156 2.966 2.098 2.98 2-.444zm19.215.695c0-.52-.44-.673-.98-.34-.538.333-1.775.183-2.75-.334-1.218-.647-2.15-.528-2.99.38-.884.955-.908 1.424-.09 1.697 1.876.625 6.81-.39 6.81-1.403zm111.401-.327c3.791-1.375 7.13-2.5 7.42-2.5.29 0-.48-1.074-1.714-2.386l-2.24-2.385-4.684 1.787a851.419 851.419 0 0 1-10.683 3.966c-10.474 3.803-10.521 3.878-2.496 3.95 5.627.051 9.229-.557 14.397-2.432zm-120.875-.307c-.307-.308-1.114 0-1.793.683-.98.988-.865 1.102.56.56.986-.376 1.541-.935 1.233-1.243zM116 77.56c0-.243-.45-.72-1-1.059-.55-.34-1-.141-1 .441S114.45 78 115 78s1-.198 1-.441zm144.93 197.19c-1.315-2.988-1.753-3.224-5.43-2.928l-4 .321 2.891-3.023c2.69-2.813 2.802-3.24 1.616-6.104-1.644-3.97-.945-4.552 3.01-2.507 3.147 1.627 3.254 1.607 6.227-1.177l3.024-2.832-.653 4.295c-.625 4.11-.523 4.341 2.366 5.348 4.13 1.44 3.786 2.71-.94 3.467-2.178.348-3.893.916-3.81 1.261.314 1.315-1.424 7.129-2.13 7.129-.407 0-1.384-1.462-2.17-3.25zM67 274.082c0-3.652-1.224-5.065-5.35-6.176l-4.144-1.116 3.715-2.145c3.533-2.04 3.685-2.34 3.112-6.145l-.601-4 3.024 2.832c2.973 2.784 3.08 2.804 6.228 1.177 4.097-2.12 4.605-1.526 2.15 2.51l-1.973 3.246 2.92 2.456c4.092 3.444 3.73 4.651-1.198 3.99-3.84-.515-4.19-.356-5.22 2.368-1.254 3.324-2.663 3.855-2.663 1.003zm216.667-52.749c-1.376-1.375-.595-4.221 1.324-4.83 2.703-.858 4.009.137 4.009 3.056 0 1.89-.526 2.441-2.333 2.441-1.284 0-2.634-.3-3-.667zM23.585 210.346c-1.473-5.309-2.32-9.987-1.881-10.394.438-.408 2.259-1.05 4.046-1.426 2.498-.526 3.25-.346 3.25.778 0 .804-.9 1.698-2 1.986-1.206.315-2 1.364-2 2.64 0 1.796.494 2.063 3.25 1.758 5.853-.647 13.925-3.789 13.38-5.208-.545-1.422 1.995-2.896 2.786-1.616.264.427.685 1.87.935 3.206a98.1 98.1 0 0 0 1.16 5.18c.78 3.036.363 3.313-2.396 1.59-1.456-.91-2.752-.802-5.997.496-2.277.911-4.473 1.57-4.879 1.462-.406-.107-1.777.158-3.046.59-3.235 1.098-2.45 4.123 1.059 4.075 4.23-.06 4.198 2.318-.047 3.497-2.038.566-3.983 1.031-4.323 1.034-.34.003-1.824-4.338-3.297-9.648zM304 217.731c0-1.15-14.444-5.809-17.833-5.753-3.455.057 3.168-5.764 7.238-6.361 2.128-.313 8.595-3.957 8.595-4.844 0-.791-5.33-1.286-10.25-.952-2.852.194-3.197-.55-2.12-4.571.6-2.24 2.902-3.096 3.537-1.315.183.513 3.708 1.846 7.833 2.96 6.952 1.878 7.592 1.905 8.754.37 1.805-2.386 3.614-.214 2.82 3.386-.518 2.357-1.875 3.426-7.85 6.185-6.805 3.143-7.079 3.393-4.724 4.312 1.375.537 3.962.703 5.75.37 3.588-.672 4.034.291 2.275 4.917-.996 2.619-4.025 3.594-4.025 1.296zM23.02 193.716c-3.669-1.857-5.158-5.462-4.731-11.45.435-6.103 2.439-8.82 7.54-10.23 3.863-1.066 11.366.29 13.088 2.364.538.648 1.525 3.223 2.193 5.721 1.069 3.996.984 5.015-.697 8.453-1.052 2.15-3.038 4.47-4.413 5.153-3.219 1.601-9.805 1.595-12.98-.011zm13.525-7.17c2.886-2.887 3.047-4.234.8-6.717-2.221-2.455-11.869-2.57-14.516-.174-2.077 1.88-2.422 6.352-.629 8.145.66.66 3.605 1.2 6.545 1.2 4.343 0 5.807-.46 7.8-2.455zm274.806 4.687c-.415-1.584-1.35-2.243-3.218-2.267-6.105-.078-14.126-.844-15.093-1.441-2.219-1.372-.804-3.416 5.116-7.391 3.386-2.274 6.649-4.14 7.25-4.15 3.05-.042-2.447-1.956-5.656-1.969-2.76-.011-3.75.403-3.75 1.568 0 .871-.563 1.396-1.25 1.167-.744-.248-1.25-2.172-1.25-4.75s.506-4.502 1.25-4.75c.688-.23 1.25.268 1.25 1.105 0 1.066 1.424 1.7 4.75 2.116 2.612.326 6.438.809 8.5 1.073 2.891.37 3.75.133 3.75-1.032 0-.832.702-1.512 1.56-1.512 2.414 0 1.524 7.145-1.06 8.513-1.1.583-4.13 2.446-6.735 4.14l-4.734 3.08 4.73.648c2.89.396 4.86.254 5.068-.367.185-.557 1.025-1.014 1.866-1.014 1.221 0 1.39.752.838 3.75-.883 4.807-2.402 6.469-3.182 3.483zM18 165c0-4.667.333-6 1.5-6 .825 0 1.5.627 1.5 1.394 0 1.135.764 1.2 4.12.347l4.12-1.045-3.798-1.848c-2.09-1.016-4.367-1.848-5.062-1.848-.694 0-1.484-.359-1.755-.798-1.072-1.734 1.299-3.357 5.86-4.013l4.792-.689-3.638-1.734c-3.233-1.54-3.639-1.559-3.639-.166 0 3.126-2.508.652-2.8-2.763-.364-4.248 2.51-7.664 3.443-4.094.453 1.733 1.844 2.674 5.357 3.623.275.074 3.312 1.398 6.75 2.94 8.305 3.728 8.12 6.306-.5 6.951-3.382.253-2.721 1.267 1.797 2.758 3.104 1.025 3.977 1.79 3.75 3.285-.229 1.502-1.903 2.366-7.297 3.767-3.85 1-8.238 1.844-9.75 1.875-2.064.044-2.75.557-2.75 2.058 0 1.1-.45 2-1 2-.556 0-1-2.667-1-6zm280.262-2.1c-3.43-1.697-4.44-2.844-5.293-6.013-1.592-5.916-.332-10.442 3.874-13.91 4.3-3.544 9.211-3.917 13.59-1.03 8.28 5.458 7.109 17.84-2.05 21.666-4.354 1.82-5.114 1.766-10.121-.712zm11.27-6.349c2.635-1.101 3.468-2.044 3.468-3.929 0-2.736-1.967-5.16-4.957-6.108-2.735-.868-9.392 1.109-11.472 3.407-5.04 5.57 4.193 10.294 12.961 6.63zm-269.18-13.024c.548-1.43-4.166-3.346-10.002-4.064-1.183-.146-3.058-.553-4.166-.905-1.109-.352-2.293-.19-2.632.358-1.294 2.094-3.553-.06-2.904-2.77.348-1.455.738-2.776.866-2.936.56-.699 11.122-4.21 12.663-4.21 3.653 0 2.595-1.89-1.919-3.428-2.998-1.021-4.869-1.24-5.084-.594-.187.562-1.005 1.022-1.817 1.022-1.073 0-1.35-.805-1.014-2.939.255-1.616.758-3.416 1.12-4 .961-1.557 3.537-1.294 3.537.361 0 1.34 3.855 3.087 9 4.078 5.867 1.13 9 2.714 9 4.552 0 2.278-3.535 4.207-11 6.002l-5.5 1.322 4.96 1.43c3.543 1.02 5.068 1.11 5.334.312C41 136.503 42.06 136 43.151 136c1.42 0 1.836.497 1.464 1.75-.286.963-.815 2.987-1.176 4.5-.36 1.512-1.33 2.75-2.154 2.75-.91 0-1.277-.58-.934-1.473zm250.111-8.566c-2.412-2.517-2.947-3.985-3.122-8.553-.19-4.981.086-5.799 2.85-8.44 3.953-3.777 8.947-4.75 13.427-2.613 3.967 1.891 7.373 6.952 7.378 10.96.002 1.55.473 3.694 1.047 4.766 1.173 2.19.798 2.422-5.293 3.27-4.403.614-4.864-.687-1.25-3.53 1.375-1.081 2.5-2.98 2.5-4.22 0-2.61-3.837-6.601-6.347-6.601-3.153 0-8.479 2.804-10.14 5.34-1.487 2.269-1.498 2.789-.118 5.457.839 1.622 2.445 3.19 3.57 3.483 1.37.359 1.842 1.06 1.432 2.127-.911 2.376-2.687 1.943-5.934-1.446zM41.999 115.5c-.797-.96-2.103-1.26-3.721-.854-2.258.567-2.39.434-1.407-1.405.838-1.565.751-2.309-.381-3.248-1.692-1.405-1.077-2.992 1.159-2.992.842 0 2.375-1.012 3.407-2.25l1.877-2.25.034 2.25c.025 1.724.617 2.25 2.533 2.25 3.049 0 3.204 1.079.408 2.825-1.532.957-1.932 1.942-1.496 3.68.718 2.862-.712 4.044-2.413 1.994zM287 107.722c0-1.709-.679-2.803-2-3.222-2.079-.66-2.744-2.407-1-2.625.55-.069 1.563-.182 2.25-.253.688-.07 1.256-.882 1.263-1.804.02-2.742 1.243-3.142 2.488-.816.918 1.715 1.727 2.036 3.831 1.523l2.668-.651-2.17 2.205c-1.755 1.784-1.953 2.551-1.038 4.018 1.344 2.15.184 3.78-1.495 2.1-.893-.893-1.599-.781-2.983.472-1.707 1.545-1.814 1.489-1.814-.947zm-15.535-10.778c-1.506-2.385-2.344-4.818-1.982-5.759.54-1.407.75-1.429 1.54-.157.764 1.228 1.35 1.039 3.539-1.143 2.335-2.328 2.477-2.85 1.29-4.75-.733-1.174-1.83-2.135-2.438-2.135-1.587 0-4.414 3.374-4.414 5.27 0 2.887-1.551 2.667-4.113-.584-3.587-4.55-4.087-5.553-3.357-6.735.442-.715 1.103-.67 2.078.138 1.128.937 1.9.792 3.66-.685 5.49-4.605 9.7-9.005 9.715-10.154.03-2.243 2.783-1.317 5.428 1.827 1.424 1.692 2.589 3.465 2.589 3.94 0 1.388-1.803 2.11-2.49.998-.735-1.189-5.43 1.88-5.479 3.58-.017.602.847 1.89 1.92 2.86 1.869 1.692 2.058 1.683 4.448-.197 1.688-1.328 2.167-2.292 1.481-2.978-.686-.686-.514-1.207.532-1.608 1.057-.405 2.503.798 4.572 3.805 2.984 4.336 2.734 6.396-.618 5.11-.961-.369-3.472 1.1-6.685 3.911-2.83 2.476-5.492 4.502-5.914 4.502-.422 0-.767.873-.767 1.941 0 3.585-1.908 3.165-4.535-.997zm-223.702 1.49c-7.74-4.198-7.498-16.934.398-21.017 13.65-7.058 25.425 10.18 13.696 20.05-3.5 2.944-9.67 3.368-14.094.968zm12.303-3.47c4.072-2.179 1.973-9.065-4.039-13.245-7.323-5.092-13.835 3.371-7.277 9.46 5.073 4.71 7.852 5.64 11.316 3.786zM71 81.217c0-2.654-10.652-12.785-13.04-12.403-1.078.172-1.96-.195-1.96-.815C56 66.365 66.609 56 68.28 56c.775 0 2.234.91 3.241 2.024 2.342 2.587.76 4.731-2.288 3.1-1.556-.832-2.33-.674-3.606.735-1.509 1.668-1.46 1.949.689 3.968 3.017 2.835 3.866 2.745 3.095-.327-.823-3.276.576-3.167 3.902.305 3.195 3.335 3.422 4.62.688 3.906-2.962-.775-3.253.703-.626 3.172 1.41 1.323 2.962 1.925 3.97 1.538 2.627-1.008 1.934 1.708-1.36 5.329C72.678 83.385 71 83.879 71 81.216zM253.4 75.6c-2.774-2.774-3.4-4.164-3.4-7.55 0-6.13 2.207-9.582 7.397-11.564 5.965-2.278 10.235-.862 15.025 4.984 1.968 2.402 3.578 4.544 3.578 4.76 0 .217-1.36 1.4-3.021 2.628-3.814 2.819-5.465 1.983-3.519-1.781 1.349-2.608 1.29-2.963-.818-4.943-1.249-1.174-3.089-2.134-4.088-2.134-3.34 0-8.497 4.01-9.42 7.326-1.135 4.084.484 6.808 4.929 8.29 4.716 1.574 4.94 3.384.42 3.384-2.855 0-4.447-.764-7.083-3.4zm-14.207-11.417c-4.326-2.753-5.29-5.89-1.668-5.435 2.58.324 10.826-11.997 9.15-13.673-.767-.767-.757-1.393.035-2.185.813-.813 2.342-.262 5.72 2.062 4.199 2.889 5.348 5.51 2.116 4.825-2.065-.439-10.81 11.816-10.078 14.123.977 3.077-.738 3.17-5.275.283zM83.877 60.629c-.73-1.601-2.004-2.629-3.26-2.629-2.052 0-2.052-.007.069-1.493 1.433-1.004 1.954-2.166 1.592-3.551-.466-1.781-.197-1.974 1.983-1.427 1.42.357 2.813.16 3.189-.448 1.27-2.056 2.775-1.114 2.156 1.351-.483 1.926-.141 2.587 1.642 3.176l2.252.745-2.492.617c-1.37.339-2.991 1.617-3.601 2.84-1.749 3.509-2.252 3.625-3.53.82zm143.514-3.638c-.757-.757-.788-2.588-.1-6.066.542-2.74.656-5.307.254-5.704-.402-.396-2.152.967-3.888 3.029-1.736 2.063-3.72 3.75-4.407 3.75-1.528 0-1.638-6.061-.261-14.467.639-3.902.637-6.307-.006-6.95-.54-.54-.983-1.561-.983-2.268 0-.948 1.38-.742 5.25.783 2.888 1.138 5.392 2.212 5.566 2.385.174.174-.556 1.149-1.622 2.166-1.83 1.747-3.58 8.351-2.213 8.351.35 0 1.96-1.79 3.577-3.976 1.618-2.187 3.769-3.987 4.78-4 1.601-.021 1.753.523 1.177 4.226-.364 2.337-.884 5.037-1.155 6-.272.963-.192 1.75.179 1.75 1.17 0 4.971-5.395 4.684-6.649-.5-2.174 1.722-2.496 4.775-.693 3.03 1.79 4.29 5.05 1.544 3.997-.943-.362-4.034 2.26-8.762 7.43-5.25 5.745-7.609 7.686-8.389 6.906zm-125.075-2.958c-6.927-3.106-9.396-11.11-5.43-17.613 1.817-2.98 4.33-4.409 10.614-6.033 4.501-1.164 4.565-1.138 6.055 2.406 1.212 2.884 1.194 3.366-.152 3.883-.846.324-2.047.08-2.67-.543-.623-.623-2.854-1.133-4.958-1.133-3.123 0-3.993.443-4.743 2.415-1.196 3.146.296 8.282 3.44 11.835 2.826 3.195 5.405 3.48 8.539.942 1.818-1.472 2.102-2.4 1.531-5-.491-2.238-1.275-3.192-2.621-3.192-3.318 0-2.1-1.905 2.64-4.134 3.308-1.555 4.862-1.843 5.658-1.047.795.795.76 1.502-.13 2.575-.86 1.034-.929 2.037-.232 3.339 2.139 3.996-3.869 10.964-10.857 12.593-1.468.342-4.227-.192-6.684-1.293zm24.008-9.836c.25-5.229-3.296-16.422-4.995-15.77-.79.303-1.329-.191-1.329-1.218 0-1.325 1.991-2.255 8.559-3.995 7.295-1.932 8.946-2.078 11.185-.99 3.438 1.67 4.46 5.643 2.497 9.697-1.444 2.981-1.402 3.28.792 5.614 1.273 1.356 2.912 2.465 3.641 2.465 2.936 0 1.207 2.886-1.924 3.21-2.574.268-4.015-.37-6.93-3.07-2.176-2.016-4.289-3.174-5.172-2.835-2.111.81-.896 4.695 1.469 4.695 1.216 0 1.883.708 1.883 2 0 1.333-.667 2-2 2-2.63 0-3.105.09-5.676 1.067-2.008.763-2.163.54-2-2.87zm10.426-12.99c1.568-1.994 1.56-2.4-.09-4.657-1.062-1.453-2.09-1.692-4.954-1.155-2.2.413-3.449 1.154-3.19 1.892 2.34 6.684 2.47 6.852 4.735 6.18 1.237-.368 2.812-1.385 3.499-2.26zm67.847 13.543a1650.96 1650.96 0 0 0-2.113-5.25c-.446-1.1-.867-2.225-.936-2.5-.068-.275-.499-1.85-.957-3.5l-.832-3-1.303 3.5c-1.592 4.274-1.804 8-.456 8 .55 0 1 .731 1 1.625 0 1.287-.65 1.495-3.125 1-1.719-.344-3.519-.625-4-.625-.481 0-.875-.675-.875-1.5s.592-1.5 1.317-1.5c1.754 0 4.104-11.941 3.248-16.507-.598-3.187-.45-3.493 1.699-3.493 3.776 0 5.552 2.055 8.094 9.361 2.536 7.293 3.175 7.413 4.233.794.466-2.913.31-4.155-.522-4.155-.653 0-.909-.45-.569-1 .761-1.232 5.5-1.287 7.396-.086 1.635 1.036.74 4.226-1.08 3.845-.715-.15-1.623 1.432-2.148 3.741-3.457 15.2-5.403 17.914-8.071 11.25zm-26.347-3.08c-7.931-.963-9.887-1.828-6.805-3.01 2.426-.932 4.234-17.66 1.908-17.66-.744 0-1.353-.451-1.353-1.002 0-1.252 17.772-1.176 18.548.079.79 1.278-.602 7.923-1.66 7.923-.488 0-.888-.81-.888-1.8 0-2.667-2.008-4.2-5.5-4.2-2.952 0-3.08.165-2.69 3.5.4 3.423 3.19 5.172 3.19 2 0-.825.675-1.5 1.5-1.5 1.575 0 1.933 2.78.87 6.75-.748 2.788-2.37 2.96-2.37.25 0-1.333-.667-2-2-2-1.667 0-2 .667-2 4 0 2.786.43 4 1.418 4 .78 0 2.046.24 2.813.535.822.315 1.95-.505 2.75-2 1.553-2.902 4.026-3.387 4.005-.785-.025 3.2-1.205 6.252-2.353 6.086-.623-.09-4.846-.615-9.383-1.166zM149 41.28c0-.308.651-1.06 1.447-1.67 1.98-1.519.984-17.61-1.09-17.61-.746 0-1.357-.675-1.357-1.5 0-1.074 1.095-1.5 3.853-1.5 2.12 0 6.62-.29 10-.642l6.147-.643v3.643c0 4.03-2.387 5.15-3.5 1.642-.495-1.56-1.513-2-4.63-2-3.905 0-3.99.075-3.683 3.242.325 3.37 3.813 5.502 3.813 2.331 0-.865.675-1.573 1.5-1.573 1.111 0 1.5 1.167 1.5 4.5s-.389 4.5-1.5 4.5c-.825 0-1.5-.675-1.5-1.5s-.675-1.5-1.5-1.5c-1.083 0-1.5 1.111-1.5 4 0 4.316.827 4.777 5.435 3.025 1.41-.537 2.565-1.662 2.565-2.5 0-2.862 2.748-1.534 3.382 1.635.348 1.738.516 3.252.375 3.364-.651.519-19.757 1.25-19.757.756z"/></svg>