<svg xmlns="http://www.w3.org/2000/svg" viewBox="0 0 100 100"><path fill="#FFF" d="M32.4 29.8h-.3v-3h.3c1.1 0 1.6.5 1.6 1.4 0 .9-.4 1.6-1.6 1.6zm29.8-1.6c0-.9-.5-1.4-1.6-1.4h-.3v3h.3c1.1 0 1.6-.7 1.6-1.6zm11.4-7.1V56C73.6 69.7 63 79.9 50 79.9c-13 0-23.6-10.3-23.6-23.6V21.1s9.7-1.3 23.7-1.3c14.1 0 23.5 1.3 23.5 1.3zM58.1 32.8h2.2v-1.7h.7c2 0 3.3-1.1 3.3-2.9 0-2-1.4-2.7-3.6-2.7-.9 0-1.9.1-2.7.1v7.2zm-3.9 0h2.2v-7.2h-2.2v7.2zm-5.1 0h4l.3-1.4h-2.1v-5.7h-2.2v7.1zm-3.8 0h2.2v-7.2h-2.2v7.2zm-.3 3.7l.4 2.7c.1.8.4 1.2 1.3 1.3l3 .4v.2l-2.8.4c-1 .1-1.3.5-1.4 1.3l-.5 2.6 3.5.4v.4L43 47c-1.9.3-2.2.9-2.6 3.2l-.5 4.6c7.4-1.4 11.7-6.8 20.3-6.8 4.2 0 7.7 1.6 9.4 2.7C68 44.4 61.3 35.9 50 35.9c-2.9 0-5 .6-5 .6zm-4.4 6.3c.2 1.3.8 2.1 1.8 2.3l2.3.3-.3-2.4c-.1-.9-.4-1.4-1.3-1.5l-2.7-.4.2 1.7zm4.1-6.2c-1.8.5-3.4 1.2-4.7 1.9l.3 2.4 2.6-.3c.9-.1 1.3-.4 1.4-1.3l.4-2.7zm-7.6-3.8h2.2V30h2.3v2.8h2.2v-7.2h-2.2v2.9h-2.3v-2.9h-2.2v7.2zm-4.5 12.9l3.9-.5c.7-.1 1.3-.3 1.7-.7.4-.5.5-.9.6-1.7l.5-3.8c-3 1.7-5.2 4.2-6.7 6.7zm-2.7-12.9h2.2v-1.7h.8c2 0 3.3-1.1 3.3-2.9 0-2-1.4-2.7-3.6-2.7-.9 0-1.9.1-2.7.1v7.2zm-.1 20.9c1.6.6 4.1 1.4 6.9 1.4 1.6 0 2.9-.2 2.9-.2L39 50c-.2-1.6-.4-1.8-.8-2.3-.4-.4-1-.6-1.8-.7l-4.2-.5c-1.3 2.3-2.1 4.4-2.4 7.2zm21.6 13v-.4l5.5-.7c1.7-.3 2.1-.9 2.4-2.4l.7-5.6c-6.8 1.2-11.1 6.9-20.1 6.9-3.5 0-7.1-1.2-9.5-2.7 2.8 9.5 11 14.9 19.7 14.9 4.5 0 8.2-1.5 9.9-2.6l-.6-4.4c-.2-1.7-1-2.3-2.7-2.5l-5.3-.5zm16.1.2l-4 .5c-1.9.2-2.2 1-2.5 2.9l-.4 3.5c2.6-1.7 4.9-3.7 6.9-6.9zm2.8-8.2c-1.5-.7-4.7-1.4-7-1.4-1.6 0-2.9.2-2.9.2l.7 5.3c.3 2 .8 2.5 2.8 2.8l4 .5c1.6-2.9 2-4.9 2.4-7.4zm.1-2.5c0-.8-.1-1.7-.2-2.5-2.2-1.4-5.4-2.5-9.3-2.5-9.3 0-13.6 7.1-23.1 7.1-3.9 0-6.5-1.1-8.3-2 0 .8.1 1.9.1 2.5 2.5 1.5 5.6 2.5 9.3 2.5 9.6 0 13.5-7.1 23.1-7.1 3.3 0 5.9.8 8.4 2zm.3-25.7c0-2.4-3.4-2-3.4-3.1 0-.4.4-.6 1-.6.7 0 1.4.2 1.9.4l-.2-1.5c-.6-.1-1.1-.2-2-.2-1.8 0-3 .7-3 2.2 0 2.5 3.4 2 3.4 3.2 0 .4-.3.7-1.1.7-.7 0-1.8-.2-2.5-.6l.2 1.7c.7.2 1.6.4 2.3.4 1.9-.2 3.4-.8 3.4-2.6zM51.4 71.7l2.3.3c.7.1 1 .4 1.1 1.2l.3 2.2h.2l.3-2.3c.1-.9.5-1 1.1-1.1l2.2-.3v-.2l-2.4-.3c-.6-.1-.9-.4-1-1l-.3-2.4H55l-.3 2.4c-.1.6-.4.8-1 .9l-2.4.3v.3z"/></svg>