<svg xmlns="http://www.w3.org/2000/svg" viewBox="0 0 100 100"><g fill="#FFF"><path d="M34 28.2c0-.9-.5-1.4-1.6-1.4h-.3v3h.3c1.2 0 1.6-.7 1.6-1.6zM62.2 28.2c0-.9-.5-1.4-1.6-1.4h-.3v3h.3c1.1 0 1.6-.7 1.6-1.6z"/><path d="M50.1 19.8c-14 0-23.7 1.3-23.7 1.3v35.2C26.4 69.5 37 79.8 50 79.8c12.9 0 23.6-10.2 23.6-23.9V21.1s-9.4-1.3-23.5-1.3zm8 5.8c.7-.1 1.8-.1 2.7-.1 2.2 0 3.6.7 3.6 2.7 0 1.8-1.3 2.9-3.3 2.9h-.8v1.7h-2.2v-7.2zm-3.9 0h2.2v7.2h-2.2v-7.2zm-5.1 0h2.2v5.7h2.1l-.3 1.4h-4v-7.1zm-3.8 0h2.2v7.2h-2.2v-7.2zM50 35.9c11.3 0 18 8.5 19.6 14.8-1.7-1.1-5.2-2.7-9.4-2.7-8.5 0-12.8 5.4-20.3 6.8l.5-4.6c.3-2.3.6-2.9 2.6-3.2l5.5-.7v-.4l-3.5-.5.3-2.7c.1-.8.5-1.1 1.4-1.3l2.8-.4v-.2l-3-.4c-.9-.1-1.2-.5-1.3-1.3l-.2-2.6s2.1-.6 5-.6zm-9.6 5.3l2.7.4c.9.1 1.2.5 1.3 1.5l.3 2.4-2.3-.3c-1.1-.2-1.7-1-1.8-2.3l-.2-1.7zm4-1.9c-.2.9-.5 1.1-1.4 1.3l-2.6.3-.3-2.4c1.3-.7 2.8-1.4 4.7-1.9l-.4 2.7zm-7.3-13.7h2.2v2.9h2.3v-2.9h2.2v7.2h-2.2V30h-2.3v2.8h-2.2v-7.2zm2.2 13.3l-.5 3.8c-.1.8-.2 1.2-.6 1.7-.4.4-1 .6-1.7.7l-3.9.5c1.5-2.4 3.7-4.9 6.7-6.7zm-9.4-13.3c.7-.1 1.8-.1 2.7-.1 2.2 0 3.6.7 3.6 2.7 0 1.8-1.3 2.9-3.3 2.9h-.8v1.7h-2.2v-7.2zm2.2 20.8l4.2.5c.8.1 1.4.3 1.8.7.4.4.5.7.8 2.3l.6 4.9s-1.3.2-2.9.2c-2.8 0-5.3-.7-6.9-1.4.4-2.7 1.2-4.8 2.4-7.2zm24.5 20.9c1.7.2 2.5.8 2.7 2.5l.6 4.4c-1.7 1-5.3 2.6-9.9 2.6-8.6 0-16.8-5.4-19.7-14.9 2.5 1.6 6.1 2.7 9.5 2.7 9 0 13.4-5.7 20.1-6.9l-.7 5.6c-.2 1.4-.6 2.1-2.4 2.4l-5.5.7v.4l5.3.5zm4 6.5l.4-3.5c.3-2 .6-2.7 2.5-2.9l4-.5c-2 3.2-4.3 5.2-6.9 6.9zm7.3-7.6l-4-.5c-2.1-.2-2.6-.7-2.8-2.8l-.7-5.3s1.4-.2 2.9-.2c2.3 0 5.5.7 7 1.4-.4 2.4-.8 4.4-2.4 7.4zm-5.8-12c-9.6 0-13.5 7.1-23.1 7.1-3.7 0-6.8-1-9.3-2.5-.1-.6-.1-1.7-.1-2.5 1.8.9 4.4 2 8.3 2 9.5 0 13.8-7.1 23.1-7.1 3.8 0 7.1 1.1 9.3 2.5.1.8.1 1.7.2 2.5-2.6-1.2-5.2-2-8.4-2zm5.2-21.3c-.7 0-1.6-.1-2.3-.4l-.2-1.7c.7.3 1.8.6 2.5.6.8 0 1.1-.2 1.1-.7 0-1.2-3.4-.7-3.4-3.2 0-1.5 1.2-2.2 3-2.2.9 0 1.4.1 2 .2l.2 1.6c-.5-.2-1.3-.4-1.9-.4-.6 0-1 .2-1 .6 0 1.1 3.4.7 3.4 3.1 0 1.9-1.5 2.5-3.4 2.5z"/><path d="M51.4 71.7l2.3.3c.7.1 1 .4 1.1 1.2l.3 2.2h.2l.3-2.3c.1-.9.5-1 1.1-1.1l2.2-.3v-.2l-2.4-.3c-.6-.1-.9-.4-1-1l-.3-2.4H55l-.3 2.4c-.1.6-.4.8-1 .9l-2.4.3v.3z"/></g></svg>