<svg xmlns="http://www.w3.org/2000/svg" viewBox="0 0 100 100"><path fill="#FFF" d="M35.55 72.867h.956v2.475h-.836c0-.39-.598-1.693-3.226-1.824-2.629-.13-2.868 1.173-2.032 1.564 1.195.39 3.465.26 4.78.781 1.792.652 2.39 2.736.717 3.778-1.434 1.042-4.063.912-5.855.26-.359-.13-.836-.39-.836 0v.261h-1.076v-2.735h.956c0 .13-.12.781.956 1.433 1.314.781 3.584.781 4.54.26.598-.26.598-1.303-.358-1.433-1.076-.13-2.748-.26-4.063-.521-.836-.26-1.553-.521-2.03-1.042-.36-.391-.837-2.085.955-2.866 2.27-1.042 5.377-.26 5.855.13.358 0 .717 0 .597-.521M46.54 76.532c0-1.824-1.315-2.866-2.988-2.866-1.672 0-2.987 1.042-2.987 2.866s1.315 2.996 2.987 2.866c1.673 0 2.987-1.042 2.987-2.866m-2.867-4.039c2.509 0 5.138 1.173 5.018 4.039-.12 2.866-2.629 3.908-5.018 3.908-2.39 0-5.257-1.042-5.257-3.908-.12-2.866 2.867-4.039 5.257-4.039M70.542 74.19c-.239.26-2.628 3.257-2.628 3.257v1.563c0 .13 0 .13.239.13h.955v.912h-4.66v-.912h1.076c.239 0 .239 0 .239-.13v-1.694l-2.748-3.126c-.12-.13-.359-.391-.837-.391h-.716v-.912h4.779v.912h-.478c-.12 0-.239.26 0 .39.239.261 1.553 1.955 1.553 1.955l1.553-1.954c.12-.13 0-.391-.119-.391h-.597v-.912h3.823v.912h-.956c-.239 0-.358.26-.478.39M52.465 78.696c0 .521.24.391.478.391h.956V80h-4.062v-.912h.955c.359 0 .478-.26.478-.39v-4.43c0-.26 0-.521-.478-.521h-.836v-.912h3.465l4.66 4.43v-2.997c0-.521-.24-.521-.478-.521h-.836v-.912h3.942v.912h-.955c-.24 0-.359.26-.359.39V80h-1.314l-5.496-4.95v3.647zM29.97 84.688h1.433c.598 0 .837-.13.837-.652 0-.52-.359-.651-.837-.651H29.97v1.303zm-1.912 2.475v-.521h.478c.239 0 .239-.13.239-.26v-2.737c0-.13 0-.26-.24-.26h-.477v-.521h3.584c1.195 0 1.673.26 1.673 1.172s-.597 1.303-1.912 1.303H29.85v1.042c0 .13 0 .26.239.26h.478v.522h-2.51zM35.746 86.285c0 .13 0 .26.24.26h.477v.521h-2.509v-.52h.478c.24 0 .24-.131.24-.261v-2.736c0-.13 0-.26-.24-.26h-.478v-.522h2.51v.521h-.479c-.239 0-.239.13-.239.26v2.737zM42.021 85.712c-.12.651-.836 1.563-2.27 1.563-1.314 0-2.868-.521-2.987-2.345 0-1.824 1.553-2.475 2.748-2.475.717 0 1.434.26 1.553.39.12.13.24.13.24-.26h.477v1.563h-.478c0-.781-.956-1.302-1.912-1.172-.955.13-1.553.912-1.553 1.954 0 1.042.837 1.824 1.792 1.824.598 0 1.434-.13 1.673-1.042h.717zM42.717 84.346v-1.694h5.138v1.694h-.478c0-1.173-.12-1.043-.478-1.173h-.956v2.997c0 .13 0 .26.24.26h.477v.521h-2.51v-.52h.479c.239 0 .239-.131.239-.261v-2.997h-.956c-.478 0-.478 0-.478 1.173h-.717zM51.24 87.272c-1.076 0-2.152-.26-2.152-1.564v-2.214c0-.13 0-.26-.239-.26h-.478v-.522h2.51v.521h-.478c-.24 0-.24.13-.24.26v2.215c0 .13 0 1.043.957 1.043 1.194 0 1.314-.521 1.314-1.043v-2.214c0-.13 0-.26-.24-.26h-.477v-.522h2.15v.521h-.477c-.12 0-.24.13-.24.521v2.085c.12 1.172-.836 1.433-1.91 1.433M56.43 84.688h1.434c.478 0 .836-.26.836-.652 0-.39-.358-.651-.717-.651H56.55v1.303zm2.27.26c.478.13.717.26.717.782v.651c0 .13 0 .26.24.26.238 0 .238-.26.238-.52v-.26h.478v.39c0 .782-.239 1.042-.836 1.042-.598 0-1.076-.13-1.076-1.042v-.521c0-.26-.239-.521-.717-.521H56.55v1.042c0 .13 0 .26.239.26h.478v.652h-2.51v-.652h.478c.24 0 .24-.13.24-.26v-2.736c0-.13 0-.26-.24-.26h-.478v-.522h3.585c1.195 0 1.673.391 1.673 1.303a1.39 1.39 0 0 1-1.315.912M62.716 86.499h2.27c.478 0 .478-.26.478-1.173h.478v1.694h-5.137v-.521h.478c.239 0 .239-.13.239-.26v-2.737c0-.13 0-.26-.24-.26h-.477v-.521h5.137v1.693h-.478c0-.912-.119-1.042-.477-1.172h-2.27v1.303h1.075c.12 0 .239 0 .239-.261v-.39h.478v2.084h-.478v-.521c0-.261-.12-.261-.24-.261h-1.075v1.303zM71.047 82.764h.477v1.563h-.477c0-.26-.359-1.172-1.673-1.172-1.434 0-1.553.781-1.076 1.042.598.26 1.793.13 2.51.521.955.39 1.194 1.563.358 2.345-.717.651-2.15.521-2.987.13-.239-.13-.478-.26-.478 0v.13h-.597V85.63h.478c0 .13-.12.521.477.782.837.52 1.673.651 2.39.13.359-.26.478-.782-.239-.912-.597-.13-1.434-.13-2.15-.39-.478-.131-.837-.261-1.076-.652-.12-.26-.478-1.173.478-1.694 1.195-.651 2.51-.26 3.107.13.358 0 .478 0 .478-.26M29.108 68.777l-.956.391V33.342l.956-.39v35.825zM33.306 66.803l-.956.39V31.369l.956-.39v35.825zM41.647 36.7c-.956 5.21-1.195 5.471-1.315 8.077-.12 2.084.24 3.517.598 5.21.239 1.564.597 3.127.597 3.127v9.64l1.076-.52v-9.51s.955-5.081 1.075-8.078c.12-3.517-1.075-7.295-1.075-8.207V26.408l-.956.39V36.7M36.946 29.099v15.633c0 .39-.717 1.302-.836 1.954-.12.651-.478 1.433.597 2.215.358.26.239 1.042.239 1.563v14.59l.956-.39V49.03c0-.521 1.434-1.824.956-3.257-.12-.521-.837-1.042-.837-1.173-.12-.781-.239-15.893-.239-15.893l-.836.39zM46.161 33.174c-1.075 6.123-1.433 8.207-1.314 11.204.12 2.996.359 4.56.956 7.686.239 1.694.358 2.606.358 2.606v5.862l1.076-.521V54.8c0-.26 0-.521.12-1.303.238-2.215.836-6.514 1.075-10.161.358-4.56-.717-8.99-.837-11.204-.12-1.173-.12-2.736-.12-8.208l-1.075.522c-.12.13.12 6.122-.239 8.728M51.074 23.27c-.597 4.559-1.553 10.16-1.673 17.065-.12 7.426 1.434 16.545 1.434 16.545l.12 1.433 1.195-.65.238-2.216c.956-8.337 1.076-9.25 1.195-16.154.12-5.732-.836-11.855-1.314-16.284v-1.303l-1.075.39c-.12.131 0 .392-.12 1.173M55.396 22.288c-.836 8.859-.956 13.94-.956 16.024-.12 6.775 1.075 16.415 1.075 16.415l.12 1.433 2.031-1.042.12-2.085s.478-4.95.597-15.763c.12-5.732-.956-15.242-1.075-16.415 0-.651-.12-1.433-.12-1.433l-1.553.652s-.12 1.042-.239 2.214M59.942 20.147c-.836 8.468-.717 14.07-.836 16.154-.12 6.774.956 16.284.956 16.284l.12 1.303 2.27-1.042.119-2.085s.597-4.95.717-15.633c0-5.471-.837-15.242-.837-16.284 0-.651-.119-1.824-.119-1.824l-2.15.912s0 1.042-.24 2.215M64.808 18c-.717 9.25-.836 13.94-.836 15.894 0 6.904.836 16.284.836 16.284l.12 1.303 2.39-1.173.119-2.084s.358-4.56.478-15.112c.12-6.384-.837-16.154-.956-16.545 0-.651-.12-1.954-.12-1.954l-2.03 1.042c.238 0 .119 1.042 0 2.345M69.49 16.071c-.597 9.25-.717 13.158-.717 15.894 0 7.295.837 15.763.837 15.763l.12 1.433 2.03-.912V12.293l-2.15 1.042c0 .13 0 1.434-.12 2.736"/></svg>