<svg xmlns="http://www.w3.org/2000/svg" version="1.0" width="500" height="490.31"><defs><clipPath id="a"><path d="M36 828.056V774.75h53.053v53.306"/></clipPath></defs><path d="M10 480.312h480V9.998H10v470.314z" fill="#fff"/><g transform="matrix(8.60987 0 0 -8.60987 -284.888 7144.348)" clip-path="url(#a)"><path d="M36 825.44a2.616 2.616 0 0 0 2.616 2.616H86.41a2.617 2.617 0 0 0 2.617-2.615l.026-48.074a2.617 2.617 0 0 0-2.616-2.617h-47.82A2.617 2.617 0 0 0 36 777.367v48.074" fill="#1378c7"/><path d="M78.598 783.479c-1.688-.21-2.52.022-2.52.022-.903.047-.926.716-.926.716v4.07c2.821.084 3.446-.032 3.446-.032.67-.023.856-.207.856-.207l.3 1.785s-.138-.116-1.989-.07c0 0 .509 0-2.613.023l-.005 3.603c-.007.578.677.546.677.546 2.797.07 3.398-.093 3.398-.093.648 0 .832-.338.832-.338l.301 1.457c.116.29-.648.255-.648.255h-1.086c-.787-.08-.763.764-.763.764v5.711l.004 5.734c.046.88.527.94.527.94h-1.086c4.139 12.719 4.648 12.935 4.648 12.935-1.943-.162-2.775-.023-2.775-.023.74-.277.161-1.594.161-1.594-1.318-4.534-2.45-7.4-2.45-7.4-1.712 4.207-2.151 5.318-2.151 5.318-1.295 3.352-1.203 3.77-1.203 3.77-1.664-.185-2.751 0-2.751 0 .463-.185.175-1.11.175-1.11-1.341-4.556-2.396-7.355-2.396-7.355-2.52 4.95-3.293 7.493-3.293 7.493-.346 1.063-.832.924-.832.924-7.886-.091-9.355.023-9.355.023.855-.137.786-2.057.786-2.057l.004-8.602-5.045 8.024c-1.11 1.803-1.018 2.59-1.018 2.59h-3.885c.625-.417.6-1.897.6-1.897.282-4.206-.068-10.059-.068-10.059-.069-1.11-1.156-1.11-1.156-1.11h3.075c1.226-.116.417-1.85.417-1.85l-2.29-4.047-2.081 2.937c-1.989 3.064-3.029 3.038-3.029 3.038h-3.19c1.571-.207 4.369-3.917 4.369-3.917l1.711-2.359c.076-.119.145-.236.208-.346.672-1.236.556-2.128.556-2.128v-2.844c-.047-1.226-1.157-1.55-1.157-1.55l1.78.023c1.296.07 1.342-1.896 1.342-1.896.07-4.947 0-8.972 0-8.972.023-1.919-.925-2.22-.925-2.22 2.451.14 4.625-.022 4.625-.022 2.232-.231 2.544-.042 2.544-.042.543.122.578.48.578.48l.277 1.583c-.44-.68-1.248-.774-1.248-.774-.74-.15-2.868-.031-2.868-.031s-.971.07-.925.693c0 0-.185 5.628.07 10.3 0 0-.024 1.04 1.225 1.133h-2.22c-1.133.163-1.133.949-1.133.949v3.051c-.043.627.426 1.619.78 2.267.208.384.376.647.376.647 3.353 5.874 3.839 5.99 3.839 5.99h-2.613c-1.064.092-1.147 1.064-1.147 1.064v9.088c5.827-8.81 6.72-10.43 6.72-10.43-2.474-.463-3.26-2.475-3.26-2.475-.66-1.349-.72-3.038-.7-3.884.008-.365.03-.579.03-.579.045-3.63 1.248-4.531 1.248-4.531.832-.995 2.613-1.272 2.613-1.272.971-.232.948-1.873.948-1.873v-4.625c-.023-4.903-.393-5.804-.393-5.804-.185-.857-.787-.902-.787-.902 2.705.207 4.185-.093 4.185-.093-.832.346-.832 1.04-.832 1.04-.116 5.69 0 10.36 0 10.36-.024 1.504.925 1.873.925 1.873 2.173.555 2.52 1.341 2.52 1.341 1.32 1.377 1.375 4.048 1.342 5.065-.01.3-.024.462-.024.462.012 2.81-1.341 4.302-1.341 4.302-.925 1.155-2.798 1.71-2.798 1.71l4.764-.022c1.387-.139 1.364-2.267 1.364-2.267.148-1.379.188-2.858.178-4.185-.02-2.404-.2-4.325-.2-4.325-.186-2.104-1.11-1.942-1.11-1.942l-1.204.004c.787-.23.671-2.178.671-2.178.14-4.717-.208-9.827-.208-9.827-.093-1.133-.856-1.388-.856-1.388 2.243.208 3.77 0 3.77 0-.694.161-.67 1.642-.67 1.642l-.047 4.302c2.913.137 3.792-.048 3.792-.048.577.023.81-.207.81-.207l.37 1.891c-.255-.138-2.035-.092-2.035-.092h-2.914v3.958c.023.417.694.394.694.394 2.89.161 3.515-.056 3.515-.056.647-.045.693-.245.693-.245l.255 1.248c.184.51-.393.412-.393.412l-1.735.005c-1.272-.093-1.11.994-1.11.994v10.175c.023.647.555.717.555.717 1.503.3 2.45-.022 2.45-.022 1.135-.307 1.181-1.411 1.181-1.411.3-1.25-.694-2.22-.694-2.22-.671-.672-1.827-.648-1.827-.648-.51.093-.254-.232-.254-.232.103-.285.219-.586.34-.901 1.079-2.708 2.747-6.082 2.747-6.082.312-.485.844-.417.844-.417.567-.057.533-.855.533-.855.091-5.458-.094-10.36-.094-10.36-.115-1.734-.785-1.895-.785-1.895 3.028.185 3.861-.023 3.861-.023 3.792-.233 3.932-.047 3.932-.047.416-.024.485.833.485.833l.348 1.619c-.348-1.088-2.059-.985-2.059-.985" fill="#fff"/><path d="M80.42 803.078s1.9 2.239 3.704 3.973c0 0 1.018 1.11 1.573 1.318h-1.85s-.717.024-1.11-.416c0 0-1.734-1.914-4.671-5.384 0 0 .23-.026 4.625-6.826 0 0 .416-.6.925-.532h2.622s-1.096.398-5.818 7.867" fill="#fff"/><path d="M58.942 819.982c2.52.116 2.96 0 2.96 0 1.086.046 1.456-1.017 1.456-1.017 2.52-4.972 3.723-8.21 3.723-8.21.671-1.71.509-2.058.509-2.058 0-.322-.358-.37-.358-.37H64.33c.242 2.324.231 2.61.231 2.61-.486-.868-.833-.926-.833-.926-.786-.416-4.416-.323-4.416-.323-1.064.011-1.18.879-1.18.879-.069 2.08 0 3.726 0 3.726.046.14.185.14.185.14 3.978.138 4.047-.162 4.047-.162l.231 1.897a3.384 3.384 0 0 0-.786-.168c-2.22-.116-3.677-.042-3.677-.042v2.892c-.046 1.132.81 1.132.81 1.132M53.3 802.222c-.139-3.33.671-4.652.671-4.652.994-1.776 2.612-1.749 2.612-1.749 2.451-.073 3.228 1.795 3.228 1.795.74 1.646.61 4.606.61 4.606-.057 2.498-.81 3.586-.81 3.586-.866 1.584-2.612 1.48-2.612 1.48-2.08.137-3.014-1.48-3.014-1.48-.731-1.065-.685-3.586-.685-3.586M70.643 802.478c1.665-3.678 3.237-5.967 3.237-5.967.971-1.514 1.493-1.26 1.493-1.26.242 0 .232.635.232.635.302 5.62.023 10.522.023 10.522-.162 1.85-.777 1.967-.777 1.967h.995c-.047.507-.208.878-.208.878-2.151 6.22-3.423 8.973-3.423 8.973-1.758-4.927-2.879-8.915-2.879-8.915-.104-.429-.172-.984-.172-.984 2.335.048 2.843-.346 2.843-.346 1.422-.59 1.503-2.335 1.503-2.335.046-1.642-.902-2.313-.902-2.313-.763-.718-1.965-.855-1.965-.855" fill="#1378c7"/></g></svg>