<svg xmlns="http://www.w3.org/2000/svg" viewBox="0 0 100 100"><path fill="#FFF" d="M96.5427 55.3555c-.9123.9123-1.5205 1.2164-2.7369 1.5205-.6082 0-1.5205.3041-2.1287 0-.9123 0-1.8246-.3041-2.7369-.9123-.6082-.3041-1.2164-.9123-1.5205-1.8246-.3041-.6082-.6082-1.2164-.6082-1.8246v-2.4328c.6082-1.8246 1.8246-3.3451 3.9533-3.6492 1.2164-.3041 2.1287-.3041 3.041 0 .6082.3041 1.5205.6082 2.1287 1.2164.3041.3041.6082.6082.9123 1.2164.3041.6082.3041.9123.3041 1.5205h-3.3451c0-.3041-.3041-.9123-.6082-1.2164-.6082-.3041-1.2164-.3041-1.5205 0-.3041.3041-.6082.6082-.6082.9123-.3041.9123-.3041 1.8246 0 2.7369 0 .3041.3041.6082.6082.9123.3041.3041.9123.6082 1.2164.3041.3041 0 .6082-.3041.6082-.3041.3041-.3041.3041-.6082.3041-.9123v-.6082h3.6492c0 1.5205-.3041 2.7369-.9123 3.3451M82.5 45.3h3.8v-2.7h-3.8v2.7zm0 11.5h3.8V46.6h-3.8v10.2zm-7.8-9.1c.5-.4 1-.7 1.6-1 1-.5 2-.5 3-.2 1.1.3 1.9 1.1 2.3 2.2.2.5.2 1 .2 1.6v6.5h-4v-5.9c0-.2 0-.4-.1-.6-.1-.3-.3-.6-.7-.7-.7-.3-1.5 0-1.9.6-.2.3-.2.6-.2.9v5.6H71V46.6h3.7v1.1m-44.8 0c.5-.4 1-.7 1.6-1 1-.5 2-.5 3-.2 1.1.3 1.9 1.1 2.3 2.2.2.5.2 1 .2 1.6v6.5h-4v-5.9c0-.2 0-.4-.1-.6-.1-.3-.3-.6-.7-.7-.7-.3-1.5 0-1.9.6-.2.3-.2.6-.2.9v5.6h-3.9V46.6h3.7v1.1M53.6646 52.9227c.3041 0 .6082 0 .9123.3041.3041 0 .3041.3041.3041.6082s0 .6082-.3041.6082c-.3041.3041-.3041.3041-.6082.3041h-.9123c-.3041 0-.3041 0-.3041-.3041-.3041 0-.3041-.3041-.3041-.6082v-.6082H48.799v.3041c0 .3041 0 .6082.3041.9123.3041.6082.3041.9123.9123 1.2164.6082.6082.9123.9123 1.8246.9123 1.5205.3041 2.7369.6082 3.9533.3041.6082 0 1.2164-.3041 1.8246-.6082.3041 0 .6082-.3041.6082-.6082.9123-.9123 1.5205-2.1287.9123-3.3451 0-.3041-.3041-.9123-.9123-1.2164-.6082-.3041-.9123-.6082-1.8246-.9123h-.3041c-.6082-.3041-1.5205-.3041-2.4328-.6082h-.6082-.3041c-.3041 0-.3041-.3041-.3041-.6082s.3041-.3041.6082-.3041h1.2164c.3041 0 .6082.6082.6082.9123h3.6492c0-.3041 0-.9123-.3041-1.2164 0-.3041-.3041-.6082-.6082-.9123-.3041-.3041-.6082-.3041-.9123-.6082-.3041 0-.6082-.3041-.9123-.3041-.9123 0-1.8246-.3041-2.4328 0-.6082 0-.9123 0-1.5205.3041-.6082 0-1.2164.3041-1.8246.9123-.3041.3041-.9123.9123-.9123 1.2164v.6082c0 .3041 0 .9123.3041 1.2164.3041.6082.9123 1.2164 1.5205 1.5205.3041 0 .6082.3041 1.2164.3041 0 .3041.9123.3041 1.5205.3041"/><path fill="#FFF" d="M9.4 52.4H6.8v-3.3h2.6c.4 0 .8-.2 1.1-.6l.3-.6v-.6c-.1-.7-.7-1.3-1.4-1.3H6.8v10.8H2.5V42.6h7.8c1.9.1 3.4 1.1 4.2 2.8.4.9.6 1.7.4 2.7-.2 2-1.6 3.6-3.6 4.1-.6.1-1.2.2-1.9.2m56.5-6c-.4-.1-.8-.1-1.1-.1-.4 0-.7 0-1.1.1-1.2.2-2.1.6-3 1.5-.9.9-1.4 1.9-1.5 3.2-.1.8 0 1.4.2 2.2.3 1.1.9 2 1.9 2.7.6.5 1.2.8 2 .9.5.1 1 .2 1.6.2.6 0 1 0 1.6-.2.8-.2 1.4-.5 2-.9l-2.2-2.4c-.3.8-1.2 1.1-2 .8-.4-.2-.6-.4-.8-.8-.1-.3-.2-.6-.3-1-.1-.7-.1-1.3 0-2 .1-.4.2-.7.4-1 .4-.7 1.4-.9 2-.4.2.1.3.3.4.4.2.3.3.6.4 1 .1.7.2 1.3 0 2 0 .3-.1.7-.3 1l2.2 2.4c.9-.7 1.5-1.6 1.9-2.7.2-.7.3-1.4.2-2.2-.1-1.3-.6-2.3-1.5-3.2-.9-.8-1.9-1.3-3-1.5M48.1 56c-.1-.8-.1-1.6-.1-2.4v-3.1c0-.6-.1-1.1-.2-1.7-.2-.8-.6-1.3-1.3-1.7-.4-.2-.8-.4-1.2-.5-1.5-.3-2.7-.3-4.2-.1-.4.1-.8.2-1.1.3-.9.4-1.5 1-1.8 2-.1.3-.1.7-.1 1 0 .1 0 .1.1.2l3.4.1c0-.2 0-.4.1-.6.1-.3.3-.5.6-.6.4-.2.9-.2 1.4 0 .3.1.5.3.6.6.1.2 0 .4-.1.5-.1.1-.2.2-.4.3-.1 0-.2.1-.3.1-.5.1-.9.2-1.4.3-.4.1-.7.1-1.1.2-.5.1-1 .2-1.4.4-.4.1-.8.4-1.2.7-.4.4-.7.9-.8 1.5-.1.4 0 .8 0 1.2.2 1.1 1 1.8 2 2.1 1.2.3 2.2.3 3.3-.2.5-.2 1-.5 1.3-1l-.3-1.6c-.2.3-.4.5-.7.6-.3.1-.5.2-.8.2-.2 0-.5 0-.7-.1-.2 0-.4-.1-.5-.3-.1-.1-.2-.3-.2-.4-.1-.2 0-.5.2-.7.1-.1.3-.2.4-.3.4-.1.7-.3 1.1-.4.5-.1.9-.3 1.4-.5v1.1c0 .3-.1.5-.3.7l.2 1.7c.1.2.1.5.2.7 0 .1.1.2.2.3h3.8c0-.1-.1-.3-.1-.6m-22.7 0c-.1-.8-.1-1.6-.1-2.4v-3.1c0-.6-.1-1.1-.2-1.7-.2-.8-.6-1.3-1.3-1.7-.4-.2-.8-.4-1.2-.5-1.5-.3-2.7-.3-4.2-.1-.4.1-.8.2-1.1.3-.9.4-1.5 1-1.8 2-.1.3-.1.7-.1 1 0 .1 0 .1.1.2l3.4.1c0-.2 0-.4.1-.6.1-.3.3-.5.6-.6.4-.2.9-.2 1.4 0 .3.1.5.3.6.6.1.2 0 .4-.1.5-.1.1-.2.2-.4.3-.1 0-.2.1-.3.1-.4.1-.9.2-1.4.3-.4.1-.7.1-1.1.2-.5.1-1 .2-1.4.4-.4.1-.8.4-1.2.7-.5.4-.7.9-.8 1.5-.1.4 0 .8 0 1.2.2 1.1 1 1.8 2 2.1 1.2.3 2.2.3 3.3-.2.5-.2 1-.5 1.3-1l-.3-1.6c-.2.3-.4.5-.7.6-.3.1-.5.2-.8.2-.2 0-.5 0-.7-.1-.2 0-.4-.1-.5-.3-.1-.1-.2-.3-.2-.4-.1-.3 0-.5.2-.7.1-.1.3-.2.4-.3.4-.1.7-.3 1.1-.4.5-.1.9-.3 1.4-.5v1.1c0 .3-.1.5-.3.7l.2 1.7c.1.2.1.5.2.7 0 .1.1.2.2.3h3.8c0-.1-.1-.3-.1-.6"/></svg>