<svg xmlns="http://www.w3.org/2000/svg" viewBox="0 0 100 100"><path fill="#FFF" d="M35.5 72.9h1v2.4h-.8c0-.3-.6-1.7-3.3-1.8-2.6-.1-2.8 1.2-2 1.6 1.2.4 3.5.2 4.8.8 1.8.6 2.4 2.7.7 3.7-1.4 1-4 1-5.8.3-.4-.1-.9-.4-.9 0v.3h-1v-2.8h.9c0 .2-.1.8 1 1.5 1.3.7 3.5.7 4.5.2.6-.2.6-1.3-.4-1.4l-4-.5c-.9-.3-1.6-.6-2-1-.4-.5-.9-2.2.9-3 2.3-1 5.4-.2 5.9.2.3 0 .7 0 .6-.5m11 3.6c0-1.8-1.4-2.8-3-2.8-1.7 0-3 1-3 2.8s1.3 3 3 2.9c1.6 0 3-1 3-2.9m-3-4c2.6 0 5.2 1.2 5 4 0 2.9-2.5 4-5 4-2.3 0-5.2-1.1-5.2-4-.1-2.8 2.9-4 5.3-4m26.8 1.7L68 77.4V79l.3.1h1v1h-4.8v-1H65.8v-1.8L63 74.2c-.1-.1-.3-.4-.8-.4h-.7v-1h4.7v1h-.4c-.2 0-.3.3 0 .4l1.5 2 1.6-2c0-.1 0-.4-.2-.4h-.5v-1H72v1h-1c-.2 0-.3.3-.5.4m-18 4.5c0 .5.2.4.4.4h1v.9h-4v-1h.9c.4 0 .5-.2.5-.3v-4.4c0-.3 0-.6-.5-.6H50v-.9h3.4l4.7 4.5v-3c0-.6-.3-.6-.5-.6h-.8v-.9h4v1h-1c-.3 0-.4.2-.4.3V80h-1.3l-5.5-5v3.7zm-22.5 6h1.4c.6 0 .8-.1.8-.7 0-.5-.3-.6-.8-.6H30v1.3zm-2 2.5v-.6h.5c.3 0 .3 0 .3-.2v-2.8s0-.2-.3-.2h-.4v-.5h3.5c1.2 0 1.7.2 1.7 1.1s-.6 1.3-1.9 1.3h-1.5v1c0 .2 0 .3.2.3h.5v.6H28zm7.7-1c0 .2 0 .3.3.3h.5v.6H34v-.6h.4c.3 0 .3 0 .3-.2v-2.8s0-.2-.3-.2H34v-.5h2.5v.5H36c-.3 0-.3.1-.3.2v2.8zm6.3-.5c-.1.7-.8 1.6-2.2 1.6-1.4 0-3-.5-3-2.4 0-1.8 1.5-2.4 2.7-2.4a3 3 0 0 1 1.6.3c0 .2.2.2.2-.2h.5V84h-.5c0-.7-1-1.3-2-1.1-.9.1-1.5.9-1.5 2 0 1 .9 1.8 1.8 1.8.6 0 1.5-.2 1.7-1h.7zm.7-1.4v-1.6H48v1.6h-.5c0-1.1-.1-1-.5-1.1h-1v3c0 .1 0 .2.3.2h.5v.6H44v-.6h.5c.3 0 .3-.1.3-.2v-3h-1c-.5 0-.5 0-.5 1.1h-.7zm8.5 3c-1 0-2.1-.3-2.1-1.6v-2.2c0-.1 0-.3-.3-.3h-.4v-.5h2.5v.5h-.5c-.2 0-.2.2-.2.3v2.2c0 .1 0 1 1 1 1.1 0 1.2-.5 1.2-1v-2.2c0-.1 0-.3-.2-.3h-.5v-.5H54v.5h-.5c-.1 0-.2.2-.2.6v2c0 1.2-.9 1.5-2 1.5m5.2-2.6H58c.4 0 .8-.3.8-.7 0-.4-.4-.6-.7-.6h-1.5v1.3zm2.3.2c.5.2.7.3.7.8v.7c0 .1 0 .2.3.2.2 0 .2-.2.2-.5V86h.5v.4c0 .7-.3 1-.9 1-.6 0-1-.1-1-1v-.6c0-.2-.3-.5-.8-.5h-1.2v1c0 .2 0 .3.3.3h.5v.7h-2.5v-.7h.4c.3 0 .3-.1.3-.2v-2.8c0-.1 0-.2-.3-.2h-.4v-.6h3.5c1.2 0 1.7.4 1.7 1.3a1.4 1.4 0 0 1-1.3 1m4 1.5H65c.5 0 .5-.3.5-1.2h.4V87h-5.1v-.5h.5c.2 0 .2-.1.2-.3v-2.7c0-.1 0-.3-.2-.3h-.5v-.5h5.1v1.7h-.4c0-.9-.2-1-.5-1.2h-2.3v1.3h1c.2 0 .3 0 .3-.2v-.4h.5v2H64v-.4c0-.3 0-.3-.2-.3h-1v1.3zm8.3-3.7h.5v1.5H71c0-.2-.3-1.1-1.6-1.1-1.5 0-1.6.7-1.1 1 .6.3 1.8.1 2.5.5 1 .4 1.2 1.6.4 2.4-.8.6-2.2.5-3 0-.3 0-.5-.2-.5 0v.2h-.6v-1.7h.5c0 .2-.1.6.5.8.8.5 1.6.7 2.3.1.4-.2.5-.7-.2-.9-.6-.1-1.4-.1-2.1-.4-.5 0-.9-.2-1.1-.6-.1-.3-.5-1.2.5-1.7 1.2-.7 2.5-.3 3 .1.4 0 .5 0 .5-.2m-41.9-14l-1 .4V33.3l1-.3v35.8zm4.2-2l-1 .4V31.4l1-.4v35.8zm8.3-30.1c-1 5.2-1.1 5.5-1.3 8 0 2.2.3 3.6.6 5.3l.6 3.1v9.7l1.1-.6v-9.5s1-5 1-8c.2-3.6-1-7.3-1-8.3v-10l-1 .4v9.9M37 29.1v15.6c0 .4-.7 1.3-.8 2-.1.6-.5 1.4.6 2.2.4.3.2 1 .2 1.6V65l1-.4V49c0-.5 1.4-1.8 1-3.2-.2-.5-.9-1-.9-1.2l-.2-15.9-.9.4zm9.3 4c-1.1 6.2-1.5 8.3-1.4 11.3a282.2 282.2 0 0 1 1.3 10.3v5.8l1.1-.5v-5.2l.2-1.3c.2-2.2.8-6.5 1-10.2.4-4.5-.7-9-.8-11.2l-.1-8.2-1.1.5c-.1.2.1 6.2-.2 8.8m4.9-10c-.6 4.6-1.6 10.2-1.7 17.1-.1 7.5 1.4 16.6 1.4 16.6l.2 1.4 1.1-.6.3-2.3c1-8.3 1-9.2 1.2-16.1.1-5.7-.9-11.9-1.3-16.3v-1.3l-1.1.4-.1 1.2m4.3-1c-.8 8.8-1 14-1 16 0 6.8 1.1 16.4 1.1 16.4l.1 1.5 2-1 .2-2.2s.5-5 .6-15.7c.1-5.8-1-15.3-1-16.4l-.2-1.5-1.6.7-.2 2.2m4.5-2.2c-.8 8.5-.7 14.1-.8 16.2-.1 6.8 1 16.3 1 16.3v1.3l2.4-1v-2.1s.7-5 .8-15.7c0-5.4-.8-15.2-.8-16.3l-.2-1.8-2.1 1s0 1-.3 2.1m5-2.1c-.8 9.3-1 14-1 15.9 0 6.9 1 16.3 1 16.3v1.3l2.4-1.2.1-2s.4-4.6.5-15.2c.1-6.4-.8-16.1-1-16.5v-2l-2 1V18m4.6-2a189 189 0 0 0 .1 31.7l.1 1.5 2-1v-36l-2 1.1c0 .2 0 1.5-.2 2.8"/></svg>