<svg xmlns="http://www.w3.org/2000/svg" viewBox="0 0 100 100"><g fill="#FFF"><path d="M50 24.8c-13.9 0-25 11.2-25 25s11.1 25 25 25 25-11.2 25-25-11.1-25-25-25zm-8.6 32.7h-4.1v-1.7s-1 1.9-3.7 1.9c-4.3 0-7.8-3.5-7.8-7.8s3.5-7.8 7.8-7.8 7.8 3.5 7.8 7.8v7.6zm8.9.2c-4.3 0-7.8-3.5-7.8-7.8V36.6h4.1v7.3s1-1.9 3.7-1.9c4.3 0 7.8 3.5 7.8 7.8 0 4.4-3.5 7.9-7.8 7.9zm16.3 0c-4.3 0-7.8-3.5-7.8-7.8s3.5-7.8 7.8-7.8c3.8 0 6.9 2.6 7.7 6.1H70c-.6-1.2-1.9-2-3.3-2-2.1 0-3.7 1.7-3.7 3.7 0 2.1 1.7 3.7 3.7 3.7 1.4 0 2.7-.8 3.3-2h4.3c-.8 3.5-3.9 6.1-7.7 6.1z"/><path d="M50.3 46.1c-2.1 0-3.7 1.7-3.7 3.7 0 2.1 1.7 3.7 3.7 3.7 2.1 0 3.7-1.7 3.7-3.7s-1.6-3.7-3.7-3.7zM33.6 46.1c-2.1 0-3.7 1.7-3.7 3.7 0 2.1 1.7 3.7 3.7 3.7s3.7-1.7 3.7-3.7-1.6-3.7-3.7-3.7z"/></g></svg>