<svg xmlns="http://www.w3.org/2000/svg" viewBox="0 0 100 100"><path fill="#FFF" d="M78.173 36.52c-2.053-1.96-4.826-3.027-7.64-3.133a13.05 13.05 0 0 0-7.96 2.346C60.56 37.16 59 39.16 57.92 41.373c-1.32-1.16-2.68-2.293-4.333-2.96-1.534-.626-3.387-.906-4.947-.213a3.82 3.82 0 0 0-1.707 1.507c-.4.68-.56 1.493-.466 2.28.08.76.413 1.44.96 1.973.573.56 1.306.92 2.04 1.227.84.346 1.72.586 2.6.853.826.253 1.666.52 2.48.827 1.573.6 3.12 1.386 4.333 2.56 2.44 2.373 3.24 5.973 2.827 9.266-.12.934-.334 1.854-.667 2.72-.08.2-.16.414-.253.614-.027.053-.067.16-.067.16s.2.213.28.306c.28.28.573.534.867.787 1.106.92 2.386 1.64 3.733 2.16 2.693 1.013 5.72 1.16 8.453.227 1.534-.52 2.974-1.387 4.107-2.56v2.72h9.32V33.813h-9.32v2.707zM71.96 57.827c-1.453 0-2.84-.587-3.92-1.534-1.16-1.026-1.96-2.413-2.387-3.893-.866-3.027-.16-6.573 2.12-8.813 1.067-1.054 2.48-1.707 3.987-1.747 1.507-.053 3 .52 4.147 1.493 2 1.694 2.906 4.454 2.773 7.014-.133 2.573-1.347 5.2-3.6 6.6-.933.56-2.013.88-3.12.88M43.507 52.64c-.44-.173-.867-.36-1.28-.56-.787-.4-1.56-.867-2.24-1.427-1.254-1.04-2.174-2.413-2.72-3.946-.56-1.574-.76-3.28-.654-4.947.107-1.773.587-3.533 1.467-5.08a11.904 11.904 0 0 1 2.68-3.2h-9.387s-.013 9.907-.013 13.853v2.96c0 .92-.013 1.84-.133 2.747-.2 1.613-.72 3.493-2.254 4.347-.733.413-1.6.533-2.44.506-.84-.026-1.68-.24-2.36-.76-1.333-1.026-1.76-2.866-1.906-4.453-.08-.88-.08-1.773-.08-2.653V33.493H12.52v17.134c0 1.92.027 3.853.427 5.733.346 1.667.973 3.293 1.933 4.693a10.83 10.83 0 0 0 3.613 3.294c1.547.88 3.267 1.373 5.014 1.626 1.76.254 3.56.294 5.333.134 1.693-.147 3.373-.494 4.933-1.134 1.494-.626 2.84-1.52 3.934-2.706a11.568 11.568 0 0 0 2.346-3.934c.04-.12.08-.24.12-.346 1.147 1.133 2.414 2.186 3.854 2.92 1.413.733 3.08 1.16 4.68.88.786-.134 1.546-.48 2.133-1.04a3.58 3.58 0 0 0 1.053-1.987c.12-.707.054-1.467-.253-2.12-.293-.6-.773-1.093-1.32-1.467-.8-.546-1.733-.88-2.653-1.173-1.014-.333-2.547-.773-2.907-.907-.413-.133-1.053-.36-1.253-.453"/></svg>