<svg xmlns="http://www.w3.org/2000/svg" viewBox="0 0 100 100"><path fill="#FFF" d="M35.5 72.9h.9v2.5h-.9c0-.4-.6-1.7-3.2-1.8-2.6-.1-2.9 1.2-2 1.5 1.2.4 3.4.3 4.8.8 1.8.6 2.4 2.7.8 3.8-1.5 1-4 .9-5.8.2-.3-.1-.9-.4-.8 0v.2h-1.1v-2.7h1c0 .2-.1.8 1 1.4 1.3.7 3.6.8 4.5.2.6-.3.6-1.3-.4-1.4-1.1-.1-2.8-.3-4-.5-.9-.2-1.6-.5-2-1-.3-.4-.8-2.1 1-2.9 2.2-1 5.3-.3 5.9.2.2 0 .4 0 .3-.5m11.1 3.6c0 1.9-1.3 2.9-2.9 2.9-1.6.1-2.9-1.1-2.9-2.9 0-1.9 1.3-2.9 2.9-2.9 1.6 0 2.9 1 2.9 2.9m-2.9-4c-2.4 0-5.4 1.2-5.3 4.1 0 2.8 2.9 3.9 5.3 3.9s5-1.1 5.1-3.9c0-2.9-2.6-4.1-5.1-4.1m26.9 1.6c.1-.1.3-.3.5-.3h.9v-.9h-3.9v.9h.6c.2 0 .2.3.1.4l-1.6 2s-1.4-1.7-1.6-1.9c-.2-.2 0-.4.1-.4h.5V73h-4.7v.9h.8c.4 0 .7.2.8.4l2.8 3.1V79c0 .1 0 .2-.2.2h-1.1v.9h4.7v-.9h-1c-.2 0-.2 0-.2-.2v-1.6c-.2 0 2.3-3.1 2.5-3.3m-18.1 1l5.5 5h1.3v-5.8c0-.2.1-.4.3-.4h1V73h-4v.9h.9c.2 0 .4 0 .4.5v3l-4.7-4.5h-3.5v1h.9c.5 0 .5.3.5.5v4.4c0 .2-.1.4-.4.4h-.9v.9h4.1v-.9H53c-.2 0-.4 0-.4-.4v-3.7zm-22.6 8.2h1.5c.5 0 .8.2.8.7 0 .5-.3.7-.9.7h-1.4v-1.4zm.7 3.8v-.6h-.5c-.2 0-.2-.1-.2-.2v-1.1h1.5c1.4 0 1.9-.4 1.9-1.3s-.4-1.2-1.6-1.2h-3.6v.6h.5c.2 0 .2.1.2.3v2.8c0 .2 0 .2-.2.2h-.5v.6h2.5zm5.2-3.6c0-.2 0-.3.2-.3h.5v-.6H34v.6h.5c.2 0 .2.1.2.3v2.8c0 .2 0 .2-.2.2H34v.6h2.5v-.6H36c-.2 0-.2-.1-.2-.2v-2.8zm5.8 2.3c-.2.9-1.1 1-1.7 1-.9 0-1.8-.7-1.8-1.8 0-1 .5-1.8 1.5-1.9 1-.1 1.9.4 1.9 1.2h.5v-1.5h-.5c0 .3-.1.3-.2.2-.2-.2-.9-.4-1.6-.5-1.3 0-2.8.7-2.8 2.5s1.6 2.4 2.9 2.4c1.4 0 2.1-.9 2.2-1.6h-.4zm1.7-1.4c0-1.2.1-1.1.5-1.1h1v3.1c0 .2 0 .3-.2.3h-.5v.5h2.5v-.5h-.5c-.2 0-.2-.1-.2-.3v-3.1h1c.4 0 .5-.1.5 1.1h.5v-1.7h-5.1v1.7h.5zm8 2.9c1 0 2-.3 2-1.6v-2c0-.3.1-.5.2-.5h.5v-.6h-2.1v.6h.5c.2 0 .2.1.2.3v2.2c0 .5-.1 1-1.3 1-1.1 0-1-.9-1-1v-2.2c0-.2 0-.3.2-.3h.5v-.6h-2.5v.6h.5c.2 0 .2.1.2.3v2.2c0 1.4 1.1 1.6 2.1 1.6m5.1-4h1.4c.4 0 .8.3.8.7 0 .4-.3.7-.8.7h-1.4v-1.4zm2.3 1.7c.5-.1 1.1-.3 1.1-1 0-.8-.4-1.2-1.7-1.2h-3.5v.5h.5c.2 0 .2.1.2.3v2.8c0 .2 0 .2-.2.2h-.5v.6h2.5v-.6h-.5c-.2 0-.2-.1-.2-.2v-1.1h1.2c.5 0 .7.2.7.5v.5c0 .9.5 1.1 1.1 1.1.7 0 .9-.2.9-1v-.3h-.5v.3c0 .2 0 .5-.2.5s-.2-.2-.2-.3V86c.1-.8-.2-.9-.7-1m4 .2h1.1c.1 0 .2 0 .2.3v.5h.5v-2.1H64v.5c0 .2-.1.3-.2.3h-1.1v-1.3H65c.4 0 .5.3.5 1.1h.5v-1.7h-5.1v.6h.5c.2 0 .2.1.2.3v2.8c0 .2 0 .2-.2.2h-.5v.6H66v-1.7h-.5c0 .9-.1 1.1-.5 1.1h-2.3v-1.5zm8.3-2.5c0 .3-.1.3-.2.2-.6-.4-1.9-.7-3.1-.1-1 .5-.7 1.5-.5 1.7.2.3.6.5 1 .6.7.2 1.5.2 2.1.3.6.1.5.7.2.9-.7.4-1.5.4-2.4-.2-.6-.4-.5-.7-.5-.8h-.5v1.6h.6v.1c0-.2.3-.1.4 0 .9.4 2.3.5 3-.1.9-.7.6-1.9-.4-2.3-.7-.3-1.9-.2-2.5-.5-.5-.3-.3-1 1-1 1.4 0 1.7.9 1.7 1.1h.5v-1.5H71M29.1 32.9l-.9.4v35.9l.9-.4V32.9zm4.2-2l-.9.4v35.9l.9-.4V30.9zm8.3 5.9c-1 5.3-1.2 5.5-1.3 8.1-.1 2 .2 3.5.5 5.2.3 1.5.6 3.1.6 3.1v9.6l1.1-.6v-9.6s.9-5.1 1.1-8.1c.2-3.5-1-7.3-1-8.2V26.2l-1 .4v10.2m-4.7-7.7v15.6c0 .4-.7 1.4-.9 2-.2.6-.4 1.4.6 2.2.3.2.2 1 .3 1.6v14.6l1-.4V49.1c0-.5 1.5-1.8 1-3.2-.2-.5-.8-1-.8-1.1-.1-.7-.2-15.9-.2-15.9l-1 .2zm9.2 4.1c-1.1 6.1-1.5 8.3-1.3 11.2.2 3 .4 4.5 1 7.7.2 1.6.3 2.7.3 2.7v5.9l1-.5V55c0-.2 0-.6.1-1.3.2-2.2.9-6.6 1.1-10.2.3-4.6-.7-9-.9-11.2-.1-1.2-.2-2.7-.1-8.2l-1.1.5c.1 0 .3 6-.1 8.6m5-9.9c-.6 4.6-1.6 10.2-1.7 17-.1 7.5 1.4 16.5 1.4 16.5l.2 1.4 1.2-.6.2-2.3c.9-8.3 1.1-9.2 1.2-16.1.1-5.7-.9-11.9-1.3-16.3-.1-.6 0-1.3 0-1.3l-1.1.5c-.1.1-.1.3-.1 1.2m4.3-1c-.9 8.8-1 14-1 16-.1 6.8 1.1 16.4 1.1 16.4l.1 1.4 2-1 .1-2.1s.5-5 .6-15.7c.1-5.7-.9-15.2-1-16.5-.1-.6-.1-1.4-.1-1.4l-1.6.7s-.1 1-.2 2.2m4.6-2.1c-.8 8.5-.8 14.1-.8 16.1-.1 6.8.9 16.3.9 16.3l.1 1.3 2.2-1.1.2-2.1s.5-4.9.7-15.6c.1-5.5-.8-15.2-.9-16.2 0-.6-.1-1.8-.1-1.8l-2.1.9c0-.1-.1.9-.2 2.2m4.8-2.2c-.7 9.2-.8 13.9-.8 15.9-.1 6.8.9 16.3.9 16.3l.1 1.3 2.4-1.1.1-2.1s.4-4.5.5-15.2c.1-6.4-.9-16.2-.9-16.5 0-.7-.1-1.9-.1-1.9l-2.1 1c.1-.1 0 1-.1 2.3m4.7-1.9c-.6 9.2-.7 13.1-.7 16 0 7.3.8 15.8.8 15.8l.1 1.4 2.1-1v-36l-2.2 1.1c.1 0 0 1.4-.1 2.7"/></svg>