<svg xmlns="http://www.w3.org/2000/svg" viewBox="0 0 100 100"><path fill="#FFF" d="M78.2 36.5c-2-2-4.9-3-7.7-3.1a13 13 0 0 0-8 2.3c-2 1.5-3.5 3.5-4.6 5.7a15.5 15.5 0 0 0-4.3-3c-1.5-.6-3.4-.9-5-.2a3.8 3.8 0 0 0-1.7 1.5c-.4.7-.5 1.5-.4 2.3 0 .7.4 1.4 1 2 .5.5 1.2.9 2 1.2l2.6.8 2.4.9c1.6.6 3.2 1.4 4.4 2.5a11 11 0 0 1 2.8 9.3c-.1 1-.3 1.8-.7 2.7l-.2.6v.2l.2.3.9.8c1 .9 2.4 1.6 3.7 2.1 2.7 1 5.7 1.2 8.5.3 1.5-.6 3-1.4 4-2.6v2.7h9.4v-32h-9.3v2.7zM72 57.8a6 6 0 0 1-4-1.5c-1.1-1-2-2.4-2.3-3.9a9 9 0 0 1 2-8.8 6 6 0 0 1 8.2-.3c2 1.7 3 4.5 2.8 7A8.2 8.2 0 0 1 75 57a6 6 0 0 1-3.1 1m-28.5-5.3l-1.3-.5-2.2-1.4a9 9 0 0 1-2.7-4 12.5 12.5 0 0 1 .8-10 11.9 11.9 0 0 1 2.7-3.2h-9.4v16.8c0 1 0 1.8-.2 2.7-.2 1.7-.7 3.5-2.2 4.4-.8.4-1.6.5-2.5.5a4 4 0 0 1-2.3-.8c-1.4-1-1.8-2.8-2-4.4V33.5h-9.7v17.1c0 2 0 3.9.4 5.8a13 13 0 0 0 2 4.7 10.8 10.8 0 0 0 3.6 3.2c1.5 1 3.3 1.4 5 1.7 1.8.2 3.6.3 5.3.1 1.7-.1 3.4-.5 5-1.1 1.5-.7 2.8-1.5 4-2.7a11.6 11.6 0 0 0 2.3-4V58c1.2 1.1 2.5 2.2 4 3 1.3.6 3 1 4.6.8a4 4 0 0 0 2.1-1 3.6 3.6 0 0 0 1-2c.2-.7.1-1.5-.2-2.2-.3-.6-.7-1-1.3-1.4a10 10 0 0 0-2.6-1.2l-3-1c-.4 0-1-.3-1.2-.4"/></svg>