<svg xmlns="http://www.w3.org/2000/svg" viewBox="0 0 100 100"><path fill="#FFF" d="M78.4 63.2v.2-.2l-3-8.3h-1.7l3.8 10.7v.1c-.2 1-.9 2.3-1.5 2.7-.5.4-1.1.4-1.5.4l-.8-.1V70l1.1.2c.8 0 1.5-.2 2-.6.7-.5 1.4-1.8 1.8-2.9L82.4 55h-1.7l-2.3 8.2zm-5.8-2.6v-1c0-1.8-.5-3.1-1.3-3.9-.7-.7-1.8-1-3.2-1-.7 0-1.4.1-1.9.4-.6.3-1.1.6-1.5 1.1-.8 1-1.2 2.4-1.2 4.1 0 1.9.5 3.4 1.5 4.4 1.1 1 2.4 1.2 3.3 1.2 2.4 0 3.6-1.3 4.1-2.5l-1.4-.7c-.3.7-1.1 1.8-2.7 1.8-1 0-1.8-.4-2.3-1.1-.5-.7-.8-1.7-.8-2.8h7.4zM71 59.3h-5.7c.1-2.2 1.1-3.2 2.9-3.2 1.9-.1 2.8 1 2.8 3.2zM40.6 34.8c-.8-1.1-2-1.6-3.5-1.6-1.4 0-2.6.6-3.5 1.6-.8 1-1.2 2.4-1.2 4s.4 3 1.2 4c.8 1.1 2 1.6 3.5 1.6 1.4 0 2.6-.6 3.5-1.6.8-1 1.2-2.4 1.2-4s-.4-3-1.2-4zM37.1 43c-1.8 0-2.9-1.6-2.9-4.3 0-2.7 1.1-4.3 2.9-4.3 1.8 0 2.9 1.6 2.9 4.3 0 2.7-1 4.3-2.9 4.3zm8.5-4.9c.4-2.2 1.6-3.3 3.6-3.3v-1.6c-1.7 0-2.7.7-3.6 2.2v-2.1h-1.7v10.8h1.7v-6zm-25 16.5c0-.7.2-1.3.7-1.7a3 3 0 0 1 2-.6c.9 0 1.7.3 2.3.7.6.4 1 1.1 1.1 1.8l1.6-.2c-.7-2.4-2.4-3.8-5-3.8-1.3 0-2.4.4-3.2 1.1-.8.7-1.2 1.7-1.2 2.7 0 1.2.5 2.1 1.4 2.8.9.6 2 1 3.1 1.4 1.9.7 3.7 1.3 3.7 3 0 .8-.3 1.4-.8 1.9s-1.3.7-2.4.7c-1.8 0-3.1-1-3.9-3l-1.6.6a7 7 0 0 0 1.8 2.7c.9.8 2.1 1.3 3.6 1.3 1.7 0 3.1-.5 3.9-1.4.9-.9 1.1-2.1 1.1-3 0-1.2-.5-2.1-1.5-2.9-.9-.6-2.1-1-3.2-1.4-1.8-.6-3.6-1.2-3.5-2.7zm10.9 1.6h-1.6v-1.3h1.6v-3.5h1.7v3.5H35v1.3h-1.8v7.4c0 .5.1.9 1.2.9h.6v1.2l-1.1.2c-.8 0-1.3-.1-1.7-.4-.4-.2-.7-.6-.7-1.3v-8zm29.1 7.4c0 .5.2.9 1.3.9h.6v1.2l-1.1.2c-.8 0-1.3-.1-1.7-.4-.4-.2-.7-.6-.7-1.3V50.7h1.7l-.1 12.9zm13.2-27.4c.6-.6 1.9-1.7 3-1.7 1.2 0 1.7.6 1.7 1.9v7.8h1.7v-7.8c0-2.3-1.7-3.2-3.2-3.2-1.1 0-2.2.6-3.2 1.7v-1.4h-1.7v10.8h1.7v-8.1zm-6.2 6.7c0 .6.3.9.7 1.2.4.2 1.2.2 1.5.1V43c-.4 0-.6-.2-.6-.7v-5.9a3 3 0 0 0-1.2-2.5c-.7-.5-1.6-.7-2.6-.7a4.3 4.3 0 0 0-4 2.3l1.4.7c.2-.5.9-1.7 2.7-1.7 1.4 0 2.2.6 2.2 1.9v.6l-.6.2c-2 .2-3.4.6-4.3 1.2a3.3 3.3 0 0 0-1.7 3c0 .9.5 1.7 1.1 2.3.6.5 1.3.8 2.2.8 1.4 0 2.6-.8 3.2-1.6zm0-1.9c-.1.9-1.8 2.1-3.3 2-.8 0-1.6-.7-1.7-1.7-.1-1.8 1.2-2.5 4.1-2.8l.8-.2V41zM43.3 64.4c0 .6.3.9.7 1.2.4.2 1.2.2 1.5.1v-1.1c-.4 0-.6-.2-.6-.7V58a3 3 0 0 0-1.2-2.5c-.7-.5-1.6-.7-2.6-.7a4.3 4.3 0 0 0-4 2.3l1.4.7c.2-.5.9-1.7 2.7-1.7 1.4 0 2.2.6 2.2 1.9v.6l-.6.2c-2 .2-3.3.6-4.3 1.2a3.3 3.3 0 0 0-1.7 3c0 .9.5 1.7 1.1 2.3.6.5 1.3.8 2.2.8 1.5-.1 2.7-.8 3.2-1.7zm0-1.8c-.1.9-1.8 2.1-3.3 2-.8 0-1.6-.7-1.7-1.7-.1-1.8 1.2-2.5 4.1-2.8l.8-.2v2.7zM23.9 41.3l-3.6-11.8h-2.8v14.7h1.7V30.8l4 13.4h1.3l4-13.4v13.4h1.7V29.5h-2.8l-3.5 11.8zm25.6 16.4c.6-.6 1.9-1.7 3-1.7 1.2 0 1.7.6 1.7 1.9v7.8h1.7v-7.8c0-2.3-1.7-3.2-3.2-3.2-1.1 0-2.2.6-3.2 1.7V55h-1.7v10.8h1.7v-8.1zm8-24.3l-.4 1.1a3.1 3.1 0 0 0-2.7-1.3c-1.9 0-4.6 1.3-4.6 5.6 0 4.2 2.7 5.6 4.5 5.6 1.1 0 2-.6 2.7-1.4h.1v2.1c0 1.4-1.2 2.3-2.6 2.3-1.3 0-2.4-.2-3.4-.7V48c.8.3 2.1.6 3.2.6 3 0 4.4-1.7 4.4-4V33.4h-1.2zm-.4 7.6a3 3 0 0 1-2.6 2c-1.7 0-3-1.1-3-4.3 0-2.7 1.1-4.2 3-4.2 1 0 1.8.4 2.6 1.4V41z"/></svg>