<svg xmlns="http://www.w3.org/2000/svg" viewBox="0 0 100 100"><path stroke="none" d="M78.133 36.48c-2-2-4.8-3.067-7.6-3.067-2.8-.133-5.6.667-8 2.4-2 1.467-3.6 3.467-4.666 5.6-1.334-1.2-2.667-2.266-4.267-2.933-1.467-.667-3.333-.933-4.933-.267-.667.267-1.334.8-1.734 1.467-.4.667-.533 1.467-.533 2.267.133.8.4 1.466.933 2 .534.533 1.334.933 2 1.2.8.4 1.734.533 2.534.8.8.266 1.6.533 2.533.8 1.6.533 3.067 1.333 4.4 2.533 2.4 2.4 3.2 6 2.8 9.333-.133.934-.4 1.867-.667 2.667-.133.267-.133.4-.266.667v.133s.133.267.266.267c.267.266.534.533.934.8 1.066.933 2.4 1.6 3.733 2.133 2.667 1.067 5.733 1.2 8.4.267 1.467-.534 2.933-1.334 4.133-2.534v2.667h9.334v-32h-9.334v2.8zM72 57.813a5.34 5.34 0 0 1-3.867-1.6c-1.2-1.066-2-2.4-2.4-3.866-.933-3.067-.133-6.534 2.134-8.8 1.066-1.067 2.533-1.734 4-1.734 1.466 0 2.933.534 4.133 1.467 2 1.733 2.933 4.4 2.8 7.067-.133 2.533-1.333 5.2-3.6 6.533-1.067.667-2.133.933-3.2.933m-28.533-5.2c-.4-.133-.934-.4-1.334-.533-.8-.4-1.6-.8-2.266-1.467-1.2-1.066-2.134-2.4-2.667-4-.533-1.6-.8-3.333-.667-4.933.134-1.733.534-3.467 1.467-5.067.667-1.2 1.6-2.266 2.667-3.2h-9.334v16.8c0 .934 0 1.867-.133 2.8-.267 1.6-.667 3.467-2.267 4.4-.8.4-1.6.534-2.4.534-.8 0-1.733-.267-2.4-.8-1.333-1.067-1.733-2.934-1.866-4.4-.134-.934-.134-1.734-.134-2.667V33.547h-9.6v17.066c0 1.867 0 3.867.4 5.734.4 1.6.934 3.333 1.867 4.666.933 1.334 2.133 2.534 3.6 3.334 1.6.933 3.333 1.333 5.067 1.6 1.733.266 3.6.266 5.333.133a15.733 15.733 0 0 0 4.933-1.2c1.467-.667 2.8-1.467 4-2.667a13.277 13.277 0 0 0 2.4-3.866c0-.134.134-.267.134-.4 1.2 1.066 2.4 2.133 3.866 2.933 1.467.667 3.067 1.2 4.667.933.8-.133 1.6-.533 2.133-1.066.534-.534.934-1.2 1.067-2 .133-.667 0-1.467-.267-2.134-.266-.666-.8-1.066-1.333-1.466-.8-.534-1.733-.934-2.667-1.2-1.066-.267-2.533-.8-2.933-.934-.4 0-1.067-.266-1.333-.4"/></svg>