<svg xmlns="http://www.w3.org/2000/svg" viewBox="0 0 100 100"><path stroke="none" d="M7.496 37.053v2.752h8.483c.98 0 1.47.189 1.96.679.378.49.378.679.378 2.45v14.214c0 2.677-.49 3.167-2.866 3.167h-2.375V42.558H7.46v20.81h10.443c2.45 0 3.167-.188 4.336-1.394 1.093-1.094 1.281-1.885 1.281-4.94V42.144c0-1.885-.188-2.564-.98-3.544-.98-1.093-2.262-1.584-4.034-1.584H7.496v.038zm17.758 26.353h5.24V49.985c0-.98 0-1.282.189-1.584.301-.678 1.093-1.093 2.073-1.093.905 0 1.47.188 2.187.678v-3.958c-5.806.113-7.691.49-9.652 2.073v17.305zm13.685-27.031c-1.659 0-2.94 1.281-2.94 2.865 0 1.659 1.281 2.94 2.94 2.94 1.584 0 2.865-1.281 2.865-2.94a2.864 2.864 0 0 0-2.865-2.865zm7.012 0c-1.658 0-2.94 1.281-2.94 2.865 0 1.659 1.282 2.94 2.94 2.94 1.584 0 2.866-1.281 2.866-2.94a2.864 2.864 0 0 0-2.866-2.865zm-2.148 14.703h-4.525c-1.772 0-2.563.188-3.468 1.093-.98.792-1.47 1.96-1.47 3.544v3.054c0 1.395.301 2.375 1.093 3.242.98 1.094 1.885 1.395 3.958 1.395h9.765V48.703c0-1.282-.377-2.375-1.282-3.242-1.093-1.094-1.96-1.395-3.958-1.395h-7.918v3.958c1.96-.792 3.243-1.093 5.015-1.093 1.885 0 2.752.603 2.752 1.885v2.262zm0 9.274H41.54c-.904 0-1.583-.301-1.96-.98-.189-.301-.189-.377-.189-1.282v-1.772c0-1.47.68-2.186 2.187-2.186h2.262v6.22zM64.802 44.18h-9.274c-1.772 0-2.451.188-3.469.98-.98.905-1.47 2.187-1.47 3.657v2.865c0 1.169.377 2.375 1.168 3.242.98 1.094 1.772 1.395 3.733 1.395h4.222c1.885 0 2.677-.301 3.544-.98.98-.905 1.47-2.073 1.47-3.657V44.18zm-9.274 4.9c0-1.281.791-2.073 2.262-2.073 1.47 0 2.262.792 2.262 2.074v2.262c0 1.282-.905 2.073-2.262 2.073-1.47 0-2.262-.791-2.262-2.073V49.08zm9.651 12.63c0-1.47-.302-2.45-1.093-3.355-.98-1.093-2.074-1.395-4.147-1.395h-4.336c-1.96 0-2.752.189-3.732.98-.98.905-1.584 2.263-1.584 3.733v2.865c0 1.395.49 2.564 1.282 3.356.98 1.093 1.885 1.395 4.034 1.395h4.336c1.885 0 2.752-.189 3.732-.98.98-.905 1.47-1.961 1.47-3.733V61.71h.038zm-9.651.49c0-1.47.678-2.261 2.186-2.261 1.47 0 2.262.791 2.262 2.262v2.186c0 1.282-.791 2.074-2.186 2.074-1.47 0-2.262-.792-2.262-2.074V62.2zm25.636-5.918v-7.503c0-3.167-1.659-4.637-5.24-4.637h-4.336c-1.885 0-2.677.188-3.657.98a4.917 4.917 0 0 0-1.583 3.657v9.953c0 1.395.377 2.375 1.282 3.356.98.98 1.885 1.282 3.958 1.282h9.463v-3.96c-2.677.793-4.222.981-6.22.981-2.263 0-3.243-.49-3.243-1.772v-2.375h9.576v.038zm-9.576-3.054v-3.959c0-1.47.679-2.262 2.187-2.262 1.395 0 2.187.792 2.187 2.187v4.034h-4.374zm11.235 10.18h5.24V49.984c0-.98 0-1.282.19-1.584.3-.678 1.092-1.093 2.073-1.093.904 0 1.47.188 2.186.678v-3.958c-5.806.113-7.69.49-9.651 2.073v17.305z"/></svg>