<svg xmlns="http://www.w3.org/2000/svg" viewBox="0 0 100 100"><path fill="#FFF" d="M75 27.2c0-1.4-1.1-2.5-2.5-2.5h-45c-1.4 0-2.5 1.1-2.5 2.5v45.3c0 1.4 1.1 2.5 2.5 2.5h45.1c1.4 0 2.5-1.1 2.5-2.5L75 27.2zm-8.2 40.1s-.1.8-.5.8c0 0-.1.2-3.7 0 0 0-.8-.2-3.6 0 0 0 .6-.2.7-1.8 0 0 .2-4.6.1-9.8 0 0 0-.8-.5-.8 0 0-.5.1-.8-.4 0 0-1.6-3.2-2.6-5.7-.1-.3-.2-.6-.3-.8 0 0-.2-.3.2-.2 0 0 1.1 0 1.7-.6 0 0 .9-.9.7-2.1 0 0 0-1-1.1-1.3 0 0-.9-.3-2.3 0 0 0-.5.1-.5.7v9.6s-.2 1 1 .9h1.6s.5-.1.4.4l-.2 1.2s0-.2-.7-.2c0 0-.6-.2-3.3-.1 0 0-.6 0-.7.4V61h2.7s1.7 0 1.9-.1l-.3 1.8s-.2-.2-.8-.2c0 0-.8-.2-3.6 0v4.1s0 1.4.6 1.5c0 0-1.4-.2-3.6 0 0 0 .7-.2.8-1.3 0 0 .3-4.8.2-9.3 0 0 .1-1.8-.6-2.1h1.1s.9.2 1-1.8c0 0 .2-1.8.2-4.1 0-1.3 0-2.6-.2-3.9 0 0 0-2-1.3-2.1H46s1.8.5 2.6 1.6c0 0 1.3 1.4 1.3 4.1v.4c0 1 0 3.5-1.3 4.8 0 0-.3.7-2.4 1.3 0 0-.9.3-.9 1.8 0 0-.1 4.4 0 9.8 0 0 0 .7.8 1 0 0-1.4-.3-3.9-.1 0 0 .6 0 .7-.9 0 0 .3-.8.4-5.5v-4.4s0-1.5-.9-1.8c0 0-1.7-.3-2.5-1.2 0 0-1.1-.8-1.2-4.3v-.5c0-.8 0-2.4.7-3.7 0 0 .7-1.9 3.1-2.3 0 0-.8-1.5-6.3-9.8v8.6s.1.9 1.1 1h2.5s-.5.1-3.6 5.6c0 0-.2.2-.4.6-.3.6-.8 1.5-.7 2.1v2.9s0 .7 1.1.9h2.1c-1.2.1-1.2 1.1-1.2 1.1-.2 4.4-.1 9.7-.1 9.7 0 .6.9.7.9.7s2 .1 2.7 0c0 0 .8-.1 1.2-.7l-.3 1.5s0 .3-.5.5c0 0-.3.2-2.4 0 0 0-2-.2-4.4 0 0 0 .9-.3.9-2.1 0 0 .1-3.8 0-8.5 0 0 0-1.9-1.3-1.8h-1.7s1-.3 1.1-1.5v-2.7s.1-.8-.5-2c-.1-.1-.1-.2-.2-.3L31.2 47s-2.6-3.5-4.1-3.7h3s1 0 2.9 2.9l2 2.8 2.2-3.8s.8-1.6-.4-1.7h-2.9s1 0 1.1-1c0 0 .3-5.5.1-9.5 0 0 0-1.4-.6-1.8H38s-.1.7 1 2.4l4.8 7.6v-8.1s.1-1.8-.7-1.9c0 0 1.4.1 8.8 0 0 0 .5-.1.8.9 0 0 .7 2.4 3.1 7.1 0 0 1-2.6 2.3-6.9 0 0 .3-.9-.2-1 0 0 1 .2 2.6 0 0 0-.1.4 1.1 3.6.7 1.7 1.3 3.3 2 5 0 0 1.1-2.7 2.3-7 0 0 .5-1.2-.2-1.5 0 0 .8.1 2.6 0 0 0-.5.2-4.4 12.2h1s-.5.1-.5.9V55s0 .8.7.7h1s.7 0 .6.2l-.3 1.4s-.2-.3-.8-.3c0 0-.6-.2-3.2-.1 0 0-.6 0-.6.5v3.4h2.5c1.7 0 1.9-.1 1.9-.1l-.2 1.7s-.2-.2-.8-.2c0 0-.6-.1-3.2 0V66s0 .6.9.7c0 0 .8.2 2.4 0 0 0 1.6.1 1.9-.9l-.4 1.5zm3.1-11.6c-.5.1-.9-.5-.9-.5-4.1-6.4-4.4-6.4-4.4-6.4 2.8-3.3 4.4-5.1 4.4-5.1.4-.4 1-.4 1-.4h1.7c-.5.2-1.5 1.2-1.5 1.2-1.7 1.6-3.5 3.7-3.5 3.7 4.5 7 5.5 7.4 5.5 7.4h-2.3zm-22.6-10s.7 1 .8 3.4c0 0 .1 2.8-.6 4.3 0 0-.7 1.8-3 1.7 0 0-1.5 0-2.5-1.6 0 0-.8-1.2-.6-4.4 0 0 0-2.4.6-3.4 0 0 .9-1.5 2.8-1.4 0 0 1.6-.1 2.5 1.4zm7-4.7c.6 1.6.5 1.9.5 1.9 0 .3-.3.3-.3.3h-2.7c.2-2.2.2-2.5.2-2.5-.5.8-.8.9-.8.9-.8.5-4.2.4-4.2.4-1 0-1.1-.8-1.1-.8v-3.5c0-.1.2-.1.2-.1 3.7-.1 3.8.2 3.8.2l.2-1.8c-.2.1-.5.1-.7.2-2.1.1-3.5 0-3.5 0v-2.7c0-1.1.8-1.1.8-1.1 2.4-.1 2.8 0 2.8 0 1 0 1.4 1 1.4 1 2.3 4.6 3.4 7.6 3.4 7.6zm6.4 13.5s-1.5-2.2-3.1-5.6c0 0 1.1-.1 1.9-.8 0 0 .9-.6.9-2.2 0 0-.1-1.6-1.4-2.2 0 0-.5-.4-2.7-.3 0 0 .1-.5.2-.9.8-2.8 1.7-5.6 2.7-8.4 0 0 1.2 2.6 3.2 8.5 0 0 .2.3.2.8h-.9s.6.1.7 1.9c0 0 .3 4.6 0 9.9 0 0 0 .6-.2.6-.1-.2-.6.1-1.5-1.3z"/></svg>