<svg xmlns="http://www.w3.org/2000/svg" viewBox="0 0 100 100"><path stroke="none" d="M80.8 54.9h1.7l-3.8 11.7c-.4 1.1-1.1 2.4-1.8 2.9-.6.4-1.2.6-2 .6-.3 0-.9-.1-1.1-.2v-1.3c.2 0 .6.1.8.1.4 0 1 0 1.5-.4.6-.4 1.2-1.7 1.5-2.7v-.1l-3.8-10.7h1.7l2.9 8.3v.2-.2l2.4-8.2zm-15.5 5.7c0 1.2.3 2.1.8 2.8.6.7 1.4 1.1 2.3 1.1 1.7 0 2.4-1.1 2.7-1.8l1.4.7c-.5 1.2-1.7 2.5-4.1 2.5-.9 0-2.3-.2-3.3-1.2s-1.5-2.4-1.5-4.4c0-1.7.4-3.1 1.2-4.1.4-.5.9-.9 1.5-1.1.6-.3 1.2-.4 1.9-.4 1.4 0 2.4.3 3.2 1 .9.8 1.3 2.1 1.3 3.9v1h-7.4zm2.9-4.6c-1.8 0-2.7 1-2.9 3.2H71c0-2.1-.9-3.2-2.8-3.2zM41.8 38.8c0 1.6-.4 3-1.2 4-.8 1.1-2 1.6-3.5 1.6-1.4 0-2.6-.6-3.5-1.6-.8-1-1.2-2.4-1.2-4s.4-3 1.2-4c.8-1.1 2-1.6 3.5-1.6 1.4 0 2.6.6 3.5 1.6.8 1 1.2 2.4 1.2 4zm-1.8 0c0-2.7-1.1-4.3-2.9-4.3-1.8 0-2.9 1.6-2.9 4.3 0 2.7 1.1 4.3 2.9 4.3C39 43 40 41.4 40 38.8zm5.6-.7c.4-2.2 1.6-3.3 3.6-3.3v-1.6c-1.7 0-2.7.7-3.6 2.2v-2.1h-1.7v10.8h1.7v-6zm-25 16.5c0-.7.2-1.3.7-1.7.5-.4 1.1-.6 2-.6.9 0 1.7.3 2.3.7.6.4 1 1.1 1.1 1.8l1.6-.2c-.7-2.4-2.4-3.8-5-3.8-1.3 0-2.4.4-3.2 1.1-.8.7-1.2 1.7-1.2 2.7 0 1.2.5 2.1 1.4 2.8.9.6 2 1 3.1 1.4 1.9.7 3.7 1.3 3.7 3 0 .8-.3 1.4-.8 1.9s-1.3.7-2.4.7c-1.8 0-3.1-1-3.9-3l-1.6.6c.3.8.9 1.9 1.8 2.7.9.8 2.1 1.3 3.6 1.3 1.7 0 3.1-.5 3.9-1.4.9-.9 1.1-2.1 1.1-3 0-1.2-.5-2.1-1.5-2.9-.9-.6-2.1-1-3.2-1.4-1.8-.6-3.6-1.2-3.5-2.7zm10.9 9.6c0 .7.3 1.1.7 1.3.4.3 1 .4 1.7.4.5 0 1.1-.2 1.1-.2v-1.2h-.6c-1.1 0-1.2-.5-1.2-.9v-7.4H35v-1.3h-1.8v-3.5h-1.7v3.5h-1.6v1.3h1.6v8zm29.1-13.5h-1.7v13.5c0 .7.3 1.1.7 1.3.4.3 1 .4 1.7.4.5 0 1.1-.2 1.1-.2v-1.2h-.6c-1.1 0-1.3-.5-1.3-.9l.1-12.9zm13.2-14.5c.6-.6 1.9-1.7 3-1.7 1.2 0 1.7.6 1.7 1.9v7.8h1.7v-7.8c0-2.3-1.7-3.2-3.2-3.2-1.1 0-2.2.6-3.2 1.7v-1.4h-1.7v10.8h1.7v-8.1zm-9.7 8.2c-.8 0-1.6-.3-2.2-.8-.6-.6-1.1-1.4-1.1-2.3 0-1.3.7-2.3 1.7-3 1-.6 2.3-1 4.3-1.2.4 0 .5-.1.6-.2V36.3c0-1.3-.7-1.9-2.2-1.9-1.8 0-2.5 1.2-2.7 1.7l-1.4-.7c.5-.9 1.6-2.3 4-2.3 1 0 1.9.3 2.6.7.8.6 1.2 1.4 1.2 2.5v5.9c0 .5.2.6.6.7V44c-.3.1-1 .1-1.5-.1s-.7-.6-.7-1.2c-.3 1-1.5 1.8-3.2 1.7zm3.5-6.1c-.2.1-.6.2-.8.2-2.9.3-4.3 1.1-4.1 2.8.1 1 .9 1.7 1.7 1.7 1.4.1 3.2-1.1 3.3-2v-2.7zM39.8 66c-.8 0-1.6-.3-2.2-.8-.6-.6-1.1-1.4-1.1-2.3 0-1.3.7-2.3 1.7-3 1-.6 2.3-1 4.3-1.2.4 0 .5-.1.6-.2V57.9c0-1.3-.7-1.9-2.2-1.9-1.8 0-2.5 1.2-2.7 1.7l-1.4-.7c.5-.9 1.6-2.3 4-2.3 1 0 1.9.3 2.6.7.8.6 1.2 1.4 1.2 2.5v5.9c0 .5.2.6.6.7v1.1c-.3.1-1 .1-1.5-.1s-.7-.6-.7-1.2c-.2 1-1.4 1.7-3.2 1.7zm3.5-6.1c-.2.1-.6.2-.8.2-2.9.3-4.3 1.1-4.1 2.8.1 1 .9 1.7 1.7 1.7 1.4.1 3.2-1.1 3.3-2v-2.7zM23.9 41.3l-3.6-11.8h-2.8v14.7h1.7V30.8l4 13.4h1.3l4-13.4v13.4h1.7V29.5h-2.8l-3.5 11.8zm25.6 16.4c.6-.6 1.9-1.7 3-1.7 1.2 0 1.7.6 1.7 1.9v7.8h1.7v-7.8c0-2.3-1.7-3.2-3.2-3.2-1.1 0-2.2.6-3.2 1.7V55h-1.7v10.8h1.7v-8.1zm9.3-24.3v11.2c0 2.4-1.4 4-4.4 4-1.1 0-2.4-.2-3.2-.6v-1.5c.9.4 2.1.7 3.4.7 1.3 0 2.6-.9 2.6-2.3v-2.1h-.1c-.7.8-1.6 1.4-2.7 1.4-1.8 0-4.5-1.4-4.5-5.6 0-4.3 2.7-5.6 4.6-5.6 1.3 0 2.1.5 2.7 1.3l.4-1.1h1.2zm-1.7 2.5c-.8-1-1.6-1.4-2.6-1.4-1.9 0-3 1.4-3 4.2 0 3.3 1.2 4.3 3 4.3.9 0 2.1-.7 2.6-2v-5.1z"/></svg>