<svg xmlns="http://www.w3.org/2000/svg" viewBox="0 0 100 100"><g fill="#FFF"><path d="M79.4692 36.50969c-5.1 0-13 2.7-13 12.5s7.9 12.5 13 12.5 13-2.8 13-12.5-7.9-12.5-13-12.5zm-61.7.3l.9 2v20.8l5-3.5v-6.1h3c4.9 0 7.3 1.1 7.3 3.9 0 2.5-2 3.6-5.1 3.6h-4.7l-5.4 3.8h10.1c6.1 0 10.1-2.2 10.1-7.2 0-4.4-3.6-6.1-6.8-6.1 2.2 0 4.9-2 4.9-5.4 0-3.4-3.1-5.8-6.6-5.8H17.7692zm23.4 0l.9 2v20.8l5-3.5v-15.5h3.4c1.4 0 8.5.3 8.5 8.5 0 9.3-8.5 8.5-8.5 8.5h-2.9l-5.4 3.8h9.7c6.1 0 12.3-3.7 12.3-12.3 0-7.6-5.4-12.3-12.3-12.3h-10.7zm38.3 3.4c3.1 0 7.9 1.9 7.9 8.9s-4.8 8.9-7.9 8.9-7.9-2-7.9-8.9 4.8-8.9 7.9-8.9zm-55.8.4h5.2c1.4 0 3.2.3 3.2 2.8 0 2.4-2.6 3.4-4.5 3.4h-3.9v-6.2zM7.4692 36.80969v30.6l4.8-3.4v-27.2h-4.8zm5.8 28.3l-5.7 4h84.7v-4h-79z"/></g></svg>