<svg xmlns="http://www.w3.org/2000/svg" viewBox="0 0 100 100"><g fill="#FFF"><path d="M54 59.4a9.1 9.1 0 0 1-9.1-9 9 9 0 0 1 9-9.3 9 9 0 0 1 9.3 9.1c0 3.8-2.2 6-2.2 6 .9 1.1 1.8 1.6 3 1.6.2 0 .3.1.3.2v1.5l-.2.2c-4.1 0-4.4-3.2-6.7-3.9-.3 0-.4-.3 0-.5 0 0 .6-.4 1.3-.4l.7.1s2-1.8 2-4.9c0-3.9-3.4-7.2-7.2-7.2a7.3 7.3 0 0 0-7.3 7.2c0 4.4 3.7 7.3 7.3 7.3l1.7-.2c.7 0 1.3.5 1.7 1.1 0 .2 0 .3-.4.4-.1.2-1.3.7-3.2.7zM2.8 32.2a.3.3 0 0 0-.3.3v34.7c0 .2.1.3.3.3h34.7a.3.3 0 0 0 .3-.3V32.5a.3.3 0 0 0-.3-.3H2.8zM4 33.7h32.1V66H4.1V33.7z"/><path d="M20.2 58.5a8.9 8.9 0 1 1 8.9-8.9c0 3.6-2.2 5.7-2.2 5.7.7.8 1.4 1.5 2.7 1.5.2 0 .3 0 .3.2v1.7c0 .1-.1.2-.3.2-2 0-3.4-1.1-4.5-2.5a5.4 5.4 0 0 0-2-1.5c-.4 0-.4-.2-.2-.4a2 2 0 0 1 1.5-.6l.8.1a6.6 6.6 0 0 0 1.7-4.3 6.7 6.7 0 1 0-6.6 6.7h1c1 0 1.5.3 2 1.1.2.2.2.4-.1.5a9 9 0 0 1-3 .5zm52.3.6c0 .3.3.2.4 0l8.3-17.6-.1-.2h-1.8l-.3.3L72.7 55l-6.3-13.4c-.1-.2-.1-.3-.3-.3h-1.7c-.2 0-.2.1-.1.2l8.2 17.7zm18.9.3c-5 0-9.2-3.9-9.2-9.3a9 9 0 0 1 9-9c3.8 0 6 2.1 6 2.1.3.2.4.3.2.6l-1 1c-.1.1-.2.1-.4 0 0 0-1.8-1.8-4.7-1.8a7.4 7.4 0 0 0-7.2 7.2c0 4.2 3.5 7.3 7.3 7.3 2 0 3.3-.8 4.5-1.6.2-.2.3-.2.5 0l.9 1c.2.1.2.3 0 .4-1.3 1-3.3 2.1-6 2.1z"/></g></svg>