<svg xmlns="http://www.w3.org/2000/svg" viewBox="0 0 100 100"><path fill="#FFF" d="M53.974 59.408c-4.5 0-9.1-3.6-9.1-9.1 0-5.8 4.7-9.2 9.1-9.2 4.9 0 9.2 3.8 9.2 9.1 0 3.8-2.2 6-2.2 6 .9 1.1 1.8 1.6 3.1 1.6.1 0 .2.1.2.2v1.5c0 .1-.1.2-.2.2-4.1 0-4.4-3.2-6.7-3.9-.3-.1-.4-.3 0-.5 0 0 .6-.4 1.3-.4.3 0 .7.1.7.1s2-1.8 2-4.9c0-3.9-3.4-7.2-7.2-7.2-4.3 0-7.3 3.6-7.3 7.2 0 4.4 3.7 7.3 7.3 7.3.7 0 1.2-.2 1.7-.2.7 0 1.3.5 1.7 1.1.1.2 0 .3-.4.4-.1.2-1.3.7-3.2.7zm-16.4-27.2c.2 0 .3.1.3.3v34.8c0 .2-.1.3-.3.3h-34.8c-.2 0-.3-.1-.3-.3v-34.8c0-.2.1-.3.3-.3h34.8zm-33.5 33.7h32.2v-32.2h-32.2v32.2zm16.1-7.4c1.2 0 2.4-.3 3-.5.3-.1.3-.3.2-.5-.6-.8-1.2-1.2-2-1.2-.3 0-.8.1-1 .1-4.2 0-6.9-3.4-6.9-6.7 0-3.8 3.1-6.7 6.7-6.7 3.8 0 6.7 3.1 6.7 6.7 0 2-.9 3.5-1.7 4.4l-.8-.1c-.6 0-1.1.2-1.5.6-.2.2-.2.4.2.5.7.1 1.5.8 2 1.4 1.2 1.4 2.4 2.6 4.6 2.6.1 0 .2-.1.2-.2v-1.7c0-.2-.1-.2-.2-.2-1.3 0-2-.7-2.7-1.4 0 0 2.1-2.2 2.1-5.7 0-5.1-4.1-8.9-8.8-8.9-5.3 0-8.9 4.3-8.9 8.9-.1 4.6 4 8.6 8.8 8.6zm52.3.6c.1.3.3.2.4 0l8.3-17.6c.1-.1 0-.2-.1-.2h-1.8c-.1 0-.2.1-.3.3l-6.3 13.3-6.3-13.4c-.1-.2-.1-.3-.3-.3h-1.7c-.2 0-.2.1-.1.2l8.2 17.7zm18.9.3c2.6 0 4.6-1.2 5.8-2.1.2-.1.2-.3 0-.5l-.8-.9c-.2-.2-.3-.1-.5 0-1.2.8-2.4 1.6-4.5 1.6-3.7 0-7.3-3-7.3-7.3 0-4 3.4-7.2 7.2-7.2 2.9 0 4.7 1.7 4.7 1.7.1.1.3.2.5 0l.9-.9c.2-.2.1-.4-.1-.6 0 0-2.3-2.2-6-2.2-5 0-9.1 4-9.1 9.1 0 5.4 4.2 9.3 9.2 9.3z"/></svg>