<svg xmlns="http://www.w3.org/2000/svg" viewBox="0 0 100 100"><path fill="#FFF" d="M69.5 71.8c-.6-.2-.8-.6-.8-1.5 0-1 .1-1.1 1.2-1.1.7 0 1.5.2 1.7.5.6.7 1.1.4 1.1-.5 0-.6-.2-.7-1.5-.5-2.4.3-2.9-.5-2.9-3.9 0-4.1.3-4.4 4.4-4.4H76l-.2 4.7c-.2 5.9-.3 6.1-1.4 6.7-1.1.4-3.7.4-4.9 0zm3.2-7c.1-1.7-.5-2.8-1-1.9-.4.6-.5 2.2-.1 3.1.3 1.1 1 .4 1.1-1.2zm-60 2.8c.1-.7.6-3.2 1-5.7l.8-4.5H17c2.3 0 2.5.1 2.7.8.5 2.2 1.8 8.3 1.9 9.4l.2 1.2h-4.6l.2-1.5c.2-1.4.1-1.5-.7-1.5-.8 0-.8.1-.5.7.2.4.4 1.1.4 1.5 0 .7-.2.8-2.1.8h-2.1l.3-1.2zm4.7-4.6c0-.9-.7-2.3-.7-1.6 0 .3-.1.9-.3 1.4-.2.6-.1.8.4.8.3 0 .6-.2.6-.6zm5.1 5.1c-.2-.4-.4-2-.4-3.6 0-3.6.6-4.4 2.9-4l1.4.2-.1-1.7-.2-1.6h3.4v4c0 2.2.1 4.8.2 5.7l.2 1.7h-3.6c-2.9 0-3.4-.1-3.8-.7zm3.9-3.6c0-1.4-.1-1.8-.6-1.8-.6 0-1 2.3-.6 3.4.5 1.2 1.2.2 1.2-1.6zm5.4 2.8c-.2-.9-.7-2.6-1.1-3.8-.4-1.2-.6-2.4-.5-2.7.1-.3.8-.5 2.1-.5h1.9l-.2 1.4c-.2 2.6 0 3.6.4 3.2.2-.2.4-1.3.4-2.5v-2.1h3.4l-.2 1.2c-.1.7-.6 2.5-1.1 4.2l-.9 3-1.9.1-1.9.1-.4-1.6zm7.1 1c-1.4-1.7-.6-3.7 1.8-4.4 1.5-.4 2.2-1.2 1.6-1.7-.1-.1-.5 0-.7.4-.3.4-1 .6-1.8.6-1.3 0-1.4-.1-1.3-1 .1-1.3 1.4-1.9 3.7-1.9 1.3 0 2 .2 2.6.8.8.7.9 1.2 1.1 4.2l.2 3.4h-3.5c-2.1.1-3.5-.1-3.7-.4zm3.6-2.3c0-.3-.2-.5-.4-.4-.7.2-.8 1-.1 1 .2 0 .5-.3.5-.6zm4.2-1.4v-4.2h3.2c3.9 0 4.3.3 4.3 3.1 0 1.1.1 2.7.2 3.7l.2 1.7h-3.4l-.1-3c-.1-2.2-.2-3.1-.6-3.2-.4-.1-.5.4-.3 3l.2 3.2h-3.9l.2-4.3zm9.3 3.6c-.6-.6-.8-3.8-.7-7.7.1-1.7.3-1.9 2-2.3 1.4-.2 1.4-.2 1.4.9 0 .6.2 1.1.4 1.1s.4.4.4.9-.2.9-.4.9-.4 1-.4 2.2c0 1.2.2 2.3.4 2.4.2.1.4.6.4 1.1 0 .8-.2.9-1.4.9-.9.2-1.8 0-2.1-.4zm4.4-.2c-1.1-1.6-.3-3.3 2.1-4 1.5-.4 2.2-1.2 1.6-1.7-.1-.1-.5 0-.7.4-.3.4-1 .6-1.8.6-1.2 0-1.3-.1-1.3-1.1 0-.9.2-1.1 1.2-1.5 2.1-.7 4.3-.5 5.3.5.7.7.9 1.3.9 2.9 0 1.1.1 2.6.2 3.3l.2 1.4h-3.6c-3.2 0-3.6-.1-4.1-.8zm3.9-2c0-.7-.8-.5-1 .1-.1.2.1.4.4.4.3.1.6-.2.6-.5zm13.2 2.1c-.6-.6-.7-1.2-.7-3.5 0-3.6.5-4.2 3.7-4.2 2.8 0 3.7.7 3.7 3.1v1.7h-2c-2.1 0-3 .7-2 1.6.3.3.5.3.8-.2.3-.4.8-.6 1.8-.6 1.4 0 1.5.1 1.5 1 0 1.3-1.2 1.9-3.9 1.9-1.6-.1-2.3-.3-2.9-.8zm3.6-5.3c-.1-.3-.4-.5-.6-.5-.3 0-.6.2-.6.5-.1.3.2.5.6.5.5 0 .7-.2.6-.5zm3.7-1.7c-.1-.7 0-1.1.3-1.1s.4.4.3 1.1c-.1.6-.2 1.1-.3 1.1s-.2-.5-.3-1.1zm2.2.5c-.1-.3-.1-.9.1-1.2.3-.5.4-.4.4.6 0 1.3-.2 1.5-.5.6zm-46-4c0-.5.3-1.1.6-1.3.6-.3.6-.6-.4-3.4-.6-1.7-1.2-3.2-1.4-3.4-.2-.2-.3-.8-.3-1.4 0-1 0-1 2.1-1h2.1l-.1 1.4c-.1 2.5 0 3.2.4 2.8.2-.2.4-1.3.4-2.3v-1.9H46c1.5 0 1.7.1 1.7.9 0 .5-.2 1.3-.4 1.8s-.8 2.3-1.3 4.1c-1.1 3.8-1.8 4.7-3.7 4.7-1.1-.1-1.3-.2-1.3-1zm-27.9-7.8v-5.7h8.3v4.1h-1.7c-1.4 0-1.7-.1-1.7-.7 0-.4-.2-.7-.6-.7-.3 0-.6.3-.6.9 0 .8.2.9 1.1.9 1 0 1.1.1 1.1 1.1s-.1 1.1-1.1 1.1-1.1.1-1.1 1.1c0 .7.2 1.1.6 1.1.3 0 .6-.3.6-.7 0-.6.2-.7 1.7-.7h1.7v4.1h-8.3v-5.9zm9.3 5.1c-.6-.6-.7-2.2-.2-3 .2-.3 1.1-.8 2.1-1.2 1.7-.7 2.3-1.5 1.4-1.8-.3-.1-.5.1-.5.4 0 .4-.4.6-1.5.6-1.4 0-1.5-.1-1.5-1.1 0-.9.2-1.1 1.2-1.5 1.8-.6 4.2-.5 5 .2.6.5.8 1.3 1 4.2l.2 3.6h-3.3c-2.5.2-3.5 0-3.9-.4zm3.8-2.2c0-.3-.3-.5-.6-.5-.9.2-1.1 1-.2 1 .5.1.8-.1.8-.5zm3.9-1.4v-4.2l2.5.1 2.5.1v1.4c0 1.1-.2 1.4-.8 1.6-.7.2-.8.4-.6 2.8l.2 2.6H30l.1-4.4zm5.6-1.5v-5.7h3.5v4.3c0 2.4.1 5 .2 5.7l.2 1.4h-4v-5.7zm17.8-.6v-6.4l-2.4-2c-1.3-1.1-2.9-2.5-3.5-3-1.4-1.2-1.1-2.2.3-1l1 .8.5-1.8c.7-2.6.7-2.7 1.2-2.7.3 0 .3.3.2.8-.1.5-.3 1.7-.5 2.7l-.2 1.9 2.1 1.6c2.1 1.6 2.1 1.6 2.9.9.4-.4 1.3-1.3 1.9-2.1l1.1-1.4-1.5-3c-1.9-3.8-1.1-4.1 1-.4l1.4 2.6 1.2-1.3c1.8-1.9 1.9-.9.1 1.4-.8 1.1-1.5 2.1-1.5 2.2 0 .1.6.2 1.3.2 2 0 1.4.9-.8 1.1-1.5.2-2 .4-2.9 1.4l-1 1.2.1 6.3.1 6.3h-2l-.1-6.3zm4-2.8c-1.3-1.4-.4-4.1 1.3-4.1.3 0 .7-.3.8-.7.1-.4.4-.7.5-.7.2 0 .2.3.1.7-.2.6 0 .7.7.7 1.2 0 2.3 1 2.3 2.2 0 .5-.2 1-.5 1.4-.6.8-1.1 1-2.7 1.1-1.5 0-2-.1-2.5-.6zm5.3-1.9c0-.7-.6-1.8-.9-1.6-.1.1-.1.6 0 1.2.2 1.2.9 1.5.9.4zm-18.7-2.1c-.3-.8.8-2.3 1.9-2.6 1.3-.3 3.3 0 3.5.5.1.3-.3 1-1 1.6-.9.8-1.5 1.1-2.7 1.1-1 0-1.6-.2-1.7-.6zm18.6-1.5c-.6-.3-1-.7-1-.9 0-.2.5-.7 1-1.1 1.2-.9 3.4-.8 4.6.2.7.7.7.7-.2 1.5-1.2 1-2.9 1.1-4.4.3zm-11-3.1l-.9-.7 1-.9c1.2-1.1 2.4-1.2 4-.4 1.3.7 1.4 1 .1 2-1.2 1-3.1 1-4.2 0zm9.8-4.8c-.4-2 1.7-4.5 3.3-3.9 1.6.6.2 3.9-1.9 4.6-1.1.3-1.2.3-1.4-.7zm-12.7-.9c-1.5-.9-2.5-3.8-1.5-4.5.7-.4 2.8.8 3.3 1.9.9 2.4 0 3.7-1.8 2.6z"/></svg>