<svg xmlns="http://www.w3.org/2000/svg" viewBox="0 0 100 100"><path fill="none" stroke="#FFF" stroke-linecap="round" stroke-linejoin="round" stroke-width="2" d="M30.7 61.4c-1.9.1-3.4-1.1-4.5-3.6l-1.5-3.5-1.2-1.8H22v5.7c0 1 .3 1.9 1 2.6h-8a4 4 0 0 0 .9-2.6V38.6c0-.9-.3-1.9-.9-2.6h9.4c5.9 0 8.9 2.8 9 8.5 0 3.2-1.4 5.5-4.1 6.8.9 1.1 1.6 2.3 2.2 3.6a14 14 0 0 0 1.4 2.8c.6.8 1.4 1.3 2.4 1.5l-1.4 1.1a6.5 6.5 0 0 1-3.2 1.1zM23.1 41h-1.2v6.6h1.3c1.5 0 2.6-.2 3.4-.7.8-.6 1.2-1.5 1.2-2.9v-.1c0-1.3-.5-2.1-1.5-2.5-.5-.2-1.6-.4-3.2-.4zM37 60.7a4 4 0 0 0 .9-2.6V38.6c0-1-.3-1.9-1-2.6h7.8c-.6.8-.9 1.7-.9 2.6v19.5c0 .9.3 1.8.9 2.6H37zm19.8.6c-.5 0-2.2-.2-5-.7l-1.1-.1c-.5 0-1.3.5-2.4 1.4V52c2.3 2.6 5 3.9 7.9 3.9 2.4 0 3.6-.8 3.6-2.4 0-1.2-1.2-2.2-3.5-3.2a42.9 42.9 0 0 1-5.4-2.7 6.3 6.3 0 0 1-2.4-5.1c0-2.3.8-4 2.4-5.2a9.6 9.6 0 0 1 5.9-1.6c.8 0 1.7.1 2.5.4l2 .4c.4 0 1-.4 1.8-1.2v9.1c-2.2-2.5-4.4-3.7-6.8-3.7-1.2 0-1.8.4-1.8 1.3 0 .6.3 1 1 1.3l3.6 1.5c4.4 1.9 6.7 4.5 6.7 7.9 0 2.3-.9 4.4-2.7 6.1a9 9 0 0 1-6.3 2.5zm27.2-.6H68.3a4 4 0 0 0 .9-2.6V38.6c0-.9-.3-1.9-.9-2.6h15.4v5.7c-.8-.6-1.7-.9-2.7-.9h-5.8v3.8h4.4c.8 0 1.5-.3 2.1-.7v6.2c-.8-.4-1.6-.6-2.2-.6h-4.3V56H82c.9 0 1.9-.3 3.1-1L84 60.7z"/><g fill="#FFF"><path d="M29.1 68.6v.7h1.2l.3-.1v-.4l-.3-.2zm0-1.4v.7h1.2l.3-.2v-.4l-.3-.1z"/><path d="M31.7 69.2v-.5c.1-.2.1-.4-.1-.5.1-.1.2-.3.1-.5v-.5c.1-.2.1-.4-.1-.5l-.8-.6-.2-.1h-2.4c-.2 0-.4.2-.4.4l.1.2.1.1v2.9l-.1.1v.5l.2.1h2.4l.2-.1.8-.6c.2 0 .3-.2.2-.4zm-.3-1.2l-.4.3.4.3-.1.1v.7l.1.1-.8.5h-2.4l.2-.2v-3.2l-.2-.2h2.4l.8.6-.1.1v.7l.1.2z"/></g><g fill="#FFF"><path d="M33.8 67.2v.7h1.1l.3-.2v-.4l-.3-.1z"/><path d="M36.5 69.7l-.2-.2-.6-.9.5-.4c.1-.1.2-.3.1-.5v-.5c.1-.2 0-.4-.1-.5l-.8-.6-.2-.1h-2.3c-.2 0-.4.2-.4.4l.1.2.1.1v2.9l-.1.1v.5l.2.1H34c.2 0 .4-.2.4-.4l-.1-.3-.1-.1V69l.5.8v.5l.3.1h1.4c.2 0 .4-.2.4-.4l-.3-.3zm-1.6.3l.2-.2-.7-1.3h-.5v1.2l.1.3h-1.2l.2-.2v-3.2l-.2-.2h2.3l.9.6-.1.1v.7l.1.2-.7.6.7 1.3.3.2h-1.4z"/></g><path fill="#FFF" d="M40.7 68.8c-.1-.1-.3 0-.4 0l-.1.1v-1.3c.2.1.4.1.5-.1l.1-.2v-.9c0-.2-.2-.4-.4-.4h-2.6c-.2 0-.4.2-.4.4l.1.2.1.1v2.9l-.1.1v.5l.2.1h2.8c.2 0 .4-.2.4-.4V69l-.2-.2zm-.2 1.2h-2.8l.2-.2v-3.2l-.2-.2h2.6v.9l-.2-.2h-1.5v.8h1l.2-.2v1.1l-.2-.2h-1v.7h1.6l.2-.2v.9z"/><g fill="#FFF"><path d="M46.8 66.1h-1.3l-.3.2-.3-.2h-1.1l-.3.1-.3-.1H42c-.2 0-.4.2-.4.4l.1.3.2.1.9 2.9-.1.1v.5l.3.1h1.2l.2-.1.2.1h1.3c.2 0 .4-.2.4-.4l-.1-.3-.2-.1.9-2.9.2-.1c.1-.1.2-.4 0-.5l-.3-.1zm-.3.6l-1 3.2.2.2h-1.3l.2-.2-.4-1.5-.4 1.5.2.2h-1.2l.2-.2-.9-3.2-.1-.2h1.2l-.2.1.5 1.7.4-1.7-.2-.2h1.1l-.2.2.4 1.6.5-1.7-.2-.2h1.3l-.1.4zm3.1 3v-2.9l.1-.1v-.5l-.2-.1h-1.1c-.2 0-.4.2-.4.4l.1.2.1.1v2.9l-.2.1v.5l.2.1h1.1c.2 0 .4-.2.4-.4l-.1-.2v-.1zm-.2.3h-1.1l.2-.2v-3.2l-.2-.2h1.1l-.2.2v3.2l.2.2zm5-.3v-2.9l.1-.1v-.5l-.2-.1h-1.1c-.2 0-.4.2-.4.4l.1.2.1.1v.6l-.5-.8c.1-.2 0-.4-.1-.5l-.2-.1H51c-.2 0-.4.2-.4.4l.1.2.1.1v2.9l-.1.1v.5l.2.1H52c.2 0 .4-.2.4-.4l-.1-.2-.1-.1V69l.5.8c-.1.2-.1.4.1.5l.2.1h1.1c.2 0 .4-.2.4-.4l-.1-.2v-.1zm-.3.3H53l.2-.2-1.3-1.9v1.9l.1.2h-1.1l.2-.2v-3.2l-.2-.2H52l-.1.2 1.3 1.9v-1.9l-.2-.2h1.1l-.2.2v3.2l.2.2zm4.8-2.5l.1-.2v-.9c0-.2-.2-.4-.4-.4h-2.1l-.2.1-.8.6c-.1.1-.2.3-.1.5v2c-.1.2-.1.4.1.5l.8.6.2.1H58l.2-.1.7-.5.1-.3v-1.3l.1-.1v-.5l-.2-.1zm-.3 2l-.7.5h-1.5l-.8-.6.1-.1v-2.2l-.1-.1.8-.6h2.1v.9l-.2-.2h-1.6l-.2.2v1.8l.2.2h1l.2-.2V68l-.2-.2h1.1l-.2.2v1.5zm-1.1-1.4l.1.1v.8h-.7v-1.5h1.4-.5c-.2 0-.4.2-.4.4l.1.2zm8.9.7c-.1-.1-.3 0-.4 0l-.1.2h-1.4v-1.5h1.3l.1.1h.5l.1-.2v-.9c0-.2-.2-.4-.4-.4h-2l-.2.1-.9.6c-.1.1-.2.3-.1.5v2c-.1.2-.1.4.1.5l.8.6.2.1h2.2c.2 0 .4-.2.4-.4v-.9l-.2-.4zm-.3 1.2h-2.2l-.8-.6.1-.1V67l.8-.6h2v.9l-.2-.2h-1.6l-.2.2v1.8l.2.2h1.7l.2-.2v.9zm2.6-2.8l-.2.2v1.8l.2.2h1.1l.2-.2v-1.8l-.2-.2h-1.1zm1.1 1.8H69v-1.5h.8V69z"/><path d="M71.3 67.2c.1-.2 0-.3-.1-.4l-.8-.6-.2-.1h-1.6l-.2.1-.8.6c-.1.1-.2.3-.1.5v2c-.1.2-.1.4.1.5l.8.6.2.1h1.6l.2-.1.8-.6c.1-.1.2-.3.1-.5v-2.1zM70 70h-1.6l-.8-.6.1-.1V67l.8-.6H70l.8.6-.1.1v2.2l.1.1-.8.6zm3.4-1h-.8c-.2 0-.4.2-.4.4v.6c0 .2.2.4.4.4h.8c.2 0 .4-.2.4-.4v-.7c-.1-.2-.3-.3-.4-.3zm-.2 1h-.7v-.7h.7v.7zm2.9-3.1c0-.2-.2-.4-.4-.4h-.4v1h.2v-.3h.1l.2.3h.2l-.2-.3c.2 0 .3-.1.3-.3zm-.5.2h-.2v-.4h.2l.2.2c0 .2-.1.2-.2.2z"/><path d="M75.6 66.1c-.6 0-1 .4-1 1s.4 1 1 1 1-.4 1-1-.4-1-1-1zm0 1.7a.8.8 0 0 1-.8-.8c0-.4.3-.8.8-.8.4 0 .8.3.8.8s-.4.8-.8.8z"/></g></svg>