<svg xmlns="http://www.w3.org/2000/svg" viewBox="0 0 100 100"><path fill="#FFF" d="M7.5 37v2.8H16c1 0 1.4.2 2 .7.3.5.3.7.3 2.4v14.2c0 2.7-.5 3.2-2.8 3.2H13V42.6H7.5v20.8h10.4c2.5 0 3.2-.2 4.3-1.4 1.1-1.1 1.3-2 1.3-5V42.1c0-1.8-.2-2.5-1-3.5-1-1-2.2-1.6-4-1.6h-11zm17.8 26.4h5.2V50c0-1 0-1.3.2-1.6.3-.7 1-1 2-1s1.5.1 2.2.6v-4c-5.8.1-7.6.5-9.6 2.1v17.3zm13.6-27c-1.6 0-2.9 1.3-2.9 2.8 0 1.7 1.3 3 3 3 1.5 0 2.8-1.3 2.8-3 0-1.5-1.3-2.8-2.9-2.8zm7 0c-1.6 0-2.9 1.3-2.9 2.8 0 1.7 1.3 3 3 3 1.5 0 2.8-1.3 2.8-3 0-1.5-1.3-2.8-2.8-2.8zM43.9 51h-4.5c-1.8 0-2.6.2-3.5 1-1 .9-1.5 2-1.5 3.6v3c0 1.5.3 2.4 1.1 3.3 1 1.1 2 1.4 4 1.4h9.8V48.7c0-1.3-.4-2.4-1.3-3.2-1.1-1.1-2-1.4-4-1.4H36v4c2-.9 3.2-1.2 5-1.2 1.9 0 2.8.6 2.8 2V51zm0 9.3h-2.3c-.9 0-1.5-.3-2-1l-.1-1.3v-1.8c0-1.5.7-2.2 2.2-2.2h2.2v6.3zm21-16.2h-9.3c-1.7 0-2.4.2-3.4 1-1 .9-1.5 2.1-1.5 3.6v2.9c0 1.1.4 2.4 1.2 3.2 1 1.1 1.7 1.4 3.7 1.4h4.2c1.9 0 2.7-.3 3.6-1 1-.9 1.4-2 1.4-3.6v-7.5zM55.5 49c0-1.3.8-2 2.3-2 1.5 0 2.3.7 2.3 2v2.2c0 1.3-1 2.1-2.3 2.1-1.5 0-2.3-.8-2.3-2V49zm9.7 12.6c0-1.5-.3-2.4-1.1-3.3-1-1.1-2-1.4-4.2-1.4h-4.3c-2 0-2.7.1-3.7 1a5 5 0 0 0-1.6 3.7v2.8c0 1.4.5 2.6 1.3 3.4 1 1 1.9 1.4 4 1.4h4.3c2 0 2.8-.2 3.8-1 1-.9 1.4-2 1.4-3.7v-2.9zm-9.7.5c0-1.5.7-2.3 2.2-2.3 1.5 0 2.3.8 2.3 2.3v2.2c0 1.3-.8 2-2.2 2-1.5 0-2.3-.7-2.3-2v-2.2zm25.7-6v-7.4c0-3.2-1.7-4.7-5.3-4.7h-4.3c-1.9 0-2.7.2-3.7 1a5 5 0 0 0-1.6 3.7v10c0 1.3.4 2.3 1.3 3.3 1 1 2 1.3 4 1.3H81v-4c-2.7.8-4.3 1-6.3 1-2.2 0-3.2-.5-3.2-1.8v-2.4h9.6zm-9.6-3v-4c0-1.4.7-2.2 2.2-2.2 1.4 0 2.2.8 2.2 2.2v4h-4.4zm11.2 10.2h5.3V50c0-1 0-1.3.2-1.6.3-.7 1-1 2-1s1.5.1 2.2.6v-4c-5.8.1-7.7.5-9.6 2.1v17.3z"/></svg>