<svg xmlns="http://www.w3.org/2000/svg" viewBox="0 0 100 100"><path fill="#FFF" d="M96.5 55.4a5 5 0 0 1-2.7 1.5c-.6 0-1.5.3-2.1 0-1 0-1.8-.3-2.8-1-.6-.2-1.2-.8-1.5-1.8-.3-.6-.6-1.2-.6-1.8V50c.6-1.8 1.8-3.4 4-3.7 1.2-.3 2-.3 3 0 .6.3 1.5.6 2.1 1.2l1 1.3c.3.6.3.9.3 1.5h-3.4c0-.3-.3-1-.6-1.2-.6-.3-1.2-.3-1.5 0-.3.3-.6.6-.6.9-.3.9-.3 1.8 0 2.7 0 .3.3.6.6 1 .3.2.9.5 1.2.2.3 0 .6-.3.6-.3.3-.3.3-.6.3-.9V52h3.7c0 1.5-.3 2.7-1 3.4m-14-10.1h3.8v-2.7h-3.8v2.7zm0 11.5h3.8V46.6h-3.8v10.2zm-7.8-9.1l1.6-1c1-.5 2-.5 3-.2 1.1.3 1.9 1.1 2.3 2.2.2.5.2 1 .2 1.6v6.5h-4v-5.9l-.1-.6c-.1-.3-.3-.6-.7-.7-.7-.3-1.5 0-1.9.6-.2.3-.2.6-.2.9v5.6H71V46.6h3.7v1.1m-44.8 0l1.6-1c1-.5 2-.5 3-.2 1.1.3 1.9 1.1 2.3 2.2.2.5.2 1 .2 1.6v6.5h-4v-5.9l-.1-.6c-.1-.3-.3-.6-.7-.7-.7-.3-1.5 0-1.9.6-.2.3-.2.6-.2.9v5.6h-3.9V46.6h3.7v1.1m23.8 5.2c.3 0 .6 0 .9.3.3 0 .3.3.3.6s0 .6-.3.6c-.3.3-.3.3-.6.3h-1c-.2 0-.2 0-.2-.3-.4 0-.4-.3-.4-.6v-.6h-3.6v.3c0 .3 0 .6.3 1 .3.6.3.9 1 1.2.5.6.8.9 1.7.9 1.6.3 2.8.6 4 .3.6 0 1.2-.3 1.8-.6.3 0 .6-.3.6-.6 1-1 1.5-2.2 1-3.4 0-.3-.4-.9-1-1.2l-1.8-1h-.3c-.6-.2-1.5-.2-2.4-.5H52.8c-.4 0-.4-.3-.4-.6s.4-.3.7-.3h1.2c.3 0 .6.6.6.9h3.6c0-.3 0-1-.3-1.2 0-.3-.3-.6-.6-1l-.9-.6c-.3 0-.6-.3-1-.3-.8 0-1.7-.3-2.3 0-.6 0-1 0-1.6.3-.6 0-1.2.3-1.8 1-.3.3-.9.9-.9 1.2v.6c0 .3 0 .9.3 1.2.3.6 1 1.2 1.5 1.5.3 0 .6.3 1.2.3 0 .3 1 .3 1.6.3"/><path fill="#FFF" d="M9.4 52.4H6.8v-3.3h2.6c.4 0 .8-.2 1.1-.6l.3-.6v-.6c-.1-.7-.7-1.3-1.4-1.3H6.8v10.8H2.5V42.6h7.8c1.9.1 3.4 1.1 4.2 2.8.4.9.6 1.7.4 2.7-.2 2-1.6 3.6-3.6 4.1l-1.9.2m56.5-6l-1.1-.1-1.1.1a5 5 0 0 0-3 1.5c-.9.9-1.4 1.9-1.5 3.2-.1.8 0 1.4.2 2.2.3 1.1.9 2 1.9 2.7.6.5 1.2.8 2 .9l1.6.2c.6 0 1 0 1.6-.2.8-.2 1.4-.5 2-.9l-2.2-2.4c-.3.8-1.2 1.1-2 .8-.4-.2-.6-.4-.8-.8l-.3-1v-2l.4-1c.4-.7 1.4-.9 2-.4l.4.4.4 1c.1.7.2 1.3 0 2 0 .3-.1.7-.3 1l2.2 2.4c.9-.7 1.5-1.6 1.9-2.7.2-.7.3-1.4.2-2.2a4.8 4.8 0 0 0-1.5-3.2 6.1 6.1 0 0 0-3-1.5M48.1 56l-.1-2.4v-3.1l-.2-1.7c-.2-.8-.6-1.3-1.3-1.7l-1.2-.5c-1.5-.3-2.7-.3-4.2-.1l-1.1.3a3 3 0 0 0-1.8 2l-.1 1 .1.2 3.4.1.1-.6c.1-.3.3-.5.6-.6.4-.2.9-.2 1.4 0 .3.1.5.3.6.6.1.2 0 .4-.1.5l-.4.3-.3.1-1.4.3-1.1.2-1.4.4c-.4.1-.8.4-1.2.7-.4.4-.7.9-.8 1.5v1.2c.2 1.1 1 1.8 2 2.1 1.2.3 2.2.3 3.3-.2.5-.2 1-.5 1.3-1l-.3-1.6c-.2.3-.4.5-.7.6l-.8.2-.7-.1a.5.5 0 0 1-.5-.3.8.8 0 0 1-.2-.4c-.1-.2 0-.5.2-.7l.4-.3 1.1-.4 1.4-.5v1.1c0 .3-.1.5-.3.7l.2 1.7.2.7.2.3h3.8l-.1-.6m-22.7 0l-.1-2.4v-3.1l-.2-1.7c-.2-.8-.6-1.3-1.3-1.7l-1.2-.5c-1.5-.3-2.7-.3-4.2-.1l-1.1.3a3 3 0 0 0-1.8 2l-.1 1 .1.2 3.4.1.1-.6c.1-.3.3-.5.6-.6.4-.2.9-.2 1.4 0 .3.1.5.3.6.6.1.2 0 .4-.1.5l-.4.3-.3.1-1.4.3-1.1.2-1.4.4c-.4.1-.8.4-1.2.7-.5.4-.7.9-.8 1.5v1.2c.2 1.1 1 1.8 2 2.1 1.2.3 2.2.3 3.3-.2.5-.2 1-.5 1.3-1l-.3-1.6c-.2.3-.4.5-.7.6l-.8.2-.7-.1a.5.5 0 0 1-.5-.3.8.8 0 0 1-.2-.4c-.1-.3 0-.5.2-.7l.4-.3 1.1-.4 1.4-.5v1.1c0 .3-.1.5-.3.7l.2 1.7.2.7.2.3h3.8l-.1-.6"/></svg>