<svg xmlns="http://www.w3.org/2000/svg" viewBox="0 0 100 100"><path fill="#FFF" d="M96.5 55.4c-.8.8-1.6 1.3-2.7 1.5-.7.1-1.4.2-2.1.1-1-.1-1.8-.4-2.6-1-.6-.5-1.1-1-1.5-1.7-.3-.5-.5-1.1-.6-1.7-.1-.8-.1-1.7.1-2.5.5-1.9 2-3.3 3.9-3.7 1.1-.2 2.1-.2 3.2.1.7.2 1.4.6 2 1.1.4.3.7.7.9 1.1.3.5.4 1 .4 1.6H94c-.1-.4-.3-.9-.7-1.1-.5-.4-1.1-.4-1.6-.1-.3.2-.6.5-.7.9-.3.9-.3 1.8 0 2.8.1.4.3.7.6 1 .3.3.8.5 1.3.4.3 0 .5-.2.7-.4.2-.2.3-.5.4-.8 0-.2.1-.4.1-.6h3.7c-.2 1.3-.6 2.2-1.3 3m-14-12.8h3.8v2.7h-3.8v-2.7zm0 4h3.8v10.1h-3.8V46.6zm-7.8 1.1l-.1-1.1h-3.7v10.1h3.9v-5.6c0-.3.1-.6.2-.9.4-.7 1.2-.9 1.9-.6.3.1.5.4.7.7.1.2.1.4.1.6v5.9h4v-6.5c0-.6-.1-1-.2-1.6-.4-1.1-1.1-1.9-2.3-2.2-1-.3-2-.2-3 .2-.6.3-1 .6-1.5 1m-44.8 0l-.1-1.1h-3.7v10.1H30v-5.6c0-.3.1-.6.2-.9.4-.7 1.2-.9 1.9-.6.3.1.5.4.7.7.1.2.1.4.1.6v5.9h4v-6.5c0-.6-.1-1-.2-1.6-.4-1.1-1.1-1.9-2.3-2.2-1-.3-2-.2-3 .2-.6.3-1 .6-1.5 1M53.7 53c.3 0 .5.1.8.2.2.1.4.3.4.5.1.3 0 .5-.2.7-.2.2-.4.3-.7.3-.3.1-.7 0-1-.1-.2-.1-.3-.1-.4-.2-.2-.1-.3-.3-.4-.5-.1-.2-.1-.4-.1-.5h-3.7v.2c0 .3.1.6.2 1 .2.5.5.9.8 1.2.5.5 1 .8 1.7 1 1.4.4 2.6.5 4 .3.6-.1 1.2-.3 1.8-.6.3-.1.5-.3.7-.5 1-.8 1.4-2.1 1-3.4-.1-.4-.4-.9-.8-1.2-.5-.4-1.1-.7-1.7-.9-.1 0-.3-.1-.4-.1-.8-.2-1.5-.4-2.3-.5-.2 0-.4-.1-.6-.1-.1 0-.2-.1-.3-.1-.2-.1-.3-.4-.2-.6.1-.2.3-.4.5-.4.4-.1.8-.1 1.2 0 .4.1.7.5.6.9h3.6c0-.4-.1-.8-.2-1.2-.1-.4-.4-.8-.7-1-.3-.2-.6-.4-1-.5-.3-.1-.7-.2-1-.3-.8-.2-1.7-.2-2.5-.1-.5 0-1 .1-1.4.2-.6.1-1.2.4-1.8.8-.4.3-.8.8-1 1.3-.1.2-.1.5-.1.7 0 .4 0 .8.2 1.2.3.7.8 1.3 1.6 1.6.4.1.7.3 1.1.3.9.2 1.5.3 2.3.4m-44.3-.6c.7 0 1.3-.1 1.9-.2 2-.4 3.4-2 3.6-4.1.1-1 0-1.8-.4-2.7-.8-1.7-2.3-2.7-4.2-2.8H2.5v14.2h4.3V46h2.5c.7 0 1.4.6 1.4 1.3v.6c0 .2-.1.4-.3.6-.2.3-.6.5-1 .5H6.8v3.3h2.6m56.5-5.9c1.2.2 2.1.6 3 1.5.9.9 1.4 1.9 1.5 3.2.1.8 0 1.4-.2 2.2-.3 1.1-.9 2-1.9 2.7l-2.2-2.4c.1-.3.2-.6.3-1 .1-.7.1-1.3 0-2-.1-.4-.2-.7-.4-1-.1-.2-.3-.3-.4-.4-.7-.4-1.6-.3-2 .4-.2.3-.3.6-.4 1-.1.7-.2 1.3 0 2 0 .3.1.7.3 1 .2.4.4.6.8.8.8.3 1.7 0 2-.8l2.2 2.4c-.6.5-1.2.8-2 .9-.5.1-1 .2-1.6.2-.6 0-1 0-1.6-.2-.8-.2-1.4-.5-2-.9-.9-.7-1.5-1.6-1.9-2.7-.2-.7-.3-1.4-.2-2.2.1-1.3.6-2.3 1.5-3.2.8-.8 1.8-1.3 3-1.5.4-.1.7-.1 1.1-.1.3 0 .7.1 1.1.1M48.1 56c0 .3.1.6.3.8h-3.8c-.1-.1-.2-.2-.2-.3-.1-.2-.2-.4-.2-.7l-.3-1.8c.1-.2.2-.5.3-.7.1-.4.1-.7 0-1.1-.5.2-.9.4-1.4.5-.4.1-.7.2-1.1.4-.2.1-.3.1-.4.3-.2.2-.3.4-.2.7 0 .2.1.3.2.4.1.1.3.2.5.3.2.1.5.1.7.1.3 0 .6-.1.8-.2.3-.1.5-.3.7-.6l.2 1.7c-.4.4-.8.8-1.3 1-1.1.4-2.2.5-3.3.2-1-.3-1.8-1.1-2-2.1-.1-.4-.1-.8 0-1.2.1-.6.4-1.1.8-1.5.3-.3.7-.5 1.2-.7.5-.2 1-.3 1.4-.4.4-.1.7-.1 1.1-.2.5-.1.9-.2 1.4-.3.1 0 .2-.1.3-.1.2-.1.3-.2.4-.3.1-.2.1-.4.1-.5-.1-.3-.3-.5-.6-.6-.4-.2-.9-.1-1.4 0-.3.1-.5.3-.6.6-.1.2-.1.4-.1.6l-3.6-.2c0-.1 0-.1-.1-.2 0-.4 0-.7.1-1 .3-.9.9-1.6 1.8-2 .4-.2.8-.3 1.1-.3 1.5-.3 2.8-.2 4.2.1.4.1.9.2 1.2.5.7.4 1.1 1 1.3 1.7.1.5.2 1.1.2 1.7v3.1c.2.7.3 1.5.3 2.3m-22.7 0c0 .3.1.6.3.8h-3.8c-.1-.1-.2-.2-.2-.3-.1-.2-.2-.4-.2-.7l-.3-1.8c.1-.2.2-.5.3-.7.1-.4.1-.7 0-1.1-.5.2-.9.4-1.4.5-.4.1-.7.2-1.1.4-.2.1-.3.1-.4.3-.2.2-.3.4-.2.7 0 .2.1.3.2.4.1.1.3.2.5.3.2.1.5.1.7.1.3 0 .6-.1.8-.2.3-.1.5-.3.7-.6l.2 1.7c-.4.4-.8.8-1.3 1-1.1.4-2.2.5-3.3.2-1-.3-1.8-1.1-2-2.1-.1-.4-.1-.8 0-1.2.1-.6.4-1.1.8-1.5.3-.3.7-.5 1.2-.7.5-.2 1-.3 1.4-.4.4-.1.7-.1 1.1-.2.5-.1.9-.2 1.4-.3.1 0 .2-.1.3-.1.2-.1.3-.2.4-.3.1-.2.1-.4.1-.5-.1-.3-.3-.5-.6-.6-.4-.2-.9-.1-1.4 0-.3.1-.5.3-.6.6-.1.2-.1.4-.1.6l-3.4-.1c0-.1 0-.1-.1-.2 0-.4 0-.7.1-1 .3-.9.9-1.6 1.8-2 .4-.2.8-.3 1.1-.3 1.5-.3 2.8-.2 4.2.1.4.1.9.2 1.2.5.7.4 1.1 1 1.3 1.7.1.5.2 1.1.2 1.7v3.1c0 .6 0 1.4.1 2.2"/></svg>