<svg xmlns="http://www.w3.org/2000/svg" viewBox="0 0 100 100"><path fill="#FFF" d="M87.5 49.8c0 13-16.8 23.6-37.5 23.6-6.1 0-11.9-.9-17-2.5l6.6-24.7h3.3l-2.9 11h4.8l3.4-12.6h-8l2.5-9.6c.3-1.2 1.6-3 3.4-3 1 0 2.3.5 2.4 1.2-1.3 0-2.4 1.3-2.4 2.7s1.1 2.5 2.4 2.5c.9 0 2.8-1 2.7-3.1-.1-1.3-.8-4-5.1-4.1-4.9-.1-8.4 4.3-9.6 8.8-.7 2.7-2.5 9-4 14.8l-3.9 14.5C18.9 65 12.6 58 12.6 50c0-13 16.8-23.6 37.5-23.6s37.4 10.4 37.4 23.4zm-65.6 7.4l1.6-5.8c8 .1 9.5-1.8 10.6-6.8.8-3.5-1.1-6.2-4.6-6.2H20l-.5 1.6h2.1L17 57.2h4.9zM26.5 40c2.5-.1 3.5.5 2.5 4.6-1.3 5.3-2.8 5.2-5.1 5.2l2.6-9.8zm58.9 6.8c0-1.4-1.1-2.6-2.4-2.6-1.1 0-2.6.7-3.6 2.4l.5-2h-6.5l-.4 1.5h1.7l-2.9 11h4.8l1.8-6.7c.7-2.1 2-4.5 2.4-4.1-.4 1.9 1 3 2.3 3 1.2.1 2.3-1.1 2.3-2.5zm-22 4.5h8c.1-.2.1-.4.1-.5.9-4.2-1.2-6.8-4.5-6.8-3.6 0-6.9 1.2-8.3 6.8-.9 3.7 1.1 6.7 4.6 6.9 3.2.1 6.2-.8 7.7-5.1h-4.9l-.3 1.1c-.6 2.2-1.4 2.4-2.2 2.4-.9 0-1.3-1.1-.9-2.4l.7-2.4zm.9-3.3c.4-1.3 1.2-2.5 2.2-2.4 1 0 1.3 1.1.9 2.4l-.5 1.7h-3.1l.5-1.7zM57 55.6h-4.1l7-11H49.7l-.4 1.6h4.1l-6.9 11h10.1l.4-1.6z"/></svg>