<svg xmlns="http://www.w3.org/2000/svg" viewBox="0 0 100 100"><path fill="#FFF" d="M24.4 59.7a2 2 0 0 1-1.1-.3l-.6.6.4 1c0 1-.8 1.8-1.8 1.8a1.8 1.8 0 0 1-1.5-2.8l-.6-.6a2 2 0 0 1-1 .3c-.5 0-.9-.2-1.3-.5-.3-.3-.5-.8-.5-1.3 0-1 .8-1.8 1.8-1.8.4 0 .8.1 1.1.4l.6-.6a2 2 0 0 1-.3-1.1c0-1 .8-1.8 1.8-1.8.5 0 .9.2 1.3.5.3.3.5.8.5 1.3 0 .4-.1.8-.4 1.1l.6.6c.3-.3.7-.4 1.1-.4 1-.1 1.8.6 1.9 1.6.1 1-.6 1.8-1.6 1.9l-.4.1m23.7-4H29.6a4 4 0 0 0-1.2-1.4 3 3 0 0 0-2.6-.7h-.2v-.2c.1-1-.2-1.9-.9-2.6a4.7 4.7 0 0 0-6.6-.4l-.4.4c-.6.7-1 1.7-.9 2.6v.2h-.2c-1-.2-1.9.1-2.7.7a4.6 4.6 0 0 0-.6 6.5l.6.6c.7.6 1.7.9 2.7.7h.2v.2c-.1 1 .2 1.9.9 2.6a4.7 4.7 0 0 0 6.6.4l.4-.4c.7-.7 1-1.7.9-2.6v-.2h.2a3 3 0 0 0 2.6-.7 5 5 0 0 0 1.3-1.9h9.4c.5 0 1 .4 1 .9 0 .6-.5 1-1 1h-.9v5H42v-4c0-.6.4-1 1-1s1.1.4 1.1 1v4h3.7v-5H47c-.6 0-1-.4-1-1 0-.5.4-1 1-1h1c1 0 1.9-.8 1.9-1.8s-.8-1.9-1.8-1.9M20.9 33.2l-4.2 4.9v-4.9h-3.3v12.9h3.3v-4l1.4-1.4 3.5 5.4h4.2l-5.3-7.8 4.8-5.1h-4.4m10.3 7.3c-.1-1-.8-1.9-1.8-1.9-1.1 0-1.8.8-2 1.9h3.8zm-3.8 1.7c.1 1.3.8 2.1 2.1 2.1a2 2 0 0 0 1.7-1h2.9c-.6 2.2-2.6 3.1-4.6 3.1-3 0-5.1-1.8-5.1-5 0-2.9 2.3-4.9 5-4.9 3.4 0 5 2.5 4.9 5.7h-6.9zm8.7 7h-1.4v-2.5h1c.7 0 1.2-.4 1.2-1 0-.5-.6-1.9-.8-2.5l-2.4-6.5H37l1.8 6.1 1.8-6.1h3.1L40 46.9c-.7 2.1-1.8 2.3-3.9 2.3zM53.2 39a3 3 0 0 0 1.7-2.6c0-2.7-2.4-3.3-4.6-3.2h-6v12.9h6.2c2.8 0 5-.9 5-4 0-1.4-.9-2.7-2.3-3.1zm-5.6-3.2h2.6c.7 0 1.4.3 1.4 1.2s-.8 1.2-1.4 1.2h-2.6v-2.4zm2.7 7.6h-2.7v-3h2.7c1 0 1.8.4 1.8 1.5s-.7 1.5-1.8 1.5zm12.1 1.8l.2.9h3.1c-.4-.7-.4-1.6-.4-2.4v-4.1c0-2.6-2.1-3.1-4.4-3.1-1 0-2 .2-3 .6a3 3 0 0 0-1.5 2.5h2.9c.1-.8.7-1.2 1.5-1.2.6 0 1.5.3 1.5 1 0 .6-.3.8-.8.9-2.1.4-5.4.2-5.4 3.3 0 1.9 1.4 2.8 3.2 2.8 1.2 0 2.4-.4 3.1-1.2zm-1.9-3c.7-.2 1.5-.2 1.9-.5.1 1.9-.4 2.8-1.9 2.8-.7 0-1.3-.3-1.3-1.1 0-.7.6-1 1.3-1.2zm15.6-2.1v6h-3v-4.5c0-1.3.1-2.6-1.5-2.6-1.2 0-1.7 1-1.7 2v5.1h-3.1v-9.4h3V38c.6-1 1.8-1.5 2.9-1.5 3.2 0 3.4 2.2 3.4 3.6zm4.6 6h-3.1V33.2h3.1v6.6l2.8-3.1H87l-3.4 3.5 3.9 5.8h-3.7l-2.3-3.8-.8.8v3.1z"/></svg>