<svg xmlns="http://www.w3.org/2000/svg" viewBox="0 0 100 100"><path fill="#FFF" d="M70.1 67.2c-.5-.2-.5-1-.4-1.4.8-2.5.7-2.3 3.3-1.6 1.5.4 3.6.8 4.7.4.7-.2 1.7-.5 2-1.8.2-1-.5-2.2-1.1-2.7-.7-.7-2.4-1.2-3.6-1.7-3.9-1.8-5.7-4.5-4.9-7.7.7-3.4 3.8-5.6 7.8-5.6 1.4 0 2.8.2 4.1.6 2.3.7 2.3.9 1.6 3.3-.4 1.3-.9 1.7-2.3 1.1-1.4-.5-3.4-.8-4.5-.5-.6.2-1.3.9-1.6 1.7-.2.7.2 1.7.9 2.2 1.3.8 2.9 1.4 4.3 2.1 2.3 1.1 4 2.6 4.4 5.3.5 3.7-1.4 6.3-5 7.5-3.6.3-6 .3-9.7-1.2zM49.6 34.5c-1.7 0-3.1 1.4-3.1 3.1 0 1.7 1.4 3.1 3.1 3.1 1.7 0 3.1-1.4 3.1-3.1 0-1.7-1.4-3.1-3.1-3.1zm6.9-7.2c-1.9 0-3.4 1.5-3.4 3.4s1.5 3.4 3.4 3.4 3.4-1.5 3.4-3.4-1.5-3.4-3.4-3.4zm-9.1-2.7c-2.4 0-4.3 1.9-4.3 4.3s1.9 4.3 4.3 4.3 4.3-1.9 4.3-4.3-1.9-4.3-4.3-4.3zM36.5 61.7c1-3.2 1.1-6.5 0-9.7-1.6-5-5.9-7.8-11-6.9-1.8.3-3.4 1.3-5.2 2 0-3.1-.1-6.4 0-9.7.1-2-.6-2.6-2.5-2.5-1.7.1-2.8 0-2.8 2.4.1 9.1.1 18.2 0 27.3-.1 4.3-.8 4 4 3.9.1 0 .2-.1.4-.2.1-.6.1-1.2.2-1.9 7.3 5.8 15 1.4 16.9-4.7zm-5.9.3c-1.1 2.2-3.7 3.1-6 2.5-2.4-.6-4.1-2.6-4.2-5-.1-1.4-.1-2.8 0-4.2.1-3.1 2.2-5.6 5-5.9 2.9-.3 5.2 1.3 6.1 4.4.3 1.1.8 2.2.7 3.8-.2 1.3-.8 2.9-1.6 4.4zm33.6 6.2c3.6-1.2 5.5-3.8 5-7.5-.4-2.7-2.1-4.2-4.4-5.3-1.4-.7-3-1.3-4.3-2.1-.7-.5-1.1-1.5-.9-2.2.3-.8 1-1.5 1.6-1.7 1.1-.3 3.1 0 4.5.5s1.9.1 2.3-1.1c.8-2.3.7-2.6-1.6-3.3-1.3-.4-2.8-.6-4.1-.6-4 0-7.1 2.3-7.8 5.6-.7 3.3 1 6 4.9 7.7 1.2.5 2.8 1.1 3.6 1.7.5.5 1.3 1.7 1.1 2.7-.3 1.3-1.3 1.6-2 1.8-1.1.3-3.2 0-4.7-.4-2.5-.7-2.5-.9-3.3 1.6-.1.4-.1 1.2.4 1.4 3.6 1.7 6 1.7 9.7 1.2zM43.9 37.4c.1-2-.7-2.5-2.5-2.5-1.7.1-2.9 0-2.8 2.4.1 9.4.1 18.8.1 28.1 0 3.3 0 3.2 3.3 3.3 1.7 0 2-.7 2-2.2-.2-4.9-.2-24.3-.1-29.1zm3 29.1c-.1 2.1 1 2.2 2.6 2.2s2.9.1 2.8-2.2c-.1-6 0-11.9 0-17.9 0-3.3 0-3.2-3.3-3.3-1.6 0-2.1.5-2 2.1 0 3.1.1 15.9-.1 19.1z"/></svg>