<svg xmlns="http://www.w3.org/2000/svg" viewBox="0 0 100 100"><path fill="none" stroke="#FFF" stroke-linecap="round" stroke-linejoin="round" stroke-width="2" d="M30.7 61.4c-1.9.1-3.4-1.1-4.5-3.6-.7-1.8-1.3-3-1.5-3.5l-1.2-1.8H22v5.7c0 1 .3 1.9 1 2.6h-8c.6-.7.9-1.6.9-2.6V38.6c0-.9-.3-1.9-.9-2.6h9.4c5.9 0 8.9 2.8 9 8.5 0 3.2-1.4 5.5-4.1 6.8.9 1.1 1.6 2.3 2.2 3.6.6 1.4 1 2.3 1.4 2.8.6.8 1.4 1.3 2.4 1.5-.4.4-.9.7-1.4 1.1-1.2.7-2.2 1.1-3.2 1.1zM23.1 41h-1.2v6.6h1.3c1.5 0 2.6-.2 3.4-.7.8-.6 1.2-1.5 1.2-2.9v-.1c0-1.3-.5-2.1-1.5-2.5-.5-.2-1.6-.4-3.2-.4zM37 60.7c.6-.7.9-1.6.9-2.6V38.6c0-1-.3-1.9-1-2.6h7.8c-.6.8-.9 1.7-.9 2.6v19.5c0 .9.3 1.8.9 2.6H37zm19.8.6c-.5 0-2.2-.2-5-.7-.3-.1-.7-.1-1.1-.1-.5 0-1.3.5-2.4 1.4V52c2.3 2.6 5 3.9 7.9 3.9 2.4 0 3.6-.8 3.6-2.4 0-1.2-1.2-2.2-3.5-3.2-2.7-1.2-4.5-2.1-5.4-2.7-1.6-1.3-2.4-3-2.4-5.1 0-2.3.8-4 2.4-5.2 1.5-1.1 3.4-1.6 5.9-1.6.8 0 1.7.1 2.5.4.7.2 1.3.3 2 .4.4 0 1-.4 1.8-1.2v9.1c-2.2-2.5-4.4-3.7-6.8-3.7-1.2 0-1.8.4-1.8 1.3 0 .6.3 1 1 1.3.8.3 2 .8 3.6 1.5 4.4 1.9 6.7 4.5 6.7 7.9 0 2.3-.9 4.4-2.7 6.1-1.6 1.6-3.9 2.5-6.3 2.5zm27.2-.6H68.3c.6-.7.9-1.6.9-2.6V38.6c0-.9-.3-1.9-.9-2.6h15.4v5.7c-.8-.6-1.7-.9-2.7-.9h-5.8v3.8h4.4c.8 0 1.5-.3 2.1-.7v6.2c-.8-.4-1.6-.6-2.2-.6h-4.3V56H82c.9 0 1.9-.3 3.1-1L84 60.7z"/><path fill="#FFF" d="M30.3 68.6l.2.2v.4l-.2.2h-1.2v-.7h1.2zm-1.2-1.4v.7h1.2l.2-.2v-.4l-.2-.2h-1.2zm2.5 2.5l-.8.6c-.1 0-.1.1-.2.1h-2.4c-.1 0-.2 0-.2-.1-.2-.1-.2-.4 0-.5l.1-.1v-2.9l-.1-.1c-.1-.1-.1-.1-.1-.2 0-.2.2-.4.4-.4h2.4c.1 0 .2 0 .2.1l.8.6c.1.1.2.3.1.5v.5c.1.2.1.4-.1.5.1.1.2.3.1.5v.5c0 .1-.1.3-.2.4zm-.3-1.8v-.7l.1-.1-.8-.6h-2.4l.2.2v3.2l-.2.1h2.4l.8-.6-.1-.1v-.7l.1-.1-.4-.2.4-.3-.1-.1zm2.5-.7v.7h1.1l.2-.2v-.4l-.2-.2h-1.1zm2.8 2.8c0 .2-.2.4-.4.4h-1.4c-.1 0-.2 0-.3-.1-.1-.1-.1-.4 0-.5l-.3-.8v.7l.1.1c.1.1.1.2.1.3 0 .2-.2.4-.4.4h-1.2c-.1 0-.2 0-.2-.1-.2-.1-.2-.4 0-.5l.1-.1v-2.9l-.1-.1c-.1-.1-.1-.1-.1-.2 0-.2.2-.4.4-.4h2.3c.1 0 .2 0 .2.1l.8.6c.1.1.2.3.1.5v.5c.1.2 0 .3-.1.5l-.5.4.6.9.2.2c.1-.1.1 0 .1.1zm-.4 0l-.2-.2-.7-1.3.7-.5-.1-.1v-.7l.1-.2-.8-.6h-2.3l.2.2v3.2l-.2.2H34l-.2-.2v-1.2h.5l.7 1.3-.1.1h1.3zm4.7-.8v.8c0 .2-.2.4-.4.4h-2.8c-.1 0-.2 0-.2-.1-.2-.1-.2-.4 0-.5l.1-.1v-2.9l-.1-.1c-.1-.1-.1-.1-.1-.2 0-.2.2-.4.4-.4h2.6c.2 0 .4.2.4.4v.9c0 .1 0 .1-.1.2-.1.2-.3.2-.5.1V69l.1-.1c.1-.1.3-.1.4 0 .1 0 .2.1.2.3zm-.4-.1l-.2.2h-1.6v-.7h1l.2.2v-1.1l-.2.2h-1v-.8h1.5l.2.2v-.9h-2.6l.2.2v3.2l-.3.2h2.8v-.9zm6.6-2.9c.1.1.1.4 0 .5l-.2.1-.9 2.9.1.1c.1.1.1.2.1.3 0 .2-.2.4-.4.4h-1.3c-.1 0-.1 0-.2-.1-.1 0-.1.1-.2.1H43c-.1 0-.2 0-.3-.1-.1-.1-.1-.4 0-.5l.1-.1-.9-2.9-.2-.1c-.1-.1-.1-.2-.1-.3 0-.2.2-.4.4-.4h1.2c.1 0 .2.1.3.1.1-.1.2-.1.3-.1h1.1c.1 0 .3.1.3.2.1-.1.2-.2.3-.2h1.3c.1 0 .2 0 .3.1zm-.3.3h-1.3l.2.2-.5 1.7-.4-1.6.2-.2h-1.1l.2.2-.4 1.7-.7-1.9.2-.2H42l.2.2.9 3.2-.2.2h1.2l-.2-.2.4-1.5.4 1.5-.2.2h1.3l-.2-.2 1-3.2.2-.1zm2.9 3.3c.1.1.1.2.1.2 0 .2-.2.4-.4.4h-1.1c-.1 0-.2 0-.2-.1-.2-.1-.2-.4 0-.5l.1-.1v-2.9l-.2-.1c-.1-.1-.1-.1-.1-.2 0-.2.2-.4.4-.4h1.1c.1 0 .2 0 .2.1.1.1.2.4 0 .5l-.1.1v2.9l.2.1zm-.5 0v-3.2l.2-.2h-1.1l.2.2v3.2l-.3.2h1.1l-.1-.2zm5.3 0c.1.1.1.1.1.2 0 .2-.2.4-.4.4h-1.1c-.1 0-.2 0-.2-.1-.2-.1-.2-.4-.1-.5l-.5-.8v.6l.1.1c.1.1.1.2.1.2 0 .2-.2.4-.4.4H51c-.1 0-.2 0-.2-.1-.2-.1-.2-.4 0-.5l.1-.1v-2.9l-.1-.1c-.1-.1-.1-.1-.1-.2 0-.2.2-.4.4-.4h1.1c.1 0 .1 0 .2.1.2.1.2.3.1.5l.5.8v-.6l-.1-.1c-.1-.1-.1-.2-.1-.2 0-.2.2-.4.4-.4h1.1c.1 0 .2 0 .2.1.2.1.2.4 0 .5l-.1.1v2.9l.1.1zm-.6 0v-3.2l.2-.2H53l.2.2v1.9l-1.3-1.9.1-.2h-1.1l.2.2v3.2l-.2.2H52l-.2-.2v-1.9l1.3 1.9-.1.2h1.1l-.2-.2zm5.2-2.2c.1.1.2.4 0 .5l-.1.1v1.3c0 .1-.1.2-.1.3l-.7.5c-.1 0-.1.1-.2.1h-1.5c-.1 0-.2 0-.2-.1l-.8-.6c-.1-.1-.2-.3-.1-.5v-2c-.1-.2-.1-.4.1-.5l.8-.6c.1 0 .1-.1.2-.1h2.1c.2 0 .4.2.4.4v.9c0 .1 0 .1-.1.2.1 0 .2.1.2.1zm-.5.5l.2-.2h-1.1l.2.2v1.1l-.2.2h-1l-.2-.2v-1.8l.2-.2h1.6l.2.2v-.9h-2.1l-.8.5.1.1v2.2l-.1.1.8.6h1.5l.7-.5v-1.4zm-1.2-.2c0-.2.2-.4.4-.4h.5-1.4V69h.7v-.7l-.1-.1c-.1-.1-.1-.2-.1-.3zm9.2 1.3v.8c0 .2-.2.4-.4.4H64c-.1 0-.2 0-.2-.1l-.8-.6c-.1-.1-.2-.3-.1-.5v-2c-.1-.2-.1-.4.1-.5l.8-.6c.1 0 .1-.1.2-.1h2c.2 0 .4.2.4.4v.9c0 .1 0 .2-.1.2-.1.2-.4.2-.5 0l-.1-.1h-1.3V69h1.4l.1-.1c.1-.1.3-.1.4 0 .2 0 .3.1.3.3zm-.5 0l-.2.2h-1.7l-.2-.2v-1.8l.2-.2h1.6l.2.2v-.9h-2l-.8.5.1.1v2.2l-.1.1.8.6h2.2v-.8zm3.7-2l.2.2v1.8l-.2.2h-1.1l-.2-.2v-1.8l.2-.2h1.1zm0 .3H69V69h.8v-1.5zm1.4-.3v2c.1.2 0 .4-.1.5l-.8.6c-.1 0-.1.1-.2.1h-1.6c-.1 0-.2 0-.2-.1l-.8-.6c-.1-.1-.2-.3-.1-.5v-2c-.1-.2-.1-.4.1-.5l.8-.6c.1 0 .1-.1.2-.1h1.6c.1 0 .2 0 .2.1l.8.6c.2.1.2.3.1.5zm-.4 2.2l-.1-2.3.1-.1-.8-.6h-1.6l-.7.6.1.1v2.2l-.1.1.8.6H70l.8-.6zm2.9-.1v.7c0 .2-.2.4-.4.4h-.8c-.2 0-.4-.2-.4-.4v-.7c0-.2.2-.4.4-.4h.8c.2.1.4.2.4.4zm-.5 0h-.7v.7h.7v-.7zm2.6-2l.2.3h-.3l-.2-.3h-.1v.3h-.2v-1h.4c.2 0 .4.2.4.4.1.1 0 .2-.2.3zm0-.3c0-.1-.1-.2-.2-.2h-.2v.4h.2c.1-.1.2-.1.2-.2zm.8.1c0 .6-.4 1-1 1s-1-.4-1-1 .4-1 1-1 1 .4 1 1zm-.2 0c0-.4-.3-.8-.8-.8-.4 0-.8.3-.8.8 0 .4.3.8.8.8.4-.1.8-.4.8-.8z"/></svg>