<svg xmlns="http://www.w3.org/2000/svg" viewBox="0 0 100 100"><path fill="#FFF" d="M59.5 34.1l-5.9-4.3h-7.3l-5.9 4.3-2.1 6.9 2.2 6.9 5.9 4.3h7.3l5.9-4.3 2.2-6.9-2.3-6.9zm-9.4 15.7c-4.8 0-8.7-3.9-8.7-8.7s3.9-8.7 8.7-8.7 8.7 3.9 8.7 8.7-3.9 8.7-8.7 8.7z"/><path fill="#FFF" d="M73.2 30.8c-1.6-1.2-4.4-1.6-6.5.7-2.4-.3-7.2-.8-7.2-.8l-.5-2.4-2.2.3s-2-4.4-2.9-6.5c1.4-2.1.7-4.7-.7-6-1.7-1.5-4-1.6-5.8-.4-1.5 1.1-2.8 3.4-1.3 6.3l-3 6.6-2.4-.3-.3 2.3s-4.8.5-7.1.7c-1.7-2.2-4.7-2.1-6.2-1-1.8 1.2-2.5 3.5-1.8 5.5.8 2.3 2.6 3.2 5.6 2.9 1.7 1.6 5.3 4.8 5.3 4.8l-1 2.1s1.3.8 2 1.2c-.5 2.3-1.1 4.7-1.6 7-2.5 1.3-3.5 3.1-2.9 5.4.5 2.1 2.3 3.6 4.4 3.6 2.5 0 4-1.3 4.8-4.4 2.1-1.2 6.3-3.5 6.3-3.5l1.8 1.5 1.7-1.5s4.1 2.4 6.1 3.6c.1 2.5 2 4.3 4.2 4.5 2.2.2 4.1-1 4.8-3 .4-1 .4-2 .1-3-.5-1.4-1.4-2.3-2.8-2.9l-1.5-7.2 2-1.2-.9-1.9 5.4-4.8c2.4.5 4.6-.5 5.5-2.4.9-2.2.3-4.5-1.4-5.8zm.5 5c-.4 1-1.1 1.6-2 2-.9.4-1.9.3-2.8-.1-2.1 1.9-6.3 5.6-6.3 5.6l.7 1.9-1.7 1.2s1.2 5.6 1.7 8.4c2.4.7 3.2 2.9 2.7 4.6-.5 1.6-2 2.7-3.7 2.6-1-.1-1.9-.5-2.5-1.3-.6-.8-.9-1.7-.8-2.8-2.4-1.4-7.2-4.3-7.2-4.3L50 55l-1.9-1.4s-4.8 2.7-7 4c-.1.1-.2.1-.3.2.2 2.4-1.8 3.9-3.4 4-1.7.1-3.3-1-3.7-2.7-.3-1-.2-2 .4-2.9.6-.9 1.3-1.4 2.4-1.6.6-2.8 1.9-8.2 1.9-8.2s-1.2-.7-1.8-1.1c.2-.7.7-2 .7-2s-4.2-3.8-6.2-5.7c-2.3.9-4.2-.3-4.9-1.9-.7-1.7 0-3.6 1.6-4.6 1.6-1 3.5-.5 4.9 1.4 2.7-.3 8.4-.9 8.4-.9s.4-1.4.5-2.1c.7 0 2.1.2 2.1.2s2.4-5.2 3.5-7.8c-1.5-2.1-.8-4.2.4-5.2 1.4-1.1 3.3-1.2 4.7 0 .8.7 1.2 1.5 1.3 2.5.1 1-.2 1.9-.9 2.7 1.1 2.6 2.3 5.1 3.5 7.7.7 0 1.4-.1 2.1-.1l.6 2.1c2.8.3 5.6.6 8.4 1 1.8-1.8 3.4-2.2 5.1-1.2 1.4 1 2 2.7 1.3 4.4z"/><path fill="#FFF" d="M60.2 48l1.8 8.4c.8-.1 1.4.1 1.9.6s.7 1.2.5 1.9c-.2 1.2-1.4 1.9-2.5 1.5-1.1-.3-2-1.5-1.2-3.2-2.4-1.4-7.2-4.3-7.2-4.3l-1.1.5s4.9 2.9 7.2 4.2c-.4 1.9.7 3.3 2.2 3.7 1.4.3 2.9-.5 3.4-1.8.3-.7.2-1.4-.1-2.1-.5-1.1-1.4-1.7-2.5-1.9-.6-2.8-1.8-8.3-1.8-8.3l-.6.8zM59.9 33.5s5.7.6 8.5.8c.1-.8.5-1.3 1.1-1.7.7-.4 1.3-.3 2 .1 1 .6 1.3 1.9.7 2.9-.7.9-2 1.5-3.4.1-2.1 1.8-6.3 5.5-6.3 5.5l.1 1.2s4.2-3.7 6.3-5.6c1.7 1 3.4.4 4.2-.9.7-1.2.4-2.9-.7-3.8-.6-.5-1.3-.7-2-.6-1.2.1-2 .8-2.6 1.8l-8.4-.9.5 1.1zM45.9 29.3s2.3-5.2 3.4-7.8c-.7-.4-1.1-.9-1.2-1.6-.1-.7.1-1.4.7-1.8.9-.8 2.3-.7 2.9.2.7.9.8 2.4-1 3.3 1.1 2.6 3.3 7.7 3.3 7.7l1.2.3s-2.3-5.2-3.3-7.7c1.5-1.3 1.4-3.1.4-4.3-.9-1.1-2.6-1.3-3.8-.5-.6.4-1 1-1.2 1.7-.3 1.2.1 2.1.9 3-1.1 2.6-3.5 7.8-3.5 7.8l1.2-.3zM37.6 41.2s-4.3-3.8-6.4-5.7c-.5.5-1.2.8-1.9.7-.8-.1-1.2-.5-1.5-1.2-.5-1.1.1-2.4 1.1-2.7 1.1-.4 2.5 0 2.9 1.9 2.8-.3 8.4-.8 8.4-.8l.6-1.1s-5.6.5-8.3.8c-.8-1.8-2.5-2.3-3.9-1.7-1.3.6-2.1 2.1-1.7 3.5.2.7.7 1.3 1.3 1.7 1 .6 2.1.5 3.1.1l6.3 5.7v-1.2zM46.4 52.8s-4.9 2.9-7.4 4.3c.3.7.4 1.3 0 2-.3.7-.9 1-1.6 1.1-1.2.1-2.2-.8-2.2-1.9 0-1.1.8-2.4 2.7-2.1.6-2.7 1.9-8.2 1.9-8.2l-.8-.9s-1.2 5.5-1.8 8.2c-1.9.2-3 1.7-2.8 3.2.1 1.4 1.4 2.6 2.8 2.7.7 0 1.4-.2 2-.7.9-.8 1.2-1.8 1-3 2.4-1.4 7.4-4.2 7.4-4.2l-1.2-.5z"/><path fill="#FFF" d="M61.9 39.2l.8-2.4-2.1-1.5zM51.9 29l-2-1.5-2 1.5zM50 54.3l2-1.5h-4zM42.1 30.1l-.7 2.4 3.2-2.4zM38.1 42.7l-.8 2.3 2.1 1.5zM58.6 49.3l-3.3 2.4h2.5zM57.8 30.1h-2.5l3.3 2.4zM38.1 39.1l1.2-3.8-2 1.5zM44.6 51.7l-3.2-2.3.8 2.3zM60.7 46.5l1.9-1.5-.7-2.3z"/><ellipse fill="none" stroke="#FFF" stroke-width=".4" stroke-miterlimit="10" cx="50.1" cy="41.1" rx="8.1" ry="8.1"/><g fill="#FFF"><path d="M45.4 37.8c.1.3 0 2.4 0 2.4h9.5s-.1-2 0-2.4c.2-.7 1-1.4 1-1.4H44.4s.8.8 1 1.4zM49.4 46.7l.7.5.7-.5v-5.9h-1.4zM47.3 40.8h1.4v5.8h-1.4zM51.4 46.7h1.4v-5.9h-1.4zM54.8 40.8h-1.3v5.8c.7.1 1.3-.5 1.3-1.2v-4.6zM45.3 41v4.7c0 .6.7 1.1 1.3 1v-5.8h-1.3c.1 0 0 .1 0 .1z"/></g><g fill="#FFF"><path d="M23.1 70.1h3v8c0 1.3 0 2.1.1 2.5.1.6.4 1.1.9 1.5.5.4 1.1.5 2 .5.8 0 1.5-.2 1.9-.5s.7-.8.8-1.3.1-1.3.1-2.5v-8.2h3v7.8c0 1.8-.1 3-.2 3.8-.2.7-.5 1.4-.9 1.9s-1 .9-1.7 1.2c-.7.3-1.7.4-2.8.4-1.4 0-2.5-.2-3.2-.5-.7-.3-1.3-.8-1.7-1.3s-.7-1.1-.8-1.6c-.2-.8-.3-2.1-.3-3.8v-7.9zM37.3 80.1l2.9-.3c.2 1 .5 1.7 1.1 2.1.5.5 1.3.7 2.2.7 1 0 1.7-.2 2.2-.6.5-.4.7-.9.7-1.4 0-.3-.1-.6-.3-.9-.2-.2-.6-.5-1.1-.6-.3-.1-1.1-.3-2.4-.6-1.6-.4-2.7-.9-3.4-1.5-.9-.8-1.4-1.8-1.4-3 0-.8.2-1.5.6-2.1.4-.7 1-1.2 1.8-1.5.8-.3 1.8-.5 2.9-.5 1.9 0 3.3.4 4.2 1.2.9.8 1.4 1.9 1.5 3.3l-3 .1c-.1-.8-.4-1.3-.8-1.6-.4-.3-1.1-.5-1.9-.5-.9 0-1.5.2-2 .5-.3.2-.5.5-.5.9 0 .3.1.6.4.9.4.3 1.3.6 2.7 1 1.5.3 2.5.7 3.2 1.1.7.4 1.2.9 1.6 1.5.4.6.6 1.4.6 2.4 0 .8-.2 1.6-.7 2.4-.5.7-1.1 1.3-2 1.7-.9.4-1.9.5-3.2.5-1.9 0-3.3-.4-4.3-1.3-.8-1-1.4-2.3-1.6-3.9zM51.1 80.1l2.9-.3c.2 1 .5 1.7 1.1 2.1.5.5 1.3.7 2.2.7 1 0 1.7-.2 2.2-.6.5-.4.7-.9.7-1.4 0-.3-.1-.6-.3-.9-.2-.2-.6-.5-1.1-.6-.3-.1-1.1-.3-2.4-.6-1.6-.4-2.7-.9-3.4-1.5-.9-.8-1.4-1.8-1.4-3 0-.8.2-1.5.6-2.1.4-.7 1-1.2 1.8-1.5.8-.3 1.8-.5 2.9-.5 1.9 0 3.3.4 4.2 1.2.9.8 1.4 1.9 1.5 3.3l-3 .1c-.1-.8-.4-1.3-.8-1.6-.4-.3-1.1-.5-1.9-.5-.9 0-1.5.2-2 .5-.3.2-.5.5-.5.9 0 .3.1.6.4.9.4.3 1.3.6 2.7 1 1.5.3 2.5.7 3.2 1.1.7.4 1.2.9 1.6 1.5.4.6.6 1.4.6 2.4 0 .8-.2 1.6-.7 2.4-.5.7-1.1 1.3-2 1.7-.9.4-1.9.5-3.2.5-1.9 0-3.3-.4-4.3-1.3-.8-1-1.4-2.3-1.6-3.9zM64.9 80.1l2.9-.3c.2 1 .5 1.7 1.1 2.1.5.5 1.3.7 2.2.7 1 0 1.7-.2 2.2-.6.5-.4.7-.9.7-1.4 0-.3-.1-.6-.3-.9-.2-.2-.6-.5-1.1-.6-.3-.1-1.1-.3-2.4-.6-1.6-.4-2.7-.9-3.4-1.5-.9-.8-1.4-1.8-1.4-3 0-.8.2-1.5.6-2.1.4-.7 1-1.2 1.8-1.5.8-.3 1.8-.5 2.9-.5 1.9 0 3.3.4 4.2 1.2.9.8 1.4 1.9 1.5 3.3l-3 .1c-.1-.8-.4-1.3-.8-1.6-.4-.3-1.1-.5-1.9-.5-.9 0-1.5.2-2 .5-.3.2-.5.5-.5.9 0 .3.1.6.4.9.4.3 1.3.6 2.7 1 1.5.3 2.5.7 3.2 1.1.7.4 1.2.9 1.6 1.5.4.6.6 1.4.6 2.4 0 .8-.2 1.6-.7 2.4-.5.7-1.1 1.3-2 1.7-.9.4-1.9.5-3.2.5-1.9 0-3.3-.4-4.3-1.3-.8-1-1.4-2.3-1.6-3.9z"/></g></svg>