<svg xmlns="http://www.w3.org/2000/svg" viewBox="0 0 100 100"><path fill="#FFF" d="M55.9 43c0-3 2-5.9 3.1-5.3 1.3.6-.9 3.4-3.1 5.3m-13.7 1.1c0-2.4 2.4-7 3.8-6.5 1.7.6-1.5 5.2-3.8 6.5m-2.4 17.2c-1.1 0-1.8-.6-1.8-1.8 0-3.1 4.3-6.1 7.6-7.7-.6 4.3-2.1 9.3-5.8 9.5m19.9-10.2c-2.5 0-4.4 1.8-4.4 4 0 1.8 1.1 3.3 2.5 3.3.5 0 1-.3 1-.9 0-.9-1.3-1.2-1.2-2.6.1-.9.9-1.6 1.8-1.6 1.7 0 2.6 1.7 2.6 3.4-.1 2.7-2.1 4.6-4.4 4.6-3.1 0-5-2.9-5-6 0-4.7 3.1-6.5 4.7-6.9 0 0 4.2.7 4-1.1-.1-.8-1.3-1.1-2.1-1.2-1 0-1.9.3-1.9.3-.5-.3-.9-.8-1.1-1.3 3-2.3 5.1-4.4 5.1-6.9 0-1.3-.9-2.5-2.5-2.5-3 0-5.2 3.8-5.2 7.2l.1 1.7c-1.9 1.4-3.3 2.2-5.8 3.8l.3-2.2c.9-.9 2.1-2.4 2.1-3.5 0-.5-.3-.9-.9-.9-1.5 0-2.5 2.2-2.8 3.7-.7.8-2 1.8-3.1 1.8-.9 0-1.2-.8-1.2-1.1 2.8-.9 6.2-4.7 6.2-8.1 0-.7-.3-2.3-2.5-2.3-3.3 0-6 4.9-6 8.6-1.2 0-1.6-1.2-1.6-2.2 0-.9.4-1.9.4-2.2 0-.3-.1-.7-.6-.7-1.1 0-1.7 1.5-1.7 3.1.1 2.3 1.6 3.8 3.6 3.9.3 1.4 1.5 2.7 3 2.7.9 0 2.1-.3 2.9-1l-.2 1.4c-3.2 1.7-5.5 2.8-7.6 4.7a7.4 7.4 0 0 0-2.6 5.2c0 2.2 1.4 4.2 4.2 4.2 3.3 0 5.9-2.7 7.1-6.4.6-1.7.8-4.3 1-6.6 3.3-1.9 4.9-3 6.7-4.2.2.4.4.7.7.9a9.2 9.2 0 0 0-5.2 8.4c0 3.8 2.5 8 7.6 8a7 7 0 0 0 7-6.7c-.1-3.1-1.8-5.8-5-5.8m12.5 6.2s-.1.1-.1 0l-.1-.1s.9-2.6.9-5.6c0-3.2-1.3-5.2-3-5.2-1 0-1.7.7-1.7 1.8 0 2 2.4 2.1 2.4 6.4 0 1.7-.4 3.4-.9 5.2C66.9 69 58.4 73.2 50 73.2c-3.9 0-6.6-.8-7.4-1.2 0 0-.1-.1 0-.1l.1-.1c.3.1 2.7.9 5.6.9 3.2 0 5.1-1.3 5.1-2.9 0-1-.8-1.8-1.8-1.8-2 0-2.1 2.5-6.3 2.5-1.8 0-3.4-.4-5.3-.9-9-2.8-13.3-11.3-13.3-19.7a24 24 0 0 1 1.2-7.4h.1l.1.1c-.1.3-.9 2.7-.9 5.6 0 3.2 1.3 5.1 3 5.1.9 0 1.7-.7 1.7-1.7 0-2-2.4-2.2-2.4-6.4 0-1.8.4-3.4.9-5.3 2.8-9 11.3-13.2 19.6-13.3a23 23 0 0 1 7.4 1.2v.1l-.1.1s-2.3-.9-5.6-.9c-3.1 0-5.1 1.3-5.1 3 0 .9.7 1.7 1.8 1.7 2 0 2.1-2.4 6.3-2.4 1.8 0 3.4.4 5.3.9 9.1 2.8 13.2 11.3 13.3 19.6.1 4.2-1.1 7.4-1.1 7.4M50 24.8a25 25 0 1 0 0 50 25 25 0 0 0 0-50"/></svg>