<svg xmlns="http://www.w3.org/2000/svg" viewBox="0 0 100 100"><path fill="#FFF" d="M59.5 34.1l-5.9-4.3h-7.3l-5.9 4.3-2.1 6.9 2.2 6.9 5.9 4.3h7.3l5.9-4.3 2.2-6.9-2.3-6.9zm-9.4 15.7a8.7 8.7 0 1 1 0-17.4 8.7 8.7 0 0 1 0 17.4z"/><path fill="#FFF" d="M73.2 30.8a4.8 4.8 0 0 0-6.5.7 495 495 0 0 0-7.2-.8l-.5-2.4-2.2.3-2.9-6.5c1.4-2.1.7-4.7-.7-6a4.7 4.7 0 0 0-5.8-.4 4.7 4.7 0 0 0-1.3 6.3l-3 6.6-2.4-.3-.3 2.3-7.1.7a4.7 4.7 0 0 0-6.2-1 4.7 4.7 0 0 0-1.8 5.5c.8 2.3 2.6 3.2 5.6 2.9a358 358 0 0 0 5.3 4.8l-1 2.1 2 1.2-1.6 7c-2.5 1.3-3.5 3.1-2.9 5.4a4.6 4.6 0 0 0 4.4 3.6c2.5 0 4-1.3 4.8-4.4l6.3-3.5 1.8 1.5 1.7-1.5 6.1 3.6c.1 2.5 2 4.3 4.2 4.5 2.2.2 4.1-1 4.8-3 .4-1 .4-2 .1-3a4.7 4.7 0 0 0-2.8-2.9l-1.5-7.2 2-1.2-.9-1.9 5.4-4.8c2.4.5 4.6-.5 5.5-2.4.9-2.2.3-4.5-1.4-5.8zm.5 5c-.4 1-1.1 1.6-2 2-.9.4-1.9.3-2.8-.1l-6.3 5.6.7 1.9-1.7 1.2 1.7 8.4c2.4.7 3.2 2.9 2.7 4.6-.5 1.6-2 2.7-3.7 2.6-1-.1-1.9-.5-2.5-1.3-.6-.8-.9-1.7-.8-2.8l-7.2-4.3L50 55l-1.9-1.4-7 4-.3.2a3.7 3.7 0 0 1-3.4 4c-1.7.1-3.3-1-3.7-2.7-.3-1-.2-2 .4-2.9.6-.9 1.3-1.4 2.4-1.6l1.9-8.2-1.8-1.1.7-2-6.2-5.7c-2.3.9-4.2-.3-4.9-1.9-.7-1.7 0-3.6 1.6-4.6 1.6-1 3.5-.5 4.9 1.4l8.4-.9.5-2.1 2.1.2 3.5-7.8c-1.5-2.1-.8-4.2.4-5.2a3.6 3.6 0 0 1 4.7 0c.8.7 1.2 1.5 1.3 2.5.1 1-.2 1.9-.9 2.7l3.5 7.7 2.1-.1.6 2.1 8.4 1c1.8-1.8 3.4-2.2 5.1-1.2 1.4 1 2 2.7 1.3 4.4z"/><path fill="#FFF" d="M60.2 48l1.8 8.4c.8-.1 1.4.1 1.9.6s.7 1.2.5 1.9a1.9 1.9 0 0 1-2.5 1.5c-1.1-.3-2-1.5-1.2-3.2l-7.2-4.3-1.1.5 7.2 4.2a3 3 0 0 0 2.2 3.7 3 3 0 0 0 3.4-1.8c.3-.7.2-1.4-.1-2.1a3.2 3.2 0 0 0-2.5-1.9l-1.8-8.3-.6.8zm-.3-14.5l8.5.8c.1-.8.5-1.3 1.1-1.7.7-.4 1.3-.3 2 .1 1 .6 1.3 1.9.7 2.9-.7.9-2 1.5-3.4.1l-6.3 5.5.1 1.2 6.3-5.6c1.7 1 3.4.4 4.2-.9a3 3 0 0 0-.7-3.8c-.6-.5-1.3-.7-2-.6-1.2.1-2 .8-2.6 1.8l-8.4-.9.5 1.1zm-14-4.2l3.4-7.8c-.7-.4-1.1-.9-1.2-1.6-.1-.7.1-1.4.7-1.8.9-.8 2.3-.7 2.9.2.7.9.8 2.4-1 3.3l3.3 7.7 1.2.3-3.3-7.7a3 3 0 0 0 .4-4.3 3 3 0 0 0-5 1.2c-.3 1.2.1 2.1.9 3a376 376 0 0 1-3.5 7.8l1.2-.3zm-8.3 11.9l-6.4-5.7c-.5.5-1.2.8-1.9.7-.8-.1-1.2-.5-1.5-1.2-.5-1.1.1-2.4 1.1-2.7 1.1-.4 2.5 0 2.9 1.9l8.4-.8.6-1.1-8.3.8c-.8-1.8-2.5-2.3-3.9-1.7a3 3 0 0 0-1.7 3.5c.2.7.7 1.3 1.3 1.7 1 .6 2.1.5 3.1.1l6.3 5.7v-1.2zm8.8 11.6L39 57.1c.3.7.4 1.3 0 2-.3.7-.9 1-1.6 1.1-1.2.1-2.2-.8-2.2-1.9 0-1.1.8-2.4 2.7-2.1l1.9-8.2-.8-.9-1.8 8.2c-1.9.2-3 1.7-2.8 3.2.1 1.4 1.4 2.6 2.8 2.7a3 3 0 0 0 2-.7 3 3 0 0 0 1-3l7.4-4.2-1.2-.5z"/><path fill="#FFF" d="M61.9 39.2l.8-2.4-2.1-1.5zM51.9 29l-2-1.5-2 1.5zM50 54.3l2-1.5h-4zm-7.9-24.2l-.7 2.4 3.2-2.4zm-4 12.6l-.8 2.3 2.1 1.5zm20.5 6.6l-3.3 2.4h2.5zm-.8-19.2h-2.5l3.3 2.4zm-19.7 9l1.2-3.8-2 1.5zm6.5 12.6l-3.2-2.3.8 2.3zm16.1-5.2l1.9-1.5-.7-2.3z"/><ellipse cx="50.1" cy="41.1" fill="none" stroke="#FFF" stroke-miterlimit="10" stroke-width=".4" rx="8.1" ry="8.1"/><path fill="#FFF" d="M45.4 37.8v2.4h9.5v-2.4c.2-.7 1-1.4 1-1.4H44.4s.8.8 1 1.4zm4 8.9l.7.5.7-.5v-5.9h-1.4zm-2.1-5.9h1.4v5.8h-1.4zm4.1 5.9h1.4v-5.9h-1.4zm3.4-5.9h-1.3v5.8c.7.1 1.3-.5 1.3-1.2v-4.6zm-9.5.2v4.7c0 .6.7 1.1 1.3 1v-5.8h-1.3c.1 0 0 .1 0 .1zM23.1 70.1h3v8l.1 2.5c.1.6.4 1.1.9 1.5.5.4 1.1.5 2 .5.8 0 1.5-.2 1.9-.5s.7-.8.8-1.3l.1-2.5v-8.2h3v7.8l-.2 3.8c-.2.7-.5 1.4-.9 1.9s-1 .9-1.7 1.2c-.7.3-1.7.4-2.8.4-1.4 0-2.5-.2-3.2-.5-.7-.3-1.3-.8-1.7-1.3s-.7-1.1-.8-1.6c-.2-.8-.3-2.1-.3-3.8v-7.9zm14.2 10l2.9-.3c.2 1 .5 1.7 1.1 2.1.5.5 1.3.7 2.2.7 1 0 1.7-.2 2.2-.6.5-.4.7-.9.7-1.4l-.3-.9c-.2-.2-.6-.5-1.1-.6a38 38 0 0 0-2.4-.6 8.3 8.3 0 0 1-3.4-1.5 3.9 3.9 0 0 1-1.4-3c0-.8.2-1.5.6-2.1.4-.7 1-1.2 1.8-1.5.8-.3 1.8-.5 2.9-.5 1.9 0 3.3.4 4.2 1.2.9.8 1.4 1.9 1.5 3.3l-3 .1c-.1-.8-.4-1.3-.8-1.6-.4-.3-1.1-.5-1.9-.5-.9 0-1.5.2-2 .5a1 1 0 0 0-.5.9c0 .3.1.6.4.9.4.3 1.3.6 2.7 1 1.5.3 2.5.7 3.2 1.1.7.4 1.2.9 1.6 1.5.4.6.6 1.4.6 2.4a4.4 4.4 0 0 1-2.7 4.1c-.9.4-1.9.5-3.2.5-1.9 0-3.3-.4-4.3-1.3-.8-1-1.4-2.3-1.6-3.9zm13.8 0l2.9-.3c.2 1 .5 1.7 1.1 2.1.5.5 1.3.7 2.2.7 1 0 1.7-.2 2.2-.6.5-.4.7-.9.7-1.4l-.3-.9c-.2-.2-.6-.5-1.1-.6a38 38 0 0 0-2.4-.6A8.3 8.3 0 0 1 53 77a3.9 3.9 0 0 1-1.4-3c0-.8.2-1.5.6-2.1.4-.7 1-1.2 1.8-1.5.8-.3 1.8-.5 2.9-.5 1.9 0 3.3.4 4.2 1.2.9.8 1.4 1.9 1.5 3.3l-3 .1c-.1-.8-.4-1.3-.8-1.6-.4-.3-1.1-.5-1.9-.5-.9 0-1.5.2-2 .5a1 1 0 0 0-.5.9c0 .3.1.6.4.9.4.3 1.3.6 2.7 1 1.5.3 2.5.7 3.2 1.1.7.4 1.2.9 1.6 1.5.4.6.6 1.4.6 2.4a4.4 4.4 0 0 1-2.7 4.1c-.9.4-1.9.5-3.2.5-1.9 0-3.3-.4-4.3-1.3-.8-1-1.4-2.3-1.6-3.9zm13.8 0l2.9-.3c.2 1 .5 1.7 1.1 2.1.5.5 1.3.7 2.2.7 1 0 1.7-.2 2.2-.6.5-.4.7-.9.7-1.4l-.3-.9c-.2-.2-.6-.5-1.1-.6a38 38 0 0 0-2.4-.6 8.3 8.3 0 0 1-3.4-1.5 3.9 3.9 0 0 1-1.4-3c0-.8.2-1.5.6-2.1.4-.7 1-1.2 1.8-1.5.8-.3 1.8-.5 2.9-.5 1.9 0 3.3.4 4.2 1.2.9.8 1.4 1.9 1.5 3.3l-3 .1c-.1-.8-.4-1.3-.8-1.6-.4-.3-1.1-.5-1.9-.5-.9 0-1.5.2-2 .5a1 1 0 0 0-.5.9c0 .3.1.6.4.9.4.3 1.3.6 2.7 1 1.5.3 2.5.7 3.2 1.1.7.4 1.2.9 1.6 1.5.4.6.6 1.4.6 2.4a4.4 4.4 0 0 1-2.7 4.1c-.9.4-1.9.5-3.2.5-1.9 0-3.3-.4-4.3-1.3-.8-1-1.4-2.3-1.6-3.9z"/></svg>