<svg xmlns="http://www.w3.org/2000/svg" viewBox="0 0 100 100"><path fill="#FFF" d="M92.8 48.8v-1c0-1.3-.8-2.1-2.6-2.1H79.1v9.9h11.1c1.8 0 2.6-.8 2.6-2.1v-1.1c0-.4-.1-.5-.4-.8l-1.2-1 1.2-1c.3-.3.4-.4.4-.8zM91 53.9H80.9v-2.4H91v2.4zm0-4.1H80.9v-2.4H91v2.4zm-17.6-1v-1c0-1.3-.8-2.1-2.6-2.1H59.7v9.9h11.1c1.8 0 2.6-.8 2.6-2.1v-1.1c0-.4-.1-.5-.4-.8l-1.2-1 1.2-1c.3-.3.4-.4.4-.8zm-1.9 5.1H61.4v-2.4h10.1v2.4zm0-4.1H61.4v-2.4h10.1v2.4zm-19.9-4.1v8.1h-9.5v-8.1h-1.8v7.6c0 1.4.8 2.2 2.5 2.2H51c1.6 0 2.5-.8 2.5-2.2v-7.6h-1.9zm-29 4v-4h-1.8v9.9h1.8v-4.1h9.7v4.1h1.8v-9.9h-1.8v4h-9.7zm-7-2.2v-1.7H5c-1.6 0-2.4.8-2.4 2.2v5.4c0 1.4.8 2.2 2.4 2.2h10.6v-1.7H4.4v-6.4h11.2zm81.4-.7c-.3.3-.7.5-1.1.5-.4 0-.8-.1-1-.5-.3-.3-.5-.7-.5-1.1 0-.5.1-.8.5-1.1.3-.3.7-.5 1-.5.5 0 .8.2 1.1.5.3.3.5.7.5 1.1 0 .4-.2.8-.5 1.1zm-2-2c-.3.2-.4.5-.4.9 0 .3.1.7.4.9.3.3.6.4.9.4.4 0 .7-.1 1-.4.3-.3.3-.6.3-.9 0-.4-.1-.7-.3-.9-.3-.3-.6-.4-1-.4-.3 0-.6.1-.9.4zm.9 0l.5.1c.2.1.3.2.3.4s-.1.3-.2.3l-.2.1.3.1.1.3v.1l.1.1v.2h-.3v-.1l-.1-.1v-.1l-.1-.4-.3-.1h-.3v.7h-.3v-1.7l.5.1zm.4.3l-.4-.1h-.3v.6h.6l.1-.3v-.2z"/></svg>