<svg xmlns="http://www.w3.org/2000/svg" viewBox="0 0 100 100"><path stroke="none" d="M59.5 34.1l-5.9-4.3h-7.3l-5.9 4.3-2.1 6.9 2.2 6.9 5.9 4.3h7.3l5.9-4.3 2.2-6.9-2.3-6.9zm-9.4 15.7c-4.8 0-8.7-3.9-8.7-8.7s3.9-8.7 8.7-8.7 8.7 3.9 8.7 8.7-3.9 8.7-8.7 8.7zm23.1-19c-1.6-1.2-4.4-1.6-6.5.7-2.4-.3-7.2-.8-7.2-.8l-.5-2.4-2.2.3s-2-4.4-2.9-6.5c1.4-2.1.7-4.7-.7-6-1.7-1.5-4-1.6-5.8-.4-1.5 1.1-2.8 3.4-1.3 6.3l-3 6.6-2.4-.3-.3 2.3s-4.8.5-7.1.7c-1.7-2.2-4.7-2.1-6.2-1-1.8 1.2-2.5 3.5-1.8 5.5.8 2.3 2.6 3.2 5.6 2.9 1.7 1.6 5.3 4.8 5.3 4.8l-1 2.1s1.3.8 2 1.2c-.5 2.3-1.1 4.7-1.6 7-2.5 1.3-3.5 3.1-2.9 5.4.5 2.1 2.3 3.6 4.4 3.6 2.5 0 4-1.3 4.8-4.4 2.1-1.2 6.3-3.5 6.3-3.5l1.8 1.5 1.7-1.5s4.1 2.4 6.1 3.6c.1 2.5 2 4.3 4.2 4.5 2.2.2 4.1-1 4.8-3 .4-1 .4-2 .1-3-.5-1.4-1.4-2.3-2.8-2.9l-1.5-7.2 2-1.2-.9-1.9 5.4-4.8c2.4.5 4.6-.5 5.5-2.4.9-2.2.3-4.5-1.4-5.8zm.5 5c-.4 1-1.1 1.6-2 2-.9.4-1.9.3-2.8-.1-2.1 1.9-6.3 5.6-6.3 5.6l.7 1.9-1.7 1.2s1.2 5.6 1.7 8.4c2.4.7 3.2 2.9 2.7 4.6-.5 1.6-2 2.7-3.7 2.6-1-.1-1.9-.5-2.5-1.3-.6-.8-.9-1.7-.8-2.8-2.4-1.4-7.2-4.3-7.2-4.3L50 55l-1.9-1.4s-4.8 2.7-7 4c-.1.1-.2.1-.3.2.2 2.4-1.8 3.9-3.4 4-1.7.1-3.3-1-3.7-2.7-.3-1-.2-2 .4-2.9.6-.9 1.3-1.4 2.4-1.6.6-2.8 1.9-8.2 1.9-8.2s-1.2-.7-1.8-1.1c.2-.7.7-2 .7-2s-4.2-3.8-6.2-5.7c-2.3.9-4.2-.3-4.9-1.9-.7-1.7 0-3.6 1.6-4.6 1.6-1 3.5-.5 4.9 1.4 2.7-.3 8.4-.9 8.4-.9s.4-1.4.5-2.1c.7 0 2.1.2 2.1.2s2.4-5.2 3.5-7.8c-1.5-2.1-.8-4.2.4-5.2 1.4-1.1 3.3-1.2 4.7 0 .8.7 1.2 1.5 1.3 2.5.1 1-.2 1.9-.9 2.7 1.1 2.6 2.3 5.1 3.5 7.7.7 0 1.4-.1 2.1-.1l.6 2.1c2.8.3 5.6.6 8.4 1 1.8-1.8 3.4-2.2 5.1-1.2 1.4 1 2 2.7 1.3 4.4zM61 47.1s1.2 5.6 1.8 8.3c1.1.2 2 .8 2.5 1.9.3.7.3 1.4.1 2.1-.5 1.3-2 2.1-3.4 1.8-1.5-.3-2.6-1.8-2.2-3.7l-7.2-4.2 1.1-.5s4.8 2.9 7.2 4.3c-.8 1.8.1 2.9 1.2 3.2 1.1.3 2.3-.4 2.5-1.5.1-.7 0-1.4-.5-1.9s-1.2-.7-1.9-.6l-1.8-8.4.6-.8zm-1.8-14.6l8.4.9c.6-1 1.4-1.7 2.6-1.8.7-.1 1.4.1 2 .6 1.1.9 1.4 2.6.7 3.8-.8 1.3-2.5 1.9-4.2.9-2.1 1.8-6.3 5.6-6.3 5.6l-.1-1.2s4.2-3.7 6.3-5.5c1.4 1.3 2.8.8 3.4-.1.7-.9.3-2.3-.7-2.9-.6-.4-1.3-.4-2-.1-.7.3-1 .9-1.1 1.7-2.9-.3-8.5-.8-8.5-.8l-.5-1.1zm-14.4-3s2.3-5.2 3.5-7.8c-.8-.9-1.2-1.8-.9-3 .2-.7.6-1.3 1.2-1.7 1.2-.8 2.9-.6 3.8.5 1 1.2 1.1 3-.4 4.3 1.1 2.5 3.3 7.7 3.3 7.7l-1.2-.3s-2.2-5.2-3.3-7.7c1.7-1 1.6-2.4 1-3.3-.7-.9-2.1-1-2.9-.2-.5.5-.8 1.1-.7 1.8.1.7.5 1.2 1.2 1.6-1.2 2.6-3.4 7.8-3.4 7.8l-1.2.3zm-7.3 12.9l-6.3-5.7c-1 .5-2.1.6-3.1-.1-.6-.4-1.1-1-1.3-1.7-.4-1.4.3-2.9 1.7-3.5 1.4-.6 3.1-.1 3.9 1.7 2.7-.3 8.3-.8 8.3-.8l-.6 1.1s-5.6.5-8.4.8c-.4-1.9-1.8-2.3-2.9-1.9-1.1.4-1.6 1.6-1.1 2.7.3.7.8 1.1 1.5 1.2.7.1 1.4-.1 1.9-.7 2.1 1.9 6.4 5.7 6.4 5.7v1.2zm10 10.9s-4.9 2.8-7.4 4.2c.1 1.1-.1 2.2-1 3-.6.5-1.2.7-2 .7-1.4 0-2.7-1.2-2.8-2.7-.1-1.5.9-3 2.8-3.2.6-2.7 1.8-8.2 1.8-8.2l.8.9s-1.2 5.5-1.9 8.2c-2-.2-2.7 1-2.7 2.1s1.1 2.1 2.2 1.9c.7-.1 1.3-.4 1.6-1.1.3-.7.3-1.3 0-2 2.5-1.4 7.4-4.3 7.4-4.3l1.2.5zm13.1-18l2.1 1.6-.8 2.4-1.3-4zM47.9 29l2-1.5 2 1.5h-4zm.1 23.8h4l-2 1.5-2-1.5zm-3.4-22.7l-3.3 2.4.7-2.4h2.6zm-5.2 16.4L37.3 45l.8-2.4 1.3 3.9zm18.4 5.2h-2.5l3.3-2.4-.8 2.4zm.8-19.2l-3.3-2.4h2.5l.8 2.4zm-21.3 4.3l2-1.5-1.3 3.8-.7-2.3zm4.9 14.9l-.7-2.3 3.2 2.3h-2.5zm19.7-9l.7 2.3-1.9 1.4 1.2-3.7zm-17.5-6.3h11.5s-.8.8-1 1.4c-.1.3 0 2.4 0 2.4h-9.5s.1-2 0-2.4c-.2-.6-1-1.4-1-1.4zm5 4.4h1.4v5.9l-.7.5-.7-.5v-5.9zm-2.1 0h1.4v5.8h-1.4v-5.8zm4.1 0h1.3v5.9h-1.3v-5.9zm3.4 4.7c0 .7-.6 1.2-1.3 1.2v-5.8h1.3v4.6zm-9.4-4.7h1.3v5.8c-.6.1-1.3-.4-1.3-1v-4.7-.1zM23.1 70.1h3v8c0 1.3 0 2.1.1 2.5.1.6.4 1.1.9 1.5.5.4 1.1.5 2 .5.8 0 1.5-.2 1.9-.5s.7-.8.8-1.3.1-1.3.1-2.5v-8.2h3v7.8c0 1.8-.1 3-.2 3.8-.2.7-.5 1.4-.9 1.9s-1 .9-1.7 1.2c-.7.3-1.7.4-2.8.4-1.4 0-2.5-.2-3.2-.5-.7-.3-1.3-.8-1.7-1.3s-.7-1.1-.8-1.6c-.2-.8-.3-2.1-.3-3.8v-7.9zm14.2 10l2.9-.3c.2 1 .5 1.7 1.1 2.1.5.5 1.3.7 2.2.7 1 0 1.7-.2 2.2-.6.5-.4.7-.9.7-1.4 0-.3-.1-.6-.3-.9-.2-.2-.6-.5-1.1-.6-.3-.1-1.1-.3-2.4-.6-1.6-.4-2.7-.9-3.4-1.5-.9-.8-1.4-1.8-1.4-3 0-.8.2-1.5.6-2.1.4-.7 1-1.2 1.8-1.5.8-.3 1.8-.5 2.9-.5 1.9 0 3.3.4 4.2 1.2.9.8 1.4 1.9 1.5 3.3l-3 .1c-.1-.8-.4-1.3-.8-1.6-.4-.3-1.1-.5-1.9-.5-.9 0-1.5.2-2 .5-.3.2-.5.5-.5.9 0 .3.1.6.4.9.4.3 1.3.6 2.7 1 1.5.3 2.5.7 3.2 1.1.7.4 1.2.9 1.6 1.5.4.6.6 1.4.6 2.4 0 .8-.2 1.6-.7 2.4-.5.7-1.1 1.3-2 1.7-.9.4-1.9.5-3.2.5-1.9 0-3.3-.4-4.3-1.3-.8-1-1.4-2.3-1.6-3.9zm13.8 0l2.9-.3c.2 1 .5 1.7 1.1 2.1.5.5 1.3.7 2.2.7 1 0 1.7-.2 2.2-.6.5-.4.7-.9.7-1.4 0-.3-.1-.6-.3-.9-.2-.2-.6-.5-1.1-.6-.3-.1-1.1-.3-2.4-.6-1.6-.4-2.7-.9-3.4-1.5-.9-.8-1.4-1.8-1.4-3 0-.8.2-1.5.6-2.1.4-.7 1-1.2 1.8-1.5.8-.3 1.8-.5 2.9-.5 1.9 0 3.3.4 4.2 1.2.9.8 1.4 1.9 1.5 3.3l-3 .1c-.1-.8-.4-1.3-.8-1.6-.4-.3-1.1-.5-1.9-.5-.9 0-1.5.2-2 .5-.3.2-.5.5-.5.9 0 .3.1.6.4.9.4.3 1.3.6 2.7 1 1.5.3 2.5.7 3.2 1.1.7.4 1.2.9 1.6 1.5.4.6.6 1.4.6 2.4 0 .8-.2 1.6-.7 2.4-.5.7-1.1 1.3-2 1.7-.9.4-1.9.5-3.2.5-1.9 0-3.3-.4-4.3-1.3-.8-1-1.4-2.3-1.6-3.9zm13.8 0l2.9-.3c.2 1 .5 1.7 1.1 2.1.5.5 1.3.7 2.2.7 1 0 1.7-.2 2.2-.6.5-.4.7-.9.7-1.4 0-.3-.1-.6-.3-.9-.2-.2-.6-.5-1.1-.6-.3-.1-1.1-.3-2.4-.6-1.6-.4-2.7-.9-3.4-1.5-.9-.8-1.4-1.8-1.4-3 0-.8.2-1.5.6-2.1.4-.7 1-1.2 1.8-1.5.8-.3 1.8-.5 2.9-.5 1.9 0 3.3.4 4.2 1.2.9.8 1.4 1.9 1.5 3.3l-3 .1c-.1-.8-.4-1.3-.8-1.6-.4-.3-1.1-.5-1.9-.5-.9 0-1.5.2-2 .5-.3.2-.5.5-.5.9 0 .3.1.6.4.9.4.3 1.3.6 2.7 1 1.5.3 2.5.7 3.2 1.1.7.4 1.2.9 1.6 1.5.4.6.6 1.4.6 2.4 0 .8-.2 1.6-.7 2.4-.5.7-1.1 1.3-2 1.7-.9.4-1.9.5-3.2.5-1.9 0-3.3-.4-4.3-1.3-.8-1-1.4-2.3-1.6-3.9z"/></svg>