<svg xmlns="http://www.w3.org/2000/svg" viewBox="0 0 100 100"><path fill="#FFF" d="M7.49639752 37.05319102v2.75217738h8.4827385c.98022756 0 1.47034134.1885053 1.96045512.67861908.3770106.49011378.3770106.67861908.3770106 2.4505689V57.147856c0 2.67677526-.49011378 3.16688904-2.86528056 3.16688904H13.0761544V42.55754578H7.45869646V63.3685309h10.44319362c2.4505689 0 3.16688904-.1885053 4.3356219-1.39493922 1.09333074-1.09333074 1.28183604-1.885053 1.28183604-4.93883886v-14.8919187c0-1.885053-.1885053-2.56367208-.98022756-3.54389964-.98022756-1.09333074-2.2620636-1.58344452-4.03401342-1.58344452H7.49639752v.03770106zm17.75719926 26.35304094h5.24044734V49.9846546c0-.98022756 0-1.28183604.1885053-1.58344452.30160848-.67861908 1.09333074-1.09333074 2.0735583-1.09333074.90482544 0 1.47034134.1885053 2.18666148.67861908v-3.9586113c-5.80596324.11310318-7.69101624.49011378-9.65147136 2.0735583v17.30478654zm13.68548478-27.03166002c-1.65884664 0-2.94068268 1.28183604-2.94068268 2.86528056 0 1.65884664 1.28183604 2.94068268 2.94068268 2.94068268 1.58344452 0 2.86528056-1.28183604 2.86528056-2.94068268 0-1.58344452-1.28183604-2.86528056-2.86528056-2.86528056zm7.01239716 0c-1.65884664 0-2.94068268 1.28183604-2.94068268 2.86528056 0 1.65884664 1.28183604 2.94068268 2.94068268 2.94068268 1.58344452 0 2.86528056-1.28183604 2.86528056-2.94068268 0-1.58344452-1.28183604-2.86528056-2.86528056-2.86528056zm-2.14896042 14.7034134h-4.5241272c-1.77194982 0-2.56367208.1885053-3.46849752 1.09333074-.98022756.79172226-1.47034134 1.96045512-1.47034134 3.54389964v3.05378586c0 1.39493922.30160848 2.37516678 1.09333074 3.24229116.98022756 1.09333074 1.885053 1.39493922 3.9586113 1.39493922h9.76457454v-14.7034134c0-1.28183604-.3770106-2.37516678-1.28183604-3.24229116-1.09333074-1.09333074-1.96045512-1.39493922-3.9586113-1.39493922h-7.9172226v3.9586113c1.96045512-.79172226 3.24229116-1.09333074 5.01424098-1.09333074 1.885053 0 2.75217738.60321696 2.75217738 1.885053v2.2620636zm0 9.27446076h-2.2620636c-.90482544 0-1.58344452-.30160848-1.96045512-.98022756-.1885053-.30160848-.1885053-.3770106-.1885053-1.28183604v-1.77194982c0-1.47034134.67861908-2.18666148 2.18666148-2.18666148h2.2620636v6.2206749zm20.99949042-16.17375474h-9.27446076c-1.77194982 0-2.4505689.1885053-3.46849752.98022756-.98022756.90482544-1.47034134 2.18666148-1.47034134 3.65700282v2.86528056c0 1.16873286.3770106 2.37516678 1.16873286 3.24229116.98022756 1.09333074 1.77194982 1.39493922 3.73240494 1.39493922h4.22251872c1.885053 0 2.67677526-.30160848 3.54389964-.98022756.98022756-.90482544 1.47034134-2.0735583 1.47034134-3.65700282v-7.50251094zm-9.27446076 4.9011378c0-1.28183604.79172226-2.0735583 2.2620636-2.0735583 1.47034134 0 2.2620636.79172226 2.2620636 2.0735583v2.2620636c0 1.28183604-.90482544 2.0735583-2.2620636 2.0735583-1.47034134 0-2.2620636-.79172226-2.2620636-2.0735583v-2.2620636zm9.65147136 12.6298551c0-1.47034134-.30160848-2.4505689-1.09333074-3.35539434-.98022756-1.09333074-2.0735583-1.39493922-4.1471166-1.39493922h-4.3356219c-1.96045512 0-2.75217738.1885053-3.73240494.98022756-.98022756.90482544-1.58344452 2.2620636-1.58344452 3.73240494v2.86528056c0 1.39493922.49011378 2.56367208 1.28183604 3.35539434.98022756 1.09333074 1.885053 1.39493922 4.03401342 1.39493922h4.3356219c1.885053 0 2.75217738-.1885053 3.73240494-.98022756.98022756-.90482544 1.47034134-1.96045512 1.47034134-3.73240494v-2.86528056h.03770106zm-9.65147136.49011378c0-1.47034134.67861908-2.2620636 2.18666148-2.2620636 1.47034134 0 2.2620636.79172226 2.2620636 2.2620636v2.18666148c0 1.28183604-.79172226 2.0735583-2.18666148 2.0735583-1.47034134 0-2.2620636-.79172226-2.2620636-2.0735583v-2.18666148zm25.6367208-5.91906642v-7.50251094c0-3.16688904-1.65884664-4.63723038-5.24044734-4.63723038h-4.3356219c-1.885053 0-2.67677526.1885053-3.65700282.98022756-.98022756.90482544-1.58344452 2.18666148-1.58344452 3.65700282v9.95307984c0 1.39493922.3770106 2.37516678 1.28183604 3.35539434.98022756.98022756 1.885053 1.28183604 3.9586113 1.28183604h9.46296606v-3.9586113c-2.67677526.79172226-4.22251872.98022756-6.2206749.98022756-2.2620636 0-3.24229116-.49011378-3.24229116-1.77194982v-2.37516678h9.57606924v.03770106zm-9.57606924-3.05378586v-3.9586113c0-1.47034134.67861908-2.2620636 2.18666148-2.2620636 1.39493922 0 2.18666148.79172226 2.18666148 2.18666148v4.03401342h-4.37332296zm11.23491588 10.1792862h5.24044734V49.9846546c0-.98022756 0-1.28183604.1885053-1.58344452.30160848-.67861908 1.09333074-1.09333074 2.0735583-1.09333074.90482544 0 1.47034134.1885053 2.18666148.67861908v-3.9586113c-5.80596324.11310318-7.69101624.49011378-9.65147136 2.0735583v17.30478654z"/></svg>