<svg xmlns="http://www.w3.org/2000/svg" viewBox="0 0 100 100"><g fill="#FFF"><path d="M53.974 59.408c-4.5 0-9.1-3.6-9.1-9.1 0-5.8 4.7-9.2 9.1-9.2 4.9 0 9.2 3.8 9.2 9.1 0 3.8-2.2 6-2.2 6 .9 1.1 1.8 1.6 3.1 1.6.1 0 .2.1.2.2v1.5c0 .1-.1.2-.2.2-4.1 0-4.4-3.2-6.7-3.9-.3-.1-.4-.3 0-.5 0 0 .6-.4 1.3-.4.3 0 .7.1.7.1s2-1.8 2-4.9c0-3.9-3.4-7.2-7.2-7.2-4.3 0-7.3 3.6-7.3 7.2 0 4.4 3.7 7.3 7.3 7.3.7 0 1.2-.2 1.7-.2.7 0 1.3.5 1.7 1.1.1.2 0 .3-.4.4-.1.2-1.3.7-3.2.7zM2.766 32.193a.313.313 0 0 0-.291.29v34.742c0 .145.145.291.29.291h34.742a.313.313 0 0 0 .29-.291V32.484a.313.313 0 0 0-.29-.291H2.766zm1.31 1.552h32.17v32.17H4.075v-32.17z"/><path d="M20.185 58.491c-4.804 0-8.88-3.979-8.88-8.88 0-4.512 3.59-8.879 8.928-8.879 4.707 0 8.831 3.785 8.831 8.88 0 3.542-2.135 5.725-2.135 5.725.68.777 1.407 1.456 2.717 1.456.146 0 .243.048.243.242v1.65c0 .146-.097.243-.243.243-2.135 0-3.396-1.165-4.56-2.572-.583-.582-1.408-1.261-2.039-1.407-.34-.097-.388-.291-.194-.485.389-.388.874-.582 1.553-.582l.825.145a6.633 6.633 0 0 0 1.65-4.367c0-3.59-2.863-6.744-6.696-6.744-3.64 0-6.745 2.96-6.745 6.744 0 3.3 2.669 6.696 6.89 6.696.291 0 .777-.048 1.02-.048.873 0 1.455.436 2.037 1.213.146.145.146.34-.194.436-.63.243-1.795.534-3.008.534zM72.474 59.108c.1.3.3.2.4 0l8.3-17.6c.1-.1 0-.2-.1-.2h-1.8c-.1 0-.2.1-.3.3l-6.3 13.3-6.3-13.4c-.1-.2-.1-.3-.3-.3h-1.7c-.2 0-.2.1-.1.2l8.2 17.7zM91.374 59.408c-5 0-9.2-3.9-9.2-9.3 0-5.1 4.1-9.1 9.1-9.1 3.7 0 6 2.2 6 2.2.2.2.3.3.1.6l-.9.9c-.2.2-.3.2-.5 0 0 0-1.8-1.7-4.7-1.7-3.8 0-7.2 3.3-7.2 7.2 0 4.2 3.5 7.3 7.3 7.3 2.1 0 3.3-.8 4.5-1.6.2-.2.3-.2.5 0l.9.9c.2.2.2.4 0 .5-1.3.9-3.3 2.1-5.9 2.1z"/></g></svg>