<svg width="400" height="222.5" version="1.1" id="Layer_1" xmlns="http://www.w3.org/2000/svg" x="0" y="0" xml:space="preserve"><style>.st0{fill:#fff}</style><path id="a" class="st0" d="M400 142.6V79.9H253.3v62.6l146.7.1z"/><path d="M113 44.5h-7.7v-9.6H131c13.9 0 21.8 7.1 21.8 18.3 0 11.4-8.3 18.5-21.4 18.5h-6.9v14.4h9v9.6h-28.2v-9.6h7.9V44.5h-.2zm11.4 17.6h7.5c6.4 0 9.8-4 9.8-8.9 0-5-3.7-8.9-9.8-8.9h-7.5v17.8zm39.3-17.6h-6.9v-9.6h24.5c15.2 0 20 9 20 15.8 0 5.6-3.1 10.2-7.3 12.3 6.2 2.5 9.6 8.9 9.6 14.4 0 13.3-10.4 18.7-20.4 18.7H156v-9.6h7.9v-42h-.2zm11.2 41.9h7.1c5.8 0 9.8-3.3 9.8-8.7 0-4.6-3.1-8.7-9.8-8.7h-7.1v17.4zm0-27h6.8c5 0 8.5-2.9 8.5-7.5 0-4.4-3.3-7.3-8.5-7.3h-6.8v14.8zm64.6-15.1c-1.9-.8-4.6-1.6-7.3-1.6-7.5 0-9.8 4.2-9.8 7.7 0 4.4 2.9 5.8 6.4 6.8l6.6 1.7c7.9 2.3 16.8 5.2 16.8 17.7 0 11.6-6.9 19.8-22.4 19.8-6 0-12.2-.8-19.3-3.3v-16h11.2v8c2.9 1.4 6 1.6 9 1.6 6.6 0 9.6-3.5 9.6-8.1 0-3.1-1.6-5.4-8.9-7.5l-6-1.7c-11.2-3.3-14.8-8.1-14.8-17.4 0-9.6 6-18.1 21.2-18.1 6.6 0 13.1 1.2 17.7 3.3v14.4h-10.2v-7.3h.2z" transform="translate(148 46)"/><path d="M222.5 111.2c0 61.4-49.8 111.2-111.2 111.2S0 172.7 0 111.2 49.8 0 111.2 0s111.3 49.8 111.3 111.2"/><path class="st0" d="M111.8 102.2c-6.1 0-11-4.9-11-11s4.9-11 11-11 11 5 11 11c0 6.1-4.9 11-11 11zm8.9-52.3H87c-27.6 0-49.6 18.5-49.6 47.1 0 24.1 16.4 40.4 36.9 43.7v32.4h46.2v-27.4h3.5c7.3 0 13.6-9.2 13.6-16v-18.2h11l-27.9-61.6z"/><path class="st0" d="M158.4 49.9h-18.2l27.6 61.6h-11.4v16.3c0 10.1-6.8 14.4-17.1 14.2v31.1h17.1v-27.4h4.8c5.2 0 10.6-7.8 10.6-16v-18.2h14.1l-27.5-61.6z"/></svg>