<svg xmlns="http://www.w3.org/2000/svg" width="170" height="110"><path fill="#FFF" d="M85.607 106.111c-45.197 0-81.845-22.999-81.845-51.363 0-28.363 36.647-51.363 81.845-51.363s81.848 23 81.848 51.363c0 28.364-36.649 51.363-81.848 51.363"/><path fill="#007CC2" stroke="#007CC2" stroke-width=".311" d="M167.03 54.688c0 28.354-36.543 51.338-81.63 51.338-13.288 0-25.836-2.001-36.926-5.542l14.453-53.866h7.077L63.61 70.641h10.36l7.3-27.447H63.835l5.537-20.852c.693-2.609 3.511-6.54 7.355-6.545 2.274 0 5.102 1.135 5.228 2.588-2.902 0-5.304 2.771-5.304 5.806s2.401 5.537 5.304 5.537c1.869 0 6.141-2.107 5.892-6.804-.156-2.907-1.849-8.632-11.119-8.845-10.766-.233-18.192 9.367-20.847 19.083-1.57 5.78-5.466 19.57-8.794 32.118l-8.506 31.464C17.527 87.459 3.763 72.084 3.763 54.688 3.763 26.339 40.313 3.35 85.4 3.35s81.63 22.989 81.63 51.338zM24.194 70.641l3.389-12.67c17.355.263 20.72-3.932 23.121-14.777 1.687-7.604-2.503-13.466-10.087-13.466H19.898l-.907 3.435h4.549l-9.954 37.479h10.608zm9.954-37.479c5.436-.213 7.533 1.079 5.436 10.031-2.73 11.529-6.043 11.348-11.094 11.348l5.658-21.379zm128.285 14.884c0-3.11-2.325-5.648-5.178-5.648-2.305 0-5.562 1.505-7.888 5.253l1.135-4.457h-14.148l-.907 3.424h3.789l-6.393 24.023h10.359s3.896-14.489 3.865-14.52c1.546-4.483 4.397-9.706 5.233-8.997-.887 4.245 2.198 6.57 4.954 6.57 2.853 0 5.179-2.527 5.179-5.648zm-47.934 9.925h17.462c.132-.457.203-.766.273-1.186 1.926-9.109-2.599-14.909-9.797-14.909-7.792 0-14.99 2.634-17.994 14.909-1.996 8.125 2.351 14.646 10.056 14.914 6.925.232 13.465-1.692 16.728-11.09h-10.613l-.633 2.376c-1.262 4.752-2.954 5.278-4.823 5.278-1.874 0-2.781-2.375-1.996-5.278l1.337-5.014zm1.945-7.387c.78-2.908 2.527-5.41 4.827-5.283 2.25 0 2.776 2.375 1.991 5.283l-.982 3.693h-6.824l.988-3.693zm-15.791 16.627h-8.845l15.233-24.018H84.808l-.908 3.424h8.846L77.761 70.641h21.986l.906-3.43z"/></svg>