<svg xmlns="http://www.w3.org/2000/svg" version="1.0" width="756.496" height="301.535"><g fill="#cb2026"><path d="M712.575 39.104c16.437 6.547 17.733-13.232 17.733-13.232h7.366v63.36h-9.071c-5.73-23.597-29.6-46.24-52.38-53.402-23.871-7.366-54.63-5.73-74.819 8.593-36.42 28.987-42.354 76.592-35.26 120.652 6.206 26.667 22.438 57.563 51.288 66.293 37.102 11.594 76.592 2.455 100.326-28.714 5.116-6.752 11.663-15.618 14.528-32.396h6.41v39.899s-10.912 9.82-18.619 13.708c-35.329 19.916-81.23 20.666-121.81 11.8-34.238-12.959-70.386-42.56-78.093-80.207-9.275-43.173 11.117-81.162 45.97-106.806 39.216-29.6 102.713-29.26 146.43-9.548M368.49 31.601v5.457s-20.937-.342-23.46 8.593c0 0 50.196 111.512 74.75 159.05 4.637-.819 4.978-7.162 7.502-10.777L486.687 73.41c4.501-8.867 6.684-20.257 1.296-27.964-5.798-6.683-20.734-8.252-20.734-8.252l.136-6.411 71.204-.068c.137 3-.273 6.615-.273 6.615s-15.823 1.569-22.302 9.208C498.964 66.658 414.869 245.28 410.23 254.83h-4.365c-18.21-32.942-32.942-67.385-51.152-100.395-14.391-37.307-34.715-72.09-52.38-107.897-4.638-9.344-18.278-9.48-18.278-9.48l.068-5.457h84.367"/><path d="M219.467 210.702s-12.549 17.938-25.712 23.803a263.832 263.832 0 0 1 12.14 6.411s24.69-5.933 36.83-16.641c-14.937-10.367-23.258-13.573-23.258-13.573zm64.52-116.081c12.413 35.67 6.957 79.866-18.21 107.897l-22.37 21.347c19.096 14.937 41.33 26.736 64.042 35.33 13.232 3.683 30.282 8.457 41.468-2.32 1.568-.954 3.478-1.09 5.115-1.159 2.592-.068 5.524.41 5.32 1.91-3.888 5.183-14.255 14.459-20.87 17.528-49.107 26.122-92.415-12.822-132.45-34.238-55.859 16.028-123.925 8.048-163.551-38.398C16.7 173.122 10.084 123.675 27.544 88.142c29.941-56.132 91.87-77.752 153.798-68.34 40.785 9.276 86.277 31.578 102.645 74.819zm-63.02-36.352c-19.369-26.668-49.924-34.034-81.229-30.965-30.214 1.842-58.04 29.805-66.225 57.7-13.709 43.855-9.821 98.963 21.348 133.473 20.256 24.963 54.698 22.166 83.344 20.325 4.092-1.569 10.912-.955 14.868-4.501-9.412-4.502-22.166-10.436-33.01-11.459-6.753-2.66-15.346 1.092-18.21-3.205 5.933-11.595 18.96-14.39 29.94-18.21 18.006-5.184 32.738 4.092 48.015 8.525 30.896-41.945 29.6-109.057 1.16-151.683" fill-rule="evenodd"/></g></svg>