<svg xmlns="http://www.w3.org/2000/svg" viewBox="0 0 90 150"><path d="M16.378 104.293h1.888v4.56h-1.76c0-.814-1.245-3.078-6.372-3.262-5.232-.192-5.762 2.264-3.994 2.786 2.282.668 6.79.53 9.587 1.39 3.689 1.136 4.725 4.928 1.503 6.939-2.893 1.811-7.956 1.597-11.556.407-.651-.215-1.704-.768-1.656-.046v.43H1.84v-4.99h1.945c.023.285-.233 1.39 1.945 2.541 2.523 1.336 7.12 1.398 8.96.438 1.093-.568 1.246-2.395-.723-2.64-2.114-.27-5.465-.469-7.964-1.014-1.776-.384-3.142-.867-3.954-1.873-.618-.768-1.655-3.792 1.921-5.327 4.428-1.904 10.567-.576 11.652.284.442.353.933.237.756-.622m16.185-.738c4.926 0 10.157 2.257 10.053 7.446-.105 5.182-5.288 7.2-10.053 7.2-4.766 0-10.415-2.018-10.52-7.2-.104-5.189 5.706-7.446 10.52-7.446m5.745 7.347c.001-3.432-2.507-5.374-5.826-5.374-3.319 0-5.842 1.942-5.834 5.374 0 3.43 2.604 5.465 5.834 5.373 3.23-.085 5.826-1.965 5.826-5.373m47.638-4.323c-.393.37-5.287 5.912-5.287 5.912v2.97c-.001.323.016.307.385.307h2.026v1.697h-9.282v-1.697s1.872.023 2.258 0c.394-.022.418-.107.426-.307v-2.993s-5.425-5.689-5.48-5.765c-.186-.254-.692-.691-1.576-.707H67.89v-1.719h9.379v1.72h-.965c-.2 0-.49.406-.097.782.386.369 3.182 3.562 3.182 3.562l3.183-3.592c.193-.23.137-.753-.257-.753h-1.166v-1.719h7.667v1.72H87.03c-.579 0-.957.46-1.085.583m-35.824 8.39c0 .868.475.821.884.806h1.849v1.697H44.72v-1.635h1.8c.732-.046.836-.407.86-.807v-8.014c.023-.537.023-.982-.964-1.005h-1.72l-.015-1.758h6.88l9.289 8.221v-5.55c0-.936-.49-.936-.9-.99h-1.728v-1.681h7.875v1.712h-1.896c-.434 0-.635.414-.659.813v10.694h-2.58l-10.84-9.112v6.609M1.64 130.393v-1.052h.972c.37 0 .466-.146.466-.453l-.001-5.059c0-.307-.097-.468-.474-.468h-.908v-1.082h7.2c2.467 0 3.255.553 3.255 2.241 0 1.69-1.11 2.38-3.874 2.38H5.24v1.996c0 .307.088.445.466.445h.988l-.015 1.052zm3.592-4.583H7.98c1.109-.022 1.76-.284 1.76-1.228 0-.89-.643-1.251-1.615-1.251H5.232v2.479m11.62 3.078c0 .307.089.445.466.445h.972v1.06h-5.022v-1.06h.964c.378 0 .466-.139.466-.452v-5.067c0-.307-.089-.507-.466-.507h-.964v-1.059h5.022v1.052h-.972c-.378 0-.466.2-.466.507v5.081m12.52-.998c-.176 1.252-1.68 2.91-4.404 2.91-2.58 0-5.786-1.044-5.842-4.384-.047-3.262 3.022-4.644 5.545-4.598 1.503.03 2.845.522 3.19.852.225.208.507.215.402-.399h.989v2.787h-.925c-.088-1.459-1.856-2.388-3.76-2.157-2.01.23-2.998 1.689-2.998 3.5.001 2.004 1.728 3.37 3.48 3.362 1.149 0 2.957-.322 3.327-1.88h.996m1.382-2.518v-3.086h10.118v3.086h-1.02c.03-2.18-.194-1.973-.981-2.058h-1.969v5.604c0 .315.081.507.458.507h.972v.998h-5.03v-.998h.964c.378 0 .466-.192.466-.507v-5.604H32.78c-.876.085-.989-.06-.989 2.058h-1.037m16.916 5.389c-2.025 0-4.17-.438-4.17-2.948v-3.984c0-.307-.089-.507-.466-.507h-.965v-1.06h5.023v1.052h-.973c-.377 0-.466.2-.466.507v4.115c0 .276-.112 1.888 2.018 1.888 2.386 0 2.611-.99 2.611-1.896l.001-4.099c0-.307-.088-.507-.466-.507h-.964v-1.06h4.259v1.052h-.972c-.234 0-.45.23-.442.845l.023 3.73c0 2.41-1.985 2.872-4.059 2.872m14.819-4.284c.844.192 1.447.36 1.495 1.351v1.175c0 .23.04.575.45.575.434 0 .402-.476.378-.929v-.49h.9v.598c0 1.458-.37 1.865-1.696 1.865-1.125 0-2.21-.337-2.21-1.957v-.89c0-.6-.514-.876-1.487-.876l-2.467.001v1.996c0 .307.09.445.458.445h.965v1.082h-5.022v-1.09h.964c.378 0 .466-.139.466-.445v-5.058c0-.307-.104-.546-.474-.546h-.908v-1.005h7.04c2.467 0 3.287.752 3.27 2.287 0 1.313-1.149 1.728-2.129 1.904m-4.637-.66h2.74c1.053 0 1.624-.468 1.624-1.228 0-.768-.675-1.251-1.52-1.251h-2.844v2.48m12.576 3.56l4.524.015c.876-.078 1.029-.476 1.029-2.05h.972v3.086l-10.126.001v-1.052h.965c.378 0 .466-.146.466-.453v-5.066c0-.315-.09-.514-.466-.514h-.965v-1.06h10.126v3.086h-.972c0-1.573-.153-2.003-1.029-2.088h-4.524v2.44h2.105c.273 0 .45-.1.45-.522v-.844h.94v3.815h-.932v-.844c0-.423-.177-.522-.45-.522h-2.113v2.571m16.457-6.992h.997v2.825h-.924c0-.5-.667-2.042-3.36-2.111-2.756-.077-3.117 1.366-2.072 1.82 1.157.498 3.56.322 5.022.836 1.929.69 2.475 2.978.787 4.199-1.518 1.097-4.17.967-6.058.245-.346-.13-.892-.46-.868-.03v.27h-1.142V127.4h1.021c0 .176-.12.844 1.02 1.535 1.688 1.037 3.328 1.144 4.702.322.627-.383.892-1.466-.386-1.658-1.109-.153-2.86-.276-4.179-.606-.924-.23-1.64-.53-2.073-1.129-.354-.506-.948-2.256 1.013-3.224 2.322-1.151 4.901-.468 6.107.177.281.146.49.14.394-.445m1.872 14.377H1.703v-1.635h87.04zM20.315 148.9v-.821h.852c.37 0 .627-.108.627-.484v-4.744c0-.33-.177-.476-.707-.476h-.772v-.813h4.878v.813h-.747c-.587 0-.787.116-.787.5v5.22h2.177c1.367 0 1.704-.638 1.824-2.35h.98v3.155h-8.325m28.368-6.517h-.305c-.627 0-.908.146-1.15.683l-2.611 5.834h-1.824l-2.62-5.934c-.21-.506-.49-.583-.997-.583h-.37v-.821h4.718v.821h-.828c-.402 0-.57.078-.57.253 0 .177.064.307.129.453l1.655 4.03h.023l1.8-4.03c.08-.192.137-.299.137-.43 0-.2-.249-.276-.642-.276h-.812v-.821h4.267v.821m24.245-.176c2.146 0 2.724 1.45 2.724 3.032 0 1.581-.578 3.024-2.684 3.024-2.145 0-2.756-1.443-2.756-3.024 0-1.582.61-3.032 2.716-3.032m0-.868c-2.893 0-4.814 1.697-4.814 3.9s1.92 3.884 4.814 3.884c2.893 0 4.813-1.681 4.813-3.884s-1.92-3.9-4.813-3.9m8.084 1.62h-.023v4.682c0 .261.192.438.538.438h1.005v.821H78.12v-.821h.932c.41 0 .547-.177.547-.438v-4.859c0-.291-.137-.399-.547-.399h-.932v-.821h3.93l3.881 5.281h.023v-3.946c0-.33-.209-.514-.69-.514h-.812v-.821h4.347v.821h-.787c-.483 0-.668.161-.668.384v6.133h-1.976l-4.356-5.941m-67.214 4.989l3.785.023c.732-.078.86-.43.86-1.85h.812v2.786h-8.47v-.952h.811c.314 0 .386-.123.386-.407v-4.567c0-.276-.072-.46-.386-.46h-.811v-.96h8.47v2.779h-.812c0-1.413-.13-1.804-.86-1.873l-3.785-.001v2.203l1.76-.001c.233 0 .378-.085.378-.468v-.76h.787v3.439h-.78v-.76c0-.384-.152-.468-.377-.468l-1.768-.001v2.318m18.756-.035l3.786.015c.723-.07.86-.43.86-1.843h.811v2.78h-8.47v-.952h.812c.313 0 .385-.13.385-.407v-4.567c0-.284-.071-.46-.385-.46h-.812v-.96h8.47v2.779H37.2c0-1.413-.137-1.804-.86-1.88h-3.785v2.195h1.76c.225 0 .378-.085.378-.469v-.76h.788v3.44h-.788v-.76c0-.385-.146-.477-.378-.477h-1.76v2.319m19.849-.4c0 .277.07.407.386.407h.811v.944h-4.203v-.952h.812c.313 0 .386-.123.386-.399v-4.575c0-.276-.072-.46-.386-.46h-.812v-.952h4.203v.952h-.811c-.314 0-.386.176-.386.452v4.583m13.975.008c0 .276.07.407.385.407h.812v.944h-4.203v-.952h.812c.313 0 .385-.124.385-.4v-4.574c0-.277-.072-.46-.385-.46h-.812v-.953h4.203v.952h-.812c-.313 0-.385.177-.385.453v4.583m-5.088-5.957h.828v2.541h-.771c0-.445-.554-1.835-2.805-1.896-2.306-.068-2.611 1.228-1.736 1.635.965.453 2.974.292 4.203.76 1.616.622 2.074 2.687.66 3.784-1.27.99-3.488.875-5.071.223-.282-.124-.748-.415-.724-.022v.23h-.956v-2.717h.852c0 .153-.097.76.852 1.382 1.414.928 2.788 1.028 3.937.291.523-.345.748-1.328-.321-1.496-.924-.14-2.395-.246-3.496-.546-.78-.207-1.374-.475-1.728-1.02-.305-.461-.795-2.035.836-2.91 1.945-1.036 4.107-.422 5.111.161.233.131.41.131.33-.399m-59.564 2.755v-2.787h8.462v2.787h-.852c.015-1.965-.169-1.781-.828-1.85l-1.647-.001v5.059c0 .276.071.46.386.46h.811v.898H3.858v-.898h.803c.314 0 .394-.184.394-.46v-5.06l-1.64.002c-.73.068-.827-.054-.827 1.85h-.86"/><g fill="#231f20"><path d="M-132.648 117.913l-.066-.017h.066v.017" fill-rule="evenodd"/><path d="M20.718 57.01c-2.105 3.981-1.481 4.273 0 5.79.153.2.216.597.175 1.335V88.77s-5.165 2.446-5.258 2.446l.018-57.778 5.24-2.206.015 23.753c.04 1.263-.103 1.876-.19 2.027M8.757 36.34l4.874-2.043v57.85l-4.894 2.14.02-57.948M1.45 39.494l5.057-2.088v57.718l-5.058 2.313V39.494m85.667-10.741c.066 6.882 1.531 30.104 1.474 30.514l-3.12 1.37s.889-15.178 1.19-30.269c.208-6.288-1.647-27.362-1.647-27.362l3.121-1.37s-1.061 24.471-1.018 27.117m-6.981 3.031c-.264 3.545 1.304 30.644 1.304 30.644-.994.389-3.022 1.312-3.022 1.312s.907-28.61.895-30.739c-.314-6.792-2.004-26.585-2.004-26.585l4.037-1.795s-1 24.431-1.21 27.163m-7.61 7.716c.147 5.261 1.74 25.998 1.74 25.998l-3.385 1.528s.695-21.864.729-29.23c-.155-6.017-2.028-27.974-2.028-27.974 1.32-.764 2.734-1.243 4.131-1.789 0 0-1.375 25.474-1.187 31.467m-7.609 2.826c-.105 2.836 1.908 26.403 1.908 26.403s-3.842 1.674-3.936 1.796c0-.851.938-24.654.938-29.113 0-3.96-1.95-28.265-1.95-28.265l4.227-1.868s-1.078 25.065-1.187 31.047m-7.805 3.641c.054 5.177 1.915 26.266 1.915 26.266l-4.13 1.79h-.077s1.15-25.615.994-29.583c.376-3.94-2.246-27.554-2.246-27.554l4.825-2.197c0 .391-1.55 22.464-1.28 31.278m-7.722-.591c-.077 10.937 2.122 30.09 2.122 30.09l-5.535 2.422s2.354-23.909 2.032-29.792c.102-6.888-2.445-27.047-2.461-27.703 1.756-.908 3.592-1.62 5.407-2.38 0 0-1.642 22.081-1.564 27.363m-7.065-10.453c-1.424 11.812-1.64 24.534.763 36.084l.889 7.776-5.87 2.56-.1.086s-.016-9.713 0-10.051c1.41-10.167 2.735-23.918-.153-35.743V23.63l5.964-2.56-1.493 13.853m-6.224.914c-2.451 13.793-3.153 24.287 0 35.478v10.946l-5.743 2.472.04-18.166c2.24-8.685 2.01-13.608.248-22.507V26.814l5.479-2.29-.024 11.313m-7.747 9.126c-1.634 7.707-2.882 14.58-.155 21.674L28.19 85.8l-5.524 2.395-.012-24.527c-.038-.753.09-1.477.167-1.52 2.042-2.569 2.28-3.83.416-5.918-.31-.38-.597-.488-.57-.953V30.344l5.609-2.442h.095l-.016 17.06"/></g></svg>