<?xml version="1.0" encoding="UTF-8" standalone="no"?>
<svg
   xmlns:dc="http://purl.org/dc/elements/1.1/"
   xmlns:cc="http://creativecommons.org/ns#"
   xmlns:rdf="http://www.w3.org/1999/02/22-rdf-syntax-ns#"
   xmlns:svg="http://www.w3.org/2000/svg"
   xmlns="http://www.w3.org/2000/svg"
   xmlns:sodipodi="http://sodipodi.sourceforge.net/DTD/sodipodi-0.dtd"
   xmlns:inkscape="http://www.inkscape.org/namespaces/inkscape"
   width="447.074"
   height="223.677"
   viewBox="0 0 1000 500.313"
   id="svg2"
   version="1.1"
   inkscape:version="0.91 r13725"
   sodipodi:docname="TriStar_Pictures_present_day_logo.svg">
  <metadata
     id="metadata26">
    <rdf:RDF>
      <cc:Work
         rdf:about="">
        <dc:format>image/svg+xml</dc:format>
        <dc:type
           rdf:resource="http://purl.org/dc/dcmitype/StillImage" />
      </cc:Work>
    </rdf:RDF>
  </metadata>
  <defs
     id="defs24" />
  <sodipodi:namedview
     pagecolor="#ffffff"
     bordercolor="#666666"
     borderopacity="1"
     objecttolerance="10"
     gridtolerance="10"
     guidetolerance="10"
     inkscape:pageopacity="0"
     inkscape:pageshadow="2"
     inkscape:window-width="852"
     inkscape:window-height="480"
     id="namedview22"
     showgrid="false"
     inkscape:zoom="0.65089895"
     inkscape:cx="230.43201"
     inkscape:cy="50.385029"
     inkscape:window-x="0"
     inkscape:window-y="0"
     inkscape:window-maximized="0"
     inkscape:current-layer="svg2" />
  <path
     fill-rule="evenodd"
     clip-rule="evenodd"
     d="M103.419 300.872c2.078-.424 4.75-.424 6.872 0 3.944 14.551 12.726 31.18 25.749 36.65 11.75 4.072 26.723 3.395 35.887-7.254 5.514-6.998 8.525-15.908 6.744-25.537-1.569-7.805-8.526-12.174-14.125-14.465-21.847-8.186-52.219-8.398-59.431-41.359-3.987-19.47 1.272-39.322 14.932-50.564 10.944-9.458 28.252-11.961 41.02-5.174l10.139 5.726c4.327-2.417 7.679-8.526 13.574-5.726-.085 13.149.424 26.724.085 39.578l-6.193.21c-2.461-13.828-11.496-28.633-23.161-34.231-9.757-5.346-21.889-1.953-30.202 4.793-4.072 3.86-6.787 8.994-6.448 15.144-.339 7.253 4.157 13.32 9.417 16.035 15.95 5.599 32.79 8.187 47.764 16.67 14.848 10.266 18.326 29.863 16.715 49.504-1.867 15.271-8.061 30.203-20.149 38.688-14.847 9.883-38.519 10.646-52.177-2.928-5.769 2.461-9.884 12.217-16.967 7.254l-.045-43.014"
     id="path4" />
  <path
     d="M549.292 336.928c-4.878.68-11.156 2.715-15.102-1.781-4.963-15.186-1.23-28.379-5.048-44.117-6.193-17.221-21.507-21.506-34.402-25.918 13.107-2.971 26.47-5.09 36.311-17.434 5.728-6.618 6.278-17.393 4.412-26.343-4.412-18.156-20.446-26.216-35.123-27.192l-81.361-.169v6.702c0 .127 15.187.168 15.102.127v134.851l-.467 1.867c-7.127-.467-11.75.807-18.961 0l-.679-.891-47.849-146.177c-2.419-.17-5.558-.595-7.806.381l-46.534 140.239c-3.098 6.533-9.715 5.557-15.271 6.447v6.236c0 .424 40.256.424 40.341.127v-6.363c-5.854 0-19.853 1.188-16.501-5.516 3.648-14.338 5.811-22.184 8.525-29.99h38.984c4.242 11.24 7.297 23.119 10.436 34.912.127 0-13.787.17-13.914 0l.127 7.467H483.33l.084-6.66h-15.525l-.68-.637v-67.83l.553-.848c6.574-.764 13.361-.594 19.216 1.909 2.927 1.823 5.218 5.599 6.321 9.121 4.665 19.173-1.867 47.425 13.191 62.61 12.387 9.502 31.476 7.678 44.032-.254.254-2.034-.425-3.475-1.23-4.876m-217.443-42.42a1408.878 1408.878 0 0 1 17.052-52.643c6.065 17.222 11.029 35.039 16.501 52.643h-33.553zm135.912-34.486l-.213-.723v-57.69c9.291 0 20.828-1.187 29.609 2.588 2.588 1.655 3.267 4.666 3.352 7.847l.254 36.482c-.678 5.176-3.945 7.72-6.914 9.162-7.805 3.605-17.392 2.376-26.088 2.334z"
     id="path6" />
  <path
     fill-rule="evenodd"
     clip-rule="evenodd"
     d="M240.604 336.971l.042-136.294c-12.09-2.122-23.924 1.655-30.541 14.846-4.412 8.103-6.236 17.478-8.824 26.428h-5.387l2.035-48.572 3.691-.423 115.169.806c1.357 15.738 1.357 32.281 1.909 48.486l-5.048.21c-4.157-15.694-8.61-36.48-24.901-40.806-4.453-.849-9.416-2.122-13.871-1.23l-.763.848v135.871h15.313l-.085 6.363H224.78s.086-6.533 0-6.533h15.824"
     id="path8" />
  <path
     d="M432.977 166.274c-6.362.721-14.678 2.715-19.896-1.655-6.617-14.89-1.611-27.7-6.701-43.057-8.145-16.755-28.209-20.955-45.263-25.281 17.224-2.842 34.827-5.005 47.849-16.926 7.552-6.489 8.23-17.053 5.729-25.748-5.729-17.775-26.81-25.41-46.152-26.47l-107.068-.17v6.575c0 .085 20.107.212 19.895.085v132.476l-20.827.17v7.212h85.603l.127-6.321h-20.446l-.891-.679v-66.132l.637-.891c8.737-.637 17.646-.381 25.409 1.951 3.902 1.697 6.787 5.346 8.188 8.74 6.234 18.875-2.291 46.492 17.477 61.167 16.289 9.206 41.358 7.424 57.945-.21.421-1.993-.512-3.393-1.615-4.836M325.571 91.277l-.212-.637V34.393c12.217 0 27.445-1.189 38.982 2.502 3.31 1.697 4.37 4.539 4.54 7.72l.085 35.547c-.637 4.878-5.091 7.424-9.078 8.823-10.181 3.522-22.822 2.419-34.317 2.292z"
     id="path10" />
  <path
     fill-rule="evenodd"
     clip-rule="evenodd"
     d="M438.958 27.605v6.617h22.101v133.027h-21.38v6.491h84.67v-6.491h-21.295V34.222h21.931v-6.617zM156.189 165.596l.17-132.773c-15.865-2.08-31.518 1.526-40.129 14.507-5.896 7.805-8.441 16.968-11.666 25.622H97.48l2.588-47.214 4.963-.508 151.523.847c1.696 15.271 1.696 31.433 2.502 47.214l-6.744.339c-5.43-15.314-11.283-35.676-32.664-39.875-5.854-.806-12.387-2.122-18.324-1.272l-.891.891v132.349h20.063l-.169 6.235h-84.924v-6.363h20.786"
     id="path12" />
  <path
     d="M733.647 84.532c.552-.552 1.823-1.484 1.484-2.417.934.721.934 3.309 2.503 1.697l1.697-2.546.933 3.436c1.739 0 3.055-1.146 4.242-2.586.339 3.648-5.515 7.083.891 9.119-4.454 2.036-10.266-7.89-15.356-.847-1.441-4.031-5.132-9.121-2.417-13.66l3.309-3.181c-3.648 3.731 1.822 7.293 2.714 10.985M754.475 83.641c-.339 2.842-4.793 3.054-2.673 9.121-1.654 0-4.623-2.969-5.175-4.497-3.012-6.108 5.175-6.958 5.175-13.616 2.885 2.756 3.564 6.404 2.673 8.992M758.378 111.807c-.51-.127-.892.552-1.23.933l5.133 3.267-3.902 1.189c1.102 2.715 4.962 4.368 8.525 4.072-2.206 2.969-5.472 2.756-8.525 3.308 1.441 1.23 3.394 1.23 5.132 1.738-2.248 1.868-5.642 1.357-8.398 2.036 1.23.891 2.757 2.165 5.047 1.697-1.78 1.443-4.326 2.165-6.914 2.375 12.048 16.884 13.235 40.681 5.515 59.897-8.271 14.634-16.798 29.058-15.482 47.51 1.06 1.528 2.417.127 3.69 0 3.647-2.8.382-6.956-.383-10.01 1.57-11.708 5.091-23.755 17.265-30.119l.849-1.57c4.921 13.745-8.865 22.993-5.938 37.585 0 4.412-4.453 7.339-5.515 11.411.34 8.865-2.63 17.688.51 25.325-.34 2.629-.637 6.234-2.928 8.652l-3.859 2.08c-.552-2.588 1.357-7.383-1.613-7.977a11.556 11.556 0 0 0-1.441 6.279c-3.521-2.461-2.121-8.825-1.23-12.473 6.194-4.963.722-13.531 3.012-19.768-1.146 0-1.781.679-3.012.468-1.527-2.844 0-7.255-2.927-9.121-1.442 2.036-.933 5.557-.424 7.805-1.019-.339-2.079-1.399-2.461-2.417-1.061-11.877 6.703-21.719 5.812-33.3-2.629-2.375-7.763-.806-10.605-1.824l-3.689 6.618c-6.363-3.479-3.987-12.048-5.091-19.345l-3.86 3.352c4.794-9.46 2.503-20.488-3.689-28.633 8.95 3.181 5.854 16.713 15.482 20.659 1.994-10.437 16.544-13.703 17.478-24.731 2.799-8.103 2.12-18.623-2.715-25.664-3.648 1.357-5.091 8.95-10.563 5.598l-1.146-1.399c1.527.339 2.758-.169 3.861-1.187.509-2.844-2.885-4.03-1.782-7.084 1.739 2.121 4.2 2.883 4.2 2.883 1.399-2.247 1.95-6.658 6.022-6.235-4.368-10.435 9.758-16.289 4.242-26.299-9.205 5.386-3.181 17.942-8.483 24.729l-1.781 1.57c0-8.357 3.224-15.567 2.715-24.178l-1.825-1.357c3.013-1.909 3.606-5.898 5.897-8.018l.17 2.63c2.375-.51 3.478-3.267 4.156-5.303 1.438 4.499 1.565 10.141 6.698 12.346M729.702 105.657c-1.611.381-3.394-.51-3.394-1.995 1.442-3.52 2.715 1.019 3.394 1.995M728.853 132.127c.849-5.515.509-12.302-3.054-17.859v-3.225c1.825 6.619 8.654 13.872 3.054 21.084M629.804 118.892c-11.793 4.326-27.488 3.562-38.814-1.697 10.563 1.697 24.01 2.715 33.385-2.419 2.12.807 3.647 2.886 5.429 4.116M887.333 118.425c-11.242 5.513-26.428 5.513-38.391 1.739l4.667-4.072c9.46 5.048 23.034 4.072 33.724 2.333M636.718 123.006c-10.224 3.308-21.549 7.849-33.045 4.243 9.715-1.274 19.556-1.953 27.53-7.424 1.782.976 3.691 1.867 5.515 3.181M874.311 128.35c-9.63 2.759-22.44-.72-32.367-4.326 5.09-2.502 5.049-2.461 6.703-3.223 2.545 1.697 5.938 4.072 9.459 5.174l16.205 2.375"
     id="path14" />
  <path
     d="M731.271 141.077l.849.933c-2.079.849-2.969-1.314-3.69-2.417-.509-1.909.424-3.691 2.163-4.2-.552.933-1.145 4.368.678 5.684M671.375 163.516l-5.6-.933c5.43-2.036 11.029-6.321 15.313-11.199-1.441 4.879-5.301 9.334-9.713 12.132M813.057 163.516c-2.674 0-5.558 1.909-7.764 0-3.733-2.969-6.235-7.126-7.975-11.24 4.582 5.048 9.672 9.247 15.739 11.24M738.526 156.094c1.271 7.212-.679 13.66 1.738 20.403-5.981-6.702-2.842-13.787-5.133-21.336.934.762 2.291.381 3.395.933M678.458 170.559l-5.471-.935c5.471-3.054 10.222-8.611 13.531-13.531-1.229 5.303-3.817 10.096-8.06 14.466M804.913 170.559c-.977 1.187-4.242.806-6.024.296-3.69-4.072-5.6-8.95-7.042-13.914 2.503 5.218 8.315 9.842 13.066 13.618M686.858 175.818c-1.569 1.018-4.411 1.018-6.277.425 5.43-3.436 8.78-9.333 11.071-14.89-.891 5.176-1.612 10.393-4.794 14.465M797.319 177.007c-5.091 2.757-7.127-2.546-9.036-5.686l-1.484-9.502c1.782 5.686 5.302 11.328 10.52 15.188M694.621 181.714h-5.09c4.029-5.513 6.574-11.58 8.483-17.9.679 6.702-1.102 12.387-3.393 17.9M788.92 182.31c-8.484 2.925-6.533-6.958-8.484-10.988v-6.702c2.12 6.235 3.69 12.514 8.484 17.69M703.062 187.356h-5.048c3.14-6.023 5.77-12.386 5.77-19.852 2.121 6.703.466 12.641-.722 19.852M780.436 188.248h-5.09c-1.613-6.023-3.183-13.616-1.23-19.47 1.399 6.744 1.569 13.954 6.32 19.47M722.83 231.855c9.715 4.029 4.624 15.015 6.023 22.737 2.8 7.422 6.278 15.016 6.617 22.693 4.964 4.541 5.134 11.242 5.134 17.096-1.272.975-.721 2.799-2.418 3.563-2.885-.508-3.395-3.563-4.327-5.598-.17-.764.424-2.248-.849-2.08h-1.188c-.552 1.697.722 4.752 2.036 7.086-2.757 0-5.769-2.504-6.235-5.006-1.315-7.043.467-14.297-1.315-20.744 1.146-8.357-2.969-15.61-6.32-22.695-.339-10.986-2.036-21.167-7.169-30.117-1.823-5.938-3.605-12.386-2.121-19.046 4.37 10.264 11.326 20.149 12.132 32.111M733.859 233.934c-1.145.976-2.588 1.484-4.157 1.357-2.248-1.909-2.587-4.37-3.055-7 2.376-.425 3.055-2.927 3.945-4.708v-2.036c4.2 2.587 4.031 8.102 3.267 12.387"
     id="path16" />
  <path
     fill-rule="evenodd"
     clip-rule="evenodd"
     d="M777.382 19.036l12.217 3.479 112.242.254c0 11.707.211 35.293.041 35.93 1.612.467 8.484-5.813 8.484-5.813-9.247 14.805-27.233 22.229-41.613 28.082 21.974-1.993 43.649-15.525 54.594-35.972-6.787 24.094-33.342 36.396-54.933 42.929 20.531.17 39.746-9.417 53.15-23.501-10.222 18.58-31.56 26.257-50.775 30.542 18.707.722 35.335-5.726 48.316-19.045-11.794 18.623-32.282 23.542-52.474 26.003 5.6 2.715 12.047.295 18.325.508 10.138-2.249 19.895-6.192 28.761-12.046-13.234 15.1-32.536 18.621-52.092 19.428 13.277 4.072 27.488 0 39.323-4.455v237.678H576.992v-239.12c11.92 4.709 26.13 8.696 39.831 4.709-19.64-.891-38.813-4.37-51.666-19.385 13.276 8.907 29.396 14.465 46.534 12.005v-.51c-20.276-2.12-40.215-8.357-52.389-26.003 13.022 13.364 30.33 20.151 49.292 18.92-20.021-3.649-41.571-11.496-51.922-31.349 13.956 15.441 32.578 24.265 53.406 24.434-21.931-6.023-47.595-19.639-54.976-42.886 10.394 18.835 32.239 33.767 54 35.845-13.999-6.321-29.523-13.87-38.856-27.361 2.078 1.401 4.623 4.243 7.084 5.134l.085-35.337h114.363c12.471 0 5.727-7.295 28.888-18.833 20.107-7.171 44.753-2.972 56.716 15.736m5.174 13.15c.849-1.824 0-3.733-.891-5.259 9.375 1.23 19.005 7.549 25.367 16.501 3.521 6.192 5.854 12.852 6.66 20.105 2.163-1.697-.297-3.816.509-6.192 9.885 1.06 18.919 8.272 22.397 17.391 0 .552-.127 1.018.34 1.189-.34-8.06-5.388-16.333-13.022-21.04l-10.859-3.733c-2.334-7.085-5.346-13.914-10.605-19.768l89.802-.127.255 33.511c-18.537 10.691-39.662 15.144-62.611 15.314-17.562 1.697-32.748 17.137-38.856 32.662-8.653 11.497-20.658 18.877-33.002 22.993 18.027-.339 32.578-13.405 44.71-27.106 12.386-23.035 40.213-22.058 63.078-26.47 3.055 12.514-2.248 24.688-11.411 32.664 12.514 2.417 26.64 1.272 37.584-3.818v62.739c-5.26-2.758-12.047-3.012-18.198-2.885-6.108-14.209-20.573-26.003-37.202-25.579-5.472-2.629-9.332-8.145-10.563-13.66 7.254 6.787 15.865 11.03 25.367 10.859-6.66-2.544-13.023-7.549-17.266-13.787 8.104 5.728 18.029 8.188 28.21 7.595-7.933-2.419-15.271-6.533-21.804-12.048-13.616 6.362-28.379 9.629-43.735 11.496 2.079 9.544 11.624 18.833 21.678 21.167l.339-.467c-7.424-3.945-10.732-12.089-12.684-19.428 5.472 5.344 13.786 14.719 22.906 14.932-7.041-3.436-10.223-10.435-12.387-17.01 6.576 6.829 15.483 14.422 26.3 12.427 11.454 3.183 22.695 13.66 25.453 25.283l-4.667 3.564c8.484-3.31 20.107-3.012 27.913 2.969L892 333.663H585.985V179.934c4.793-3.862 10.52-6.577 17.137-6.577 5.218.808 12.217 3.013 12.217 3.013.17-1.399-3.181-3.013-4.581-3.479 1.527-9.204 9.163-17.986 17.816-22.693 7.678-5.727 19.556-1.442 26.3-9.758l7.169-6.744c-2.63 6.617-6.023 13.829-13.234 17.393 8.95-1.359 17.985-7.212 23.288-15.696-1.357 7.889-4.793 15.696-12.684 20.149 9.671-1.146 19.046-10.859 22.525-19.81l-1.697-1.188c-14.932-2.078-29.313-5.09-42.335-11.538-6.192 5.896-13.956 9.714-22.058 11.921 10.393 1.357 19.938-1.528 28.039-6.916-3.394 5.388-9.587 10.732-16.205 13.024 10.012 1.441 17.816-4.582 24.943-10.649-1.697 7.637-8.738 14.721-16.84 15.781-14.126 1.187-25.028 12.004-30.501 24.392-6.49-.764-13.234.679-19.004 3.181v-63.926c11.454 4.072 24.646 6.404 37.669 4.072-9.502-8.527-13.362-20.405-11.453-32.663 20.064 3.181 42.717 3.774 57.987 18.579 11.623 16.714 29.101 35.334 50.183 35.124-18.113-4.963-35.632-21.337-42.208-38.687-18.028-26.132-52.006-12.218-76.143-24.816-5.26-2.756-11.538-4.326-16.035-8.186V31.38h90.863c-5.43 5.854-8.271 12.683-10.521 19.768-8.44 2.29-17.434 7.805-21.506 16.204-.552 3.267-2.418 6.49-1.825 9.841 3.055-9.671 9.715-18.071 20.32-19.852h1.696c-.637 1.612-.637 3.816 0 5.345h.467c1.018-13.958 11.029-28.931 24.985-34.529l6.362-2.121c.509 1.738-2.333 4.326-1.314 6.575 7.635-13.235 21.549-23.967 36.905-25.071 20.576-1.399 40.512 5.939 49.844 24.646z"
     id="path18" />
</svg>
