<svg xmlns="http://www.w3.org/2000/svg" width="190" height="101" version="1.0"><g clip-path="url(#id3043)" transform="matrix(11.62843 0 0 -11.62843 -8593.377 1703.747)" fill="#72cdf4"><path d="M750.936 145.945c-.373.356-.876.55-1.389.569a2.364 2.364 0 0 1-1.447-.428 2.703 2.703 0 0 1-.845-1.024c-.239.212-.487.417-.787.538-.278.113-.616.165-.899.038a.682.682 0 0 1-.31-.274.696.696 0 0 1-.085-.415.59.59 0 0 1 .175-.358c.105-.102.238-.169.371-.223.154-.063.314-.108.472-.156.152-.046.302-.094.45-.15.286-.108.567-.251.788-.466.446-.43.589-1.084.515-1.684a2.16 2.16 0 0 0-.122-.495l-.046-.111-.012-.029s.036-.039.052-.054a2.37 2.37 0 0 1 .837-.535 2.29 2.29 0 0 1 1.536-.042c.279.095.541.251.746.463v-.492h1.695l-.001 5.818h-1.694v-.49zm-1.13-3.873c-.264 0-.515.106-.712.279a1.49 1.49 0 0 0-.435.708c-.159.549-.03 1.195.385 1.602.194.191.45.31.724.319.274.008.545-.094.753-.271.363-.308.529-.809.506-1.275-.024-.469-.245-.946-.654-1.199a1.071 1.071 0 0 0-.567-.163m-5.172.942a3.022 3.022 0 0 0-.234.103 2.191 2.191 0 0 0-.407.259 1.63 1.63 0 0 0-.495.717 2.288 2.288 0 0 0-.12.899c.019.323.106.642.266.924.126.221.292.419.487.582h-1.707l-.003-2.518v-.537c0-.167-.003-.333-.024-.499-.036-.294-.131-.636-.408-.791a.858.858 0 0 0-.443-.092.735.735 0 0 0-.429.139c-.242.186-.319.521-.346.81-.015.161-.015.322-.015.482v.538l-.001 2.468-1.756.001s.001-2.396-.002-3.114c-.001-.348.005-.7.077-1.042.063-.303.176-.598.35-.854.169-.248.396-.45.657-.598.28-.158.594-.25.911-.296.32-.047.648-.053.969-.026.307.027.613.089.898.208.27.112.517.276.715.492.189.206.332.452.427.714l.022.064c.209-.206.438-.397.701-.531.258-.132.561-.211.851-.159a.738.738 0 0 1 .387.188.659.659 0 0 1 .144.745.69.69 0 0 1-.24.266 1.915 1.915 0 0 1-.483.213c-.185.06-.463.141-.53.164a5.533 5.533 0 0 0-.219.081M745.977 139.122h.359v-.179c.082.106.188.203.37.203.271 0 .429-.179.429-.469v-.819h-.358v.705c0 .17-.08.257-.217.257s-.224-.087-.224-.257v-.705h-.359v1.264zM747.315 138.483v.005c0 .361.257.658.625.658.422 0 .615-.328.615-.687a1.65 1.65 0 0 0-.004-.094h-.88c.035-.163.148-.247.309-.247.12 0 .207.037.306.129l.206-.181a.63.63 0 0 0-.517-.236c-.38 0-.66.266-.66.653m.891.106c-.021.161-.115.269-.266.269-.149 0-.246-.106-.274-.269h.54zM748.821 138.216v.6h-.151v.306h.151v.323h.358v-.323h.298v-.306h-.298v-.54c0-.083.036-.123.116-.123.066 0 .125.016.177.045v-.288a.529.529 0 0 0-.283-.073c-.219 0-.368.087-.368.379M749.661 139.122h.364l.203-.766.238.771h.309l.24-.774.208.769h.356l-.394-1.273h-.323l-.243.776-.248-.776h-.32l-.39 1.273zM751.611 138.483v.005c0 .363.292.658.686.658.392 0 .682-.29.682-.654v-.004c0-.363-.293-.658-.687-.658-.391 0-.681.29-.681.653m1.014 0v.005c0 .186-.135.349-.333.349-.205 0-.328-.158-.328-.345v-.004c0-.186.135-.349.333-.349.205 0 .328.158.328.344M753.162 139.122h.358v-.254c.073.174.191.287.404.278v-.375h-.019c-.238 0-.385-.144-.385-.446v-.467h-.358v1.264zM754.112 139.58h.359v-.918l.42.46h.429l-.481-.497.498-.767h-.411l-.33.517-.125-.133v-.384h-.359v1.722z"/></g></svg>